<svg width="330" height="321" viewBox="0 0 330 321" fill="none" xmlns="http://www.w3.org/2000/svg">
<g clip-path="url(#clip0_261_7902)">
<path d="M281.277 6.29257L253.015 0.685581C252.106 0.436382 251.197 0.249482 250.257 0.124883C247.751 -0.186617 245.15 0.0314328 242.549 0.872481L61.1307 58.4998C46.9368 63.0166 38.1949 77.1898 40.5762 91.7991L48.9735 143.165L54.1748 174.938C18.0164 184.034 -5.60875 219.576 1.15919 256.894C5.45182 280.505 21.1497 299.413 41.6102 308.945C41.6102 308.945 41.6415 308.945 41.6729 308.976C44.7748 310.409 47.9708 311.624 51.2608 312.621C63.1987 316.608 84.9439 322.246 109.509 320.72L78.5519 315.331C79.9932 315.206 81.4345 315.019 82.9072 314.801C122.387 308.727 149.271 271.846 142.879 232.69L125.677 127.31C124.925 122.638 127.714 118.09 132.257 116.657L189.22 98.5586C194.829 96.7831 200.72 100.365 201.66 106.128L208.804 149.894C172.676 159.021 149.051 194.532 155.819 231.849C159.924 254.495 174.525 272.811 193.764 282.655C193.764 282.655 221.149 300.317 269.12 294.897L237.599 289.788C277.078 283.683 303.931 246.832 297.539 207.708L268.336 28.8451L266.08 15.1391C265.798 13.5194 265.328 11.9619 264.67 10.529L281.246 6.23027L281.277 6.29257Z" fill="url(#paint0_linear_261_7902)"/>
<path d="M299.858 34.0469L297.602 20.3409C295.816 9.40729 284.693 2.64776 274.102 6.01195L92.6522 63.6082C78.4583 68.1249 69.7163 82.2981 72.0977 96.9074L80.4949 148.274L85.6962 180.047C49.5692 189.174 25.944 224.684 32.712 262.002C39.6053 300.005 76.077 325.859 114.491 319.941C153.971 313.867 180.855 276.985 174.463 237.83L157.261 132.45C156.509 127.777 159.298 123.229 163.841 121.796L220.804 103.698C226.413 101.923 232.304 105.505 233.244 111.268L240.388 155.033C204.261 164.16 180.635 199.671 187.403 236.989C194.297 274.992 230.768 300.846 269.183 294.928C308.662 288.853 335.546 251.972 329.154 212.816L299.952 33.9534L299.858 34.0469Z" fill="#FBFB79"/>
<path d="M269.183 287.296C252.576 289.85 235.844 285.894 222.058 276.113C208.271 266.332 199.028 251.909 196.051 235.493C193.137 219.42 196.459 203.066 205.357 189.392C214.193 175.81 227.729 166.154 243.427 162.198L250.195 160.484L241.923 109.866C240.388 100.521 231.52 94.1662 222.152 95.6926C221.306 95.8172 220.46 96.0352 219.645 96.2844L162.682 114.383C154.598 116.937 149.553 125.16 150.9 133.477L168.102 238.858C173.774 273.652 149.929 306.546 114.961 312.185L114.491 312.247C97.8849 314.801 81.153 310.845 67.3664 301.064C53.5799 291.283 44.3366 276.861 41.36 260.445C38.446 244.371 41.7673 228.017 50.6659 214.343C59.5018 200.761 73.0377 191.105 88.7356 187.149L95.5036 185.436L80.8083 95.4745C79.0224 84.6343 85.6336 73.9499 96.1616 70.5857L277.674 12.9895C278.175 12.8338 278.708 12.7092 279.241 12.6157C284.975 11.6812 290.427 15.6061 291.367 21.3377L322.825 213.907C325.582 230.759 321.572 247.673 311.514 261.504C301.487 275.365 286.604 284.492 269.653 287.233L269.183 287.296Z" fill="url(#paint1_linear_261_7902)"/>
<path d="M271.689 274.711C258.248 276.798 244.618 273.559 233.4 265.584C222.183 257.641 214.663 245.898 212.251 232.534C209.869 219.451 212.564 206.15 219.833 195.03C227.04 183.971 238.038 176.122 250.79 172.913L268.18 168.521L258.154 107.125C255.584 91.3004 240.544 80.5225 224.659 83.108C223.249 83.326 221.807 83.6687 220.429 84.1048L163.465 102.203C149.804 106.533 141.219 120.457 143.506 134.537L160.708 239.917C165.345 268.232 145.919 294.99 117.468 299.6L117.029 299.662C103.588 301.749 89.9576 298.51 78.7404 290.535C67.5231 282.592 60.0032 270.849 57.5905 257.485C55.2092 244.402 57.9039 231.101 65.1732 219.981C72.3798 208.923 83.3777 201.073 96.1302 197.864L113.52 193.472L97.0702 92.7333C96.2556 87.7493 99.4202 82.6407 104.246 81.1144L277.235 26.1659C280.87 25.0134 284.693 27.3496 285.319 31.0876L315.242 214.405C317.467 228.017 314.428 242.035 306.438 253.28C298.26 264.774 286.071 272.375 272.097 274.618L271.658 274.68L271.689 274.711Z" fill="url(#paint2_linear_261_7902)"/>
</g>
<defs>
<linearGradient id="paint0_linear_261_7902" x1="148.396" y1="195.62" x2="146.762" y2="128.921" gradientUnits="userSpaceOnUse">
<stop offset="0.34" stop-color="#4D67FF"/>
<stop offset="0.37" stop-color="#536AFC"/>
<stop offset="0.41" stop-color="#6572F5"/>
<stop offset="0.46" stop-color="#8380E9"/>
<stop offset="0.52" stop-color="#AD93D9"/>
<stop offset="0.57" stop-color="#E2ABC5"/>
<stop offset="0.6" stop-color="#FDB8BB"/>
<stop offset="0.68" stop-color="#FCE29D"/>
<stop offset="1" stop-color="#FFA710"/>
</linearGradient>
<linearGradient id="paint1_linear_261_7902" x1="144.94" y1="32.1406" x2="175.814" y2="190.008" gradientUnits="userSpaceOnUse">
<stop offset="0.17" stop-color="#4D67FF"/>
<stop offset="0.22" stop-color="#536AFC"/>
<stop offset="0.3" stop-color="#6572F5"/>
<stop offset="0.39" stop-color="#8380E9"/>
<stop offset="0.49" stop-color="#AD93D9"/>
<stop offset="0.6" stop-color="#E2ABC5"/>
<stop offset="0.64" stop-color="#FDB8BB"/>
<stop offset="0.68" stop-color="#FCE29D"/>
<stop offset="0.8" stop-color="#FFA710"/>
</linearGradient>
<linearGradient id="paint2_linear_261_7902" x1="142.791" y1="3.42286" x2="210.794" y2="341.191" gradientUnits="userSpaceOnUse">
<stop offset="0.17" stop-color="#4D67FF"/>
<stop offset="0.22" stop-color="#536AFC"/>
<stop offset="0.3" stop-color="#6572F5"/>
<stop offset="0.39" stop-color="#8380E9"/>
<stop offset="0.49" stop-color="#AD93D9"/>
<stop offset="0.6" stop-color="#E2ABC5"/>
<stop offset="0.64" stop-color="#FDB8BB"/>
<stop offset="0.68" stop-color="#FCE29D"/>
<stop offset="0.8" stop-color="#FFA710"/>
</linearGradient>
<clipPath id="clip0_261_7902">
<rect width="330" height="321" fill="white"/>
</clipPath>
</defs>
</svg>
