<svg width="383" height="660" viewBox="0 0 383 660" fill="none" xmlns="http://www.w3.org/2000/svg">
<g clip-path="url(#clip0_261_7907)">
<path d="M76.8272 608.641C105.949 639.226 153.535 646.794 153.535 646.794C153.601 646.79 158.326 647.215 158.392 647.227C158.457 647.223 158.523 647.235 158.59 647.248C158.655 647.244 158.721 647.256 158.804 647.267C158.869 647.263 158.935 647.275 159 647.271C159.066 647.267 159.132 647.279 159.198 647.291C159.263 647.287 159.329 647.3 159.396 647.312C159.461 647.308 159.527 647.32 159.609 647.315C159.674 647.311 159.74 647.323 159.806 647.335C159.872 647.331 159.938 647.343 160.003 647.339C160.068 647.335 160.135 647.347 160.217 647.359C160.282 647.355 160.349 647.367 160.415 647.379C160.48 647.375 160.546 647.387 160.613 647.399C160.678 647.395 160.744 647.408 160.827 647.419C160.892 647.415 160.958 647.427 161.023 647.423C161.089 647.419 161.155 647.431 161.221 647.443C161.286 647.439 161.353 647.451 161.419 647.464C161.484 647.459 161.55 647.472 161.632 647.467C161.697 647.463 161.763 647.475 161.83 647.487C161.895 647.483 161.961 647.495 162.026 647.491C162.091 647.487 162.158 647.499 162.24 647.51C162.306 647.506 162.372 647.519 162.438 647.531C162.503 647.527 162.569 647.539 162.636 647.551C162.701 647.547 162.767 647.559 162.85 647.57C162.915 647.566 162.981 647.579 163.046 647.575C163.112 647.571 163.178 647.583 163.244 647.595C163.309 647.591 163.376 647.603 163.441 647.599C163.506 647.595 163.572 647.607 163.655 647.618C163.72 647.614 163.786 647.627 163.853 647.639C163.918 647.635 163.984 647.647 164.049 647.643C164.115 647.639 164.181 647.651 164.263 647.662C164.329 647.658 164.395 647.67 164.461 647.683C164.526 647.679 164.593 647.691 164.659 647.703C164.724 647.699 164.79 647.711 164.873 647.722C164.938 647.718 165.004 647.731 165.07 647.726C165.135 647.722 165.201 647.735 165.267 647.747C165.332 647.743 165.399 647.755 165.464 647.751C165.529 647.747 165.595 647.759 165.678 647.77C165.743 647.766 165.809 647.778 165.876 647.791C165.941 647.787 166.007 647.799 166.072 647.795C166.138 647.791 166.204 647.803 166.286 647.814C166.352 647.81 166.418 647.822 166.484 647.834C166.549 647.83 166.616 647.843 166.682 647.855C166.747 647.851 166.813 647.863 166.895 647.858C166.96 647.854 167.026 647.866 167.093 647.878C167.158 647.874 167.224 647.886 167.289 647.882C167.355 647.878 167.421 647.89 167.503 647.902C167.569 647.898 167.635 647.91 167.701 647.922C167.766 647.918 167.833 647.93 167.899 647.942C167.965 647.955 168.03 647.951 168.097 647.963C168.162 647.959 168.228 647.971 168.31 647.966C168.375 647.962 168.441 647.974 168.507 647.986C168.572 647.982 168.639 647.994 168.704 647.99C168.769 647.986 168.835 647.998 168.918 648.01C168.983 648.006 169.049 648.018 169.116 648.03C169.181 648.026 169.247 648.038 169.312 648.034C169.378 648.03 169.444 648.042 169.526 648.054C169.592 648.049 169.658 648.062 169.724 648.074C169.789 648.07 169.856 648.082 169.922 648.094C169.987 648.09 170.053 648.102 170.12 648.115C170.185 648.111 170.251 648.123 170.333 648.118C170.398 648.114 170.464 648.126 170.53 648.138C170.596 648.134 170.662 648.146 170.727 648.142C170.792 648.138 170.859 648.15 170.941 648.162C171.006 648.157 171.073 648.17 171.139 648.182C171.204 648.178 171.27 648.19 171.336 648.186C171.401 648.182 171.467 648.194 171.55 648.205C171.615 648.201 171.681 648.213 171.746 648.209C171.811 648.205 171.878 648.218 171.944 648.23C172.009 648.226 172.075 648.238 172.142 648.25C172.207 648.246 172.273 648.258 172.356 648.269C172.421 648.265 172.487 648.278 172.553 648.29C172.619 648.286 172.685 648.298 172.75 648.294C172.815 648.29 172.882 648.302 172.964 648.313C173.029 648.309 173.096 648.321 173.162 648.334C173.227 648.33 173.293 648.342 173.36 648.354C173.425 648.35 173.491 648.362 173.573 648.357C173.638 648.353 173.704 648.365 173.77 648.377C173.836 648.373 173.902 648.386 173.968 648.398C174.034 648.41 174.1 648.406 174.166 648.418C174.231 648.414 174.297 648.426 174.38 648.438C174.445 648.433 174.511 648.446 174.578 648.458C174.643 648.454 174.709 648.466 174.774 648.462C174.839 648.458 174.906 648.47 174.988 648.481C175.054 648.477 175.12 648.49 175.186 648.502C175.251 648.498 175.317 648.51 175.384 648.522C175.449 648.518 175.515 648.53 175.597 648.525C175.662 648.521 175.728 648.533 175.794 648.546C175.86 648.541 175.926 648.554 175.991 648.55C176.056 648.546 176.123 648.558 176.189 648.57C176.254 648.566 176.32 648.578 176.402 648.573C176.467 648.569 176.533 648.581 176.6 648.593C176.665 648.589 176.731 648.602 176.797 648.614C176.863 648.61 176.929 648.622 177.01 648.617C177.076 648.613 177.142 648.625 177.208 648.637C177.273 648.633 177.34 648.645 177.406 648.658C177.471 648.654 177.537 648.666 177.62 648.677C177.685 648.673 177.751 648.685 177.818 648.697C177.883 648.693 177.949 648.706 178.014 648.701C178.079 648.697 178.146 648.71 178.212 648.722C178.277 648.718 178.343 648.73 178.425 648.725C178.49 648.721 178.556 648.733 178.623 648.745C178.688 648.741 178.754 648.753 178.819 648.749C178.885 648.745 178.951 648.758 179.033 648.769C179.099 648.765 179.165 648.777 179.231 648.789C179.296 648.785 179.363 648.797 179.429 648.809C179.494 648.805 179.56 648.818 179.643 648.829C179.708 648.825 179.774 648.837 179.841 648.849C179.906 648.845 179.972 648.857 180.037 648.853C180.103 648.849 180.169 648.861 180.251 648.873C180.317 648.869 180.383 648.881 180.448 648.877C180.513 648.873 180.58 648.885 180.646 648.897C180.711 648.893 180.777 648.905 180.843 648.901C180.908 648.897 180.974 648.909 181.057 648.921C181.122 648.916 181.188 648.929 181.254 648.941C181.319 648.937 181.386 648.949 181.452 648.961C181.517 648.957 181.583 648.969 181.666 648.981C181.731 648.977 181.797 648.989 181.864 649.001C181.929 648.997 181.995 649.009 182.061 649.021C182.127 649.017 182.193 649.029 182.274 649.024C182.34 649.02 182.406 649.033 182.471 649.029C182.536 649.024 182.603 649.037 182.669 649.049C182.735 649.061 182.8 649.057 182.866 649.053C182.931 649.049 182.997 649.061 183.08 649.072C183.145 649.068 183.211 649.08 183.277 649.093C183.343 649.089 183.409 649.101 183.475 649.113C183.54 649.109 183.607 649.121 183.689 649.132C183.754 649.128 183.821 649.141 183.887 649.153C183.952 649.149 184.018 649.161 184.085 649.173C184.15 649.169 184.216 649.181 184.298 649.176C184.363 649.172 184.429 649.184 184.494 649.18C184.559 649.176 184.626 649.188 184.692 649.201C184.757 649.197 184.823 649.209 184.889 649.205C184.954 649.201 185.02 649.213 185.103 649.224C185.168 649.22 185.234 649.232 185.3 649.245C185.366 649.24 185.432 649.253 185.498 649.265C185.563 649.261 185.63 649.273 185.712 649.284C185.777 649.28 185.844 649.292 185.91 649.305C185.975 649.301 186.041 649.313 186.108 649.325C186.173 649.321 186.239 649.333 186.321 649.328C186.386 649.324 186.452 649.336 186.518 649.348C186.584 649.344 186.65 649.357 186.715 649.352C186.78 649.348 186.847 649.361 186.913 649.373C186.978 649.369 187.044 649.381 187.126 649.376C187.191 649.372 187.257 649.384 187.324 649.396C187.389 649.392 187.455 649.404 187.52 649.4C187.585 649.396 187.652 649.409 187.734 649.42C187.799 649.416 187.866 649.428 187.932 649.44C187.997 649.436 188.063 649.448 188.129 649.444C188.194 649.44 188.26 649.452 188.343 649.464C188.408 649.46 188.474 649.472 188.54 649.484C188.606 649.48 188.672 649.492 188.737 649.488C188.802 649.484 188.869 649.496 188.935 649.508C189 649.504 189.066 649.517 189.148 649.511C189.213 649.507 189.279 649.52 189.346 649.532C189.411 649.528 189.477 649.54 189.542 649.536C189.608 649.532 189.674 649.544 189.756 649.555C189.822 649.551 189.888 649.563 189.954 649.576C190.019 649.572 190.086 649.584 190.151 649.58C190.216 649.576 190.282 649.588 190.365 649.599C190.43 649.595 190.496 649.607 190.563 649.619C190.628 649.615 190.694 649.628 190.759 649.624C190.824 649.62 190.891 649.632 190.957 649.644C191.022 649.64 191.088 649.652 191.171 649.663C191.236 649.659 191.302 649.671 191.369 649.684C191.434 649.68 191.5 649.692 191.565 649.688C191.631 649.684 191.697 649.696 191.779 649.707C191.845 649.703 191.911 649.715 191.977 649.728C192.042 649.723 192.109 649.736 192.175 649.748C192.24 649.744 192.306 649.756 192.388 649.751C192.453 649.747 192.519 649.759 192.586 649.771C192.651 649.767 192.717 649.779 192.782 649.775C192.848 649.771 192.914 649.784 192.996 649.795C193.062 649.791 193.128 649.803 193.193 649.799C193.258 649.795 193.325 649.807 193.391 649.819C193.457 649.831 193.522 649.827 193.587 649.823C193.653 649.819 193.719 649.832 193.802 649.843C193.867 649.839 193.933 649.851 193.999 649.863C194.064 649.859 194.131 649.871 194.197 649.883C194.262 649.879 194.328 649.892 194.41 649.886C194.475 649.882 194.541 649.895 194.608 649.907C194.673 649.903 194.739 649.915 194.804 649.911C194.87 649.907 194.936 649.919 195.018 649.93C195.084 649.926 195.15 649.938 195.216 649.951C195.281 649.947 195.348 649.959 195.414 649.971C195.48 649.983 195.545 649.979 195.612 649.991C195.677 649.987 195.743 650 195.825 649.995C195.89 649.99 195.956 650.003 196.022 650.015C196.088 650.011 196.154 650.023 196.22 650.035C196.285 650.031 196.352 650.043 196.434 650.055C196.499 650.051 196.566 650.063 196.632 650.075C196.697 650.071 196.763 650.083 196.829 650.079C196.894 650.075 196.96 650.087 197.043 650.098C197.108 650.094 197.174 650.107 197.24 650.119C197.305 650.115 197.372 650.127 197.438 650.139C197.504 650.151 197.569 650.147 197.636 650.159C197.701 650.155 197.767 650.168 197.849 650.163C197.914 650.159 197.98 650.171 198.046 650.183C198.112 650.179 198.178 650.191 198.244 650.203C198.309 650.199 198.376 650.211 198.458 650.223C198.523 650.219 198.59 650.231 198.656 650.243C198.721 650.239 198.787 650.251 198.853 650.247C198.918 650.243 198.984 650.255 199.067 650.266C199.132 650.262 199.198 650.275 199.264 650.287C199.33 650.283 199.396 650.295 199.462 650.307C199.528 650.319 199.594 650.315 199.659 650.311C199.724 650.307 199.79 650.319 199.873 650.331C199.938 650.327 200.004 650.339 200.071 650.351C200.136 650.347 200.202 650.359 200.267 650.355C200.332 650.351 200.399 650.363 200.481 650.374C200.546 650.37 200.613 650.383 200.679 650.395C200.744 650.391 200.81 650.403 200.877 650.415C200.942 650.411 201.008 650.423 201.09 650.418C201.155 650.414 201.221 650.426 201.287 650.439C201.353 650.435 201.419 650.447 201.485 650.459C201.55 650.455 201.617 650.467 201.682 650.463C201.747 650.459 201.813 650.471 201.896 650.482C201.961 650.478 202.027 650.491 202.094 650.503C202.159 650.499 202.225 650.511 202.291 650.523C202.357 650.519 202.423 650.531 202.505 650.542C202.571 650.538 202.637 650.551 202.703 650.563C202.768 650.559 202.835 650.571 202.901 650.583C202.901 650.583 202.901 650.583 202.917 650.582C202.917 650.582 203.016 650.592 203.098 650.587C259.731 648.299 296.057 606.284 296.057 606.284C322.957 575.161 326.392 540.258 327.043 530.432C327.862 518.035 328.511 480.712 302.936 446.336C277.218 411.772 241.093 401.846 223.921 397.382C211.209 394.093 121.691 370.874 69.6269 432.066C22.0937 487.921 41.4897 572.603 76.5311 609.41L76.8272 608.641Z" fill="url(#paint0_linear_261_7907)"/>
<path d="M167.447 642.302C235.726 635.642 285.61 574.349 278.866 505.4C272.123 436.45 211.305 385.954 143.027 392.614C74.7481 399.273 24.8642 460.566 31.6079 529.516C38.3515 598.465 99.1689 648.961 167.447 642.302Z" fill="url(#paint1_linear_261_7907)"/>
<path d="M167.877 577.121L111.299 567.021C106.245 566.119 101.412 569.47 100.504 574.505L100.426 574.938C99.5184 579.973 102.879 584.786 107.933 585.688L164.511 595.788C169.564 596.691 174.397 593.34 175.305 588.305L175.383 587.872C176.291 582.837 172.93 578.024 167.877 577.121Z" fill="#FDB8BB"/>
<path d="M182.85 432.378L143.062 425.276C141.179 424.939 139.379 426.188 139.04 428.064C138.702 429.94 139.954 431.733 141.837 432.069L181.625 439.172C183.508 439.508 185.308 438.26 185.647 436.384C185.985 434.508 184.733 432.715 182.85 432.378Z" fill="#FDB8BB"/>
<path d="M146.638 432.33L122.084 574.684" stroke="#FBFB79" stroke-width="1.27" stroke-miterlimit="10"/>
<path d="M161.838 435.09L137.284 577.444" stroke="#FBFB79" stroke-width="1.27" stroke-miterlimit="10"/>
<path d="M177.464 437.595L152.91 579.948" stroke="#FBFB79" stroke-width="1.27" stroke-miterlimit="10"/>
<path d="M344.151 20.6173L324.057 20.7707C302.812 15.5806 281.582 10.357 260.353 5.14968L260.351 5.11719C260.351 5.11719 260.451 5.14361 260.484 5.14159L260.482 5.1091C260.482 5.1091 260.581 5.13552 260.614 5.1335L260.613 5.11725C260.613 5.11725 260.713 5.14368 260.746 5.14166L260.743 5.10916C260.743 5.10916 260.843 5.13559 260.876 5.13357L260.874 5.10107C260.874 5.10107 260.974 5.1275 261.006 5.12548L261.004 5.09298C261.004 5.09298 261.104 5.11941 261.137 5.11739L261.135 5.08489C261.135 5.08489 261.235 5.11132 261.267 5.1093L261.265 5.0768C261.265 5.0768 261.365 5.10323 261.398 5.10121L261.396 5.06871C261.396 5.06871 261.479 5.09615 261.528 5.09311L261.526 5.06062C261.526 5.06062 261.61 5.08806 261.659 5.08502L261.657 5.05253C261.657 5.05253 261.74 5.07997 261.789 5.07693L261.787 5.04444C261.787 5.04444 261.871 5.07188 261.92 5.06884L261.918 5.03635C261.918 5.03635 262.001 5.06379 262.05 5.06075L262.048 5.02826C262.048 5.02826 262.132 5.0557 262.181 5.05266L262.179 5.02017C262.179 5.02017 262.262 5.04761 262.311 5.04457L262.309 5.01208C262.309 5.01208 262.393 5.03952 262.442 5.03648L262.44 5.00399C262.44 5.00399 262.523 5.03143 262.572 5.02839L262.57 4.9959C262.57 4.9959 262.654 5.02334 262.703 5.0203L262.701 4.98781C262.701 4.98781 262.784 5.01524 262.833 5.01221L262.831 4.97972C262.831 4.97972 262.915 5.00715 262.963 5.00412L262.961 4.97163C262.961 4.97163 263.045 4.99906 263.094 4.99603L263.092 4.96354C263.092 4.96354 263.175 4.99097 263.224 4.98794L263.222 4.95545C263.222 4.95545 263.306 4.98288 263.355 4.97985C263.355 4.97985 263.355 4.97985 263.353 4.94736C263.402 4.94432 263.453 4.97378 263.502 4.97075C263.502 4.97075 263.502 4.97075 263.5 4.93825C263.549 4.93522 263.6 4.96468 263.648 4.96165C263.648 4.96165 263.648 4.96165 263.646 4.92915C263.695 4.92612 263.746 4.95558 263.795 4.95254C263.795 4.95254 263.795 4.95254 263.793 4.92005C263.842 4.91702 263.893 4.94648 263.942 4.94344C263.942 4.94344 263.942 4.94344 263.94 4.91095C263.989 4.90792 264.04 4.93738 264.089 4.93434C264.089 4.93434 264.089 4.93434 264.087 4.90185C264.136 4.89881 264.187 4.92827 264.236 4.92524C264.236 4.92524 264.236 4.92524 264.234 4.89275C264.282 4.88971 264.333 4.91917 264.382 4.91614C264.382 4.91614 264.382 4.91614 264.38 4.88364C264.429 4.88061 264.48 4.91007 264.529 4.90704C264.529 4.90704 264.529 4.90704 264.527 4.87454C264.576 4.87151 264.627 4.90097 264.676 4.89794C264.676 4.89794 264.676 4.89794 264.674 4.86544C264.723 4.86241 264.774 4.89187 264.823 4.88883C264.823 4.88883 264.823 4.88883 264.821 4.85634C264.87 4.85331 264.921 4.88277 264.969 4.87973C264.969 4.87973 264.969 4.87973 264.967 4.84724C265.016 4.8442 265.067 4.87366 265.116 4.87063C265.116 4.87063 265.116 4.87063 265.114 4.83814C265.163 4.8351 265.214 4.86456 265.263 4.86153C265.263 4.86153 265.263 4.86153 265.261 4.82904C265.31 4.826 265.361 4.85546 265.41 4.85243C265.41 4.85243 265.41 4.85243 265.408 4.81993C265.457 4.8169 265.508 4.84636 265.54 4.84434L265.538 4.81184C265.538 4.81184 265.638 4.83827 265.671 4.83625L265.669 4.80375C265.669 4.80375 265.769 4.83018 265.801 4.82816L265.799 4.79566C265.799 4.79566 265.899 4.82209 265.932 4.82007L265.93 4.78757C265.93 4.78757 266.03 4.814 266.062 4.81197L266.06 4.77948C266.06 4.77948 266.16 4.80591 266.193 4.80388L266.191 4.77139C266.191 4.77139 266.29 4.79782 266.323 4.79579L266.321 4.7633C266.321 4.7633 266.421 4.78973 266.454 4.7877L266.452 4.75521C266.452 4.75521 266.551 4.78164 266.584 4.77961L266.582 4.74712C266.582 4.74712 266.682 4.77355 266.714 4.77152L266.712 4.73903C266.712 4.73903 266.812 4.76546 266.845 4.76343L266.843 4.73094C266.843 4.73094 266.943 4.75737 266.975 4.75534L266.973 4.72285C266.973 4.72285 267.073 4.74927 267.106 4.74725L267.104 4.71476C267.104 4.71476 267.204 4.74118 267.236 4.73916L267.234 4.70667C267.234 4.70667 267.334 4.73309 267.367 4.73107L267.365 4.69858C267.365 4.69858 267.465 4.725 267.497 4.72298L267.495 4.69049C267.495 4.69049 267.595 4.71691 267.628 4.71489L267.626 4.6824C267.626 4.6824 267.726 4.70882 267.758 4.7068L267.756 4.67431C267.756 4.67431 267.856 4.70073 267.889 4.69871L267.887 4.66622C267.887 4.66622 267.987 4.69264 268.019 4.69062L268.017 4.65813C268.017 4.65813 268.117 4.68455 268.15 4.68253L268.148 4.65004C268.148 4.65004 268.247 4.67646 268.28 4.67444L268.278 4.64194C268.278 4.64194 268.378 4.66837 268.411 4.66635L268.409 4.63385C268.409 4.63385 268.508 4.66028 268.541 4.65826L268.539 4.62576C268.539 4.62576 268.639 4.65219 268.672 4.65017L268.67 4.61767C268.67 4.61767 268.769 4.6441 268.802 4.64208L268.8 4.60958C268.8 4.60958 268.9 4.63601 268.932 4.63399L268.93 4.60149C268.93 4.60149 269.03 4.62792 269.063 4.6259L269.061 4.5934C269.061 4.5934 269.161 4.61983 269.193 4.61781L269.191 4.58531C269.191 4.58531 269.291 4.61174 269.324 4.60972L269.322 4.57722C269.322 4.57722 269.422 4.60365 269.454 4.60163L269.452 4.56913C269.452 4.56913 269.552 4.59556 269.585 4.59353L269.583 4.56104C269.583 4.56104 269.683 4.58747 269.715 4.58544L269.713 4.55295C269.713 4.55295 269.813 4.57938 269.846 4.57735L269.844 4.54486C269.844 4.54486 269.944 4.57129 269.976 4.56926L269.974 4.53677C269.974 4.53677 270.074 4.5632 270.107 4.56117L270.105 4.52868C270.105 4.52868 270.205 4.55511 270.237 4.55308L270.235 4.52059C270.235 4.52059 270.335 4.54702 270.368 4.54499L270.366 4.5125C270.366 4.5125 270.465 4.53892 270.498 4.5369L270.496 4.50441C270.496 4.50441 270.596 4.53083 270.629 4.52881L270.627 4.49632C270.627 4.49632 270.726 4.52274 270.759 4.52072L270.757 4.48823C270.757 4.48823 270.857 4.51465 270.889 4.51263L270.887 4.48014C270.887 4.48014 270.987 4.50656 271.02 4.50454L271.018 4.47205C271.018 4.47205 271.118 4.49847 271.15 4.49645L271.148 4.46396C271.148 4.46396 271.232 4.49139 271.281 4.48836L271.279 4.45587C271.279 4.45587 271.362 4.4833 271.411 4.48027L271.409 4.44778C271.409 4.44778 271.493 4.47521 271.542 4.47218L271.54 4.43969C271.54 4.43969 271.623 4.46712 271.672 4.46409L271.67 4.4316C271.67 4.4316 271.754 4.45903 271.803 4.456L271.801 4.4235C271.801 4.4235 271.884 4.45094 271.933 4.44791L271.931 4.41541C271.931 4.41541 272.015 4.44285 272.064 4.43982L272.062 4.40732C272.062 4.40732 272.145 4.43476 272.194 4.43173L272.192 4.39923C272.192 4.39923 272.276 4.42667 272.325 4.42364L272.323 4.39114C272.323 4.39114 272.406 4.41858 272.455 4.41555L272.453 4.38305C272.453 4.38305 272.537 4.41049 272.586 4.40746L272.584 4.37496C272.584 4.37496 272.667 4.4024 272.716 4.39937L272.714 4.36687C272.714 4.36687 272.798 4.39431 272.847 4.39128L272.845 4.35878C272.845 4.35878 272.928 4.38622 272.977 4.38319L272.975 4.35069C272.975 4.35069 273.059 4.37813 273.107 4.37509C273.107 4.37509 273.107 4.37509 273.105 4.3426C273.154 4.33957 273.205 4.36903 273.254 4.36599C273.254 4.36599 273.254 4.36599 273.252 4.3335C273.301 4.33047 273.352 4.35993 273.401 4.35689C273.401 4.35689 273.401 4.35689 273.399 4.3244C273.448 4.32136 273.499 4.35082 273.548 4.34779C273.548 4.34779 273.548 4.34779 273.546 4.3153C273.595 4.31226 273.646 4.34172 273.695 4.33869C273.695 4.33869 273.695 4.33869 273.693 4.30619C273.741 4.30316 273.792 4.33262 273.841 4.32959C273.841 4.32959 273.841 4.32959 273.839 4.29709C273.888 4.29406 273.939 4.32352 273.988 4.32049C273.988 4.32049 273.988 4.32049 273.986 4.28799C274.035 4.28496 274.086 4.31442 274.135 4.31138C274.135 4.31138 274.135 4.31138 274.133 4.27889C274.182 4.27586 274.233 4.30532 274.282 4.30228C274.282 4.30228 274.282 4.30228 274.28 4.26979C274.329 4.26676 274.38 4.29621 274.428 4.29318C274.428 4.29318 274.428 4.29318 274.426 4.26069C274.475 4.25765 274.526 4.28711 274.575 4.28408C274.575 4.28408 274.575 4.28408 274.573 4.25158C274.622 4.24855 274.673 4.27801 274.722 4.27498C274.722 4.27498 274.722 4.27498 274.72 4.24248C274.769 4.23945 274.82 4.26891 274.869 4.26588C274.869 4.26588 274.869 4.26588 274.867 4.23338C274.916 4.23035 274.967 4.25981 275.016 4.25677C275.016 4.25677 275.016 4.25677 275.014 4.22428C275.062 4.22125 275.113 4.25071 275.162 4.24767C275.162 4.24767 275.162 4.24767 275.16 4.21518C275.209 4.21214 275.26 4.2416 275.293 4.23958L275.291 4.20709C275.291 4.20709 275.391 4.23351 275.423 4.23149L275.421 4.199C275.421 4.199 275.521 4.22542 275.554 4.2234L275.552 4.19091C275.552 4.19091 275.652 4.21733 275.684 4.21531L275.682 4.18282C275.682 4.18282 275.782 4.20924 275.815 4.20722L275.813 4.17473C275.813 4.17473 275.913 4.20115 275.945 4.19913L275.943 4.16664C275.943 4.16664 276.043 4.19306 276.076 4.19104L276.074 4.15855C276.074 4.15855 276.173 4.18497 276.206 4.18295L276.204 4.15046C276.204 4.15046 276.304 4.17688 276.337 4.17486L276.335 4.14236C276.335 4.14236 276.434 4.16879 276.467 4.16677L276.465 4.13427C276.465 4.13427 276.565 4.1607 276.598 4.15868L276.596 4.12618C276.596 4.12618 276.695 4.15261 276.728 4.15059L276.726 4.11809C276.726 4.11809 276.826 4.14452 276.858 4.1425L276.856 4.11C276.856 4.11 276.956 4.13643 276.989 4.13441L276.987 4.10191C276.987 4.10191 277.087 4.12834 277.119 4.12632L277.117 4.09382C277.117 4.09382 277.217 4.12025 277.25 4.11823L277.248 4.08573C277.248 4.08573 277.348 4.11216 277.38 4.11014L277.378 4.07764C277.378 4.07764 277.478 4.10407 277.511 4.10205L277.509 4.06955C277.509 4.06955 277.609 4.09598 277.641 4.09395L277.639 4.06146C277.639 4.06146 277.739 4.08789 277.772 4.08586L277.77 4.05337C277.77 4.05337 277.87 4.0798 277.902 4.07778L277.9 4.04528C277.9 4.04528 278 4.07171 278.033 4.06968L278.031 4.03719C278.031 4.03719 278.131 4.06362 278.163 4.06159L278.161 4.0291C278.161 4.0291 278.261 4.05553 278.294 4.0535L278.292 4.02101C278.292 4.02101 278.391 4.04744 278.424 4.04541L278.422 4.01292C278.422 4.01292 278.522 4.03934 278.555 4.03732L278.553 4.00483C278.553 4.00483 278.652 4.03125 278.685 4.02923L278.683 3.99674C278.683 3.99674 278.783 4.02316 278.815 4.02114L278.813 3.98865C278.813 3.98865 278.913 4.01507 278.946 4.01305L278.944 3.98056C278.944 3.98056 279.044 4.00698 279.076 4.00496L279.074 3.97247C279.074 3.97247 279.174 3.99889 279.207 3.99687L279.205 3.96438C279.205 3.96438 279.305 3.9908 279.337 3.98878L279.335 3.95629C279.335 3.95629 279.435 3.98271 279.468 3.98069L279.466 3.9482C279.466 3.9482 279.566 3.97462 279.598 3.9726L279.596 3.94011C279.596 3.94011 279.696 3.96653 279.729 3.96451L279.727 3.93202C279.727 3.93202 279.827 3.95844 279.859 3.95642L279.857 3.92392C279.857 3.92392 279.957 3.95035 279.99 3.94833L279.988 3.91584C279.988 3.91584 280.088 3.94226 280.12 3.94024L280.118 3.90775C280.118 3.90775 280.218 3.93417 280.251 3.93215L280.249 3.89965C301.527 9.10395 322.807 14.3407 344.068 19.546L344.151 20.6173Z" fill="url(#paint2_linear_261_7907)"/>
<path d="M344.152 20.6173C340.264 26.3057 334.971 34.4135 330.177 43.42C316.304 69.4619 320.795 79.0506 314.013 83.7279C311.611 85.3936 308.038 86.1207 304.06 86.1228L284.179 86.2792C288.073 86.2497 291.547 85.5124 293.918 83.8812C300.701 79.2039 296.211 69.6315 310.082 43.5733C314.892 34.5496 320.169 26.4428 324.073 20.7697L344.168 20.6163L344.152 20.6173Z" fill="url(#paint3_linear_261_7907)"/>
<path d="M324.057 20.7705C320.153 26.4599 314.877 34.5667 310.065 43.5742C296.193 69.6161 300.684 79.2048 293.902 83.8821C291.531 85.5133 288.057 86.2506 284.162 86.2801C283.753 86.2891 283.311 86.2839 282.884 86.2615C282.326 86.2471 281.735 86.2185 281.159 86.1727C280.847 86.1594 280.535 86.1299 280.237 86.0831C279.595 86.0251 278.935 85.9355 278.273 85.8298C276.506 85.5805 274.731 85.2014 272.997 84.7054C272.481 84.558 271.981 84.4259 271.463 84.246C270.912 84.0844 270.394 83.9046 269.858 83.7095C269.338 83.5134 268.802 83.3183 268.298 83.1049C266.098 82.2139 264.051 81.1502 262.306 79.9374C261.895 79.6529 261.484 79.3523 261.105 79.0496C259.952 78.1425 258.991 77.1746 258.241 76.161C257.937 75.7558 257.683 75.3475 257.461 74.9372C253.794 68.0701 261.028 62.2394 261.465 33.8993C261.623 22.9948 260.894 12.5531 260.22 5.10892C260.252 5.1069 260.32 5.13535 260.352 5.13333C281.581 10.3407 302.81 15.548 324.056 20.7543L324.057 20.7705Z" fill="url(#paint4_linear_261_7907)"/>
<path d="M269.145 102.836C282.067 108.721 290.614 111.127 290.193 112.523C289.879 113.521 285.372 112.92 278.669 112.014C274.476 111.459 271.63 110.967 266.101 109.711" fill="url(#paint5_linear_261_7907)"/>
<path d="M270.892 108.305C274.07 109.136 277.23 109.935 280.306 110.69C283.048 111.351 287.137 112.337 289.874 112.918C290.587 113.069 291.099 112.075 290.4 111.63C284.873 108.303 279.203 105.05 273.489 101.881" fill="url(#paint6_linear_261_7907)"/>
<path d="M260.173 122.898C246.318 120.185 237.995 117.179 237.524 118.562C237.192 119.544 241.187 121.662 247.129 124.816C250.837 126.788 253.42 128.047 258.629 130.219" fill="url(#paint7_linear_261_7907)"/>
<path d="M255.571 126.299C252.519 125.134 249.515 123.95 246.577 122.779C243.975 121.733 240.096 120.164 237.538 119.05C236.865 118.749 237.043 117.662 237.864 117.709C244.265 118.225 250.739 118.868 257.22 119.624" fill="url(#paint8_linear_261_7907)"/>
<path d="M267.84 78.0938L184.512 394.949C183.983 396.972 185.046 399.075 186.995 399.867L189.967 401.069C190.79 401.41 191.71 401.467 192.565 401.251C192.565 401.251 196.025 401.607 197.028 400.631C224.644 295.24 253.258 186.95 280.873 81.5587C279.493 78.0399 278.112 74.5212 276.733 71.0186C276.733 71.0186 267.885 78.0258 267.857 78.1091L267.84 78.0938Z" fill="url(#paint9_linear_261_7907)"/>
<path d="M219.184 87.0801C218.156 90.0306 229.023 97.3646 230.291 98.0199C230.511 98.1367 232.319 99.0358 233.228 99.4361C233.698 99.6353 234.219 99.8476 234.773 100.074C237.875 101.252 241.155 101.864 244.392 102.593C247.213 103.201 251.181 104.357 253.998 105.161C256.314 105.817 258.331 106.393 260.13 106.901L264.788 105.715L261.223 104.452C260.721 104.288 260.205 104.14 259.703 103.976C259.703 103.976 258.885 103.717 258.2 103.498C256.513 102.95 245.307 89.0972 244.348 87.8846C225.16 84.4425 219.81 85.2962 219.17 87.1136L219.184 87.0801Z" fill="url(#paint10_linear_261_7907)"/>
<path d="M229.682 93.1976C232.729 95.08 236.93 97.6246 243.014 99.6286C244.518 100.122 243.536 100.134 251.441 101.944C253.915 102.508 257.386 103.565 259.839 104.31C260.84 104.607 261.855 104.87 262.888 105.165L264.719 105.654L267.728 98.2102C264.952 96.7351 262.161 95.2935 259.389 93.8834C255.488 91.9562 251.902 89.3081 247.871 87.6662C241.304 84.9909 235.787 84.7296 232.735 84.6253C229.782 84.5148 222.167 84.2205 221.597 86.3761C221.171 87.9519 224.729 90.1613 229.716 93.2281L229.682 93.1976Z" fill="url(#paint11_linear_261_7907)"/>
<path d="M312.461 141.086C311.566 144.077 298.447 143.717 297.043 143.51C296.795 143.477 294.811 143.159 293.815 142.944C293.3 142.829 292.768 142.699 292.187 142.555C288.975 141.711 285.94 140.301 282.897 139.005C280.238 137.849 276.356 136.491 273.594 135.505C271.333 134.699 269.358 133.99 267.599 133.348L264.506 129.675L268.14 130.722C268.641 130.886 269.143 131.051 269.644 131.216C269.644 131.216 270.462 131.475 271.147 131.693C272.834 132.225 290.057 127.487 291.555 127.084C309.149 135.453 313.002 139.242 312.445 141.087L312.461 141.086Z" fill="url(#paint12_linear_261_7907)"/>
<path d="M300.358 139.945C296.79 139.693 291.872 139.329 285.761 137.409C284.242 136.932 285.048 137.518 277.569 134.394C275.216 133.414 271.788 132.257 269.363 131.429C268.375 131.082 267.387 130.72 266.398 130.341L264.621 129.684L266.561 121.882C269.68 122.292 272.803 122.751 275.877 123.213C280.177 123.925 284.625 123.844 288.88 124.869C295.776 126.513 300.398 129.504 302.959 131.205C305.418 132.83 311.767 137.019 310.98 139.107C310.388 140.644 306.227 140.347 300.374 139.944L300.358 139.945Z" fill="url(#paint13_linear_261_7907)"/>
<path d="M247.438 155.654L261.113 159.699" stroke="url(#paint14_linear_261_7907)" stroke-width="1.64" stroke-miterlimit="10" stroke-linecap="square"/>
<path d="M216.197 274.399L230.187 277.968" stroke="url(#paint15_linear_261_7907)" stroke-width="1.64" stroke-miterlimit="10" stroke-linecap="square"/>
<path d="M211.896 290.828L225.901 294.396" stroke="url(#paint16_linear_261_7907)" stroke-width="1.64" stroke-miterlimit="10" stroke-linecap="square"/>
<path d="M207.549 307.342L221.497 311.288" stroke="url(#paint17_linear_261_7907)" stroke-width="1.64" stroke-miterlimit="10" stroke-linecap="square"/>
<path d="M202.868 325.312L216.837 329.077" stroke="url(#paint18_linear_261_7907)" stroke-width="1.64" stroke-miterlimit="10" stroke-linecap="square"/>
<path d="M198.375 342.095L212.42 345.758" stroke="url(#paint19_linear_261_7907)" stroke-width="1.64" stroke-miterlimit="10" stroke-linecap="square"/>
<path d="M193.853 359.452L207.759 362.993" stroke="url(#paint20_linear_261_7907)" stroke-width="1.64" stroke-miterlimit="10" stroke-linecap="square"/>
</g>
<defs>
<linearGradient id="paint0_linear_261_7907" x1="157.765" y1="680.085" x2="206.289" y2="393.228" gradientUnits="userSpaceOnUse">
<stop stop-color="#4D67FF"/>
<stop offset="0.07" stop-color="#536AFC"/>
<stop offset="0.17" stop-color="#6572F5"/>
<stop offset="0.28" stop-color="#8380E9"/>
<stop offset="0.41" stop-color="#AD93D9"/>
<stop offset="0.54" stop-color="#E2ABC5"/>
<stop offset="0.6" stop-color="#FDB8BB"/>
<stop offset="0.68" stop-color="#FCE29D"/>
<stop offset="1" stop-color="#FFA710"/>
</linearGradient>
<linearGradient id="paint1_linear_261_7907" x1="167.879" y1="394.917" x2="143.905" y2="630.001" gradientUnits="userSpaceOnUse">
<stop stop-color="#4D67FF"/>
<stop offset="0.07" stop-color="#536AFC"/>
<stop offset="0.17" stop-color="#6572F5"/>
<stop offset="0.28" stop-color="#8380E9"/>
<stop offset="0.41" stop-color="#AD93D9"/>
<stop offset="0.54" stop-color="#E2ABC5"/>
<stop offset="0.6" stop-color="#FDB8BB"/>
<stop offset="0.68" stop-color="#FCE29D"/>
<stop offset="1" stop-color="#FFA710"/>
</linearGradient>
<linearGradient id="paint2_linear_261_7907" x1="269.364" y1="2.58981" x2="328.357" y2="21.2837" gradientUnits="userSpaceOnUse">
<stop stop-color="#FCE29D"/>
<stop offset="0.28" stop-color="#FDB8BB"/>
<stop offset="0.35" stop-color="#E2ABC5"/>
<stop offset="0.51" stop-color="#AD93D9"/>
<stop offset="0.67" stop-color="#8380E9"/>
<stop offset="0.8" stop-color="#6572F5"/>
<stop offset="0.92" stop-color="#536AFC"/>
<stop offset="1" stop-color="#4D67FF"/>
</linearGradient>
<linearGradient id="paint3_linear_261_7907" x1="305.966" y1="78.9978" x2="328.774" y2="7.20136" gradientUnits="userSpaceOnUse">
<stop stop-color="#4D67FF"/>
<stop offset="0.08" stop-color="#536AFC"/>
<stop offset="0.2" stop-color="#6572F5"/>
<stop offset="0.33" stop-color="#8380E9"/>
<stop offset="0.49" stop-color="#AD93D9"/>
<stop offset="0.65" stop-color="#E2ABC5"/>
<stop offset="0.72" stop-color="#FDB8BB"/>
<stop offset="1" stop-color="#FCE29D"/>
</linearGradient>
<linearGradient id="paint4_linear_261_7907" x1="290.679" y1="19.3396" x2="278.061" y2="75.2017" gradientUnits="userSpaceOnUse">
<stop stop-color="#4D67FF"/>
<stop offset="0.07" stop-color="#536AFC"/>
<stop offset="0.17" stop-color="#6572F5"/>
<stop offset="0.28" stop-color="#8380E9"/>
<stop offset="0.41" stop-color="#AD93D9"/>
<stop offset="0.54" stop-color="#E2ABC5"/>
<stop offset="0.6" stop-color="#FDB8BB"/>
<stop offset="0.68" stop-color="#FCE29D"/>
<stop offset="1" stop-color="#FFA710"/>
</linearGradient>
<linearGradient id="paint5_linear_261_7907" x1="289.68" y1="114.238" x2="267.285" y2="106.492" gradientUnits="userSpaceOnUse">
<stop stop-color="#FFA710"/>
<stop offset="0.32" stop-color="#FCE29D"/>
<stop offset="0.4" stop-color="#FDB8BB"/>
<stop offset="0.46" stop-color="#E2ABC5"/>
<stop offset="0.59" stop-color="#AD93D9"/>
<stop offset="0.72" stop-color="#8380E9"/>
<stop offset="0.83" stop-color="#6572F5"/>
<stop offset="0.93" stop-color="#536AFC"/>
<stop offset="1" stop-color="#4D67FF"/>
</linearGradient>
<linearGradient id="paint6_linear_261_7907" x1="290.616" y1="112.858" x2="272.138" y2="105.413" gradientUnits="userSpaceOnUse">
<stop stop-color="#4D67FF"/>
<stop offset="0.07" stop-color="#536AFC"/>
<stop offset="0.17" stop-color="#6572F5"/>
<stop offset="0.28" stop-color="#8380E9"/>
<stop offset="0.41" stop-color="#AD93D9"/>
<stop offset="0.54" stop-color="#E2ABC5"/>
<stop offset="0.6" stop-color="#FDB8BB"/>
<stop offset="0.68" stop-color="#FCE29D"/>
<stop offset="1" stop-color="#FFA710"/>
</linearGradient>
<linearGradient id="paint7_linear_261_7907" x1="237.023" y1="119.919" x2="259.586" y2="126.728" gradientUnits="userSpaceOnUse">
<stop stop-color="#FFA710"/>
<stop offset="0.32" stop-color="#FCE29D"/>
<stop offset="0.4" stop-color="#FDB8BB"/>
<stop offset="0.46" stop-color="#E2ABC5"/>
<stop offset="0.59" stop-color="#AD93D9"/>
<stop offset="0.72" stop-color="#8380E9"/>
<stop offset="0.83" stop-color="#6572F5"/>
<stop offset="0.93" stop-color="#536AFC"/>
<stop offset="1" stop-color="#4D67FF"/>
</linearGradient>
<linearGradient id="paint8_linear_261_7907" x1="237.047" y1="118.262" x2="256.279" y2="123.029" gradientUnits="userSpaceOnUse">
<stop stop-color="#4D67FF"/>
<stop offset="0.07" stop-color="#536AFC"/>
<stop offset="0.17" stop-color="#6572F5"/>
<stop offset="0.28" stop-color="#8380E9"/>
<stop offset="0.41" stop-color="#AD93D9"/>
<stop offset="0.54" stop-color="#E2ABC5"/>
<stop offset="0.6" stop-color="#FDB8BB"/>
<stop offset="0.68" stop-color="#FCE29D"/>
<stop offset="1" stop-color="#FFA710"/>
</linearGradient>
<linearGradient id="paint9_linear_261_7907" x1="227.209" y1="234.511" x2="239.415" y2="237.684" gradientUnits="userSpaceOnUse">
<stop stop-color="#4D67FF"/>
<stop offset="0.07" stop-color="#536AFC"/>
<stop offset="0.17" stop-color="#6572F5"/>
<stop offset="0.28" stop-color="#8380E9"/>
<stop offset="0.41" stop-color="#AD93D9"/>
<stop offset="0.54" stop-color="#E2ABC5"/>
<stop offset="0.6" stop-color="#FDB8BB"/>
<stop offset="0.68" stop-color="#FCE29D"/>
<stop offset="1" stop-color="#FFA710"/>
</linearGradient>
<linearGradient id="paint10_linear_261_7907" x1="265.296" y1="104.655" x2="219.603" y2="86.2434" gradientUnits="userSpaceOnUse">
<stop offset="0.38" stop-color="#FDB8BB"/>
<stop offset="0.68" stop-color="#FCE29D"/>
<stop offset="1" stop-color="#FFA710"/>
</linearGradient>
<linearGradient id="paint11_linear_261_7907" x1="266.134" y1="102.358" x2="222.303" y2="84.6974" gradientUnits="userSpaceOnUse">
<stop stop-color="#FFA710"/>
<stop offset="0.32" stop-color="#FCE29D"/>
<stop offset="0.4" stop-color="#FDB8BB"/>
<stop offset="0.46" stop-color="#E2ABC5"/>
<stop offset="0.59" stop-color="#AD93D9"/>
<stop offset="0.72" stop-color="#8380E9"/>
<stop offset="0.83" stop-color="#6572F5"/>
<stop offset="0.93" stop-color="#536AFC"/>
<stop offset="1" stop-color="#4D67FF"/>
</linearGradient>
<linearGradient id="paint12_linear_261_7907" x1="264.785" y1="128.227" x2="312.618" y2="140.085" gradientUnits="userSpaceOnUse">
<stop offset="0.38" stop-color="#FDB8BB"/>
<stop offset="0.68" stop-color="#FCE29D"/>
<stop offset="1" stop-color="#FFA710"/>
</linearGradient>
<linearGradient id="paint13_linear_261_7907" x1="265.464" y1="125.895" x2="311.331" y2="137.266" gradientUnits="userSpaceOnUse">
<stop stop-color="#FFA710"/>
<stop offset="0.32" stop-color="#FCE29D"/>
<stop offset="0.4" stop-color="#FDB8BB"/>
<stop offset="0.46" stop-color="#E2ABC5"/>
<stop offset="0.59" stop-color="#AD93D9"/>
<stop offset="0.72" stop-color="#8380E9"/>
<stop offset="0.83" stop-color="#6572F5"/>
<stop offset="0.93" stop-color="#536AFC"/>
<stop offset="1" stop-color="#4D67FF"/>
</linearGradient>
<linearGradient id="paint14_linear_261_7907" x1="245.769" y1="157.761" x2="262.746" y2="157.638" gradientUnits="userSpaceOnUse">
<stop stop-color="#FFA710"/>
<stop offset="0.32" stop-color="#FCE29D"/>
<stop offset="0.4" stop-color="#FDB8BB"/>
<stop offset="0.46" stop-color="#E2ABC5"/>
<stop offset="0.59" stop-color="#AD93D9"/>
<stop offset="0.72" stop-color="#8380E9"/>
<stop offset="0.83" stop-color="#6572F5"/>
<stop offset="0.93" stop-color="#536AFC"/>
<stop offset="1" stop-color="#4D67FF"/>
</linearGradient>
<linearGradient id="paint15_linear_261_7907" x1="214.539" y1="276.266" x2="231.793" y2="276.141" gradientUnits="userSpaceOnUse">
<stop stop-color="#FFA710"/>
<stop offset="0.32" stop-color="#FCE29D"/>
<stop offset="0.4" stop-color="#FDB8BB"/>
<stop offset="0.46" stop-color="#E2ABC5"/>
<stop offset="0.59" stop-color="#AD93D9"/>
<stop offset="0.72" stop-color="#8380E9"/>
<stop offset="0.83" stop-color="#6572F5"/>
<stop offset="0.93" stop-color="#536AFC"/>
<stop offset="1" stop-color="#4D67FF"/>
</linearGradient>
<linearGradient id="paint16_linear_261_7907" x1="210.246" y1="292.708" x2="227.501" y2="292.583" gradientUnits="userSpaceOnUse">
<stop stop-color="#FFA710"/>
<stop offset="0.32" stop-color="#FCE29D"/>
<stop offset="0.4" stop-color="#FDB8BB"/>
<stop offset="0.46" stop-color="#E2ABC5"/>
<stop offset="0.59" stop-color="#AD93D9"/>
<stop offset="0.72" stop-color="#8380E9"/>
<stop offset="0.83" stop-color="#6572F5"/>
<stop offset="0.93" stop-color="#536AFC"/>
<stop offset="1" stop-color="#4D67FF"/>
</linearGradient>
<linearGradient id="paint17_linear_261_7907" x1="205.874" y1="309.395" x2="223.128" y2="309.269" gradientUnits="userSpaceOnUse">
<stop stop-color="#FFA710"/>
<stop offset="0.32" stop-color="#FCE29D"/>
<stop offset="0.4" stop-color="#FDB8BB"/>
<stop offset="0.46" stop-color="#E2ABC5"/>
<stop offset="0.59" stop-color="#AD93D9"/>
<stop offset="0.72" stop-color="#8380E9"/>
<stop offset="0.83" stop-color="#6572F5"/>
<stop offset="0.93" stop-color="#536AFC"/>
<stop offset="1" stop-color="#4D67FF"/>
</linearGradient>
<linearGradient id="paint18_linear_261_7907" x1="201.2" y1="327.289" x2="218.454" y2="327.163" gradientUnits="userSpaceOnUse">
<stop stop-color="#FFA710"/>
<stop offset="0.32" stop-color="#FCE29D"/>
<stop offset="0.4" stop-color="#FDB8BB"/>
<stop offset="0.46" stop-color="#E2ABC5"/>
<stop offset="0.59" stop-color="#AD93D9"/>
<stop offset="0.72" stop-color="#8380E9"/>
<stop offset="0.83" stop-color="#6572F5"/>
<stop offset="0.93" stop-color="#536AFC"/>
<stop offset="1" stop-color="#4D67FF"/>
</linearGradient>
<linearGradient id="paint19_linear_261_7907" x1="196.714" y1="344.025" x2="214.017" y2="343.899" gradientUnits="userSpaceOnUse">
<stop stop-color="#FFA710"/>
<stop offset="0.32" stop-color="#FCE29D"/>
<stop offset="0.4" stop-color="#FDB8BB"/>
<stop offset="0.46" stop-color="#E2ABC5"/>
<stop offset="0.59" stop-color="#AD93D9"/>
<stop offset="0.72" stop-color="#8380E9"/>
<stop offset="0.83" stop-color="#6572F5"/>
<stop offset="0.93" stop-color="#536AFC"/>
<stop offset="1" stop-color="#4D67FF"/>
</linearGradient>
<linearGradient id="paint20_linear_261_7907" x1="192.199" y1="361.315" x2="209.355" y2="361.19" gradientUnits="userSpaceOnUse">
<stop stop-color="#FFA710"/>
<stop offset="0.32" stop-color="#FCE29D"/>
<stop offset="0.4" stop-color="#FDB8BB"/>
<stop offset="0.46" stop-color="#E2ABC5"/>
<stop offset="0.59" stop-color="#AD93D9"/>
<stop offset="0.72" stop-color="#8380E9"/>
<stop offset="0.83" stop-color="#6572F5"/>
<stop offset="0.93" stop-color="#536AFC"/>
<stop offset="1" stop-color="#4D67FF"/>
</linearGradient>
<clipPath id="clip0_261_7907">
<rect width="343.532" height="639.957" fill="white" transform="translate(0 21.2615) rotate(-3.54835)"/>
</clipPath>
</defs>
</svg>
