<svg width="216" height="171" viewBox="0 0 216 171" fill="none" xmlns="http://www.w3.org/2000/svg">
<path d="M95.4711 150.747C92.5378 149.769 88.5281 149.149 83.4492 148.889C80.8887 148.671 78.9964 148.431 77.7795 148.171C76.5625 147.911 75.7676 147.657 75.4018 147.418C75.029 147.178 74.8461 146.819 74.8461 146.341C74.8461 145.778 75.226 145.341 75.9857 145.038C76.7454 144.736 78.0186 144.581 79.7984 144.581C81.7961 144.581 83.189 144.806 83.9698 145.264C84.7506 145.721 85.2712 146.341 85.5314 147.122H102.541C102.147 143.208 100.17 140.076 96.6107 137.732C93.0442 135.387 87.4448 134.212 79.7984 134.212C74.6702 134.212 70.4988 134.733 67.2841 135.775C64.0693 136.816 61.7409 138.168 60.3129 139.815C58.8779 141.469 58.1604 143.314 58.1604 145.355C58.1604 147.397 58.7372 149.283 59.8838 150.733C61.0375 152.19 63.0423 153.387 65.9123 154.323C68.7824 155.26 72.7991 155.879 77.9694 156.182C80.4455 156.442 82.3026 156.696 83.5407 156.935C84.7787 157.174 85.5807 157.435 85.9535 157.716C86.3193 157.998 86.5092 158.336 86.5092 158.73C86.5092 158.99 86.3545 159.286 86.052 159.61C85.7495 159.934 85.1938 160.173 84.3919 160.328C83.5899 160.483 82.4503 160.553 80.9731 160.553C78.9331 160.553 77.477 160.314 76.6047 159.835C75.7324 159.356 75.2119 158.723 75.0431 157.942H57.7031C57.879 160.553 58.7442 162.82 60.3129 164.756C61.8746 166.691 64.3648 168.212 67.7765 169.324C71.1882 170.429 75.6058 170.985 81.0364 170.985C86.467 170.985 90.7018 170.465 94.008 169.423C97.3071 168.381 99.7129 167.001 101.211 165.284C102.71 163.566 103.455 161.729 103.455 159.772C103.455 157.681 102.857 155.9 101.661 154.422C100.466 152.944 98.4045 151.719 95.4711 150.74V150.747Z" fill="#2B190F"/>
<path d="M141.547 136.239C138.311 134.895 134.083 134.219 128.87 134.219C123.658 134.219 119.845 134.831 116.652 136.042C113.458 137.26 111.045 138.858 109.42 140.836C107.788 142.814 106.803 145.13 106.459 147.784H123.862C124.122 147.002 124.622 146.411 125.36 146.024C126.099 145.63 127.231 145.439 128.751 145.439C130.446 145.439 131.684 145.665 132.465 146.122C133.246 146.58 133.703 147.418 133.837 148.635L127.45 149.22C122.061 149.698 117.791 150.48 114.64 151.571C111.488 152.655 109.216 154.028 107.83 155.682C106.438 157.336 105.741 159.399 105.741 161.876C105.741 163.657 106.227 165.234 107.211 166.607C108.189 167.979 109.673 169.049 111.678 169.838C113.676 170.619 116.194 171.013 119.24 171.013C122.286 171.013 125.086 170.612 127.52 169.81C129.954 169.007 131.959 167.818 133.548 166.255C135.131 164.692 136.299 162.799 137.037 160.581L142.771 169.908H150.98V152.232C150.98 148.234 150.22 144.904 148.701 142.251C147.181 139.597 144.797 137.598 141.561 136.253L141.547 136.239ZM133.14 157.301C132.507 158.124 131.579 158.793 130.341 159.293C129.103 159.793 127.661 160.046 126.007 160.046C124.924 160.046 124.15 159.891 123.693 159.589C123.236 159.286 123.032 158.849 123.074 158.286C123.074 157.765 123.32 157.301 123.827 156.885C124.326 156.47 125.142 156.104 126.268 155.78C127.4 155.456 128.828 155.224 130.566 155.097L134.083 154.64C134.083 155.597 133.766 156.491 133.14 157.315V157.301Z" fill="#2B190F"/>
<path d="M177.951 146.736C179.604 146.736 180.842 147.017 181.665 147.587C182.488 148.15 183.1 149.023 183.487 150.199H201.087C200.651 146.848 199.568 143.99 197.83 141.625C196.092 139.253 193.581 137.429 190.303 136.148C187.025 134.867 182.945 134.227 178.084 134.227C172.914 134.227 168.602 134.98 165.148 136.479C161.694 137.979 159.098 140.069 157.361 142.737C155.623 145.412 154.751 148.446 154.751 151.839V153.402C154.751 156.795 155.623 159.829 157.361 162.497C159.098 165.172 161.694 167.255 165.148 168.755C168.602 170.254 172.914 171.007 178.084 171.007C182.952 171.007 187.032 170.367 190.338 169.085C193.637 167.804 196.149 165.974 197.865 163.609C199.582 161.244 200.658 158.379 201.094 155.035H183.494C183.149 156.21 182.551 157.076 181.7 157.647C180.856 158.21 179.604 158.491 177.951 158.491C175.953 158.491 174.454 158.013 173.456 157.055C172.457 156.098 171.957 154.62 171.957 152.62C171.957 150.621 172.457 149.143 173.456 148.186C174.454 147.228 175.953 146.75 177.951 146.75V146.736Z" fill="#2B190F"/>
<path d="M42.5725 90.1524L60.2993 68.0137H35.9039L19.6332 88.6883V68.0137H0V121.534H19.6332V107.821L26.0134 100.564L38.0986 121.534H61.1083L42.5725 90.1524Z" fill="#2B190F"/>
<path d="M84.1108 103.056H101.62V112.481C101.62 112.481 106.888 116.318 111.911 118.648C115.442 120.288 121.844 122.273 121.844 122.273V68.0068H101.62V86.5555H84.1108V68.0068H63.8164V121.534H84.1108V103.056Z" fill="#2B190F"/>
<path d="M216 68.0137H195.558V121.541H216V68.0137Z" fill="#2B190F"/>
<path d="M33.0762 42.89C33.0762 46.7616 33.6741 49.9152 34.87 52.3438C36.0658 54.7794 38.0425 56.5745 40.8 57.7219C43.5575 58.8763 47.2647 59.4465 51.9145 59.4465C54.264 59.4465 56.4306 59.3269 58.4284 59.0875C60.4262 58.8482 62.2059 58.6018 63.7746 58.3343V45.7479C63.4721 45.7902 63.2118 45.8324 62.9937 45.8817C62.7757 45.9239 62.5787 45.9662 62.4099 46.0154C59.7579 46.2759 57.542 46.4096 55.7623 46.4096C53.9826 46.4096 52.7305 46.2759 51.8863 46.0154C51.0422 45.755 50.4724 45.2622 50.191 44.5512C49.9097 43.8332 49.769 42.6929 49.769 41.1301V36.4982H63.6479V23.7781H49.769V13.2754H39.4072L33.8007 23.7781H24.874V36.4982H33.0832V42.89H33.0762Z" fill="#2B190F"/>
<path d="M113.501 38.976C113.501 35.8928 112.657 33.1193 110.961 30.6625C109.266 28.2058 106.713 26.2629 103.301 24.8269C99.8892 23.3909 95.6404 22.6729 90.5615 22.6729C85.4826 22.6729 81.0439 23.4261 77.5267 24.9254C74.0094 26.4248 71.3785 28.5014 69.641 31.1553C67.9035 33.8091 67.0312 36.8501 67.0312 40.2853V41.8481C67.0312 45.241 67.9035 48.275 69.641 50.9429C71.3785 53.6179 73.9883 55.7015 77.4633 57.2009C80.9384 58.7003 85.2857 59.4535 90.4982 59.4535C95.3238 59.4535 99.3264 58.8481 102.52 57.6303C105.714 56.4125 108.155 54.8075 109.85 52.8013C111.545 50.8021 112.544 48.5002 112.847 45.8886H95.2464L95.0495 46.1491C94.5289 46.846 93.8888 47.3317 93.1291 47.6133C92.3694 47.8949 91.1876 48.0356 89.5767 48.0356C87.8814 48.0356 86.5589 47.6907 85.6022 46.9938C84.6455 46.2969 84.0124 45.1214 83.7099 43.4741H113.234C113.409 42.1296 113.494 40.6302 113.494 38.976H113.501ZM83.7803 37.4133C84.1742 36.0195 84.8777 34.9776 85.8977 34.2808C86.9177 33.5839 88.3597 33.2389 90.2309 33.2389C92.1021 33.2389 93.53 33.5768 94.5289 34.2526C95.5278 34.9284 96.1117 35.9843 96.2876 37.4133H83.7733H83.7803Z" fill="#2B190F"/>
<path d="M115.843 36.4982H124.052V42.89C124.052 46.7616 124.65 49.9152 125.846 52.3438C127.042 54.7794 129.018 56.5745 131.776 57.7219C134.533 58.8763 138.24 59.4465 142.89 59.4465C145.233 59.4465 147.406 59.3269 149.404 59.0875C151.402 58.8482 153.182 58.6018 154.75 58.3343V45.7479C154.448 45.7902 154.188 45.8324 153.97 45.8817C153.751 45.9239 153.555 45.9662 153.386 46.0154C150.734 46.2759 148.518 46.4096 146.738 46.4096C144.958 46.4096 143.706 46.2759 142.862 46.0154C142.018 45.755 141.448 45.2622 141.167 44.5512C140.885 43.8332 140.745 42.6929 140.745 41.1301V36.4982H154.631V23.7781H140.745V13.2754H130.383L124.777 23.7781H115.85V36.4982H115.843Z" fill="#2B190F"/>
<path d="M149.123 124.279C132.916 130.066 114.676 127.517 101.578 116.099C100.579 115.227 98.0463 113.453 96.6183 114.114C95.2185 114.762 95.6475 115.846 96.752 116.803C112.875 130.854 134.977 135.866 155.286 128.615C156.826 128.066 154.357 125.849 153.879 125.504C152.599 124.575 150.699 123.716 149.116 124.279H149.123Z" fill="#2B190F"/>
<path d="M135.048 115.262L176.474 70.414C176.263 70.3084 176.059 70.2028 175.848 70.1042C174.582 69.5129 173.238 69.0061 171.838 68.5767C167.948 67.373 163.552 66.7676 158.627 66.7676C151.987 66.7676 146.282 67.8798 141.52 70.1042C136.757 72.3287 133.156 75.433 130.715 79.4173C128.274 83.4016 127.05 88.0053 127.05 93.2355V96.3188C127.05 101.549 128.267 106.153 130.715 110.137C131.074 110.728 131.467 111.284 131.882 111.841L147.865 94.5378V93.8269C147.865 91.5813 148.266 89.6948 149.075 88.1813C149.884 86.6678 151.115 85.5063 152.775 84.6968C154.287 83.9647 156.053 83.5776 158.051 83.5142C158.248 83.5142 158.438 83.486 158.642 83.486C160.597 83.486 162.257 83.7676 163.657 84.3096L176.488 70.421L135.048 115.262ZM186.653 79.4103C186.35 78.9105 186.034 78.4318 185.689 77.9602C184.782 76.7001 183.74 75.5386 182.566 74.4757L168.834 89.3428C169.355 90.6239 169.615 92.1163 169.615 93.8198V95.7275C169.615 97.973 169.165 99.8596 168.265 101.373C167.357 102.887 166.126 104.048 164.565 104.85C163.263 105.526 161.652 105.899 159.781 106.012C159.401 106.033 159.028 106.061 158.627 106.061C156.904 106.061 155.371 105.836 154.02 105.385L141.189 119.281C141.302 119.33 141.407 119.394 141.52 119.443C142.884 120.084 144.34 120.619 145.867 121.076C149.644 122.202 153.893 122.78 158.627 122.78C165.317 122.78 171.057 121.667 175.848 119.443C180.631 117.219 184.233 114.114 186.653 110.13C189.073 106.153 190.283 101.542 190.283 96.3118V93.2355C190.283 88.0053 189.073 83.3945 186.653 79.4103Z" fill="#2B190F"/>
<path d="M115.738 19.0133C100.53 10.1859 82.0713 11.6853 67.1512 20.3789C65.47 21.3574 66.2789 22.2795 67.735 22.5682C69.768 22.9694 72.3848 21.8572 74.0942 20.8646C84.5263 14.7897 97.125 16.2679 107.29 22.1669C108.922 23.1102 111.482 22.3851 113.107 21.7657C113.572 21.5897 117.208 19.8721 115.738 19.0203V19.0133Z" fill="#2B190F"/>
<path d="M67.2842 11.6568C82.8937 9.27051 98.5032 6.88416 114.113 4.49782C115.379 4.30776 117.799 3.57567 117.876 1.94254C117.953 0.379799 116.131 -0.162231 114.844 0.0348709C99.2347 2.42121 83.6253 4.80755 68.0158 7.1939C66.7496 7.38396 64.3298 8.11605 64.2524 9.74918C64.175 11.3119 65.9969 11.8539 67.2842 11.6568Z" fill="#2B190F"/>
<path d="M159.83 54.6955H174.194C176.6 54.6955 175.629 56.047 174.3 57.3634C172.576 59.0669 170.853 60.7704 169.129 62.474C167.779 63.8044 168.131 65.1137 169.967 65.5994C171.873 66.0992 174.912 65.2897 176.326 63.8959C178.387 61.8545 180.49 59.8412 182.523 57.7717C185.801 54.435 184.662 50.1903 179.744 49.7187C174.363 49.1977 168.757 49.6694 163.347 49.6694C161.546 49.6694 158.303 50.2818 157.41 52.112C156.524 53.9071 158.163 54.7025 159.83 54.7025V54.6955Z" fill="#00299C"/>
<path d="M135.765 114.496C135.526 114.756 135.287 115.009 135.054 115.27C133.05 117.438 131.052 119.606 129.047 121.774C127.281 123.689 130.587 124.154 131.84 124.132C134.274 124.083 137.601 123.175 139.324 121.31C139.95 120.634 140.569 119.958 141.195 119.289L182.579 74.4909C183.888 73.076 185.196 71.654 186.504 70.2391C188.741 67.8105 190.985 65.389 193.222 62.9604C194.988 61.0457 191.682 60.5811 190.43 60.6022C187.996 60.6515 184.668 61.5596 182.945 63.425C180.792 65.7551 178.64 68.0851 176.48 70.4221L135.765 114.503V114.496Z" fill="url(#paint0_linear_261_7682)"/>
<defs>
<linearGradient id="paint0_linear_261_7682" x1="190.183" y1="62.0875" x2="130.812" y2="123.866" gradientUnits="userSpaceOnUse">
<stop offset="0.1" stop-color="#00299B"/>
<stop offset="0.15" stop-color="#062E9A"/>
<stop offset="0.22" stop-color="#183D97"/>
<stop offset="0.3" stop-color="#365693"/>
<stop offset="0.38" stop-color="#60798D"/>
<stop offset="0.48" stop-color="#96A686"/>
<stop offset="0.58" stop-color="#D7DC7D"/>
<stop offset="0.63" stop-color="#FAFA79"/>
<stop offset="0.68" stop-color="#F5F77F"/>
<stop offset="0.75" stop-color="#EAEE91"/>
<stop offset="0.84" stop-color="#D8E1AF"/>
<stop offset="0.93" stop-color="#BECED9"/>
<stop offset="1" stop-color="#A9BEFD"/>
</linearGradient>
</defs>
</svg>
