
<svg width="554" height="521" viewBox="0 0 554 521" fill="none" xmlns="http://www.w3.org/2000/svg">
<g clip-path="url(#clip0_2047_8195)">
<path d="M381.411 310.248L419.306 346.476C434 360.531 456.564 362.179 473.158 350.436C481.857 344.276 486.436 333.782 485.039 323.204L484.856 321.87C482.725 305.68 471.504 292.11 455.962 287.031L403.062 269.686L381.383 310.257L381.411 310.248Z" fill="url(#paint0_linear_2047_8195)"/>
<path d="M386.447 305.004L424.343 341.233C439.037 355.288 461.6 356.936 478.195 345.193C486.894 339.033 491.473 328.539 490.075 317.961L489.893 316.627C487.762 300.437 476.541 286.867 460.999 281.788L408.098 264.443L386.42 305.014L386.447 305.004Z" fill="url(#paint1_linear_2047_8195)"/>
<path d="M325.575 347.391C304.702 351.848 285.977 351.045 274.332 349.647C267.659 348.858 263.178 342.401 264.772 335.873L264.578 336.638L264.789 335.746C266.128 330.247 271.322 326.62 276.949 327.28C287.476 328.513 305.438 329.303 324.891 324.42C361.922 315.204 388.533 290.23 404.166 250.175C406.33 244.607 412.42 241.646 418.093 243.505L418.229 243.549C424.375 245.55 427.506 252.317 425.163 258.341C402.136 317.353 360.859 338.923 329.383 346.546C328.096 346.864 326.826 347.146 325.584 347.418L325.575 347.391Z" fill="url(#paint2_linear_2047_8195)"/>
<path d="M328.782 137.154C323.976 138.188 319.257 135.122 318.222 130.313L311.647 99.5136C308.84 86.41 313.035 73.1928 322.856 64.098C332.677 55.0031 346.195 51.8439 359.03 55.6603L472.47 89.2597L467.433 106.318L353.992 72.7188C347.174 70.7044 339.958 72.41 334.755 77.3457C329.643 82.19 327.673 89.4838 329.142 96.3624L335.604 126.653C336.64 131.463 333.579 136.183 328.773 137.217L328.782 137.154Z" fill="url(#paint3_linear_2047_8195)"/>
<path d="M325.04 140.678C320.234 141.712 315.515 138.647 314.479 133.837L307.904 103.038C305.098 89.9344 309.293 76.7172 319.114 67.6224C328.935 58.5275 342.452 55.3683 355.288 59.1848L468.728 92.7841L463.69 109.843L350.25 76.2433C343.432 74.2288 336.216 75.9344 331.013 80.8702C325.9 85.7144 323.931 93.0082 325.4 99.8867L331.862 130.178C332.898 134.987 329.837 139.708 325.031 140.742L325.04 140.678Z" fill="url(#paint4_linear_2047_8195)"/>
<path d="M464.901 88.8674L450.447 91.8606L452.617 110.831L467.042 107.574L465.892 97.3671L464.901 88.8674Z" fill="url(#paint5_linear_2047_8195)"/>
<path d="M472.206 88.0432L457.752 91.0364L459.922 110.007L474.348 106.75L472.206 88.0432Z" fill="url(#paint6_linear_2047_8195)"/>
<path d="M450.416 91.8625L452.579 110.823L459.883 109.992L457.72 91.0317L450.416 91.8625Z" fill="url(#paint7_linear_2047_8195)"/>
<path d="M457.752 91.0367L472.206 88.0435L464.901 88.8681L450.447 91.8613L457.752 91.0367Z" fill="url(#paint8_linear_2047_8195)"/>
<path d="M-94.1272 261.709C-98.9329 262.743 -103.652 259.678 -104.688 254.868L-111.262 224.069C-114.033 210.984 -109.847 197.739 -100.026 188.644C-90.2048 179.55 -76.6872 176.39 -63.8521 180.207L49.5881 213.806L44.5506 230.865L-68.8988 197.238C-75.7168 195.224 -82.9333 196.929 -88.1361 201.865C-93.3388 206.801 -95.2183 214.003 -93.7489 220.882L-87.287 251.172C-86.2512 255.982 -89.3122 260.702 -94.1179 261.736L-94.1272 261.709Z" fill="url(#paint9_linear_2047_8195)"/>
<path d="M-97.8688 265.234C-102.674 266.268 -107.393 263.202 -108.429 258.393L-115.004 227.594C-117.774 214.508 -113.589 201.263 -103.767 192.169C-93.9735 183.083 -80.456 179.924 -67.6301 183.713L45.81 217.312L40.7725 234.371L-72.6404 200.762C-79.4584 198.748 -86.6749 200.453 -91.8776 205.389C-96.9903 210.233 -98.9599 217.527 -97.4905 224.406L-91.0286 254.697C-89.9928 259.506 -93.0538 264.227 -97.8595 265.261L-97.8688 265.234Z" fill="url(#paint10_linear_2047_8195)"/>
<path d="M433.698 76.2305C406.717 58.7188 370.683 66.4101 353.197 93.4002C326.216 75.8885 290.182 83.5798 272.696 110.57C255.21 137.56 262.915 173.622 289.896 191.134L373.066 245.125L377.429 247.948C379.547 249.351 381.94 249.961 384.292 249.917L393.408 250.751L393.016 245.874C393.44 245.425 393.817 244.932 394.149 244.393L450.88 156.831C468.366 129.841 460.662 93.7786 433.68 76.2669L433.698 76.2305Z" fill="url(#paint11_linear_2047_8195)"/>
<path d="M349.375 198.243C379.798 187.852 396.03 154.744 385.63 124.296C375.229 93.8472 342.136 77.5875 311.713 87.9788C281.29 98.3701 265.058 131.477 275.458 161.926C285.858 192.375 318.952 208.634 349.375 198.243Z" fill="url(#paint12_linear_2047_8195)"/>
<path d="M362.241 94.2588L298.918 191.997L382.091 245.98L445.413 148.242L362.241 94.2588Z" fill="url(#paint13_linear_2047_8195)"/>
<path d="M349.375 198.243C379.798 187.852 396.03 154.744 385.63 124.296C375.229 93.8472 342.136 77.5875 311.713 87.9788C281.29 98.3701 265.058 131.477 275.458 161.926C285.858 192.375 318.952 208.634 349.375 198.243Z" fill="url(#paint14_linear_2047_8195)"/>
<path d="M298.915 192.02L362.237 94.2813L459.943 157.696L403.212 245.261C399.573 250.878 392.066 252.478 386.45 248.834L298.915 192.02Z" fill="url(#paint15_linear_2047_8195)"/>
<path d="M429.912 181.092C460.335 170.7 476.567 137.593 466.167 107.144C455.767 76.6958 422.673 60.4361 392.25 70.8274C361.827 81.2188 345.596 114.326 355.996 144.775C366.396 175.223 399.49 191.483 429.912 181.092Z" fill="url(#paint16_linear_2047_8195)"/>
<path d="M308.332 177.445L406.038 240.86L459.942 157.66L362.236 94.2446L308.332 177.445Z" fill="url(#paint17_linear_2047_8195)"/>
<path d="M429.912 181.092C460.335 170.7 476.567 137.593 466.167 107.144C455.767 76.6958 422.673 60.4361 392.25 70.8274C361.827 81.2188 345.596 114.326 355.996 144.775C366.396 175.223 399.49 191.483 429.912 181.092Z" fill="url(#paint18_linear_2047_8195)"/>
<path d="M386.475 248.776L298.94 191.962L362.263 94.2235L459.968 157.639L403.238 245.203C399.598 250.82 392.107 252.396 386.515 248.767L386.475 248.776Z" fill="url(#paint19_linear_2047_8195)"/>
<path d="M305.994 181.048C294.265 173.452 286.786 161.064 285.515 146.858C284.799 138.72 286.353 130.475 289.984 123.16C296.3 110.464 307.694 101.713 321.324 98.8798C333.22 96.3956 345.638 99.079 355.852 105.704C361.475 109.372 368.964 107.756 372.609 102.167C379.225 91.9504 389.457 84.4158 401.354 81.8407C414.963 78.8626 428.948 82.2255 439.916 91.2356C446.213 96.4347 451.025 103.326 453.664 111.05C458.308 124.559 456.528 138.895 448.934 150.6L399.277 227.242C395.641 232.858 388.142 234.447 382.529 230.806L305.912 181.076L305.994 181.048Z" fill="#0A0A0A"/>
<mask id="mask0_2047_8195" style="mask-type:luminance" maskUnits="userSpaceOnUse" x="285" y="80" width="172" height="158">
<path d="M305.994 181.05C295.863 174.487 288.91 164.349 286.395 152.543C283.879 140.737 286.094 128.652 292.674 118.507C299.226 108.373 309.355 101.42 321.151 98.9096C332.948 96.3989 345.026 98.6212 355.167 105.211L366.12 112.312L373.212 101.356C379.764 91.2208 389.892 84.2686 401.689 81.7579C413.486 79.2471 425.564 81.4694 435.705 88.0588C445.837 94.6211 452.789 104.76 455.304 116.566C457.82 128.372 455.605 140.457 449.025 150.601L392.788 237.387L306.031 181.067L305.994 181.05Z" fill="white"/>
</mask>
<g mask="url(#mask0_2047_8195)">
<path d="M325.263 203.26L323.976 202.424C320.472 200.159 319.482 195.485 321.753 192.006L349.159 149.722C351.42 146.216 356.09 145.229 359.568 147.503L374.145 156.951C382.332 162.264 393.249 159.932 398.554 151.742L437.781 91.2061C440.043 87.7001 444.713 86.7125 448.191 88.987L449.478 89.8231C452.983 92.0883 453.972 96.7618 451.701 100.241L397.95 183.201C395.688 186.707 391.018 187.695 387.541 185.42L372.964 175.972C364.777 170.66 353.859 172.991 348.554 181.182L335.7 201.031C333.438 204.538 328.768 205.525 325.291 203.251L325.263 203.26Z" fill="white"/>
</g>
<path d="M241.63 161.059C241.63 161.059 261.71 143.176 272.338 143.372L263.258 142.465C263.258 142.465 246.358 139.186 235.993 153.175L241.63 161.059Z" fill="url(#paint20_linear_2047_8195)"/>
<path d="M250.71 161.968C250.71 161.968 258.701 150.005 273.421 154.362L272.338 143.373C272.338 143.373 255.438 140.095 245.073 154.083L250.71 161.968Z" fill="url(#paint21_linear_2047_8195)"/>
<path d="M223.347 142.094C196.366 124.582 160.332 132.273 142.846 159.263C115.865 141.752 79.8307 149.443 62.3447 176.433C44.8586 203.423 52.5635 239.485 79.5445 256.997L162.715 310.989L167.078 313.811C169.196 315.214 171.589 315.824 173.941 315.78L183.057 316.615L182.665 311.737C183.089 311.289 183.466 310.795 183.798 310.257L240.529 222.694C258.015 195.704 250.31 159.642 223.329 142.13L223.347 142.094Z" fill="url(#paint22_linear_2047_8195)"/>
<path d="M139.051 264.099C169.474 253.707 185.706 220.6 175.306 190.151C164.906 159.703 131.812 143.443 101.389 153.834C70.9664 164.226 54.7347 197.333 65.1348 227.782C75.5349 258.23 108.628 274.49 139.051 264.099Z" fill="url(#paint23_linear_2047_8195)"/>
<path d="M151.873 160.088L88.5511 257.826L171.724 311.809L235.046 214.071L151.873 160.088Z" fill="url(#paint24_linear_2047_8195)"/>
<path d="M139.051 264.099C169.474 253.707 185.706 220.6 175.306 190.151C164.906 159.703 131.812 143.443 101.389 153.834C70.9664 164.226 54.7347 197.333 65.1348 227.782C75.5349 258.23 108.628 274.49 139.051 264.099Z" fill="url(#paint25_linear_2047_8195)"/>
<path d="M88.576 257.841L151.898 160.103L249.604 223.518L192.873 311.082C189.234 316.699 181.727 318.3 176.111 314.655L88.576 257.841Z" fill="url(#paint26_linear_2047_8195)"/>
<path d="M219.553 246.929C249.976 236.537 266.207 203.43 255.807 172.981C245.407 142.533 212.313 126.273 181.891 136.664C151.468 147.056 135.236 180.163 145.636 210.612C156.036 241.06 189.13 257.32 219.553 246.929Z" fill="url(#paint27_linear_2047_8195)"/>
<path d="M97.9918 243.279L195.698 306.694L249.601 223.494L151.895 160.079L97.9918 243.279Z" fill="url(#paint28_linear_2047_8195)"/>
<path d="M219.553 246.929C249.976 236.537 266.207 203.43 255.807 172.981C245.407 142.533 212.313 126.273 181.891 136.664C151.468 147.056 135.236 180.163 145.636 210.612C156.036 241.06 189.13 257.32 219.553 246.929Z" fill="url(#paint29_linear_2047_8195)"/>
<path d="M176.132 314.636L88.5968 257.822L151.919 160.084L249.625 223.499L192.894 311.063C189.255 316.681 181.763 318.257 176.172 314.628L176.132 314.636Z" fill="url(#paint30_linear_2047_8195)"/>
<path d="M95.6613 246.876C83.9325 239.28 76.454 226.892 75.1829 212.687C74.4668 204.548 76.0204 196.303 79.6519 188.988C85.967 176.292 97.362 167.541 110.991 164.708C122.888 162.224 135.306 164.907 145.52 171.532C151.142 175.2 158.632 173.584 162.277 167.996C168.892 157.778 179.125 150.244 191.021 147.669C204.631 144.691 218.616 148.054 229.584 157.064C235.881 162.263 240.693 169.154 243.331 176.878C247.975 190.387 246.196 204.723 238.602 216.428L188.944 293.071C185.309 298.686 177.81 300.275 172.196 296.635L95.5798 246.904L95.6613 246.876Z" fill="#0A0A0A"/>
<mask id="mask1_2047_8195" style="mask-type:luminance" maskUnits="userSpaceOnUse" x="75" y="146" width="171" height="158">
<path d="M95.6605 246.875C85.529 240.313 78.5763 230.174 76.0611 218.368C73.5459 206.562 75.7605 194.477 82.3403 184.333C88.8929 174.198 99.021 167.246 110.818 164.735C122.615 162.224 134.693 164.446 144.834 171.036L155.787 178.138L162.878 167.181C169.431 157.046 179.559 150.094 191.356 147.583C203.152 145.072 215.231 147.295 225.372 153.884C235.503 160.446 242.456 170.585 244.971 182.391C247.486 194.197 245.272 206.282 238.692 216.426L182.454 303.213L95.697 246.893L95.6605 246.875Z" fill="white"/>
</mask>
<g mask="url(#mask1_2047_8195)">
<path d="M114.903 269.095L113.616 268.259C110.112 265.993 109.122 261.32 111.393 257.841L138.799 215.557C141.06 212.051 145.73 211.064 149.208 213.338L163.785 222.786C171.972 228.099 182.889 225.767 188.194 217.577L227.421 157.041C229.683 153.535 234.353 152.547 237.831 154.822L239.118 155.658C242.623 157.923 243.612 162.597 241.341 166.076L187.59 249.036C185.328 252.542 180.658 253.53 177.181 251.255L162.604 241.807C154.417 236.495 143.499 238.826 138.194 247.017L125.34 266.866C123.078 270.372 118.408 271.36 114.931 269.086L114.903 269.095Z" fill="white"/>
</g>
<path d="M53.0924 212.426L38.6109 215.428L40.7812 234.398L55.2063 231.142L54.0473 220.907L53.0924 212.426Z" fill="url(#paint31_linear_2047_8195)"/>
<path d="M60.3977 211.601L45.9162 214.604L48.0865 233.574L62.5116 230.317L60.3977 211.601Z" fill="url(#paint32_linear_2047_8195)"/>
<path d="M38.623 215.436L40.7861 234.396L48.091 233.566L45.9279 214.605L38.623 215.436Z" fill="url(#paint33_linear_2047_8195)"/>
<path d="M45.916 214.604L60.3975 211.602L53.0925 212.426L38.6111 215.429L45.916 214.604Z" fill="url(#paint34_linear_2047_8195)"/>
<path d="M330.807 346.272C309.934 350.728 291.209 349.926 279.564 348.528C272.891 347.739 268.41 341.282 270.004 334.754L269.81 335.519L270.021 334.627C271.36 329.128 276.554 325.501 282.181 326.161C292.708 327.394 310.67 328.184 330.123 323.301C367.153 314.085 393.764 289.111 409.398 249.056C411.562 243.487 417.652 240.527 423.324 242.386L423.461 242.43C429.607 244.431 432.738 251.198 430.395 257.222C407.368 316.234 366.09 337.804 334.615 345.427C333.328 345.745 332.058 346.026 330.816 346.299L330.807 346.272Z" fill="url(#paint35_radial_2047_8195)"/>
<path d="M331.045 263.274C353.978 255.441 366.214 230.484 358.374 207.531C350.534 184.578 325.588 172.321 302.654 180.155C279.721 187.988 267.485 212.945 275.325 235.898C283.164 258.851 308.111 271.108 331.045 263.274Z" fill="url(#paint36_radial_2047_8195)"/>
</g>
<defs>
<linearGradient id="paint0_linear_2047_8195" x1="523.124" y1="404.662" x2="447.733" y2="325.614" gradientUnits="userSpaceOnUse">
<stop stop-color="#4D67FF"/>
<stop offset="0.07" stop-color="#FCE29D"/>
<stop offset="0.12" stop-color="#FFA710"/>
<stop offset="0.2" stop-color="#7A8DFF"/>
<stop offset="0.26" stop-color="#8A9BFF"/>
<stop offset="0.42" stop-color="#FDB8BB"/>
<stop offset="0.72" stop-color="#FBFB81"/>
<stop offset="0.82" stop-color="#FBFB7C"/>
<stop offset="0.9" stop-color="#FBFB79"/>
</linearGradient>
<linearGradient id="paint1_linear_2047_8195" x1="387.213" y1="264.932" x2="585.086" y2="425.353" gradientUnits="userSpaceOnUse">
<stop stop-color="#4D67FF"/>
<stop offset="0.07" stop-color="#FCE29D"/>
<stop offset="0.12" stop-color="#FFA710"/>
<stop offset="0.2" stop-color="#7A8DFF"/>
<stop offset="0.26" stop-color="#8A9BFF"/>
<stop offset="0.42" stop-color="#FDB8BB"/>
<stop offset="0.72" stop-color="#FBFB81"/>
<stop offset="0.82" stop-color="#FBFB7C"/>
<stop offset="0.9" stop-color="#FBFB79"/>
</linearGradient>
<linearGradient id="paint2_linear_2047_8195" x1="345.518" y1="268.078" x2="344.473" y2="343.611" gradientUnits="userSpaceOnUse">
<stop stop-color="#4D67FF"/>
<stop offset="0.07" stop-color="#FCE29D"/>
<stop offset="0.17" stop-color="#FFA710"/>
<stop offset="0.25" stop-color="#4D67FF"/>
<stop offset="0.32" stop-color="#7A8DFF"/>
<stop offset="0.37" stop-color="#8A9BFF"/>
<stop offset="0.56" stop-color="#FDB8BB"/>
<stop offset="0.6" stop-color="#7080FF"/>
<stop offset="0.72" stop-color="#FBFB81"/>
<stop offset="0.82" stop-color="#FBFB7C"/>
<stop offset="0.9" stop-color="#FBFB79"/>
</linearGradient>
<linearGradient id="paint3_linear_2047_8195" x1="420.279" y1="30.5355" x2="362.393" y2="149.273" gradientUnits="userSpaceOnUse">
<stop stop-color="#BFC8FF"/>
<stop offset="0.51" stop-color="white"/>
<stop offset="0.54" stop-color="#E0E4FF"/>
<stop offset="0.58" stop-color="#C5CDFF"/>
<stop offset="0.63" stop-color="#B2BDFF"/>
<stop offset="0.67" stop-color="#A7B4FF"/>
<stop offset="0.71" stop-color="#A4B1FF"/>
<stop offset="0.75" stop-color="#A2AFFF"/>
<stop offset="1" stop-color="#9FADFF"/>
</linearGradient>
<linearGradient id="paint4_linear_2047_8195" x1="354.913" y1="158.107" x2="404.58" y2="60.2414" gradientUnits="userSpaceOnUse">
<stop stop-color="#B6C1FF"/>
<stop offset="0.08" stop-color="#B8C3FF"/>
<stop offset="0.13" stop-color="#C0C9FF"/>
<stop offset="0.17" stop-color="#CED5FF"/>
<stop offset="0.19" stop-color="#DADFFF"/>
<stop offset="0.33" stop-color="#DCE1FF"/>
<stop offset="0.41" stop-color="#E4E8FF"/>
<stop offset="0.47" stop-color="#F2F4FF"/>
<stop offset="0.51" stop-color="#FBFCFF"/>
<stop offset="0.55" stop-color="#D2D9FF"/>
<stop offset="0.59" stop-color="#AEBAFF"/>
<stop offset="0.63" stop-color="#90A0FF"/>
<stop offset="0.67" stop-color="#778BFF"/>
<stop offset="0.72" stop-color="#647BFF"/>
<stop offset="0.78" stop-color="#576FFF"/>
<stop offset="0.86" stop-color="#4F68FF"/>
<stop offset="1" stop-color="#4D67FF"/>
</linearGradient>
<linearGradient id="paint5_linear_2047_8195" x1="451.772" y1="113.736" x2="485.403" y2="47.5246" gradientUnits="userSpaceOnUse">
<stop stop-color="#BFC8FF"/>
<stop offset="0.51" stop-color="white"/>
<stop offset="0.54" stop-color="#E0E4FF"/>
<stop offset="0.58" stop-color="#C5CDFF"/>
<stop offset="0.63" stop-color="#B2BDFF"/>
<stop offset="0.67" stop-color="#A7B4FF"/>
<stop offset="0.71" stop-color="#A4B1FF"/>
<stop offset="0.75" stop-color="#A2AFFF"/>
<stop offset="1" stop-color="#9FADFF"/>
</linearGradient>
<linearGradient id="paint6_linear_2047_8195" x1="459.106" y1="112.903" x2="492.708" y2="46.6942" gradientUnits="userSpaceOnUse">
<stop stop-color="#BFC8FF"/>
<stop offset="0.51" stop-color="white"/>
<stop offset="0.54" stop-color="#E0E4FF"/>
<stop offset="0.58" stop-color="#C5CDFF"/>
<stop offset="0.63" stop-color="#B2BDFF"/>
<stop offset="0.67" stop-color="#A7B4FF"/>
<stop offset="0.71" stop-color="#A4B1FF"/>
<stop offset="0.75" stop-color="#A2AFFF"/>
<stop offset="1" stop-color="#9FADFF"/>
</linearGradient>
<linearGradient id="paint7_linear_2047_8195" x1="449.56" y1="111.977" x2="476.261" y2="59.3596" gradientUnits="userSpaceOnUse">
<stop stop-color="#BFC8FF"/>
<stop offset="0.51" stop-color="white"/>
<stop offset="0.54" stop-color="#E0E4FF"/>
<stop offset="0.58" stop-color="#C5CDFF"/>
<stop offset="0.63" stop-color="#B2BDFF"/>
<stop offset="0.67" stop-color="#A7B4FF"/>
<stop offset="0.71" stop-color="#A4B1FF"/>
<stop offset="0.75" stop-color="#A2AFFF"/>
<stop offset="1" stop-color="#9FADFF"/>
</linearGradient>
<linearGradient id="paint8_linear_2047_8195" x1="457.762" y1="97.3204" x2="475.482" y2="62.3769" gradientUnits="userSpaceOnUse">
<stop stop-color="#BFC8FF"/>
<stop offset="0.51" stop-color="white"/>
<stop offset="0.54" stop-color="#E0E4FF"/>
<stop offset="0.58" stop-color="#C5CDFF"/>
<stop offset="0.63" stop-color="#B2BDFF"/>
<stop offset="0.67" stop-color="#A7B4FF"/>
<stop offset="0.71" stop-color="#A4B1FF"/>
<stop offset="0.75" stop-color="#A2AFFF"/>
<stop offset="1" stop-color="#9FADFF"/>
</linearGradient>
<linearGradient id="paint9_linear_2047_8195" x1="-2.62301" y1="155.089" x2="-60.5093" y2="273.826" gradientUnits="userSpaceOnUse">
<stop stop-color="#BFC8FF"/>
<stop offset="0.51" stop-color="white"/>
<stop offset="0.54" stop-color="#E0E4FF"/>
<stop offset="0.58" stop-color="#C5CDFF"/>
<stop offset="0.63" stop-color="#B2BDFF"/>
<stop offset="0.67" stop-color="#A7B4FF"/>
<stop offset="0.71" stop-color="#A4B1FF"/>
<stop offset="0.75" stop-color="#A2AFFF"/>
<stop offset="1" stop-color="#9FADFF"/>
</linearGradient>
<linearGradient id="paint10_linear_2047_8195" x1="87.6643" y1="191.842" x2="-141.961" y2="233.174" gradientUnits="userSpaceOnUse">
<stop stop-color="#B6C1FF"/>
<stop offset="0.08" stop-color="#B8C3FF"/>
<stop offset="0.13" stop-color="#C0C9FF"/>
<stop offset="0.17" stop-color="#CED5FF"/>
<stop offset="0.19" stop-color="#DADFFF"/>
<stop offset="0.33" stop-color="#DCE1FF"/>
<stop offset="0.41" stop-color="#E4E8FF"/>
<stop offset="0.47" stop-color="#F2F4FF"/>
<stop offset="0.51" stop-color="#FBFCFF"/>
<stop offset="0.55" stop-color="#D2D9FF"/>
<stop offset="0.59" stop-color="#AEBAFF"/>
<stop offset="0.63" stop-color="#90A0FF"/>
<stop offset="0.67" stop-color="#778BFF"/>
<stop offset="0.72" stop-color="#647BFF"/>
<stop offset="0.78" stop-color="#576FFF"/>
<stop offset="0.86" stop-color="#4F68FF"/>
<stop offset="1" stop-color="#4D67FF"/>
</linearGradient>
<linearGradient id="paint11_linear_2047_8195" x1="285.841" y1="215.324" x2="541.746" y2="16.4958" gradientUnits="userSpaceOnUse">
<stop stop-color="#BFC8FF"/>
<stop offset="0.51" stop-color="white"/>
<stop offset="0.54" stop-color="#E0E4FF"/>
<stop offset="0.58" stop-color="#C5CDFF"/>
<stop offset="0.63" stop-color="#B2BDFF"/>
<stop offset="0.67" stop-color="#A7B4FF"/>
<stop offset="0.71" stop-color="#A4B1FF"/>
<stop offset="0.75" stop-color="#A2AFFF"/>
<stop offset="1" stop-color="#9FADFF"/>
</linearGradient>
<linearGradient id="paint12_linear_2047_8195" x1="277.379" y1="107.422" x2="353.414" y2="157.574" gradientUnits="userSpaceOnUse">
<stop stop-color="#BFC8FF"/>
<stop offset="0.51" stop-color="white"/>
<stop offset="0.54" stop-color="#E0E4FF"/>
<stop offset="0.58" stop-color="#C5CDFF"/>
<stop offset="0.63" stop-color="#B2BDFF"/>
<stop offset="0.67" stop-color="#A7B4FF"/>
<stop offset="0.71" stop-color="#A4B1FF"/>
<stop offset="0.75" stop-color="#A2AFFF"/>
<stop offset="1" stop-color="#9FADFF"/>
</linearGradient>
<linearGradient id="paint13_linear_2047_8195" x1="325.744" y1="139.442" x2="391.071" y2="182.553" gradientUnits="userSpaceOnUse">
<stop stop-color="#BFC8FF"/>
<stop offset="0.51" stop-color="white"/>
<stop offset="0.54" stop-color="#E0E4FF"/>
<stop offset="0.58" stop-color="#C5CDFF"/>
<stop offset="0.63" stop-color="#B2BDFF"/>
<stop offset="0.67" stop-color="#A7B4FF"/>
<stop offset="0.71" stop-color="#A4B1FF"/>
<stop offset="0.75" stop-color="#A2AFFF"/>
<stop offset="1" stop-color="#9FADFF"/>
</linearGradient>
<linearGradient id="paint14_linear_2047_8195" x1="277.379" y1="107.422" x2="353.414" y2="157.574" gradientUnits="userSpaceOnUse">
<stop stop-color="#BFC8FF"/>
<stop offset="0.51" stop-color="white"/>
<stop offset="0.54" stop-color="#E0E4FF"/>
<stop offset="0.58" stop-color="#C5CDFF"/>
<stop offset="0.63" stop-color="#B2BDFF"/>
<stop offset="0.67" stop-color="#A7B4FF"/>
<stop offset="0.71" stop-color="#A4B1FF"/>
<stop offset="0.75" stop-color="#A2AFFF"/>
<stop offset="1" stop-color="#9FADFF"/>
</linearGradient>
<linearGradient id="paint15_linear_2047_8195" x1="324.928" y1="138.868" x2="401.518" y2="189.379" gradientUnits="userSpaceOnUse">
<stop stop-color="#BFC8FF"/>
<stop offset="0.51" stop-color="white"/>
<stop offset="0.54" stop-color="#E0E4FF"/>
<stop offset="0.58" stop-color="#C5CDFF"/>
<stop offset="0.63" stop-color="#B2BDFF"/>
<stop offset="0.67" stop-color="#A7B4FF"/>
<stop offset="0.71" stop-color="#A4B1FF"/>
<stop offset="0.75" stop-color="#A2AFFF"/>
<stop offset="1" stop-color="#9FADFF"/>
</linearGradient>
<linearGradient id="paint16_linear_2047_8195" x1="446.229" y1="69.1265" x2="397.238" y2="145.927" gradientUnits="userSpaceOnUse">
<stop stop-color="#BFC8FF"/>
<stop offset="0.51" stop-color="white"/>
<stop offset="0.54" stop-color="#E0E4FF"/>
<stop offset="0.58" stop-color="#C5CDFF"/>
<stop offset="0.63" stop-color="#B2BDFF"/>
<stop offset="0.67" stop-color="#A7B4FF"/>
<stop offset="0.71" stop-color="#A4B1FF"/>
<stop offset="0.75" stop-color="#A2AFFF"/>
<stop offset="1" stop-color="#9FADFF"/>
</linearGradient>
<linearGradient id="paint17_linear_2047_8195" x1="413.999" y1="120.615" x2="371.927" y2="186.598" gradientUnits="userSpaceOnUse">
<stop stop-color="#BFC8FF"/>
<stop offset="0.51" stop-color="white"/>
<stop offset="0.54" stop-color="#E0E4FF"/>
<stop offset="0.58" stop-color="#C5CDFF"/>
<stop offset="0.63" stop-color="#B2BDFF"/>
<stop offset="0.67" stop-color="#A7B4FF"/>
<stop offset="0.71" stop-color="#A4B1FF"/>
<stop offset="0.75" stop-color="#A2AFFF"/>
<stop offset="1" stop-color="#9FADFF"/>
</linearGradient>
<linearGradient id="paint18_linear_2047_8195" x1="446.229" y1="69.1265" x2="397.238" y2="145.927" gradientUnits="userSpaceOnUse">
<stop stop-color="#BFC8FF"/>
<stop offset="0.51" stop-color="white"/>
<stop offset="0.54" stop-color="#E0E4FF"/>
<stop offset="0.58" stop-color="#C5CDFF"/>
<stop offset="0.63" stop-color="#B2BDFF"/>
<stop offset="0.67" stop-color="#A7B4FF"/>
<stop offset="0.71" stop-color="#A4B1FF"/>
<stop offset="0.75" stop-color="#A2AFFF"/>
<stop offset="1" stop-color="#9FADFF"/>
</linearGradient>
<linearGradient id="paint19_linear_2047_8195" x1="414.509" y1="119.743" x2="365.198" y2="197.089" gradientUnits="userSpaceOnUse">
<stop stop-color="#BFC8FF"/>
<stop offset="0.51" stop-color="white"/>
<stop offset="0.54" stop-color="#E0E4FF"/>
<stop offset="0.58" stop-color="#C5CDFF"/>
<stop offset="0.63" stop-color="#B2BDFF"/>
<stop offset="0.67" stop-color="#A7B4FF"/>
<stop offset="0.71" stop-color="#A4B1FF"/>
<stop offset="0.75" stop-color="#A2AFFF"/>
<stop offset="1" stop-color="#9FADFF"/>
</linearGradient>
<linearGradient id="paint20_linear_2047_8195" x1="246.936" y1="166.753" x2="276.717" y2="90.6782" gradientUnits="userSpaceOnUse">
<stop stop-color="#BFC8FF"/>
<stop offset="0.51" stop-color="white"/>
<stop offset="0.54" stop-color="#E0E4FF"/>
<stop offset="0.58" stop-color="#C5CDFF"/>
<stop offset="0.63" stop-color="#B2BDFF"/>
<stop offset="0.67" stop-color="#A7B4FF"/>
<stop offset="0.71" stop-color="#A4B1FF"/>
<stop offset="0.75" stop-color="#A2AFFF"/>
<stop offset="1" stop-color="#9FADFF"/>
</linearGradient>
<linearGradient id="paint21_linear_2047_8195" x1="255.544" y1="162.509" x2="296.694" y2="70.7114" gradientUnits="userSpaceOnUse">
<stop stop-color="#BFC8FF"/>
<stop offset="0.51" stop-color="white"/>
<stop offset="0.54" stop-color="#E0E4FF"/>
<stop offset="0.58" stop-color="#C5CDFF"/>
<stop offset="0.63" stop-color="#B2BDFF"/>
<stop offset="0.67" stop-color="#A7B4FF"/>
<stop offset="0.71" stop-color="#A4B1FF"/>
<stop offset="0.75" stop-color="#A2AFFF"/>
<stop offset="1" stop-color="#9FADFF"/>
</linearGradient>
<linearGradient id="paint22_linear_2047_8195" x1="75.4889" y1="281.171" x2="331.416" y2="82.3085" gradientUnits="userSpaceOnUse">
<stop stop-color="#BFC8FF"/>
<stop offset="0.51" stop-color="white"/>
<stop offset="0.54" stop-color="#E0E4FF"/>
<stop offset="0.58" stop-color="#C5CDFF"/>
<stop offset="0.63" stop-color="#B2BDFF"/>
<stop offset="0.67" stop-color="#A7B4FF"/>
<stop offset="0.71" stop-color="#A4B1FF"/>
<stop offset="0.75" stop-color="#A2AFFF"/>
<stop offset="1" stop-color="#9FADFF"/>
</linearGradient>
<linearGradient id="paint23_linear_2047_8195" x1="67.0506" y1="173.241" x2="143.086" y2="223.393" gradientUnits="userSpaceOnUse">
<stop stop-color="#BFC8FF"/>
<stop offset="0.51" stop-color="white"/>
<stop offset="0.54" stop-color="#E0E4FF"/>
<stop offset="0.58" stop-color="#C5CDFF"/>
<stop offset="0.63" stop-color="#B2BDFF"/>
<stop offset="0.67" stop-color="#A7B4FF"/>
<stop offset="0.71" stop-color="#A4B1FF"/>
<stop offset="0.75" stop-color="#A2AFFF"/>
<stop offset="1" stop-color="#9FADFF"/>
</linearGradient>
<linearGradient id="paint24_linear_2047_8195" x1="115.337" y1="205.279" x2="180.704" y2="248.382" gradientUnits="userSpaceOnUse">
<stop stop-color="#BFC8FF"/>
<stop offset="0.51" stop-color="white"/>
<stop offset="0.54" stop-color="#E0E4FF"/>
<stop offset="0.58" stop-color="#C5CDFF"/>
<stop offset="0.63" stop-color="#B2BDFF"/>
<stop offset="0.67" stop-color="#A7B4FF"/>
<stop offset="0.71" stop-color="#A4B1FF"/>
<stop offset="0.75" stop-color="#A2AFFF"/>
<stop offset="1" stop-color="#9FADFF"/>
</linearGradient>
<linearGradient id="paint25_linear_2047_8195" x1="67.0506" y1="173.241" x2="143.086" y2="223.393" gradientUnits="userSpaceOnUse">
<stop stop-color="#BFC8FF"/>
<stop offset="0.51" stop-color="white"/>
<stop offset="0.54" stop-color="#E0E4FF"/>
<stop offset="0.58" stop-color="#C5CDFF"/>
<stop offset="0.63" stop-color="#B2BDFF"/>
<stop offset="0.67" stop-color="#A7B4FF"/>
<stop offset="0.71" stop-color="#A4B1FF"/>
<stop offset="0.75" stop-color="#A2AFFF"/>
<stop offset="1" stop-color="#9FADFF"/>
</linearGradient>
<linearGradient id="paint26_linear_2047_8195" x1="114.629" y1="204.681" x2="191.219" y2="255.192" gradientUnits="userSpaceOnUse">
<stop stop-color="#BFC8FF"/>
<stop offset="0.51" stop-color="white"/>
<stop offset="0.54" stop-color="#E0E4FF"/>
<stop offset="0.58" stop-color="#C5CDFF"/>
<stop offset="0.63" stop-color="#B2BDFF"/>
<stop offset="0.67" stop-color="#A7B4FF"/>
<stop offset="0.71" stop-color="#A4B1FF"/>
<stop offset="0.75" stop-color="#A2AFFF"/>
<stop offset="1" stop-color="#9FADFF"/>
</linearGradient>
<linearGradient id="paint27_linear_2047_8195" x1="235.886" y1="134.969" x2="186.911" y2="211.746" gradientUnits="userSpaceOnUse">
<stop stop-color="#BFC8FF"/>
<stop offset="0.51" stop-color="white"/>
<stop offset="0.54" stop-color="#E0E4FF"/>
<stop offset="0.58" stop-color="#C5CDFF"/>
<stop offset="0.63" stop-color="#B2BDFF"/>
<stop offset="0.67" stop-color="#A7B4FF"/>
<stop offset="0.71" stop-color="#A4B1FF"/>
<stop offset="0.75" stop-color="#A2AFFF"/>
<stop offset="1" stop-color="#9FADFF"/>
</linearGradient>
<linearGradient id="paint28_linear_2047_8195" x1="203.674" y1="186.425" x2="161.586" y2="252.432" gradientUnits="userSpaceOnUse">
<stop stop-color="#BFC8FF"/>
<stop offset="0.51" stop-color="white"/>
<stop offset="0.54" stop-color="#E0E4FF"/>
<stop offset="0.58" stop-color="#C5CDFF"/>
<stop offset="0.63" stop-color="#B2BDFF"/>
<stop offset="0.67" stop-color="#A7B4FF"/>
<stop offset="0.71" stop-color="#A4B1FF"/>
<stop offset="0.75" stop-color="#A2AFFF"/>
<stop offset="1" stop-color="#9FADFF"/>
</linearGradient>
<linearGradient id="paint29_linear_2047_8195" x1="235.886" y1="134.969" x2="186.911" y2="211.746" gradientUnits="userSpaceOnUse">
<stop stop-color="#BFC8FF"/>
<stop offset="0.51" stop-color="white"/>
<stop offset="0.54" stop-color="#E0E4FF"/>
<stop offset="0.58" stop-color="#C5CDFF"/>
<stop offset="0.63" stop-color="#B2BDFF"/>
<stop offset="0.67" stop-color="#A7B4FF"/>
<stop offset="0.71" stop-color="#A4B1FF"/>
<stop offset="0.75" stop-color="#A2AFFF"/>
<stop offset="1" stop-color="#9FADFF"/>
</linearGradient>
<linearGradient id="paint30_linear_2047_8195" x1="204.117" y1="185.572" x2="154.806" y2="262.918" gradientUnits="userSpaceOnUse">
<stop stop-color="#BFC8FF"/>
<stop offset="0.51" stop-color="white"/>
<stop offset="0.54" stop-color="#E0E4FF"/>
<stop offset="0.58" stop-color="#C5CDFF"/>
<stop offset="0.63" stop-color="#B2BDFF"/>
<stop offset="0.67" stop-color="#A7B4FF"/>
<stop offset="0.71" stop-color="#A4B1FF"/>
<stop offset="0.75" stop-color="#A2AFFF"/>
<stop offset="1" stop-color="#9FADFF"/>
</linearGradient>
<linearGradient id="paint31_linear_2047_8195" x1="39.9612" y1="237.338" x2="73.5601" y2="171.101" gradientUnits="userSpaceOnUse">
<stop stop-color="#BFC8FF"/>
<stop offset="0.51" stop-color="white"/>
<stop offset="0.54" stop-color="#E0E4FF"/>
<stop offset="0.58" stop-color="#C5CDFF"/>
<stop offset="0.63" stop-color="#B2BDFF"/>
<stop offset="0.67" stop-color="#A7B4FF"/>
<stop offset="0.71" stop-color="#A4B1FF"/>
<stop offset="0.75" stop-color="#A2AFFF"/>
<stop offset="1" stop-color="#9FADFF"/>
</linearGradient>
<linearGradient id="paint32_linear_2047_8195" x1="47.2665" y1="236.508" x2="80.8653" y2="170.271" gradientUnits="userSpaceOnUse">
<stop stop-color="#BFC8FF"/>
<stop offset="0.51" stop-color="white"/>
<stop offset="0.54" stop-color="#E0E4FF"/>
<stop offset="0.58" stop-color="#C5CDFF"/>
<stop offset="0.63" stop-color="#B2BDFF"/>
<stop offset="0.67" stop-color="#A7B4FF"/>
<stop offset="0.71" stop-color="#A4B1FF"/>
<stop offset="0.75" stop-color="#A2AFFF"/>
<stop offset="1" stop-color="#9FADFF"/>
</linearGradient>
<linearGradient id="paint33_linear_2047_8195" x1="37.7671" y1="235.55" x2="64.4687" y2="182.933" gradientUnits="userSpaceOnUse">
<stop stop-color="#BFC8FF"/>
<stop offset="0.51" stop-color="white"/>
<stop offset="0.54" stop-color="#E0E4FF"/>
<stop offset="0.58" stop-color="#C5CDFF"/>
<stop offset="0.63" stop-color="#B2BDFF"/>
<stop offset="0.67" stop-color="#A7B4FF"/>
<stop offset="0.71" stop-color="#A4B1FF"/>
<stop offset="0.75" stop-color="#A2AFFF"/>
<stop offset="1" stop-color="#9FADFF"/>
</linearGradient>
<linearGradient id="paint34_linear_2047_8195" x1="45.9188" y1="220.897" x2="63.6674" y2="185.95" gradientUnits="userSpaceOnUse">
<stop stop-color="#BFC8FF"/>
<stop offset="0.51" stop-color="white"/>
<stop offset="0.54" stop-color="#E0E4FF"/>
<stop offset="0.58" stop-color="#C5CDFF"/>
<stop offset="0.63" stop-color="#B2BDFF"/>
<stop offset="0.67" stop-color="#A7B4FF"/>
<stop offset="0.71" stop-color="#A4B1FF"/>
<stop offset="0.75" stop-color="#A2AFFF"/>
<stop offset="1" stop-color="#9FADFF"/>
</linearGradient>
<radialGradient id="paint35_radial_2047_8195" cx="0" cy="0" r="1" gradientTransform="matrix(68.3363 -7.80783 7.83794 68.3861 350.541 297.259)" gradientUnits="userSpaceOnUse">
<stop stop-color="#BFC8FF"/>
<stop offset="0.51" stop-color="white"/>
<stop offset="0.54" stop-color="#E0E4FF"/>
<stop offset="0.58" stop-color="#C5CDFF"/>
<stop offset="0.63" stop-color="#B2BDFF"/>
<stop offset="0.67" stop-color="#A7B4FF"/>
<stop offset="0.71" stop-color="#A4B1FF"/>
<stop offset="0.75" stop-color="#A2AFFF"/>
<stop offset="1" stop-color="#9FADFF"/>
</radialGradient>
<radialGradient id="paint36_radial_2047_8195" cx="0" cy="0" r="1" gradientTransform="matrix(216.365 32.8055 -32.6717 216.492 406.226 183.409)" gradientUnits="userSpaceOnUse">
<stop stop-color="#4D67FF"/>
<stop offset="0.07" stop-color="#FCE29D"/>
<stop offset="0.12" stop-color="#FFA710"/>
<stop offset="0.2" stop-color="#7A8DFF"/>
<stop offset="0.26" stop-color="#8A9BFF"/>
<stop offset="0.42" stop-color="#FDB8BB"/>
<stop offset="0.72" stop-color="#FBFB81"/>
<stop offset="0.82" stop-color="#FBFB7C"/>
<stop offset="0.9" stop-color="#FBFB79"/>
</radialGradient>
<clipPath id="clip0_2047_8195">
<rect width="604.588" height="343.406" fill="white" transform="translate(-130 195.42) rotate(-18.8582)"/>
</clipPath>
</defs>
</svg>
