<svg width="546" height="587" viewBox="0 0 546 587" fill="none" xmlns="http://www.w3.org/2000/svg">
<g clip-path="url(#clip0_261_7607)">
<path d="M351.804 349.708L394.519 390.544C411.082 406.387 436.515 408.244 455.221 395.008C465.026 388.064 470.188 376.236 468.612 364.313L468.406 362.808C466.004 344.56 453.357 329.263 435.838 323.538L376.208 303.987L351.773 349.718L351.804 349.708Z" fill="url(#paint0_linear_261_7607)"/>
<path d="M357.481 343.798L400.197 384.634C416.759 400.477 442.193 402.334 460.898 389.098C470.704 382.154 475.865 370.326 474.29 358.402L474.084 356.898C471.682 338.649 459.034 323.353 441.515 317.628L381.886 298.077L357.451 343.808L357.481 343.798Z" fill="url(#paint1_linear_261_7607)"/>
<path d="M288.866 391.575C265.338 396.599 244.232 395.694 231.106 394.118C223.584 393.229 218.533 385.951 220.33 378.593L220.111 379.455L220.349 378.449C221.858 372.251 227.713 368.163 234.056 368.906C245.921 370.297 266.168 371.187 288.095 365.683C329.836 355.294 359.832 327.144 377.453 281.995C379.893 275.718 386.757 272.38 393.151 274.476L393.305 274.526C400.233 276.782 403.762 284.409 401.121 291.199C375.165 357.717 328.638 382.031 293.159 390.623C291.708 390.981 290.277 391.299 288.877 391.606L288.866 391.575Z" fill="url(#paint2_linear_261_7607)"/>
<path d="M292.482 154.598C287.065 155.763 281.746 152.308 280.578 146.887L273.167 112.17C270.003 97.3998 274.732 82.5016 285.802 72.2499C296.872 61.9983 312.109 58.4373 326.577 62.7391L454.446 100.612L448.767 119.84L320.899 81.9673C313.214 79.6967 305.079 81.6192 299.215 87.1827C293.452 92.6431 291.232 100.865 292.888 108.618L300.172 142.762C301.339 148.183 297.889 153.504 292.472 154.669L292.482 154.598Z" fill="url(#paint3_linear_261_7607)"/>
<path d="M288.263 158.57C282.846 159.736 277.527 156.28 276.359 150.859L268.948 116.143C265.785 101.372 270.513 86.4742 281.583 76.2226C292.654 65.971 307.891 62.4099 322.358 66.7118L450.227 104.585L444.549 123.813L316.68 85.94C308.995 83.6693 300.861 85.5918 294.996 91.1554C289.233 96.6157 287.013 104.837 288.669 112.591L295.953 146.734C297.121 152.156 293.67 157.476 288.253 158.642L288.263 158.57Z" fill="url(#paint4_linear_261_7607)"/>
<path d="M445.913 100.17L429.62 103.544L432.067 124.927L448.326 121.256L447.03 109.75L445.913 100.17Z" fill="url(#paint5_linear_261_7607)"/>
<path d="M454.148 99.2409L437.856 102.615L440.302 123.998L456.562 120.327L454.148 99.2409Z" fill="url(#paint6_linear_261_7607)"/>
<path d="M429.585 103.546L432.023 124.918L440.257 123.982L437.819 102.609L429.585 103.546Z" fill="url(#paint7_linear_261_7607)"/>
<path d="M437.855 102.615L454.148 99.2415L445.914 100.171L429.621 103.545L437.855 102.615Z" fill="url(#paint8_linear_261_7607)"/>
<path d="M410.743 85.9257C380.33 66.1867 339.712 74.8564 320.002 105.279C289.59 85.5402 248.972 94.2099 229.262 124.633C209.552 155.056 218.237 195.705 248.65 215.444L342.398 276.303L347.316 279.484C349.703 281.065 352.401 281.753 355.052 281.703L365.328 282.644L364.886 277.146C365.364 276.641 365.789 276.084 366.163 275.477L430.11 176.778C449.82 146.355 441.135 105.706 410.723 85.9669L410.743 85.9257Z" fill="url(#paint9_linear_261_7607)"/>
<path d="M315.694 223.458C349.986 211.745 368.282 174.426 356.559 140.105C344.837 105.783 307.534 87.4557 273.241 99.1687C238.949 110.882 220.653 148.2 232.376 182.521C244.099 216.843 281.401 235.171 315.694 223.458Z" fill="url(#paint10_linear_261_7607)"/>
<path d="M330.196 106.247L258.819 216.417L352.571 277.266L423.947 167.096L330.196 106.247Z" fill="url(#paint11_linear_261_7607)"/>
<path d="M315.694 223.458C349.986 211.745 368.282 174.426 356.559 140.105C344.837 105.783 307.534 87.4557 273.241 99.1687C238.949 110.882 220.653 148.2 232.376 182.521C244.099 216.843 281.401 235.171 315.694 223.458Z" fill="url(#paint12_linear_261_7607)"/>
<path d="M258.815 216.442L330.192 106.273L440.325 177.754L376.378 276.455C372.276 282.787 363.814 284.591 357.484 280.483L258.815 216.442Z" fill="url(#paint13_linear_261_7607)"/>
<path d="M406.475 204.125C440.767 192.412 459.064 155.093 447.341 120.772C435.618 86.4505 398.315 68.1227 364.023 79.8357C329.73 91.5487 311.434 128.867 323.157 163.188C334.88 197.51 372.183 215.838 406.475 204.125Z" fill="url(#paint14_linear_261_7607)"/>
<path d="M269.43 200.014L379.563 271.495L440.323 177.712L330.19 106.231L269.43 200.014Z" fill="url(#paint15_linear_261_7607)"/>
<path d="M406.475 204.125C440.767 192.412 459.064 155.093 447.341 120.772C435.618 86.4505 398.315 68.1227 364.023 79.8357C329.73 91.5487 311.434 128.867 323.157 163.188C334.88 197.51 372.183 215.838 406.475 204.125Z" fill="url(#paint16_linear_261_7607)"/>
<path d="M357.513 280.418L258.845 216.377L330.221 106.208L440.354 177.689L376.407 276.39C372.305 282.722 363.861 284.499 357.558 280.408L357.513 280.418Z" fill="url(#paint17_linear_261_7607)"/>
<path d="M266.795 204.075C253.575 195.513 245.145 181.549 243.712 165.537C242.905 156.363 244.656 147.07 248.75 138.824C255.868 124.513 268.712 114.649 284.075 111.456C297.485 108.655 311.482 111.68 322.995 119.148C329.333 123.282 337.775 121.46 341.883 115.161C349.34 103.645 360.875 95.1518 374.284 92.2492C389.625 88.8923 405.389 92.683 417.751 102.839C424.85 108.699 430.273 116.467 433.247 125.174C438.483 140.401 436.477 156.56 427.917 169.754L371.943 256.145C367.845 262.474 359.393 264.266 353.065 260.162L266.704 204.106L266.795 204.075Z" fill="#0A0A0A"/>
<mask id="mask0_261_7607" style="mask-type:luminance" maskUnits="userSpaceOnUse" x="243" y="91" width="194" height="177">
<path d="M266.796 204.076C255.376 196.679 247.539 185.251 244.704 171.944C241.868 158.636 244.365 145.014 251.781 133.579C259.167 122.155 270.584 114.319 283.881 111.489C297.178 108.659 310.793 111.164 322.223 118.591L334.57 126.596L342.563 114.246C349.949 102.822 361.365 94.9857 374.663 92.1556C387.96 89.3255 401.574 91.8305 413.005 99.258C424.425 106.655 432.262 118.083 435.097 131.391C437.932 144.698 435.436 158.321 428.019 169.755L364.629 267.58L266.837 204.097L266.796 204.076Z" fill="white"/>
</mask>
<g mask="url(#mask0_261_7607)">
<path d="M288.516 229.111L287.066 228.169C283.115 225.615 282 220.347 284.56 216.426L315.451 168.764C318 164.812 323.264 163.699 327.184 166.263L343.615 176.912C352.843 182.901 365.149 180.272 371.129 171.041L415.345 102.805C417.895 98.8531 423.159 97.7399 427.079 100.304L428.53 101.246C432.48 103.8 433.595 109.067 431.035 112.989L370.448 206.501C367.898 210.453 362.635 211.566 358.714 209.003L342.284 198.353C333.055 192.364 320.749 194.993 314.769 204.225L300.28 226.599C297.731 230.551 292.467 231.664 288.547 229.101L288.516 229.111Z" fill="white"/>
</g>
<path d="M194.244 181.544C194.244 181.544 216.879 161.386 228.858 161.608L218.623 160.584C218.623 160.584 199.574 156.889 187.89 172.656L194.244 181.544Z" fill="url(#paint18_linear_261_7607)"/>
<path d="M204.48 182.568C204.48 182.568 213.488 169.083 230.079 173.995L228.859 161.608C228.859 161.608 209.809 157.912 198.126 173.68L204.48 182.568Z" fill="url(#paint19_linear_261_7607)"/>
<path d="M173.636 160.167C143.223 140.428 102.606 149.098 82.8959 179.52C52.4831 159.781 11.8657 168.451 -7.84441 198.874C-27.5545 229.297 -18.8697 269.946 11.5431 289.685L105.292 350.544L110.21 353.725C112.597 355.306 115.295 355.994 117.946 355.944L128.221 356.885L127.78 351.387C128.257 350.882 128.683 350.326 129.057 349.719L193.004 251.019C212.714 220.596 204.029 179.947 173.616 160.208L173.636 160.167Z" fill="url(#paint20_linear_261_7607)"/>
<path d="M78.6185 297.69C112.911 285.977 131.207 248.659 119.484 214.337C107.761 180.016 70.4586 161.688 36.1662 173.401C1.87373 185.114 -16.4225 222.432 -4.69959 256.754C7.02331 291.075 44.3261 309.403 78.6185 297.69Z" fill="url(#paint21_linear_261_7607)"/>
<path d="M93.0716 180.45L21.6953 290.62L115.447 351.469L186.823 241.299L93.0716 180.45Z" fill="url(#paint22_linear_261_7607)"/>
<path d="M78.6185 297.69C112.911 285.977 131.207 248.659 119.484 214.337C107.761 180.016 70.4586 161.688 36.1662 173.401C1.87373 185.114 -16.4225 222.432 -4.69959 256.754C7.02331 291.075 44.3261 309.403 78.6185 297.69Z" fill="url(#paint23_linear_261_7607)"/>
<path d="M21.7236 290.637L93.1 180.467L203.233 251.948L139.287 350.65C135.184 356.982 126.722 358.785 120.392 354.677L21.7236 290.637Z" fill="url(#paint24_linear_261_7607)"/>
<path d="M169.359 278.336C203.651 266.623 221.947 229.304 210.225 194.983C198.502 160.661 161.199 142.334 126.906 154.047C92.614 165.76 74.3177 203.078 86.0406 237.399C97.7635 271.721 135.066 290.049 169.359 278.336Z" fill="url(#paint25_linear_261_7607)"/>
<path d="M32.3368 274.222L142.47 345.703L203.229 251.92L93.0964 180.439L32.3368 274.222Z" fill="url(#paint26_linear_261_7607)"/>
<path d="M169.359 278.336C203.651 266.623 221.947 229.304 210.225 194.983C198.502 160.661 161.199 142.334 126.906 154.047C92.614 165.76 74.3177 203.078 86.0406 237.399C97.7635 271.721 135.066 290.049 169.359 278.336Z" fill="url(#paint27_linear_261_7607)"/>
<path d="M120.416 354.655L21.7469 290.615L93.1232 180.445L203.256 251.926L139.31 350.628C135.207 356.96 126.763 358.736 120.46 354.645L120.416 354.655Z" fill="url(#paint28_linear_261_7607)"/>
<path d="M29.7095 278.277C16.4889 269.715 8.05915 255.751 6.62641 239.739C5.81922 230.566 7.57047 221.272 11.6639 213.026C18.7822 198.716 31.6265 188.851 46.989 185.658C60.3991 182.858 74.3964 185.882 85.9092 193.35C92.247 197.485 100.689 195.662 104.798 189.364C112.255 177.847 123.789 169.354 137.198 166.451C152.539 163.094 168.303 166.885 180.665 177.041C187.764 182.902 193.188 190.669 196.161 199.376C201.397 214.603 199.391 230.762 190.831 243.957L134.857 330.347C130.759 336.676 122.307 338.468 115.979 334.364L29.6176 278.309L29.7095 278.277Z" fill="#0A0A0A"/>
<mask id="mask1_261_7607" style="mask-type:luminance" maskUnits="userSpaceOnUse" x="6" y="165" width="194" height="177">
<path d="M29.7089 278.276C18.2888 270.879 10.4518 259.451 7.61666 246.143C4.78158 232.835 7.27781 219.213 14.6945 207.779C22.0806 196.355 33.4969 188.518 46.7942 185.688C60.0915 182.858 73.706 185.363 85.1366 192.791L97.4827 200.796L105.476 188.445C112.862 177.021 124.278 169.185 137.576 166.355C150.873 163.525 164.487 166.03 175.918 173.457C187.338 180.854 195.175 192.282 198.01 205.59C200.845 218.898 198.349 232.52 190.932 243.954L127.542 341.779L29.7501 278.296L29.7089 278.276Z" fill="white"/>
</mask>
<g mask="url(#mask1_261_7607)">
<path d="M51.3991 303.322L49.9484 302.38C45.9977 299.826 44.8825 294.558 47.4426 290.637L78.3334 242.975C80.883 239.023 86.1468 237.91 90.0669 240.474L106.498 251.123C115.726 257.112 128.032 254.483 134.012 245.252L178.228 177.016C180.778 173.064 186.042 171.951 189.962 174.515L191.412 175.457C195.363 178.01 196.478 183.278 193.918 187.2L133.331 280.712C130.781 284.664 125.517 285.777 121.597 283.213L105.167 272.564C95.9379 266.575 83.6321 269.204 77.6523 278.436L63.1632 300.81C60.6135 304.762 55.3498 305.875 51.4297 303.311L51.3991 303.322Z" fill="white"/>
</g>
<path d="M294.764 390.314C271.236 395.338 250.129 394.433 237.003 392.857C229.482 391.968 224.43 384.69 226.227 377.332L226.009 378.194L226.247 377.188C227.755 370.99 233.611 366.902 239.953 367.645C251.819 369.036 272.065 369.926 293.993 364.422C335.733 354.034 365.729 325.883 383.351 280.734C385.79 274.457 392.655 271.12 399.049 273.215L399.203 273.265C406.13 275.521 409.659 283.148 407.018 289.939C381.063 356.456 334.535 380.77 299.056 389.362C297.605 389.72 296.174 390.038 294.774 390.345L294.764 390.314Z" fill="url(#paint29_radial_261_7607)"/>
<path d="M295.032 296.76C320.882 287.931 334.674 259.799 325.837 233.927C317 208.055 288.88 194.239 263.03 203.068C237.18 211.898 223.387 240.029 232.224 265.902C241.061 291.774 269.181 305.59 295.032 296.76Z" fill="url(#paint30_radial_261_7607)"/>
</g>
<defs>
<linearGradient id="paint0_linear_261_7607" x1="511.542" y1="456.131" x2="426.562" y2="367.029" gradientUnits="userSpaceOnUse">
<stop stop-color="#4D67FF"/>
<stop offset="0.07" stop-color="#FCE29D"/>
<stop offset="0.12" stop-color="#FFA710"/>
<stop offset="0.2" stop-color="#7A8DFF"/>
<stop offset="0.26" stop-color="#8A9BFF"/>
<stop offset="0.42" stop-color="#FDB8BB"/>
<stop offset="0.72" stop-color="#FBFB81"/>
<stop offset="0.82" stop-color="#FBFB7C"/>
<stop offset="0.9" stop-color="#FBFB79"/>
</linearGradient>
<linearGradient id="paint1_linear_261_7607" x1="358.344" y1="298.628" x2="581.385" y2="479.454" gradientUnits="userSpaceOnUse">
<stop stop-color="#4D67FF"/>
<stop offset="0.07" stop-color="#FCE29D"/>
<stop offset="0.12" stop-color="#FFA710"/>
<stop offset="0.2" stop-color="#7A8DFF"/>
<stop offset="0.26" stop-color="#8A9BFF"/>
<stop offset="0.42" stop-color="#FDB8BB"/>
<stop offset="0.72" stop-color="#FBFB81"/>
<stop offset="0.82" stop-color="#FBFB7C"/>
<stop offset="0.9" stop-color="#FBFB79"/>
</linearGradient>
<linearGradient id="paint2_linear_261_7607" x1="311.345" y1="302.175" x2="310.168" y2="387.314" gradientUnits="userSpaceOnUse">
<stop stop-color="#4D67FF"/>
<stop offset="0.07" stop-color="#FCE29D"/>
<stop offset="0.17" stop-color="#FFA710"/>
<stop offset="0.25" stop-color="#4D67FF"/>
<stop offset="0.32" stop-color="#7A8DFF"/>
<stop offset="0.37" stop-color="#8A9BFF"/>
<stop offset="0.56" stop-color="#FDB8BB"/>
<stop offset="0.6" stop-color="#7080FF"/>
<stop offset="0.72" stop-color="#FBFB81"/>
<stop offset="0.82" stop-color="#FBFB7C"/>
<stop offset="0.9" stop-color="#FBFB79"/>
</linearGradient>
<linearGradient id="paint3_linear_261_7607" x1="395.617" y1="34.4186" x2="330.368" y2="168.258" gradientUnits="userSpaceOnUse">
<stop stop-color="#BFC8FF"/>
<stop offset="0.51" stop-color="white"/>
<stop offset="0.54" stop-color="#E0E4FF"/>
<stop offset="0.58" stop-color="#C5CDFF"/>
<stop offset="0.63" stop-color="#B2BDFF"/>
<stop offset="0.67" stop-color="#A7B4FF"/>
<stop offset="0.71" stop-color="#A4B1FF"/>
<stop offset="0.75" stop-color="#A2AFFF"/>
<stop offset="1" stop-color="#9FADFF"/>
</linearGradient>
<linearGradient id="paint4_linear_261_7607" x1="321.936" y1="178.216" x2="377.92" y2="67.9028" gradientUnits="userSpaceOnUse">
<stop stop-color="#B6C1FF"/>
<stop offset="0.08" stop-color="#B8C3FF"/>
<stop offset="0.13" stop-color="#C0C9FF"/>
<stop offset="0.17" stop-color="#CED5FF"/>
<stop offset="0.19" stop-color="#DADFFF"/>
<stop offset="0.33" stop-color="#DCE1FF"/>
<stop offset="0.41" stop-color="#E4E8FF"/>
<stop offset="0.47" stop-color="#F2F4FF"/>
<stop offset="0.51" stop-color="#FBFCFF"/>
<stop offset="0.55" stop-color="#D2D9FF"/>
<stop offset="0.59" stop-color="#AEBAFF"/>
<stop offset="0.63" stop-color="#90A0FF"/>
<stop offset="0.67" stop-color="#778BFF"/>
<stop offset="0.72" stop-color="#647BFF"/>
<stop offset="0.78" stop-color="#576FFF"/>
<stop offset="0.86" stop-color="#4F68FF"/>
<stop offset="1" stop-color="#4D67FF"/>
</linearGradient>
<linearGradient id="paint5_linear_261_7607" x1="431.114" y1="128.202" x2="469.023" y2="53.5684" gradientUnits="userSpaceOnUse">
<stop stop-color="#BFC8FF"/>
<stop offset="0.51" stop-color="white"/>
<stop offset="0.54" stop-color="#E0E4FF"/>
<stop offset="0.58" stop-color="#C5CDFF"/>
<stop offset="0.63" stop-color="#B2BDFF"/>
<stop offset="0.67" stop-color="#A7B4FF"/>
<stop offset="0.71" stop-color="#A4B1FF"/>
<stop offset="0.75" stop-color="#A2AFFF"/>
<stop offset="1" stop-color="#9FADFF"/>
</linearGradient>
<linearGradient id="paint6_linear_261_7607" x1="439.382" y1="127.263" x2="477.258" y2="52.6327" gradientUnits="userSpaceOnUse">
<stop stop-color="#BFC8FF"/>
<stop offset="0.51" stop-color="white"/>
<stop offset="0.54" stop-color="#E0E4FF"/>
<stop offset="0.58" stop-color="#C5CDFF"/>
<stop offset="0.63" stop-color="#B2BDFF"/>
<stop offset="0.67" stop-color="#A7B4FF"/>
<stop offset="0.71" stop-color="#A4B1FF"/>
<stop offset="0.75" stop-color="#A2AFFF"/>
<stop offset="1" stop-color="#9FADFF"/>
</linearGradient>
<linearGradient id="paint7_linear_261_7607" x1="428.62" y1="126.218" x2="458.718" y2="66.9087" gradientUnits="userSpaceOnUse">
<stop stop-color="#BFC8FF"/>
<stop offset="0.51" stop-color="white"/>
<stop offset="0.54" stop-color="#E0E4FF"/>
<stop offset="0.58" stop-color="#C5CDFF"/>
<stop offset="0.63" stop-color="#B2BDFF"/>
<stop offset="0.67" stop-color="#A7B4FF"/>
<stop offset="0.71" stop-color="#A4B1FF"/>
<stop offset="0.75" stop-color="#A2AFFF"/>
<stop offset="1" stop-color="#9FADFF"/>
</linearGradient>
<linearGradient id="paint8_linear_261_7607" x1="437.866" y1="109.698" x2="457.84" y2="70.3104" gradientUnits="userSpaceOnUse">
<stop stop-color="#BFC8FF"/>
<stop offset="0.51" stop-color="white"/>
<stop offset="0.54" stop-color="#E0E4FF"/>
<stop offset="0.58" stop-color="#C5CDFF"/>
<stop offset="0.63" stop-color="#B2BDFF"/>
<stop offset="0.67" stop-color="#A7B4FF"/>
<stop offset="0.71" stop-color="#A4B1FF"/>
<stop offset="0.75" stop-color="#A2AFFF"/>
<stop offset="1" stop-color="#9FADFF"/>
</linearGradient>
<linearGradient id="paint9_linear_261_7607" x1="244.079" y1="242.711" x2="532.533" y2="18.5934" gradientUnits="userSpaceOnUse">
<stop stop-color="#BFC8FF"/>
<stop offset="0.51" stop-color="white"/>
<stop offset="0.54" stop-color="#E0E4FF"/>
<stop offset="0.58" stop-color="#C5CDFF"/>
<stop offset="0.63" stop-color="#B2BDFF"/>
<stop offset="0.67" stop-color="#A7B4FF"/>
<stop offset="0.71" stop-color="#A4B1FF"/>
<stop offset="0.75" stop-color="#A2AFFF"/>
<stop offset="1" stop-color="#9FADFF"/>
</linearGradient>
<linearGradient id="paint10_linear_261_7607" x1="234.54" y1="121.085" x2="320.246" y2="177.616" gradientUnits="userSpaceOnUse">
<stop stop-color="#BFC8FF"/>
<stop offset="0.51" stop-color="white"/>
<stop offset="0.54" stop-color="#E0E4FF"/>
<stop offset="0.58" stop-color="#C5CDFF"/>
<stop offset="0.63" stop-color="#B2BDFF"/>
<stop offset="0.67" stop-color="#A7B4FF"/>
<stop offset="0.71" stop-color="#A4B1FF"/>
<stop offset="0.75" stop-color="#A2AFFF"/>
<stop offset="1" stop-color="#9FADFF"/>
</linearGradient>
<linearGradient id="paint11_linear_261_7607" x1="289.057" y1="157.177" x2="362.693" y2="205.772" gradientUnits="userSpaceOnUse">
<stop stop-color="#BFC8FF"/>
<stop offset="0.51" stop-color="white"/>
<stop offset="0.54" stop-color="#E0E4FF"/>
<stop offset="0.58" stop-color="#C5CDFF"/>
<stop offset="0.63" stop-color="#B2BDFF"/>
<stop offset="0.67" stop-color="#A7B4FF"/>
<stop offset="0.71" stop-color="#A4B1FF"/>
<stop offset="0.75" stop-color="#A2AFFF"/>
<stop offset="1" stop-color="#9FADFF"/>
</linearGradient>
<linearGradient id="paint12_linear_261_7607" x1="234.54" y1="121.085" x2="320.246" y2="177.616" gradientUnits="userSpaceOnUse">
<stop stop-color="#BFC8FF"/>
<stop offset="0.51" stop-color="white"/>
<stop offset="0.54" stop-color="#E0E4FF"/>
<stop offset="0.58" stop-color="#C5CDFF"/>
<stop offset="0.63" stop-color="#B2BDFF"/>
<stop offset="0.67" stop-color="#A7B4FF"/>
<stop offset="0.71" stop-color="#A4B1FF"/>
<stop offset="0.75" stop-color="#A2AFFF"/>
<stop offset="1" stop-color="#9FADFF"/>
</linearGradient>
<linearGradient id="paint13_linear_261_7607" x1="288.138" y1="156.531" x2="374.469" y2="213.467" gradientUnits="userSpaceOnUse">
<stop stop-color="#BFC8FF"/>
<stop offset="0.51" stop-color="white"/>
<stop offset="0.54" stop-color="#E0E4FF"/>
<stop offset="0.58" stop-color="#C5CDFF"/>
<stop offset="0.63" stop-color="#B2BDFF"/>
<stop offset="0.67" stop-color="#A7B4FF"/>
<stop offset="0.71" stop-color="#A4B1FF"/>
<stop offset="0.75" stop-color="#A2AFFF"/>
<stop offset="1" stop-color="#9FADFF"/>
</linearGradient>
<linearGradient id="paint14_linear_261_7607" x1="424.867" y1="77.9184" x2="369.645" y2="164.487" gradientUnits="userSpaceOnUse">
<stop stop-color="#BFC8FF"/>
<stop offset="0.51" stop-color="white"/>
<stop offset="0.54" stop-color="#E0E4FF"/>
<stop offset="0.58" stop-color="#C5CDFF"/>
<stop offset="0.63" stop-color="#B2BDFF"/>
<stop offset="0.67" stop-color="#A7B4FF"/>
<stop offset="0.71" stop-color="#A4B1FF"/>
<stop offset="0.75" stop-color="#A2AFFF"/>
<stop offset="1" stop-color="#9FADFF"/>
</linearGradient>
<linearGradient id="paint15_linear_261_7607" x1="388.537" y1="135.956" x2="341.113" y2="210.331" gradientUnits="userSpaceOnUse">
<stop stop-color="#BFC8FF"/>
<stop offset="0.51" stop-color="white"/>
<stop offset="0.54" stop-color="#E0E4FF"/>
<stop offset="0.58" stop-color="#C5CDFF"/>
<stop offset="0.63" stop-color="#B2BDFF"/>
<stop offset="0.67" stop-color="#A7B4FF"/>
<stop offset="0.71" stop-color="#A4B1FF"/>
<stop offset="0.75" stop-color="#A2AFFF"/>
<stop offset="1" stop-color="#9FADFF"/>
</linearGradient>
<linearGradient id="paint16_linear_261_7607" x1="424.867" y1="77.9184" x2="369.645" y2="164.487" gradientUnits="userSpaceOnUse">
<stop stop-color="#BFC8FF"/>
<stop offset="0.51" stop-color="white"/>
<stop offset="0.54" stop-color="#E0E4FF"/>
<stop offset="0.58" stop-color="#C5CDFF"/>
<stop offset="0.63" stop-color="#B2BDFF"/>
<stop offset="0.67" stop-color="#A7B4FF"/>
<stop offset="0.71" stop-color="#A4B1FF"/>
<stop offset="0.75" stop-color="#A2AFFF"/>
<stop offset="1" stop-color="#9FADFF"/>
</linearGradient>
<linearGradient id="paint17_linear_261_7607" x1="389.112" y1="134.973" x2="333.529" y2="222.157" gradientUnits="userSpaceOnUse">
<stop stop-color="#BFC8FF"/>
<stop offset="0.51" stop-color="white"/>
<stop offset="0.54" stop-color="#E0E4FF"/>
<stop offset="0.58" stop-color="#C5CDFF"/>
<stop offset="0.63" stop-color="#B2BDFF"/>
<stop offset="0.67" stop-color="#A7B4FF"/>
<stop offset="0.71" stop-color="#A4B1FF"/>
<stop offset="0.75" stop-color="#A2AFFF"/>
<stop offset="1" stop-color="#9FADFF"/>
</linearGradient>
<linearGradient id="paint18_linear_261_7607" x1="200.225" y1="187.961" x2="233.795" y2="102.211" gradientUnits="userSpaceOnUse">
<stop stop-color="#BFC8FF"/>
<stop offset="0.51" stop-color="white"/>
<stop offset="0.54" stop-color="#E0E4FF"/>
<stop offset="0.58" stop-color="#C5CDFF"/>
<stop offset="0.63" stop-color="#B2BDFF"/>
<stop offset="0.67" stop-color="#A7B4FF"/>
<stop offset="0.71" stop-color="#A4B1FF"/>
<stop offset="0.75" stop-color="#A2AFFF"/>
<stop offset="1" stop-color="#9FADFF"/>
</linearGradient>
<linearGradient id="paint19_linear_261_7607" x1="209.929" y1="183.177" x2="256.313" y2="79.7044" gradientUnits="userSpaceOnUse">
<stop stop-color="#BFC8FF"/>
<stop offset="0.51" stop-color="white"/>
<stop offset="0.54" stop-color="#E0E4FF"/>
<stop offset="0.58" stop-color="#C5CDFF"/>
<stop offset="0.63" stop-color="#B2BDFF"/>
<stop offset="0.67" stop-color="#A7B4FF"/>
<stop offset="0.71" stop-color="#A4B1FF"/>
<stop offset="0.75" stop-color="#A2AFFF"/>
<stop offset="1" stop-color="#9FADFF"/>
</linearGradient>
<linearGradient id="paint20_linear_261_7607" x1="6.97168" y1="316.933" x2="295.45" y2="92.7776" gradientUnits="userSpaceOnUse">
<stop stop-color="#BFC8FF"/>
<stop offset="0.51" stop-color="white"/>
<stop offset="0.54" stop-color="#E0E4FF"/>
<stop offset="0.58" stop-color="#C5CDFF"/>
<stop offset="0.63" stop-color="#B2BDFF"/>
<stop offset="0.67" stop-color="#A7B4FF"/>
<stop offset="0.71" stop-color="#A4B1FF"/>
<stop offset="0.75" stop-color="#A2AFFF"/>
<stop offset="1" stop-color="#9FADFF"/>
</linearGradient>
<linearGradient id="paint21_linear_261_7607" x1="-2.54009" y1="195.277" x2="83.1662" y2="251.807" gradientUnits="userSpaceOnUse">
<stop stop-color="#BFC8FF"/>
<stop offset="0.51" stop-color="white"/>
<stop offset="0.54" stop-color="#E0E4FF"/>
<stop offset="0.58" stop-color="#C5CDFF"/>
<stop offset="0.63" stop-color="#B2BDFF"/>
<stop offset="0.67" stop-color="#A7B4FF"/>
<stop offset="0.71" stop-color="#A4B1FF"/>
<stop offset="0.75" stop-color="#A2AFFF"/>
<stop offset="1" stop-color="#9FADFF"/>
</linearGradient>
<linearGradient id="paint22_linear_261_7607" x1="51.8883" y1="231.39" x2="125.569" y2="279.975" gradientUnits="userSpaceOnUse">
<stop stop-color="#BFC8FF"/>
<stop offset="0.51" stop-color="white"/>
<stop offset="0.54" stop-color="#E0E4FF"/>
<stop offset="0.58" stop-color="#C5CDFF"/>
<stop offset="0.63" stop-color="#B2BDFF"/>
<stop offset="0.67" stop-color="#A7B4FF"/>
<stop offset="0.71" stop-color="#A4B1FF"/>
<stop offset="0.75" stop-color="#A2AFFF"/>
<stop offset="1" stop-color="#9FADFF"/>
</linearGradient>
<linearGradient id="paint23_linear_261_7607" x1="-2.54009" y1="195.277" x2="83.1662" y2="251.807" gradientUnits="userSpaceOnUse">
<stop stop-color="#BFC8FF"/>
<stop offset="0.51" stop-color="white"/>
<stop offset="0.54" stop-color="#E0E4FF"/>
<stop offset="0.58" stop-color="#C5CDFF"/>
<stop offset="0.63" stop-color="#B2BDFF"/>
<stop offset="0.67" stop-color="#A7B4FF"/>
<stop offset="0.71" stop-color="#A4B1FF"/>
<stop offset="0.75" stop-color="#A2AFFF"/>
<stop offset="1" stop-color="#9FADFF"/>
</linearGradient>
<linearGradient id="paint24_linear_261_7607" x1="51.0905" y1="230.716" x2="137.422" y2="287.651" gradientUnits="userSpaceOnUse">
<stop stop-color="#BFC8FF"/>
<stop offset="0.51" stop-color="white"/>
<stop offset="0.54" stop-color="#E0E4FF"/>
<stop offset="0.58" stop-color="#C5CDFF"/>
<stop offset="0.63" stop-color="#B2BDFF"/>
<stop offset="0.67" stop-color="#A7B4FF"/>
<stop offset="0.71" stop-color="#A4B1FF"/>
<stop offset="0.75" stop-color="#A2AFFF"/>
<stop offset="1" stop-color="#9FADFF"/>
</linearGradient>
<linearGradient id="paint25_linear_261_7607" x1="187.769" y1="152.136" x2="132.565" y2="238.677" gradientUnits="userSpaceOnUse">
<stop stop-color="#BFC8FF"/>
<stop offset="0.51" stop-color="white"/>
<stop offset="0.54" stop-color="#E0E4FF"/>
<stop offset="0.58" stop-color="#C5CDFF"/>
<stop offset="0.63" stop-color="#B2BDFF"/>
<stop offset="0.67" stop-color="#A7B4FF"/>
<stop offset="0.71" stop-color="#A4B1FF"/>
<stop offset="0.75" stop-color="#A2AFFF"/>
<stop offset="1" stop-color="#9FADFF"/>
</linearGradient>
<linearGradient id="paint26_linear_261_7607" x1="151.461" y1="210.136" x2="104.02" y2="284.539" gradientUnits="userSpaceOnUse">
<stop stop-color="#BFC8FF"/>
<stop offset="0.51" stop-color="white"/>
<stop offset="0.54" stop-color="#E0E4FF"/>
<stop offset="0.58" stop-color="#C5CDFF"/>
<stop offset="0.63" stop-color="#B2BDFF"/>
<stop offset="0.67" stop-color="#A7B4FF"/>
<stop offset="0.71" stop-color="#A4B1FF"/>
<stop offset="0.75" stop-color="#A2AFFF"/>
<stop offset="1" stop-color="#9FADFF"/>
</linearGradient>
<linearGradient id="paint27_linear_261_7607" x1="187.769" y1="152.136" x2="132.565" y2="238.677" gradientUnits="userSpaceOnUse">
<stop stop-color="#BFC8FF"/>
<stop offset="0.51" stop-color="white"/>
<stop offset="0.54" stop-color="#E0E4FF"/>
<stop offset="0.58" stop-color="#C5CDFF"/>
<stop offset="0.63" stop-color="#B2BDFF"/>
<stop offset="0.67" stop-color="#A7B4FF"/>
<stop offset="0.71" stop-color="#A4B1FF"/>
<stop offset="0.75" stop-color="#A2AFFF"/>
<stop offset="1" stop-color="#9FADFF"/>
</linearGradient>
<linearGradient id="paint28_linear_261_7607" x1="151.96" y1="209.175" x2="96.3772" y2="296.359" gradientUnits="userSpaceOnUse">
<stop stop-color="#BFC8FF"/>
<stop offset="0.51" stop-color="white"/>
<stop offset="0.54" stop-color="#E0E4FF"/>
<stop offset="0.58" stop-color="#C5CDFF"/>
<stop offset="0.63" stop-color="#B2BDFF"/>
<stop offset="0.67" stop-color="#A7B4FF"/>
<stop offset="0.71" stop-color="#A4B1FF"/>
<stop offset="0.75" stop-color="#A2AFFF"/>
<stop offset="1" stop-color="#9FADFF"/>
</linearGradient>
<radialGradient id="paint29_radial_261_7607" cx="0" cy="0" r="1" gradientTransform="matrix(77.028 -8.80091 8.83485 77.0841 317.008 335.067)" gradientUnits="userSpaceOnUse">
<stop stop-color="#BFC8FF"/>
<stop offset="0.51" stop-color="white"/>
<stop offset="0.54" stop-color="#E0E4FF"/>
<stop offset="0.58" stop-color="#C5CDFF"/>
<stop offset="0.63" stop-color="#B2BDFF"/>
<stop offset="0.67" stop-color="#A7B4FF"/>
<stop offset="0.71" stop-color="#A4B1FF"/>
<stop offset="0.75" stop-color="#A2AFFF"/>
<stop offset="1" stop-color="#9FADFF"/>
</radialGradient>
<radialGradient id="paint30_radial_261_7607" cx="0" cy="0" r="1" gradientTransform="matrix(243.884 36.978 -36.8273 244.028 379.775 206.737)" gradientUnits="userSpaceOnUse">
<stop stop-color="#4D67FF"/>
<stop offset="0.07" stop-color="#FCE29D"/>
<stop offset="0.12" stop-color="#FFA710"/>
<stop offset="0.2" stop-color="#7A8DFF"/>
<stop offset="0.26" stop-color="#8A9BFF"/>
<stop offset="0.42" stop-color="#FDB8BB"/>
<stop offset="0.72" stop-color="#FBFB81"/>
<stop offset="0.82" stop-color="#FBFB7C"/>
<stop offset="0.9" stop-color="#FBFB79"/>
</radialGradient>
<clipPath id="clip0_261_7607">
<rect width="681.486" height="387.084" fill="white" transform="translate(-224.653 220.275) rotate(-18.8582)"/>
</clipPath>
</defs>
</svg>
