<svg width="25" height="35" viewBox="0 0 25 35" fill="none" xmlns="http://www.w3.org/2000/svg">
<path d="M9.75265 -0.000443671H14.5294C15.237 1.14951 16.0995 2.25523 17.1167 3.31672C18.134 4.33398 19.2397 5.19644 20.4339 5.9041C21.6723 6.56754 22.955 6.98771 24.2818 7.16463V10.1501C21.9377 9.92893 19.8811 9.22127 18.1119 8.02709C16.3427 6.78868 14.9274 5.55027 13.8659 4.31187H13.6006V34.8961H10.6151V4.31187H10.4161C9.31036 5.55027 7.87292 6.78868 6.10377 8.02709C4.37884 9.22127 2.34432 9.92893 0.000190372 10.1501V7.16463C1.32706 6.98771 2.58758 6.54542 3.78176 5.83776C5.02016 5.1301 6.148 4.26764 7.16526 3.25038C8.18252 2.18889 9.04499 1.10528 9.75265 -0.000443671Z" fill="#FBFB79"/>
</svg>
