
<svg width="87" height="31" viewBox="0 0 87 31" fill="none" xmlns="http://www.w3.org/2000/svg">
<path d="M32.7787 7.48928H34.4162C34.7127 7.48928 34.9386 7.53163 35.0938 7.60927C35.2491 7.68691 35.3621 7.79279 35.4185 7.93396C35.482 8.06807 35.5103 8.23747 35.5103 8.44216V9.36679C35.5103 9.56442 35.5244 9.74793 35.5456 9.90322C35.5667 10.0585 35.602 10.1855 35.6444 10.2773H37.5925C37.5219 10.122 37.4795 9.96674 37.4654 9.81146C37.4513 9.65617 37.4513 9.50796 37.4513 9.36679V8.11042C37.4513 7.81397 37.409 7.56692 37.3172 7.36223C37.2254 7.15754 37.0913 6.98815 36.9008 6.8611C36.7172 6.73405 36.4702 6.64229 36.1596 6.59288V6.51524C36.6043 6.4023 36.9572 6.17644 37.2184 5.8447C37.4795 5.51296 37.6136 5.10358 37.6136 4.62362C37.6136 4.32717 37.5713 4.06601 37.4866 3.83308C37.4019 3.60016 37.289 3.39547 37.1337 3.21902C36.9855 3.04256 36.8019 2.9014 36.5831 2.78141C36.3714 2.66847 36.1244 2.58377 35.8561 2.52024C35.5879 2.46378 35.2985 2.43555 34.9809 2.43555H30.8518V10.2773H32.7787V7.48928ZM34.5151 4.01661C34.6774 4.01661 34.8327 4.03778 34.9668 4.07307C35.1009 4.10837 35.2209 4.16483 35.3197 4.24247C35.4185 4.32011 35.4962 4.41187 35.5526 4.53186C35.6091 4.65185 35.6303 4.80008 35.6303 4.97654C35.6303 5.25887 35.5456 5.49179 35.3762 5.68942C35.2068 5.87999 34.9174 5.97881 34.508 5.97881H32.7787V4.02366H34.508L34.5151 4.01661Z" fill="#2B190F"/>
<path d="M40.6557 3.47949H38.7288V10.2696H40.6557V3.47949Z" fill="#2B190F"/>
<path d="M48.0246 6.75487C47.8693 6.45136 47.6646 6.21844 47.4035 6.04199C47.1423 5.87259 46.8529 5.73848 46.5424 5.65378C46.2318 5.56908 45.9142 5.4985 45.5895 5.44909C45.1095 5.37851 44.7425 5.30792 44.4813 5.23734C44.2202 5.16676 44.0437 5.075 43.952 4.97619C43.8531 4.87031 43.8037 4.72914 43.8037 4.55269C43.8037 4.37623 43.8461 4.22801 43.9378 4.11508C44.0296 4.00214 44.1567 3.91744 44.319 3.86098C44.4813 3.80451 44.679 3.77628 44.8978 3.77628C45.0954 3.77628 45.286 3.80451 45.4695 3.86098C45.6459 3.91744 45.7942 4.01626 45.9071 4.14331C46.02 4.27741 46.0765 4.45387 46.0836 4.67268H48.0317C48.0246 4.20683 47.8975 3.79746 47.6434 3.44454C47.3893 3.09163 47.0364 2.81636 46.5776 2.61872C46.1189 2.42109 45.5754 2.32227 44.9542 2.32227C44.3331 2.32227 43.7402 2.42109 43.2673 2.61872C42.7944 2.81636 42.4344 3.09868 42.1803 3.46572C41.9262 3.83275 41.7992 4.27742 41.7992 4.78561C41.7992 5.13147 41.8556 5.42792 41.9686 5.68907C42.0815 5.95023 42.258 6.16904 42.4838 6.35255C42.7168 6.53607 42.9991 6.69841 43.3449 6.8184C43.6908 6.94545 44.0861 7.04427 44.5378 7.11485C44.8766 7.16426 45.1519 7.21366 45.3777 7.26307C45.5965 7.31248 45.773 7.36895 45.9 7.43247C46.0271 7.49599 46.1118 7.57363 46.1683 7.67245C46.2247 7.76421 46.2459 7.8842 46.2459 8.03948C46.2459 8.23712 46.1965 8.40652 46.0977 8.52651C45.9989 8.65356 45.8577 8.74531 45.6742 8.80178C45.4907 8.85825 45.2719 8.88648 45.0248 8.88648C44.686 8.88648 44.4178 8.83707 44.2061 8.74531C44.0014 8.65355 43.8461 8.5265 43.7402 8.3571C43.6414 8.19476 43.592 7.99714 43.592 7.77833H41.6368C41.6368 8.28653 41.7639 8.73825 42.018 9.12645C42.2721 9.51466 42.6462 9.81817 43.1403 10.037C43.6343 10.2487 44.2343 10.3617 44.9542 10.3617C45.6742 10.3617 46.2953 10.2558 46.7823 10.0511C47.2694 9.84641 47.6364 9.55701 47.8834 9.18292C48.1305 8.81589 48.2575 8.38534 48.2575 7.90537C48.2575 7.42541 48.1799 7.0372 48.0246 6.7337V6.75487Z" fill="#2B190F"/>
<path d="M55.104 8.62567H51.1867V7.06578H54.5323V5.52708H51.1867V4.08013H55.0687V2.43555H49.2598V10.2773H55.104V8.62567Z" fill="#2B190F"/>
<path d="M36.1385 19.947C36.562 19.7847 36.8867 19.5306 37.1125 19.1918C37.3384 18.853 37.4513 18.4366 37.4513 17.9354C37.4513 17.6319 37.3949 17.3567 37.2819 17.1096C37.169 16.8626 36.9996 16.6508 36.7737 16.4885C36.5408 16.3191 36.2444 16.2061 35.8773 16.1497L35.8914 16.072C36.1738 16.0085 36.4138 15.8956 36.6114 15.7403C36.809 15.585 36.9714 15.3874 37.0772 15.1615C37.1902 14.9286 37.2466 14.6674 37.2466 14.378C37.2466 13.771 37.049 13.277 36.6467 12.9099C36.2444 12.5429 35.6373 12.3594 34.8256 12.3594H30.8589V20.2011H34.5786C35.1927 20.2011 35.715 20.1164 36.1385 19.9541V19.947ZM34.2892 13.8204C34.5998 13.8204 34.8398 13.884 35.0233 14.0181C35.2068 14.1522 35.2986 14.3569 35.2986 14.6392C35.2986 14.8086 35.2633 14.9568 35.1997 15.0839C35.1292 15.2109 35.0233 15.3097 34.8821 15.3803C34.7409 15.4509 34.5504 15.4862 34.3245 15.4862H32.7293V13.8204H34.2892ZM32.7293 18.733V16.8908H34.4092C34.7409 16.8908 35.0021 16.9614 35.1997 17.1096C35.3974 17.2578 35.4962 17.4908 35.4962 17.8154C35.4962 18.0907 35.4115 18.3095 35.235 18.4789C35.0586 18.6483 34.7692 18.733 34.3598 18.733H32.7364H32.7293Z" fill="#2B190F"/>
<path d="M40.5357 20.1943H42.4626V17.258L45.3777 12.3525H43.1896L42.1591 14.3218L41.5239 15.5852H41.4533L40.8392 14.3218L39.8228 12.3525H37.6348L40.5357 17.258V20.1943Z" fill="#2B190F"/>
<path d="M55.2876 20.1943V12.3525H53.3607V15.3876H50.0151V12.3525H48.0952V20.1943H50.0151V17.0322H53.3607V20.1943H55.2876Z" fill="#2B190F"/>
<path d="M58.6544 12.3525L56.1276 20.1943H58.1392L58.5768 18.6909H61.4707L61.9083 20.1943H63.9199L61.3931 12.3525H58.6474H58.6544ZM59.0073 17.2157L59.7061 14.8159L59.9884 13.8065H60.0661L60.3484 14.8159L61.0472 17.2157H59.0144H59.0073Z" fill="#2B190F"/>
<path d="M69.7288 12.6841C69.2771 12.4653 68.7195 12.3594 68.0419 12.3594H64.7598V20.2011H66.6867V17.6178H68.0419C68.6418 17.6178 69.1712 17.5119 69.6229 17.3072C70.0747 17.1026 70.4276 16.799 70.6817 16.4038C70.9358 16.0085 71.0628 15.5356 71.0628 14.971C71.0628 14.4486 70.9499 13.9898 70.7311 13.6016C70.5052 13.2134 70.1735 12.9029 69.7288 12.6841ZM68.8183 15.8179C68.6277 16.0226 68.3171 16.1285 67.8866 16.1285H66.6937V13.9757H67.8866C68.2466 13.9757 68.536 14.0604 68.7618 14.2228C68.9877 14.3851 69.1006 14.6533 69.1006 15.0274C69.1006 15.345 69.0089 15.6062 68.8183 15.8109V15.8179Z" fill="#2B190F"/>
<path d="M76.9919 12.6841C76.5401 12.4653 75.9825 12.3594 75.3049 12.3594H72.0228V20.2011H73.9497V17.6178H75.3049C75.9049 17.6178 76.4343 17.5119 76.886 17.3072C77.3377 17.1026 77.6906 16.799 77.9447 16.4038C78.1988 16.0085 78.3259 15.5356 78.3259 14.971C78.3259 14.4486 78.2129 13.9898 77.9941 13.6016C77.7683 13.2134 77.4365 12.9029 76.9919 12.6841ZM76.0743 15.8179C75.8837 16.0226 75.5731 16.1285 75.1426 16.1285H73.9497V13.9757H75.1426C75.5026 13.9757 75.792 14.0604 76.0178 14.2228C76.2437 14.3851 76.3566 14.6533 76.3566 15.0274C76.3566 15.345 76.2649 15.6062 76.0743 15.8109V15.8179Z" fill="#2B190F"/>
<path d="M84.043 12.3525L83.0125 14.3218L82.3773 15.5852H82.2996L81.6855 14.3218L80.6762 12.3525H78.4811L81.382 17.258V20.1943H83.309V17.258L86.224 12.3525H84.043Z" fill="#2B190F"/>
<path d="M36.1243 25.3114H32.7787V22.2764H30.8518V30.1181H32.7787V26.956H36.1243V30.1181H38.0513V22.2764H36.1243V25.3114Z" fill="#2B190F"/>
<path d="M45.9354 23.2226C45.5825 22.8767 45.166 22.6156 44.679 22.4391C44.192 22.2626 43.6485 22.1709 43.0556 22.1709C42.4627 22.1709 41.9122 22.2626 41.4251 22.4391C40.9381 22.6156 40.5217 22.8767 40.1688 23.2155C39.8158 23.5543 39.5476 23.9778 39.3641 24.4719C39.1806 24.973 39.0818 25.5448 39.0818 26.1871C39.0818 26.8294 39.1735 27.4081 39.3641 27.9093C39.5476 28.4104 39.8229 28.8339 40.1688 29.1727C40.5217 29.5115 40.9381 29.7727 41.4251 29.9491C41.9122 30.1256 42.4556 30.2173 43.0556 30.2173C43.6556 30.2173 44.192 30.1256 44.679 29.9491C45.166 29.7727 45.5895 29.5115 45.9354 29.1727C46.2883 28.8339 46.5565 28.4104 46.74 27.9093C46.9235 27.4081 47.0224 26.8364 47.0224 26.1871C47.0224 25.5377 46.9306 24.973 46.74 24.479C46.5565 23.9849 46.2812 23.5614 45.9354 23.2226ZM44.799 27.5352C44.6367 27.8881 44.4037 28.1493 44.1073 28.3187C43.8038 28.4881 43.4579 28.5798 43.0556 28.5798C42.7521 28.5798 42.4839 28.5304 42.2368 28.4387C41.9898 28.3469 41.7851 28.1987 41.6157 28.0081C41.4463 27.8175 41.3122 27.5634 41.2134 27.2599C41.1146 26.9564 41.0652 26.5964 41.0652 26.1871C41.0652 25.6436 41.1499 25.1918 41.3122 24.8389C41.4745 24.486 41.7075 24.2249 42.0039 24.0625C42.3004 23.8931 42.6533 23.8084 43.0556 23.8084C43.3591 23.8084 43.6273 23.8578 43.8744 23.9566C44.1214 24.0555 44.3261 24.1966 44.5026 24.3943C44.679 24.5848 44.8131 24.8319 44.9049 25.1283C44.9966 25.4248 45.046 25.7777 45.046 26.1871C45.046 26.7306 44.9684 27.1823 44.8061 27.5352H44.799Z" fill="#2B190F"/>
<path d="M52.7678 25.4102L52.3796 27.3654H52.2949L51.9067 25.4102L51.0809 22.2764H48.0529V30.1181H49.9374V26.6243L49.8951 24.0833H49.9798L50.5585 26.4196L51.5396 30.1181H53.1348L54.1089 26.4549L54.6947 24.0833H54.7794L54.7229 26.6102V30.1181H56.5934V22.2764H53.5866L52.7678 25.4102Z" fill="#2B190F"/>
<path d="M59.8966 26.9137H63.2423V25.375H59.8966V23.9209H63.7787V22.2764H57.9697V30.1181H63.814V28.4735H59.8966V26.9137Z" fill="#2B190F"/>
<path d="M39.6887 2.85154C40.4762 2.85154 41.1145 2.21321 41.1145 1.42578C41.1145 0.638344 40.4762 0 39.6887 0C38.9013 0 38.2629 0.638344 38.2629 1.42578C38.2629 2.21321 38.9013 2.85154 39.6887 2.85154Z" fill="#2B190F"/>
<path d="M26.8145 15.8743C27.3791 14.7874 27.6897 13.6016 27.6897 12.3664C27.6897 11.1312 27.3791 9.95243 26.8145 8.8584V15.8673V15.8743Z" fill="#2B190F"/>
<path d="M26.158 12.3666C26.158 9.77617 25.3534 7.38341 23.977 5.40709V8.35745C23.4759 7.10108 22.7418 5.95763 21.8242 4.98359V6.30349C20.0102 3.94602 17.1587 2.43555 13.9542 2.43555H0V30.1182H7.87705V22.2976H10.658L16.5446 30.1182H25.311L18.5633 21.1612C19.8479 20.4765 20.9561 19.5378 21.8172 18.4155V19.7495C22.7277 18.7755 23.4618 17.632 23.9699 16.3757V19.326C25.3393 17.3497 26.151 14.9499 26.151 12.3666H26.158ZM11.9497 17.3497C9.19695 17.3497 6.96653 15.1193 6.96653 12.3666C6.96653 9.61383 9.19695 7.38341 11.9497 7.38341C14.7024 7.38341 16.9328 9.61383 16.9328 12.3666C16.9328 15.1193 14.7024 17.3497 11.9497 17.3497Z" fill="#2B190F"/>
</svg>
