
<svg width="28" height="28" viewBox="0 0 28 28" fill="none" xmlns="http://www.w3.org/2000/svg">
<path d="M27.7814 27.7814H0V0H27.7814V27.7814ZM0.585838 27.2026H27.1956V0.592894H0.585838V27.2026ZM11.5403 9.81807L8.75228 8.75933L3.78324 10.651V17.9845C5.93602 16.4952 8.60405 15.4506 11.5332 15.0412V9.82514L11.5403 9.81807ZM11.5403 4.7714V9.81807L13.7213 10.651V14.8506C13.926 14.8506 14.1378 14.8365 14.3495 14.8365C14.6671 14.8365 14.9777 14.8506 15.2883 14.8648V6.24658L16.6082 6.76183V2.8092L11.5474 4.7714H11.5403ZM16.6011 6.76183V14.9706C19.3468 15.2741 21.8736 16.1282 23.9911 17.3916V9.62751L16.6011 6.75478V6.76183ZM13.199 24.9793V19.6714H15.2177V24.9793H13.199ZM5.9219 21.7889C6.0913 21.6266 6.35246 21.5278 6.75478 21.5278H12.0908V19.6785H6.57832C6.04895 19.6785 5.59722 19.742 5.22313 19.8761C4.84904 20.0102 4.5526 20.2008 4.31967 20.4408C4.09381 20.6878 3.92441 20.9843 3.81853 21.3301C3.74089 21.5913 3.69148 21.8736 3.67031 22.1842C3.67031 22.2901 3.67031 22.4595 3.68443 22.6077C3.7056 22.8618 3.75501 23.0947 3.81853 23.3135C3.92441 23.6664 4.08675 23.9629 4.31967 24.2029C4.54554 24.4499 4.84904 24.6405 5.22313 24.7675C5.59722 24.9016 6.04895 24.9652 6.57832 24.9652H12.0908V23.1159H6.75478C6.35952 23.1159 6.08424 23.0241 5.9219 22.8547C5.56193 22.4877 5.63251 22.043 5.9219 21.7678V21.7889ZM24.1041 19.6785H16.1352V21.4219L16.1494 21.4642H19.1068V24.9863H21.1255V21.4642H24.1041V19.6785ZM21.316 18.768H23.4053C21.3019 17.3846 18.5209 16.5446 15.4647 16.5446C12.4085 16.5446 9.89572 17.3069 7.82764 18.5704C9.67691 17.5751 11.9426 16.9822 14.3989 16.9822C17.0105 16.9822 19.4103 17.6528 21.316 18.768ZM6.8536 18.768C9.20401 17.2505 12.1967 16.3399 15.4577 16.3399C18.4504 16.3399 21.2102 17.1093 23.4618 18.401C20.949 16.7564 17.7022 15.7682 14.1589 15.7682C10.3616 15.7682 6.91006 16.9046 4.32673 18.7609H6.8536V18.768Z" fill="#2B190F"/>
</svg>
