<svg width="55" height="37" viewBox="0 0 55 37" fill="none" xmlns="http://www.w3.org/2000/svg">
<path d="M52.4951 4.79084V10.9009C53.0408 9.94033 53.342 8.91156 53.342 7.84302C53.342 6.77447 53.0464 5.74571 52.4951 4.78516V4.79084Z" fill="#2B190F"/>
<path d="M45.7486 15.8804C46.5614 14.971 47.2321 13.9423 47.7436 12.8226V15.0961C48.6644 13.9025 49.3635 12.5498 49.7898 11.089V14.2606C51.1596 12.3849 51.9496 10.191 51.9496 7.84359C51.9496 5.49619 51.1596 3.30226 49.7898 1.42662V4.59816C49.3692 3.14312 48.6644 1.79038 47.7436 0.591108V2.86461C47.2719 1.8188 46.6523 0.858249 45.9135 0H0.380811C2.18825 2.10868 3.27953 4.84825 3.27953 7.84359C3.27953 11.0435 2.03479 13.9536 0 16.1078L8.36082 27.2082H54.28L45.7486 15.8748V15.8804Z" fill="#2B190F"/>
<path d="M15.6642 15.5275C16.9316 14.8511 17.7558 13.5438 17.7558 12.0717C17.7558 9.91759 16.0052 8.16699 13.851 8.16699H8.36621V19.0514H11.4639V15.9765H12.5551L14.8684 19.0514H18.3128L15.6585 15.5275H15.6642ZM11.1001 12.0661C11.1001 10.9861 11.9754 10.1052 13.061 10.1052C14.1466 10.1052 15.0219 10.9805 15.0219 12.0661C15.0219 13.1517 14.1466 14.027 13.061 14.027C11.9754 14.027 11.1001 13.1517 11.1001 12.0661Z" fill="#FBFB79"/>
<path d="M22.064 9.91797H18.9663V19.0177H22.064V9.91797Z" fill="#FBFB79"/>
<path d="M41.0196 10.7813V8.16113H36.0918H32.9941V19.0455H36.0918H41.0196V16.431H36.0918V14.9134H40.8377V12.2989H36.0918V10.7813H41.0196Z" fill="#FBFB79"/>
<path d="M23.0869 18.1591C23.0869 18.1591 24.9455 19.2333 27.435 19.2333C29.9245 19.2333 32.0673 18.0511 32.0673 15.6298C32.0673 13.2086 29.3845 12.6174 27.5771 12.1912C25.7697 11.7649 25.9004 11.1965 26.2755 10.9464C26.6506 10.6963 28.7593 10.4519 31.4023 11.8672V8.78659C31.4023 8.78659 29.3504 7.97949 27.3782 7.97949C25.4059 7.97949 23.1494 8.93437 23.1494 11.3386C23.1494 14.027 26.2244 14.6124 27.5771 14.9364C28.9241 15.2547 29.6232 15.6242 29.1117 16.1073C28.6002 16.5904 25.8549 16.8121 23.0869 15.1467V18.1591Z" fill="#FBFB79"/>
<path d="M20.5127 9.03703C21.5956 9.03703 22.4736 8.15911 22.4736 7.07613C22.4736 5.99316 21.5956 5.11523 20.5127 5.11523C19.4297 5.11523 18.5518 5.99316 18.5518 7.07613C18.5518 8.15911 19.4297 9.03703 20.5127 9.03703Z" fill="#FBFB79"/>
<path d="M10.1686 32.5959C10.3164 32.5334 10.43 32.4425 10.5039 32.3231C10.5835 32.2038 10.6233 32.056 10.6233 31.8855C10.6233 31.7775 10.6006 31.6752 10.5608 31.5786C10.521 31.4876 10.4585 31.408 10.3732 31.3455C10.288 31.283 10.18 31.2375 10.0492 31.2148V31.1977C10.1572 31.1693 10.2482 31.1295 10.3221 31.0727C10.3959 31.0159 10.4528 30.942 10.4869 30.851C10.521 30.7658 10.5437 30.6691 10.5437 30.5612C10.5437 30.3395 10.4698 30.1633 10.3221 30.0269C10.1743 29.8905 9.96398 29.8223 9.67979 29.8223H8.35547V32.6869H9.63432C9.83893 32.6869 10.0208 32.6528 10.1629 32.5903L10.1686 32.5959ZM9.58316 30.1633C9.74799 30.1633 9.87303 30.2031 9.96966 30.277C10.0663 30.3565 10.1174 30.4702 10.1174 30.618C10.1174 30.7033 10.1004 30.7828 10.0606 30.8453C10.0265 30.9136 9.96966 30.9647 9.89577 30.9988C9.82188 31.0329 9.73094 31.0557 9.61727 31.0557H8.77039V30.1576H9.57748L9.58316 30.1633ZM8.77607 32.3515V31.3853H9.64C9.81051 31.3853 9.94124 31.4251 10.0435 31.5047C10.1402 31.5842 10.1913 31.7036 10.1913 31.8571C10.1913 31.9991 10.1402 32.1185 10.0435 32.2095C9.94692 32.3004 9.79915 32.3459 9.60021 32.3459H8.77607V32.3515Z" fill="#2B190F"/>
<path d="M11.5496 32.9085C11.5155 32.9426 11.4814 32.9711 11.436 32.9881C11.3905 33.0052 11.3393 33.0108 11.2768 33.0108H11.0551V33.3462H11.345C11.453 33.3462 11.5496 33.3291 11.6349 33.3007C11.7201 33.2723 11.7883 33.2211 11.8509 33.1529C11.9134 33.0847 11.9645 32.9881 12.01 32.8744L12.8796 30.6123H12.4477L12.0725 31.7206L11.9248 32.1583H11.902L11.7429 31.7206L11.3393 30.6123H10.896L11.7088 32.5448L11.6178 32.7778C11.6008 32.8347 11.5724 32.8801 11.5439 32.9142L11.5496 32.9085Z" fill="#2B190F"/>
<path d="M16.2503 31.4016V32.6918H16.6823V29.8271H16.2503V31.0321H14.6475V29.8271H14.2212V32.6918H14.6475V31.4016H16.2503Z" fill="#2B190F"/>
<path d="M17.7903 32.0268H19.0805L19.3079 32.6918H19.7512L18.7395 29.8271H18.137L17.1196 32.6918H17.5686L17.796 32.0268H17.7903ZM18.3075 30.5206L18.4269 30.1568H18.4496L18.569 30.5206L18.9669 31.6857H17.9097L18.3075 30.5206Z" fill="#2B190F"/>
<path d="M22.2239 31.2253C22.3092 31.0889 22.3547 30.9241 22.3547 30.7365C22.3547 30.549 22.3149 30.3842 22.2353 30.2477C22.1557 30.1113 22.0364 30.009 21.8829 29.9351C21.7294 29.8613 21.5419 29.8271 21.3202 29.8271H20.1948V32.6918H20.6211V31.6516H21.3145C21.5248 31.6516 21.7067 31.6175 21.8602 31.5436C22.0136 31.4698 22.133 31.3674 22.2239 31.231V31.2253ZM21.2804 31.3049H20.6211V30.1909H21.2804C21.4794 30.1909 21.6328 30.2364 21.7465 30.333C21.8602 30.4239 21.917 30.566 21.917 30.7479C21.917 30.9127 21.8659 31.0492 21.7579 31.1515C21.6499 31.2538 21.4964 31.3049 21.2861 31.3049H21.2804Z" fill="#2B190F"/>
<path d="M24.5367 29.9351C24.3832 29.8613 24.1957 29.8271 23.974 29.8271H22.8486V32.6918H23.2749V31.6516H23.9683C24.1786 31.6516 24.3605 31.6175 24.514 31.5436C24.6674 31.4698 24.7868 31.3674 24.8777 31.231C24.963 31.0946 25.0085 30.9298 25.0085 30.7422C25.0085 30.5547 24.9687 30.3898 24.8891 30.2534C24.8095 30.117 24.6902 30.0147 24.5367 29.9408V29.9351ZM24.4117 31.1515C24.3037 31.2538 24.1502 31.3049 23.9399 31.3049H23.2806V30.1909H23.9399C24.1388 30.1909 24.2923 30.2364 24.406 30.333C24.5197 30.4239 24.5765 30.566 24.5765 30.7479C24.5765 30.9127 24.5253 31.0492 24.4173 31.1515H24.4117Z" fill="#2B190F"/>
<path d="M26.8107 30.6115L26.4867 31.1856H26.4639L26.1457 30.6115L25.691 29.8271H25.2021L26.265 31.5607V32.6918H26.6913V31.5607L27.7542 29.8271H27.271L26.8107 30.6115Z" fill="#2B190F"/>
<path d="M31.1302 31.0321H29.5274V29.8271H29.1011V32.6918H29.5274V31.4016H31.1302V32.6918H31.5621V29.8271H31.1302V31.0321Z" fill="#2B190F"/>
<path d="M34.5174 30.1851C34.3924 30.0601 34.2446 29.9635 34.0741 29.8953C33.9036 29.8271 33.7103 29.793 33.4944 29.793C33.2784 29.793 33.0908 29.8271 32.9146 29.8953C32.7441 29.9635 32.5906 30.0601 32.4713 30.1851C32.3462 30.3102 32.2496 30.4637 32.1814 30.6455C32.1132 30.8274 32.0791 31.032 32.0791 31.2594C32.0791 31.4867 32.1132 31.6857 32.1814 31.8675C32.2496 32.0494 32.3462 32.2029 32.4713 32.3336C32.5963 32.4643 32.7441 32.561 32.9203 32.6235C33.0908 32.6917 33.2841 32.7258 33.5 32.7258C33.716 32.7258 33.9036 32.6917 34.0798 32.6235C34.2503 32.5553 34.4038 32.4587 34.5288 32.3336C34.6538 32.2086 34.7505 32.0551 34.8187 31.8732C34.8869 31.6913 34.921 31.4867 34.921 31.2594C34.921 31.032 34.8869 30.8274 34.8187 30.6455C34.7505 30.4637 34.6538 30.3102 34.5288 30.1851H34.5174ZM34.3469 31.8505C34.2673 32.0153 34.1537 32.1404 34.0116 32.2256C33.8638 32.3109 33.6933 32.3563 33.4944 32.3563C33.3466 32.3563 33.2102 32.3336 33.0908 32.2825C32.9715 32.2313 32.8691 32.1631 32.7839 32.0665C32.6986 31.9755 32.6361 31.8562 32.5906 31.7254C32.5452 31.589 32.5224 31.4356 32.5224 31.2594C32.5224 31.0263 32.5622 30.8274 32.6418 30.6683C32.7214 30.5034 32.835 30.3841 32.9771 30.2931C33.1249 30.2079 33.2954 30.1624 33.4944 30.1624C33.6421 30.1624 33.7785 30.1851 33.8979 30.2363C34.0173 30.2875 34.1196 30.3557 34.2048 30.4523C34.2901 30.5489 34.3526 30.6626 34.4038 30.7933C34.4492 30.9297 34.472 31.0832 34.472 31.2594C34.472 31.4924 34.4322 31.6857 34.3526 31.8505H34.3469Z" fill="#2B190F"/>
<path d="M37.1153 31.3845L36.8993 32.1177H36.8766L36.6606 31.3845L36.1093 29.8271H35.4272V32.6918H35.8478V31.2538L35.8308 30.2193H35.8649L36.1775 31.1799L36.7004 32.6918H37.0755L37.6041 31.1742L37.9167 30.2193H37.9451L37.9281 31.2481V32.6918H38.3487V29.8271H37.6667L37.1153 31.3845Z" fill="#2B190F"/>
<path d="M39.4341 32.3166V31.4016H40.8209V31.0548H39.4341V30.1966H41.0142V29.8271H39.0078V32.6918H41.0199V32.3166H39.4341Z" fill="#2B190F"/>
<path d="M9.11678 34.2269C9.26456 34.1417 9.43507 34.0962 9.63401 34.0962C9.79315 34.0962 9.92956 34.1246 10.0489 34.1758C10.1683 34.2269 10.2649 34.3008 10.3445 34.3974C10.424 34.4884 10.4752 34.5964 10.5036 34.7157H10.9356C10.9072 34.5168 10.8333 34.3406 10.7196 34.1928C10.6002 34.045 10.4525 33.9314 10.2649 33.8518C10.0773 33.7722 9.87272 33.7324 9.63401 33.7324C9.42371 33.7324 9.23046 33.7665 9.05426 33.8347C8.88375 33.9029 8.73029 33.9996 8.61093 34.1246C8.48588 34.2496 8.38926 34.4031 8.32106 34.585C8.25285 34.7669 8.21875 34.9715 8.21875 35.1988C8.21875 35.4262 8.25285 35.6251 8.32106 35.807C8.38926 35.9889 8.48588 36.1423 8.61093 36.2731C8.73597 36.4038 8.88375 36.5004 9.05994 36.5629C9.23046 36.6311 9.42371 36.6652 9.63969 36.6652C9.87273 36.6652 10.0887 36.6255 10.2763 36.5402C10.4638 36.4549 10.6173 36.3413 10.731 36.1878C10.8503 36.04 10.9185 35.8582 10.9413 35.6535H10.5093C10.4866 35.7843 10.4354 35.8923 10.3558 35.9889C10.2763 36.0855 10.1796 36.1594 10.0546 36.2105C9.93524 36.2617 9.79315 36.2901 9.63969 36.2901C9.48623 36.2901 9.3555 36.2674 9.23614 36.2162C9.11679 36.1651 9.01448 36.0969 8.92922 36.0002C8.84396 35.9093 8.78144 35.7899 8.73597 35.6592C8.6905 35.5228 8.66777 35.3694 8.66777 35.1932C8.66777 34.9601 8.70755 34.7612 8.78713 34.602C8.8667 34.4372 8.98037 34.3178 9.12247 34.2269H9.11678Z" fill="#2B190F"/>
<path d="M12.1746 33.7549L11.1572 36.6195H11.6062L11.8336 35.9545H13.1238L13.3512 36.6195H13.7945L12.7828 33.7549H12.1803H12.1746ZM11.9473 35.6135L12.3451 34.4483L12.4645 34.0845H12.4872L12.6066 34.4483L13.0045 35.6135H11.9473Z" fill="#2B190F"/>
<path d="M16.8357 35.3122L16.6254 36.0454H16.6027L16.3867 35.3122L15.8354 33.7549H15.1533V36.6195H15.5739V35.1815L15.5569 34.1471H15.591L15.9036 35.1133L16.4265 36.6195H16.8016L17.3302 35.1019L17.6428 34.1471H17.6712L17.6542 35.1815V36.6195H18.0748V33.7549H17.3927L16.8357 35.3122Z" fill="#2B190F"/>
<path d="M19.5242 33.7549L18.5068 36.6195H18.9559L19.1832 35.9545H20.4734L20.7008 36.6195H21.1441L20.1324 33.7549H19.5299H19.5242ZM19.3026 35.6135L19.7004 34.4483L19.8198 34.0845H19.8425L19.9619 34.4483L20.3597 35.6135H19.3026Z" fill="#2B190F"/>
<path d="M23.3719 35.5518C23.3719 35.6995 23.3435 35.8246 23.2867 35.9326C23.2298 36.0406 23.1503 36.1258 23.0366 36.1827C22.9286 36.2395 22.7865 36.2679 22.6217 36.2679C22.4682 36.2679 22.3318 36.2395 22.2181 36.1883C22.1045 36.1372 22.0192 36.0576 21.9567 35.9496C21.8942 35.8416 21.8657 35.7109 21.8657 35.5461V33.75H21.4395V35.5518C21.4395 35.7791 21.4849 35.9724 21.5815 36.1372C21.6725 36.302 21.8089 36.4271 21.9851 36.518C22.1613 36.6089 22.3716 36.6544 22.616 36.6544C22.8604 36.6544 23.0707 36.6089 23.2469 36.518C23.4231 36.4271 23.5538 36.302 23.6504 36.1372C23.7471 35.9724 23.7925 35.7791 23.7925 35.5518V33.75H23.3663V35.5461L23.3719 35.5518Z" fill="#2B190F"/>
</svg>
