<svg width="37" height="37" viewBox="0 0 37 37" fill="none" xmlns="http://www.w3.org/2000/svg">
<path d="M36.6546 36.6546H0V0H36.6546V36.6546ZM0.772992 35.8816H35.8873V0.767312H0.772992V35.8816ZM15.2211 12.9476L11.5437 11.5494L4.99035 14.0446V23.724C7.83223 21.7575 11.3448 20.382 15.2211 19.8363V12.9476ZM15.2211 6.28624V12.9476L18.0971 14.0446V19.5919C18.3699 19.5806 18.6484 19.5749 18.9213 19.5749C19.3362 19.5749 19.7454 19.5919 20.1546 19.609V8.23578L21.8939 8.91214V3.69445L15.2154 6.28624H15.2211ZM21.9052 8.91214V19.7454C25.5258 20.1489 28.8622 21.28 31.6586 22.9454V12.7032L21.9052 8.91783V8.91214ZM17.4207 32.9545V25.9521H20.0807V32.9545H17.4207ZM7.80949 28.7371C8.03116 28.5268 8.38355 28.3961 8.90646 28.3961H15.9486V25.9521H8.67343C7.97432 25.9521 7.38321 26.043 6.88872 26.2192C6.39992 26.3954 6.00206 26.6455 5.70082 26.9695C5.39958 27.2934 5.17791 27.6856 5.0415 28.146C4.93919 28.4927 4.87099 28.8678 4.84825 29.2714C4.83688 29.4078 4.84825 29.6352 4.8653 29.8341C4.89941 30.1637 4.95624 30.4763 5.0415 30.7662C5.17791 31.2266 5.39958 31.6188 5.70082 31.9428C6.00206 32.2667 6.39992 32.5168 6.88872 32.693C7.37753 32.8692 7.97432 32.9602 8.67343 32.9602H15.9486V30.5161H8.90646C8.37787 30.5161 8.02548 30.3911 7.80949 30.1751C7.33206 29.6863 7.42868 29.1066 7.80949 28.7428V28.7371ZM31.812 25.9521H21.2971V28.2483L21.3198 28.3052H25.2246V32.9545H27.8846V28.3052H31.812V25.9521ZM28.129 24.7585H30.8856C28.1062 22.9397 24.4345 21.8257 20.4047 21.8257C16.3749 21.8257 13.0556 22.8317 10.3274 24.497C12.7657 23.1784 15.7611 22.3997 18.9951 22.3997C22.4395 22.3997 25.6054 23.2807 28.1233 24.7528L28.129 24.7585ZM9.04287 24.7585C12.1462 22.7578 16.0907 21.5585 20.3934 21.5585C24.3379 21.5585 27.9869 22.5702 30.9595 24.281C27.6402 22.1155 23.3546 20.8026 18.6825 20.8026C13.6695 20.8026 9.11676 22.3031 5.7065 24.7585H9.04287Z" fill="#2B190F"/>
</svg>
