
<svg width="127" height="72" viewBox="0 0 127 72" fill="none" xmlns="http://www.w3.org/2000/svg">
<path d="M45.6815 70.3076C45.2862 70.5264 44.8275 70.6393 44.3122 70.6393C43.7546 70.6393 43.2605 70.4911 42.83 70.1876C42.3994 69.8841 42.0677 69.4677 41.8277 68.9242C41.5877 68.3877 41.4677 67.7666 41.4677 67.0678C41.4677 66.3691 41.5877 65.8115 41.8206 65.3033C42.0535 64.7951 42.3782 64.3998 42.7876 64.1104C43.197 63.821 43.6699 63.6799 44.2063 63.6799C44.6016 63.6799 44.9333 63.7434 45.2157 63.8704L46.0979 65.1127H46.2815L47.0861 63.8281C46.8814 63.6657 46.6203 63.5246 46.3097 63.4116C45.9991 63.2916 45.6674 63.1999 45.3215 63.1293C44.9757 63.0587 44.6298 63.0234 44.291 63.0234C43.7264 63.0234 43.197 63.1293 42.71 63.3481C42.2229 63.5669 41.7994 63.8704 41.4324 64.2586C41.0654 64.6468 40.776 65.1056 40.5713 65.6279C40.3666 66.1503 40.2607 66.7079 40.2607 67.3008C40.2607 68.1195 40.4231 68.8324 40.7478 69.4324C41.0724 70.0323 41.5383 70.4982 42.1382 70.8228C42.7382 71.1475 43.4511 71.3099 44.2699 71.3099C44.891 71.3099 45.4556 71.1475 45.9568 70.837C46.465 70.5193 46.8744 70.0676 47.199 69.4888L46.7967 69.2559C46.4509 69.7288 46.0838 70.0817 45.6886 70.3005L45.6815 70.3076Z" fill="#2B190F"/>
<path d="M49.9229 61.4281L52.3933 62.6492L52.5415 62.4869L50.7416 60.4541H50.7134L49.9229 61.407V61.4281Z" fill="#2B190F"/>
<path d="M52.0968 63.2139H50.424V63.3974L51.0946 64.0256L48.4759 70.2722L47.7207 70.9498V71.1333H50.5228V70.9498L49.4288 70.2722L49.9864 68.677H53.2544L53.9249 70.2722L52.8238 70.9498V71.1333H55.8236V70.9498L55.0754 70.2722L52.111 63.2139H52.0968ZM50.177 68.0982L51.4616 64.4208L53.0003 68.0982H50.177Z" fill="#2B190F"/>
<path d="M68.7619 64.075L69.6725 63.3974V63.2139H68.2114H67.6255H67.2797L64.9787 69.6299L62.2683 63.2139H61.6684H61.1178H60.2002V63.3974L61.0684 64.0679L60.4896 70.2722L59.5791 70.9498V71.1333H62.1977V70.9498L61.2872 70.2722L61.6048 64.3644L64.4705 71.1333H64.8728L67.7244 64.3644L68.2326 70.2722L67.3291 70.9498V71.1333H70.2018V70.9498L69.2913 70.2722L68.7619 64.075Z" fill="#2B190F"/>
<path d="M75.1779 63.2139H73.5051V63.3974L74.1756 64.0256L71.557 70.2722L70.8018 70.9498V71.1333H73.6039V70.9498L72.5099 70.2722L73.0675 68.677H76.3355L77.006 70.2722L75.9049 70.9498V71.1333H78.9047V70.9498L78.1565 70.2722L75.192 63.2139H75.1779ZM73.258 68.0982L74.5427 64.4208L76.0814 68.0982H73.258Z" fill="#2B190F"/>
<path d="M84.0786 63.3974L85.1021 64.1173V67.8159C85.1021 68.7899 84.9327 69.4957 84.5939 69.9404C84.2551 70.3851 83.7186 70.6039 82.9846 70.6039C82.2505 70.6039 81.7141 70.3851 81.3753 69.9404C81.0365 69.4957 80.8671 68.7899 80.8671 67.8159V64.075L81.7705 63.3974V63.2139H78.8555V63.3974L79.7589 64.075V68.1264C79.7589 69.1922 80.0271 69.9898 80.5565 70.5192C81.0859 71.0486 81.8835 71.3168 82.9493 71.3168C83.5845 71.3168 84.1209 71.1827 84.5656 70.9074C85.0103 70.6392 85.3491 70.2369 85.575 69.7216C85.8079 69.1993 85.9208 68.564 85.9208 67.8159V64.1173L86.8243 63.3974V63.2139H84.0574V63.3974H84.0786Z" fill="#2B190F"/>
<path d="M112.565 39.5264H111.845L107.752 52.3795L103.665 39.5264H101.971H101.251H100.044V55.3511H101.971V41.7991L106.291 55.3511H106.806H108.697H108.74L112.565 43.3167V55.3511H114.979V39.5264H113.772H112.565Z" fill="#2B190F"/>
<path d="M126.612 40.8674V39.5264H120.64H118.227V40.8674V46.7682V48.1092V54.01V55.3511H120.64H126.612V54.01H120.64V48.1092H126.139V46.7682H120.64V40.8674H126.612Z" fill="#2B190F"/>
<path d="M89.937 39.2793C85.702 39.2793 82.2646 42.9355 82.2646 47.4387C82.2646 51.9419 85.702 55.6051 89.937 55.6051C94.172 55.6051 97.6094 51.9489 97.6094 47.4387C97.6094 42.9284 94.172 39.2793 89.937 39.2793ZM89.937 54.3629C87.1207 54.3629 84.8409 51.2643 84.8409 47.4387C84.8409 43.6131 87.1207 40.5145 89.937 40.5145C92.7533 40.5145 95.0331 43.6131 95.0331 47.4387C95.0331 51.2643 92.7533 54.3629 89.937 54.3629Z" fill="#2B190F"/>
<path d="M79.8297 55.3511V48.2434V46.6341V39.5264H77.4158V46.6341H71.6844V39.5264H69.2705V46.6341V48.2434V55.3511H71.6844V48.2434H77.4158V55.3511H79.8297Z" fill="#2B190F"/>
<path d="M19.3958 39.5264H17.5606L13.001 55.3511H14.8361L16.1349 50.8479H21.6615L22.9602 55.3511H25.3742L20.8145 39.5264H19.4028H19.3958ZM16.6007 49.2386L18.9017 41.2627L21.2027 49.2386H16.6007Z" fill="#2B190F"/>
<path d="M8.15232 46.6341H2.41393V39.5264H0V46.6341V48.2434V55.3511H2.41393V48.2434H8.15232V55.3511H10.5592V48.2434V46.6341V39.5264H8.15232V46.6341Z" fill="#2B190F"/>
<path d="M63.1787 39.5264H61.3365L57.8073 46.9164L54.2711 39.5264H51.8643L56.311 48.8362V55.3511H58.7249V48.8362L63.1787 39.5264Z" fill="#2B190F"/>
<path d="M32.5666 39.5264H27.8164V55.3511H30.2303V50.4102H32.5737C35.5805 50.4102 38.0156 47.9751 38.0156 44.9683C38.0156 41.9615 35.5805 39.5264 32.5737 39.5264H32.5666ZM31.162 49.0692H30.2233V40.8674H31.162C33.6113 40.8674 35.5946 42.5191 35.5946 44.9683C35.5946 47.4175 33.6113 49.0692 31.162 49.0692Z" fill="#2B190F"/>
<path d="M42.858 50.4102H45.2014C48.2082 50.4102 50.6433 47.9751 50.6433 44.9683C50.6433 41.9615 48.2082 39.5264 45.2014 39.5264H40.4512V55.3511H42.8651V50.4102H42.858ZM42.858 40.8674H43.7968C46.246 40.8674 48.2294 42.5191 48.2294 44.9683C48.2294 47.4175 46.246 49.0692 43.7968 49.0692H42.858V40.8674Z" fill="#2B190F"/>
<path d="M48.554 20.0455C47.22 21.2525 46.3942 22.9394 46.3942 24.8099C46.3942 28.4943 49.6057 31.4729 53.5725 31.4729C54.3418 31.4729 55.0829 31.36 55.7817 31.1482C56.3817 30.9718 56.9463 30.7177 57.4616 30.4071C61.9013 27.5697 61.6966 20.0173 61.6966 20.0173V19.9608C61.6754 18.8315 61.5413 17.7304 61.3084 16.6646C62.3953 16.2905 63.5035 15.9517 64.6046 15.5988C65.261 18.161 66.4962 20.469 68.1478 22.3536C68.6066 22.8759 69.0937 23.37 69.6089 23.8217C69.6442 23.85 69.6865 23.8711 69.736 23.8782C69.8559 23.8923 69.9759 23.9064 70.0959 23.9064C70.7241 23.9064 71.2817 23.6806 71.6417 23.3347C71.7476 23.2288 71.7405 23.0594 71.6205 22.9677C70.9006 22.3889 70.2371 21.7254 69.6301 20.9984C68.2255 19.2974 67.1738 17.2222 66.6021 14.9212C67.435 14.6177 68.2608 14.293 69.0654 13.9048C71.0982 12.9378 73.3145 11.6532 74.5003 9.6628C74.8673 9.04873 75.2344 8.13821 75.0226 7.40414C74.8744 6.88889 72.7781 7.45355 72.9263 7.96881C73.0886 8.54759 72.884 9.12637 72.6087 9.68397C71.6911 11.5474 69.6301 12.712 67.8373 13.5731C67.3714 13.7919 66.9056 13.9966 66.4327 14.1872C66.2633 13.3472 66.1574 12.4791 66.1221 11.5897C66.1151 11.3709 66.108 11.1521 66.108 10.9333C66.108 10.8627 66.108 10.7921 66.108 10.7286C66.108 10.6157 66.108 10.5027 66.115 10.3898C66.1362 9.7969 66.1856 9.21812 66.2633 8.6464C66.355 7.98998 66.4821 7.35474 66.6444 6.73361C66.7432 6.3454 66.8491 5.99249 66.9691 5.65369C67.082 5.32901 67.195 5.01138 67.3291 4.70082C67.3432 4.66553 67.3573 4.6373 67.3714 4.602C68.1125 2.85155 69.6018 1.58811 71.3664 1.3199C71.5923 1.28461 71.8252 1.27049 72.0581 1.27049C74.9309 1.27049 77.253 3.90323 77.253 7.15005C77.253 8.51935 76.8437 9.77573 76.1519 10.7709C75.8555 11.2015 75.5096 11.5756 75.1214 11.9003C74.9944 12.0061 75.0014 12.1967 75.1285 12.2885C75.2908 12.4085 75.4461 12.5355 75.6014 12.6696C77.7683 14.533 79.1517 17.321 79.1517 20.4337C79.1517 22.3395 78.6365 24.1182 77.7401 25.6428C77.3942 26.2286 76.9989 26.7721 76.5472 27.2732C74.712 29.3201 72.0652 30.6047 69.1219 30.6047C67.7455 30.6047 66.4397 30.3224 65.2469 29.8142C64.661 29.5672 64.1034 29.2637 63.5811 28.9107C63.5529 28.8896 63.5247 28.8825 63.4894 28.8825C63.4682 28.8825 63.447 28.8825 63.4258 28.8825C62.7271 28.8825 62.1201 29.1578 61.7742 29.5742C61.7036 29.6589 61.7248 29.7789 61.8166 29.8354C62.8118 30.4142 63.8987 30.8659 65.0563 31.1765C66.1715 31.4729 67.3503 31.6282 68.5713 31.6282C72.4534 31.6282 75.9261 30.026 78.2412 27.4991C78.7423 26.9556 79.187 26.3698 79.5681 25.7486C80.6128 24.0617 81.2057 22.1207 81.2057 20.0455C81.2057 16.707 79.6599 13.6931 77.1966 11.5827C78.5306 10.3757 79.3564 8.68875 79.3564 6.81831C79.3564 3.13388 76.1449 0.155282 72.1781 0.155282C71.4088 0.155282 70.6676 0.268215 69.9689 0.479964C69.3689 0.656421 68.8043 0.910519 68.289 1.22108C63.8493 4.05852 64.054 11.6109 64.054 11.6109V11.6674C64.0752 12.7826 64.2093 13.8766 64.4352 14.9283C63.3411 15.2953 62.2401 15.6341 61.139 15.9941C60.4755 13.4531 59.2473 11.1592 57.6098 9.28165C57.151 8.75933 56.664 8.26525 56.1487 7.81352C56.1135 7.78529 56.0711 7.76412 56.0217 7.75706C55.9017 7.74294 55.7817 7.72883 55.6617 7.72883C55.0335 7.72883 54.4759 7.95469 54.116 8.30055C54.0101 8.40642 54.0171 8.57582 54.1371 8.66758C54.8571 9.24636 55.5206 9.90984 56.1276 10.6368C57.5251 12.3308 58.5768 14.3918 59.1485 16.6787C58.1462 17.0528 57.1581 17.4622 56.1982 17.9633C54.2642 18.9797 52.189 20.3349 51.1656 22.3465C50.8268 23.0171 50.5233 23.9629 50.7421 24.7181C50.8903 25.2334 52.9866 24.6687 52.8384 24.1535C52.662 23.5394 52.8384 22.9253 53.0784 22.3395C53.8477 20.469 55.7041 19.1985 57.4263 18.2951C58.0474 17.9704 58.6756 17.681 59.3179 17.4199C59.4873 18.2668 59.5932 19.1421 59.6285 20.0385C59.6355 20.2573 59.6426 20.4761 59.6426 20.6949C59.6426 20.7655 59.6426 20.8361 59.6426 20.8996C59.6426 21.0125 59.6426 21.1255 59.6355 21.2384C59.6144 21.8313 59.565 22.4101 59.4873 22.9818C59.3956 23.6382 59.2685 24.2735 59.1062 24.8946C59.0074 25.2828 58.9015 25.6357 58.7815 25.9745C58.6686 26.2992 58.5556 26.6168 58.4215 26.9274C58.4074 26.9627 58.3933 26.9909 58.3792 27.0262C57.638 28.7766 56.1487 30.0401 54.3842 30.3083C54.1583 30.3436 53.9254 30.3577 53.6925 30.3577C50.8197 30.3577 48.4976 27.725 48.4976 24.4781C48.4976 23.1088 48.9069 21.8525 49.5987 20.8572C49.8951 20.4267 50.241 20.0526 50.6292 19.7279C50.7562 19.622 50.7492 19.4315 50.6221 19.3397C50.4598 19.2197 50.3045 19.0927 50.1492 18.9586C47.9823 17.0952 46.5989 14.3071 46.5989 11.1944C46.5989 9.28871 47.1141 7.51002 48.0105 5.98543C48.3564 5.39959 48.7517 4.8561 49.2034 4.35496C51.0385 2.30806 53.6854 1.02345 56.6287 1.02345C58.0051 1.02345 59.3109 1.30578 60.5037 1.81398C61.0896 2.06102 61.6472 2.36453 62.1695 2.71744C62.1977 2.73862 62.2259 2.74567 62.2612 2.74567C62.2824 2.74567 62.3036 2.74567 62.3248 2.74567C63.0235 2.74567 63.6305 2.4704 63.9764 2.05396C64.047 1.96926 64.0258 1.84927 63.934 1.79281C62.9388 1.21403 61.8518 0.762295 60.6943 0.45173C59.5791 0.155282 58.4003 0 57.1793 0C53.2972 0 49.8245 1.60223 47.5094 4.1291C47.0083 4.67259 46.5636 5.25842 46.1824 5.87955C45.1378 7.56648 44.5449 9.50751 44.5449 11.5827C44.5449 14.9212 46.0907 17.9351 48.554 20.0455Z" fill="#2B190F"/>
</svg>
