<svg width="105" height="59" viewBox="0 0 105 59" fill="none" xmlns="http://www.w3.org/2000/svg">
<path d="M37.5923 57.8608C37.2683 58.0427 36.8932 58.1336 36.4612 58.1336C36.0008 58.1336 35.5973 58.0086 35.2449 57.7585C34.8925 57.5084 34.614 57.1617 34.4208 56.7184C34.2218 56.275 34.1252 55.7635 34.1252 55.1951C34.1252 54.6267 34.2218 54.1664 34.4151 53.7458C34.6083 53.3252 34.8698 53.0012 35.2108 52.7625C35.5461 52.5238 35.9383 52.4101 36.376 52.4101C36.7 52.4101 36.9785 52.4612 37.2115 52.5692L37.939 53.5923H38.0925L38.7518 52.5351C38.5813 52.4044 38.371 52.2907 38.1152 52.1884C37.8594 52.0918 37.5866 52.0122 37.3024 51.9554C37.0182 51.8985 36.7341 51.8701 36.4555 51.8701C35.9895 51.8701 35.5575 51.9611 35.154 52.1373C34.7561 52.3191 34.4037 52.5692 34.1025 52.8875C33.8012 53.2115 33.5625 53.5809 33.392 54.0129C33.2215 54.4392 33.1362 54.8996 33.1362 55.3941C33.1362 56.0704 33.2726 56.6502 33.5398 57.1447C33.8069 57.6391 34.1877 58.02 34.6822 58.2871C35.1767 58.5542 35.7621 58.6906 36.4328 58.6906C36.9444 58.6906 37.4047 58.5599 37.8197 58.2985C38.2346 58.037 38.5756 57.6676 38.8427 57.1901L38.5131 57.0026C38.2289 57.3947 37.9276 57.6789 37.6037 57.8608H37.5923Z" fill="#2B190F"/>
<path d="M41.082 50.5573L43.1111 51.5576L43.2362 51.4269L41.7527 49.7559H41.7357L41.082 50.5402V50.5573Z" fill="#2B190F"/>
<path d="M42.867 52.0233H41.4858V52.1767L42.0372 52.6939L39.883 57.8321L39.2578 58.3891V58.5425H41.5654V58.3891L40.6674 57.8264L41.1278 56.5134H43.8162L44.3675 57.8264L43.4581 58.3834V58.5369H45.9249V58.3834L45.311 57.8264L42.8727 52.0176L42.867 52.0233ZM41.2869 56.0474L42.3441 53.0236L43.6116 56.0474H41.2869Z" fill="#2B190F"/>
<path d="M56.5877 52.7282L57.3323 52.1712V52.0234H56.133H55.6499H55.3657L53.473 57.3037L51.2393 52.0234H50.7448H50.2958H49.5399V52.1712L50.256 52.7282L49.7729 57.8322L49.0283 58.3893V58.5427H51.1825V58.3893L50.4379 57.8322L50.6937 52.9726L53.0524 58.5427H53.3821L55.7295 52.9726L56.1501 57.8322L55.4055 58.3893V58.5427H57.7643V58.3893L57.0197 57.8322L56.5877 52.7282Z" fill="#2B190F"/>
<path d="M61.868 52.0233H60.4868V52.1767L61.0381 52.6939L58.884 57.8321L58.2588 58.3891V58.5425H60.5664V58.3891L59.6684 57.8264L60.1287 56.5134H62.8172L63.3685 57.8264L62.4591 58.3834V58.5369H64.9258V58.3834L64.312 57.8264L61.8737 52.0176L61.868 52.0233ZM60.2879 56.0474L61.3451 53.0236L62.6126 56.0474H60.2879Z" fill="#2B190F"/>
<path d="M69.1882 52.171L70.0294 52.7678V55.8087C70.0294 56.6101 69.893 57.1898 69.6145 57.5536C69.336 57.9173 68.8983 58.0992 68.2902 58.0992C67.682 58.0992 67.2444 57.9173 66.9659 57.5536C66.6874 57.1898 66.5509 56.6044 66.5509 55.8087V52.728L67.2955 52.171V52.0176H64.897V52.171L65.6415 52.728V56.0644C65.6415 56.9397 65.8632 57.599 66.3009 58.0367C66.7385 58.4743 67.3921 58.696 68.2731 58.696C68.796 58.696 69.2394 58.5823 69.6031 58.3607C69.9669 58.139 70.2454 57.8093 70.433 57.3831C70.6205 56.9568 70.7171 56.4339 70.7171 55.8143V52.7735L71.4617 52.1767V52.0233H69.1825V52.1767L69.1882 52.171Z" fill="#2B190F"/>
<path d="M92.6343 32.5332H92.0375L88.6727 43.105L85.3022 32.5332H83.9154H83.3186H82.3296V45.5547H83.9154V34.3975L87.462 45.5547H87.894H89.4513H89.4798L92.6343 35.6479V45.5547H94.6179V32.5332H93.6232H92.6343Z" fill="#2B190F"/>
<path d="M104.183 33.6359V32.5332H99.2727H97.2891V33.6359V38.4898V39.5924V44.4464V45.5547H99.2727H104.183V44.4464H99.2727V39.5924H103.803V38.4898H99.2727V33.6359H104.183Z" fill="#2B190F"/>
<path d="M74.0082 32.3232C70.5241 32.3232 67.6992 35.33 67.6992 39.0415C67.6992 42.753 70.5241 45.7597 74.0082 45.7597C77.4923 45.7597 80.3172 42.753 80.3172 39.0415C80.3172 35.33 77.4923 32.3232 74.0082 32.3232ZM74.0082 44.7423C71.6949 44.7423 69.8136 42.1903 69.8136 39.0415C69.8136 35.8926 71.6892 33.3406 74.0082 33.3406C76.3272 33.3406 78.2028 35.8926 78.2028 39.0415C78.2028 42.1903 76.3272 44.7423 74.0082 44.7423Z" fill="#2B190F"/>
<path d="M65.6929 45.5547V39.7061V38.3818V32.5332H63.7093V38.3818H58.9861V32.5332H57.0024V38.3818V39.7061V45.5547H58.9861V39.7061H63.7093V45.5547H65.6929Z" fill="#2B190F"/>
<path d="M15.9656 32.5332H14.4537L10.6968 45.5547H12.2087L13.2772 41.8489H17.8242L18.8928 45.5547H20.8764L17.1194 32.5332H15.9543H15.9656ZM13.658 40.5246L15.5507 33.9598L17.4434 40.5246H13.658Z" fill="#2B190F"/>
<path d="M6.70684 38.3818H1.98363V32.5332H0V38.3818V39.7061V45.5547H1.98363V39.7061H6.70684V45.5547H8.69048V39.7061V38.3818V32.5332H6.70684V38.3818Z" fill="#2B190F"/>
<path d="M51.9895 32.5332H50.472L47.5676 38.6091L44.6631 32.5332H42.6738L46.3399 40.1949V45.5547H48.3235V40.1949L51.9895 32.5332Z" fill="#2B190F"/>
<path d="M26.7991 32.5332H22.8887V45.5547H24.8723V41.4908H26.7991C29.2715 41.4908 31.2779 39.4844 31.2779 37.012C31.2779 34.5396 29.2715 32.5332 26.7991 32.5332ZM25.6453 40.3825H24.8723V33.6359H25.6453C27.663 33.6359 29.2943 34.9943 29.2943 37.012C29.2943 39.0297 27.663 40.3882 25.6453 40.3882V40.3825Z" fill="#2B190F"/>
<path d="M35.2678 41.4908H37.1946C39.667 41.4908 41.6734 39.4844 41.6734 37.012C41.6734 34.5396 39.667 32.5332 37.1946 32.5332H33.2842V45.5547H35.2678V41.4908ZM35.2678 33.6359H36.0408C38.0585 33.6359 39.6898 34.9943 39.6898 37.012C39.6898 39.0297 38.0585 40.3882 36.0408 40.3882H35.2678V33.6415V33.6359Z" fill="#2B190F"/>
<path d="M39.9567 16.5C38.8598 17.4946 38.1834 18.8815 38.1834 20.4218C38.1834 23.4512 40.8264 25.9066 44.0945 25.9066C44.7311 25.9066 45.3393 25.8157 45.9133 25.6395C46.4078 25.4917 46.8682 25.2871 47.2945 25.0313C50.9435 22.6953 50.7786 16.4829 50.7786 16.4829V16.4318C50.7616 15.4996 50.6479 14.5959 50.4603 13.7206C51.3584 13.4137 52.2678 13.1352 53.1715 12.8453C53.7115 14.954 54.7288 16.8524 56.0873 18.404C56.4624 18.836 56.8659 19.2395 57.2922 19.6147C57.3206 19.6431 57.3604 19.6601 57.3945 19.6658C57.4912 19.6772 57.5878 19.6886 57.6901 19.6886C58.2073 19.6886 58.6677 19.5067 58.9632 19.2168C59.0485 19.1316 59.0428 18.9895 58.9462 18.9156C58.3551 18.4381 57.8038 17.8925 57.3093 17.2957C56.1498 15.8918 55.2859 14.1867 54.8141 12.294C55.5018 12.0439 56.1782 11.7768 56.8432 11.4585C58.5142 10.6627 60.3387 9.60556 61.3163 7.96864C61.6176 7.46278 61.9188 6.71253 61.7483 6.11005C61.6289 5.68376 59.9068 6.15552 60.0261 6.57043C60.1625 7.04787 59.992 7.5253 59.7647 7.98001C59.0087 9.50894 57.315 10.4752 55.8372 11.18C55.4564 11.3618 55.0699 11.5267 54.6834 11.6858C54.547 10.9924 54.456 10.2819 54.4276 9.54872C54.4219 9.37253 54.4162 9.19065 54.4162 9.00877C54.4162 8.95193 54.4162 8.89509 54.4162 8.83825C54.4162 8.74163 54.4162 8.65069 54.4219 8.55975C54.439 8.07663 54.4788 7.59351 54.5413 7.12744C54.6152 6.58748 54.7232 6.06458 54.8539 5.55304C54.9335 5.23475 55.0244 4.93919 55.121 4.66637C55.212 4.39923 55.3086 4.13778 55.4166 3.88201C55.4279 3.85359 55.445 3.83086 55.4564 3.80244C56.0702 2.36445 57.2922 1.31863 58.7416 1.10265C58.9291 1.07423 59.1167 1.05718 59.31 1.05718C61.6744 1.05718 63.5898 3.22269 63.5898 5.89406C63.5898 7.01945 63.2488 8.05389 62.6804 8.87236C62.436 9.22475 62.1518 9.53736 61.8336 9.79881C61.7312 9.88407 61.7369 10.0375 61.8392 10.1228C61.97 10.2251 62.1007 10.3274 62.2257 10.4354C64.0104 11.97 65.1472 14.2606 65.1472 16.8239C65.1472 18.3927 64.7209 19.8591 63.982 21.1095C63.6978 21.5869 63.3738 22.036 63.0044 22.4509C61.4925 24.1389 59.3156 25.1961 56.8944 25.1961C55.7633 25.1961 54.6891 24.9631 53.7058 24.5482C53.2226 24.3436 52.7623 24.0935 52.336 23.8036C52.3132 23.7866 52.2905 23.7809 52.2621 23.7809C52.245 23.7809 52.228 23.7809 52.2109 23.7809C51.6369 23.7809 51.1367 24.0082 50.8468 24.3492C50.79 24.4175 50.807 24.5198 50.8809 24.5652C51.6994 25.0427 52.5974 25.4178 53.5466 25.6679C54.4617 25.9123 55.4336 26.043 56.434 26.043C59.6283 26.043 62.4872 24.7244 64.3912 22.6441C64.8005 22.1951 65.1699 21.712 65.4825 21.2004C66.3408 19.8136 66.8296 18.2108 66.8296 16.5057C66.8296 13.7547 65.5621 11.2766 63.533 9.53736C64.63 8.5427 65.3063 7.15586 65.3063 5.61556C65.3063 2.58611 62.6634 0.130727 59.3952 0.130727C58.7586 0.130727 58.1505 0.221667 57.5764 0.397864C57.0819 0.545641 56.6215 0.750257 56.1953 1.00603C52.5463 3.34205 52.7111 9.55441 52.7111 9.55441V9.60556C52.7282 10.5263 52.8362 11.4244 53.0237 12.2883C52.1257 12.5895 51.2163 12.868 50.3126 13.1636C49.7669 11.072 48.7609 9.18496 47.4082 7.63898C47.033 7.20701 46.6295 6.80347 46.2032 6.42834C46.1748 6.39992 46.135 6.38287 46.1009 6.37718C46.0043 6.36582 45.9076 6.35445 45.8053 6.35445C45.2881 6.35445 44.8277 6.53633 44.5322 6.8262C44.4469 6.91146 44.4526 7.05355 44.5492 7.12744C45.1403 7.60488 45.6917 8.15052 46.1861 8.74731C47.34 10.1398 48.2039 11.8393 48.6756 13.7206C47.8515 14.0275 47.0387 14.3686 46.2487 14.7778C44.6572 15.6133 42.9464 16.7273 42.1052 18.387C41.8267 18.9383 41.5766 19.717 41.7585 20.3422C41.8835 20.7685 43.6057 20.2967 43.4807 19.8818C43.3329 19.376 43.4807 18.8758 43.6739 18.3927C44.3048 16.8524 45.8338 15.8066 47.249 15.062C47.7605 14.7948 48.2778 14.5618 48.8064 14.3401C48.9485 15.0392 49.0337 15.7611 49.0621 16.4943C49.0678 16.6705 49.0735 16.8524 49.0735 17.0342C49.0735 17.0911 49.0735 17.1479 49.0735 17.2048C49.0735 17.3014 49.0735 17.3923 49.0678 17.4833C49.0508 17.9664 49.011 18.4495 48.9485 18.9156C48.8746 19.4555 48.7666 19.9784 48.6358 20.49C48.5563 20.8083 48.4653 21.1038 48.3687 21.3766C48.2778 21.6438 48.1811 21.9052 48.0732 22.161C48.0618 22.1894 48.0447 22.2122 48.0334 22.2406C47.4195 23.6786 46.1975 24.7244 44.7482 24.9404C44.5606 24.9688 44.373 24.9858 44.1798 24.9858C41.8153 24.9858 39.8999 22.8203 39.8999 20.1489C39.8999 19.0236 40.2409 17.9891 40.8093 17.1707C41.0537 16.8183 41.3379 16.5057 41.6562 16.2442C41.7585 16.1589 41.7528 16.0055 41.6505 15.9202C41.5198 15.8179 41.389 15.7156 41.264 15.6076C39.4793 14.073 38.3426 11.7824 38.3426 9.21907C38.3426 7.65035 38.7688 6.18394 39.5077 4.93351C39.7919 4.45607 40.1159 4.00705 40.4853 3.59214C41.9972 1.90406 44.1741 0.846881 46.5954 0.846881C47.7264 0.846881 48.8007 1.07992 49.784 1.49483C50.2671 1.69945 50.7275 1.94953 51.1538 2.2394C51.1765 2.25645 51.1992 2.26214 51.2276 2.26214C51.2447 2.26214 51.2617 2.26214 51.2788 2.26214C51.8529 2.26214 52.353 2.03479 52.6429 1.69376C52.6997 1.62556 52.6827 1.52325 52.6088 1.47778C51.7903 1.00034 50.8923 0.625214 49.9431 0.375129C49.028 0.130727 48.0561 0 47.0558 0C43.8615 0 41.0026 1.31863 39.0985 3.39889C38.6893 3.84791 38.3198 4.33103 38.0072 4.84257C37.149 6.22941 36.6602 7.83223 36.6602 9.53736C36.6602 12.2883 37.9276 14.7664 39.9567 16.5057V16.5Z" fill="#2B190F"/>
</svg>
