<svg width="239" height="195" viewBox="0 0 239 195" fill="none" xmlns="http://www.w3.org/2000/svg">
<path d="M234.442 67.2656L225.938 72.3439L207.798 72.3525L207.799 72.4208C207.799 72.4208 207.672 66.53 204.735 61.136C201.286 54.7921 195.287 51.7599 186.426 51.8726C179.655 51.9587 173.923 50.9385 169.064 49.2582L170.281 144.957C170.437 157.15 165.463 168.212 157.341 176.155C157.341 176.155 157.29 176.207 157.238 176.242C157.238 176.242 157.204 176.276 157.187 176.294C157.17 176.311 157.153 176.328 157.136 176.345C155.413 178.024 153.532 179.551 151.545 180.909C145.59 185.391 135.838 191.595 126.233 192.93C124.475 193.26 122.663 193.471 120.833 193.579C120.143 193.622 119.452 193.648 118.761 193.657C94.6822 193.963 74.9178 174.915 74.6151 151.109C74.232 120.986 104.457 106.716 114.237 104.166C114.254 104.166 114.272 104.166 114.289 104.165C114.323 104.165 114.358 104.165 114.375 104.13C118.11 103.041 122.059 102.444 126.135 102.392C132.302 102.314 138.173 103.503 143.505 105.707L142.359 15.6094L150.864 10.5311L168.552 10.3062L168.555 10.5794L168.659 10.5781C168.805 11.2252 169.935 15.8224 173.428 20.1674C178.167 26.0337 185.322 28.9488 194.684 28.8297C206.275 28.6823 215.734 32.0975 222.784 38.9934C234.102 50.0366 234.42 65.5237 234.424 67.2487L234.442 67.2656Z" fill="url(#paint0_linear_727_29729)"/>
<path d="M128.427 191.553C128.427 191.553 128.53 191.552 128.582 191.534C126.824 191.864 125.013 192.075 123.183 192.184C125.184 191.97 126.961 191.743 128.427 191.553Z" fill="url(#paint1_linear_727_29729)"/>
<path d="M228.32 70.9143L210.18 70.923L210.181 70.9913C210.181 70.9913 210.054 65.1005 207.118 59.7065C203.668 53.3626 197.669 50.3304 188.808 50.4431C182.037 50.5292 176.305 49.509 171.447 47.8287L171.329 38.6072C177.565 42.5587 185.998 45.4916 197.312 45.3477C206.173 45.235 212.172 48.2672 215.622 54.6111C218.558 60.0051 218.684 65.8447 218.685 65.913L218.684 65.8447L227.91 65.8469C228.289 68.5065 228.33 70.3847 228.32 70.9143Z" fill="url(#paint2_linear_727_29729)"/>
<path d="M159.502 174.932C157.778 176.61 155.897 178.137 153.911 179.495C156.837 177.288 158.87 175.503 159.502 174.932Z" fill="url(#paint3_linear_727_29729)"/>
<path d="M236.826 65.8349L227.894 65.846L218.669 65.8438L218.67 65.9121C218.67 65.9121 218.543 60.0212 215.606 54.6102C212.157 48.2663 206.158 45.2341 197.297 45.3468C185.982 45.4907 177.549 42.5578 171.314 38.6063L172.648 143.526C172.803 155.719 167.83 166.782 159.708 174.725C159.708 174.725 159.657 174.776 159.605 174.811C159.605 174.811 159.571 174.846 159.554 174.863C159.537 174.88 159.52 174.898 159.503 174.915C158.871 175.487 156.855 177.272 153.912 179.478C151.805 180.922 149.575 182.181 147.222 183.252C141.862 185.678 135.92 187.068 129.65 187.148C105.571 187.454 85.8062 168.406 85.5034 144.6C85.3242 130.512 92.0055 117.925 102.477 109.918C106.652 106.722 111.44 104.27 116.638 102.735C116.656 102.735 116.673 102.735 116.69 102.735C116.725 102.734 116.759 102.734 116.776 102.699C120.511 101.61 124.46 101.013 128.536 100.961C134.703 100.883 140.575 102.072 145.906 104.276C148.981 105.552 151.869 107.155 154.536 109.051L153.312 12.7718C153.256 12.4821 153.202 12.2608 153.2 12.1583L153.304 12.157L153.265 9.10023L170.953 8.87529C170.953 8.87529 172.108 14.1211 175.829 18.7365C180.569 24.6029 187.723 27.5179 197.086 27.3988C208.676 27.2514 218.135 30.6666 225.185 37.5625C236.486 48.6059 236.821 64.0929 236.826 65.8349Z" fill="url(#paint4_radial_727_29729)"/>
<path d="M131.002 183.561C108.961 183.842 90.8058 166.344 90.5287 144.554C90.3693 132.02 96.0441 120.436 106.088 112.759C109.989 109.789 114.332 107.581 119.03 106.189C119.116 106.171 119.185 106.136 119.254 106.118C122.714 105.118 126.318 104.577 129.98 104.53C135.507 104.46 140.858 105.485 145.895 107.573C148.691 108.733 151.353 110.202 153.811 111.947L159.652 116.108L158.336 12.6227L169.684 12.4784C170.508 14.7224 171.965 17.9319 174.405 20.9411C179.881 27.7204 187.992 31.0844 198.546 30.9502C209.134 30.8155 217.708 33.8833 224.041 40.0709C231.58 47.4218 233.741 57.0101 234.359 62.1944L223.355 62.1977C222.943 59.6923 222.069 56.2362 220.23 52.8437C216.126 45.3296 208.891 41.5787 198.683 41.7086C189.407 41.8265 181.347 39.7428 174.711 35.5232L169.033 31.9233L170.453 143.52C170.589 154.262 166.433 164.34 158.772 171.936L158.584 172.058L158.431 172.247C157.662 172.923 155.817 174.552 153.164 176.55C151.246 177.856 149.205 179.009 147.109 179.958C142.042 182.26 136.615 183.456 131.001 183.527L131.002 183.561Z" fill="url(#paint5_radial_727_29729)"/>
<path d="M154.517 109.086C151.85 107.189 148.962 105.587 145.888 104.31L144.742 14.2131L153.246 9.13477L154.517 109.103L154.517 109.086Z" fill="url(#paint6_linear_727_29729)"/>
<path d="M147.187 183.287C141.828 185.712 135.885 187.103 129.615 187.182C105.536 187.489 85.7716 168.44 85.4689 144.635C85.2897 130.546 91.971 117.959 102.442 109.952C106.617 106.757 111.406 104.305 116.604 102.77C106.806 105.32 76.5987 119.589 76.9818 149.713C77.2845 173.518 97.0489 192.567 121.128 192.26C121.819 192.252 122.51 192.243 123.2 192.183C125.201 191.969 126.978 191.742 128.444 191.552C128.496 191.552 128.548 191.551 128.599 191.533C138.222 190.198 147.956 183.994 153.912 179.512C151.805 180.956 149.575 182.214 147.222 183.286L147.187 183.287Z" fill="url(#paint7_linear_727_29729)"/>
<path d="M218.685 65.843L210.164 70.9215L228.321 70.9126L236.825 65.8172L218.685 65.843Z" fill="url(#paint8_linear_727_29729)"/>
<path d="M95.0463 34.3176L90.2477 37.476L79.7399 37.9418L79.7416 37.971C79.7416 37.971 79.5178 34.5562 77.6852 31.5113C75.5257 27.9283 71.9825 26.3281 66.8431 26.6204C62.9295 26.843 59.5857 26.4033 56.7224 25.5555L59.8721 80.9344C60.2731 87.9863 57.6815 94.52 53.1696 99.332C53.1696 99.332 53.1417 99.3629 53.1138 99.3938C53.1138 99.3938 53.0999 99.4092 53.086 99.4246C53.072 99.4401 53.072 99.4401 53.0581 99.4555C52.093 100.462 51.05 101.401 49.9421 102.24C46.6021 104.993 41.1312 108.834 35.5886 109.853C34.5795 110.086 33.5376 110.262 32.4768 110.367C32.0789 110.404 31.681 110.441 31.2822 110.464C17.3557 111.256 5.42269 100.729 4.63964 86.9612C3.64817 69.5285 20.7805 60.498 26.3866 58.773L26.4162 58.7713C26.4309 58.7704 26.4457 58.7696 26.4744 58.7533C28.6113 58.0312 30.8821 57.5798 33.2451 57.4455C36.8042 57.243 40.2425 57.7799 43.389 58.9192L40.4237 6.78159L45.2223 3.62312L55.4568 3.04104L55.4659 3.20164L55.525 3.19828C55.6352 3.57285 56.3926 6.21026 58.53 8.62272C61.4277 11.9001 65.6322 13.404 71.0521 13.0957C77.757 12.7144 83.3227 14.4485 87.5845 18.2635C94.4209 24.3635 95.0046 33.3239 95.0471 34.3322L95.0463 34.3176Z" fill="url(#paint9_linear_727_29729)"/>
<path d="M36.843 108.977C36.843 108.977 36.9021 108.973 36.9316 108.972C35.9226 109.205 34.8807 109.381 33.8199 109.486C34.9799 109.302 35.9931 109.142 36.8439 108.991L36.843 108.977Z" fill="url(#paint10_linear_727_29729)"/>
<path d="M91.5909 36.5795L81.0831 37.0453L81.0848 37.0745C81.0848 37.0745 80.8609 33.6597 79.0284 30.6148C76.8688 27.0318 73.3257 25.4316 68.1863 25.7239C64.2727 25.9465 60.9289 25.5068 58.0656 24.659L57.7625 19.3299C61.4693 21.4627 66.4277 22.9384 72.9849 22.5655C78.1095 22.274 81.6527 23.8741 83.8122 27.4571C85.6595 30.5013 85.8669 33.8877 85.8686 33.9169L85.8669 33.8877L91.2024 33.6575C91.4972 35.1934 91.5587 36.2738 91.5761 36.5804L91.5909 36.5795Z" fill="url(#paint11_linear_727_29729)"/>
<path d="M54.4004 98.5596C53.4354 99.5665 52.3923 100.505 51.2844 101.344C52.9261 99.991 54.0495 98.9018 54.4004 98.5596Z" fill="url(#paint12_linear_727_29729)"/>
<path d="M96.3889 33.4209L91.2167 33.6565L85.8812 33.8867L85.8828 33.9159C85.8828 33.9159 85.659 30.5011 83.8264 27.4562C81.6669 23.8732 78.1237 22.273 72.9991 22.5645C66.4567 22.9366 61.4983 21.4609 57.7768 19.3289L61.2295 80.0369C61.6305 87.0888 59.0389 93.6225 54.527 98.4345C54.527 98.4345 54.4991 98.4654 54.4713 98.4963C54.4713 98.4963 54.4573 98.5117 54.4434 98.5272C54.4294 98.5426 54.4294 98.5426 54.4155 98.5581C54.0646 98.9003 52.9412 99.9895 51.2995 101.343C50.1202 102.23 48.8465 103.02 47.5219 103.696C44.483 105.231 41.0704 106.187 37.4374 106.393C23.5109 107.185 11.5778 96.6587 10.7948 82.8907C10.3314 74.7437 13.8775 67.2769 19.7325 62.3739C22.0663 60.4248 24.7786 58.8791 27.7432 57.8609L27.7728 57.8592C27.7875 57.8584 27.8023 57.8576 27.831 57.8413C29.9679 57.1192 32.2387 56.6678 34.6016 56.5334C38.1608 56.331 41.599 56.8678 44.7456 58.0071C46.561 58.6655 48.269 59.5205 49.8688 60.5574L46.7009 4.8573C46.6614 4.68377 46.6253 4.56865 46.6219 4.51025L46.681 4.50689L46.5797 2.72566L56.8142 2.14358C56.8142 2.14358 57.6219 5.14432 59.8874 7.72526C62.7852 11.0026 66.9896 12.5065 72.4095 12.1983C79.1144 11.817 84.6801 13.5511 88.9419 17.366C95.7783 23.4661 96.362 32.4264 96.4045 33.4347L96.3889 33.4209Z" fill="url(#paint13_radial_727_29729)"/>
<path d="M38.1326 104.289C25.3875 105.014 14.4225 95.3548 13.705 82.7402C13.2923 75.4839 16.2809 68.6346 21.8956 63.9357C24.0736 62.1127 26.5432 60.7272 29.2165 59.7988C29.2608 59.7963 29.3035 59.7646 29.347 59.7475C31.3239 59.0784 33.4052 58.6818 35.5171 58.5617C38.707 58.3802 41.8441 58.8317 44.8101 59.9226C46.4589 60.5173 48.0299 61.3068 49.5066 62.2628L52.9985 64.525L49.5923 4.63463L56.1494 4.2617C56.6811 5.53509 57.6144 7.35689 59.1031 9.04457C62.4443 12.824 67.2257 14.5734 73.3398 14.2257C79.4686 13.8771 84.5059 15.4362 88.33 18.8513C92.8726 22.914 94.3852 28.4086 94.8664 31.3987L88.4971 31.6877C88.1933 30.2548 87.6062 28.2669 86.4455 26.3555C83.8778 22.1073 79.5869 20.1249 73.6943 20.46C68.3334 20.7649 63.61 19.7739 59.6578 17.4939L56.2727 15.5479L59.9447 80.1103C60.2984 86.3301 58.147 92.2675 53.904 96.8591L53.8048 96.938L53.7228 97.0598C53.3022 97.4792 52.2617 98.4612 50.7905 99.6874C49.7105 100.496 48.5656 101.205 47.3705 101.815C44.4899 103.268 41.3816 104.104 38.1326 104.289Z" fill="url(#paint14_radial_727_29729)"/>
<path d="M49.8399 60.5592C48.2401 59.5224 46.532 58.6674 44.7167 58.009L41.7522 5.88601L46.5508 2.72754L49.8399 60.5592Z" fill="url(#paint15_linear_727_29729)"/>
<path d="M47.4919 103.698C44.453 105.233 41.0404 106.189 37.4074 106.396C23.4808 107.188 11.5478 96.661 10.7648 82.893C10.3014 74.746 13.8475 67.2792 19.7025 62.3762C22.0363 60.4271 24.7486 58.8814 27.7132 57.8632C22.1071 59.5882 4.97472 68.6187 5.96619 86.0515C6.74924 99.8195 18.6823 110.346 32.6088 109.554C33.0075 109.531 33.4063 109.509 33.8034 109.457C34.9634 109.274 35.9766 109.114 36.8274 108.963C36.8569 108.961 36.8865 108.959 36.916 108.958C42.4438 107.94 47.9295 104.098 51.2695 101.345C50.0902 102.232 48.8165 103.022 47.4919 103.698Z" fill="url(#paint16_linear_727_29729)"/>
<path d="M85.8825 33.8863L81.084 37.0447L91.5917 36.5789L96.3903 33.4205L85.8825 33.8863Z" fill="url(#paint17_linear_727_29729)"/>
<defs>
<linearGradient id="paint0_linear_727_29729" x1="210.931" y1="7.61517" x2="56.325" y2="245.332" gradientUnits="userSpaceOnUse">
<stop stop-color="#4D67FF"/>
<stop offset="0.07" stop-color="#536AFC"/>
<stop offset="0.17" stop-color="#6572F5"/>
<stop offset="0.28" stop-color="#8380E9"/>
<stop offset="0.41" stop-color="#AD93D9"/>
<stop offset="0.54" stop-color="#E2ABC5"/>
<stop offset="0.6" stop-color="#FDB8BB"/>
<stop offset="0.68" stop-color="#FCE29D"/>
<stop offset="1" stop-color="#FFA710"/>
</linearGradient>
<linearGradient id="paint1_linear_727_29729" x1="127.161" y1="189.861" x2="124.128" y2="194.663" gradientUnits="userSpaceOnUse">
<stop stop-color="#FF99FF"/>
<stop offset="0.16" stop-color="#FF9BFF"/>
<stop offset="0.25" stop-color="#FFA3FF"/>
<stop offset="0.33" stop-color="#FFB1FF"/>
<stop offset="0.39" stop-color="#FFC5FF"/>
<stop offset="0.45" stop-color="#FFDFFF"/>
<stop offset="0.51" stop-color="white"/>
<stop offset="0.53" stop-color="#FFFBDF"/>
<stop offset="0.56" stop-color="#FFF7B1"/>
<stop offset="0.59" stop-color="#FFF287"/>
<stop offset="0.63" stop-color="#FFEF63"/>
<stop offset="0.66" stop-color="#FFEB44"/>
<stop offset="0.7" stop-color="#FFE92B"/>
<stop offset="0.75" stop-color="#FFE718"/>
<stop offset="0.8" stop-color="#FFE60B"/>
<stop offset="0.87" stop-color="#FFE503"/>
<stop offset="1" stop-color="#FFE501"/>
</linearGradient>
<linearGradient id="paint2_linear_727_29729" x1="170.382" y1="33.41" x2="223.723" y2="72.8858" gradientUnits="userSpaceOnUse">
<stop stop-color="#4D67FF"/>
<stop offset="0.07" stop-color="#536AFC"/>
<stop offset="0.17" stop-color="#6572F5"/>
<stop offset="0.28" stop-color="#8380E9"/>
<stop offset="0.41" stop-color="#AD93D9"/>
<stop offset="0.54" stop-color="#E2ABC5"/>
<stop offset="0.6" stop-color="#FDB8BB"/>
<stop offset="0.68" stop-color="#FCE29D"/>
<stop offset="1" stop-color="#FFA710"/>
</linearGradient>
<linearGradient id="paint3_linear_727_29729" x1="156.737" y1="180.279" x2="156.685" y2="176.231" gradientUnits="userSpaceOnUse">
<stop stop-color="#FFF39F"/>
<stop offset="0.06" stop-color="#FFF0A1"/>
<stop offset="0.09" stop-color="#FFE8A9"/>
<stop offset="0.12" stop-color="#FFDBB7"/>
<stop offset="0.15" stop-color="#FFC9CB"/>
<stop offset="0.17" stop-color="#FFB1E5"/>
<stop offset="0.19" stop-color="#FF99FF"/>
<stop offset="0.29" stop-color="#FF9BFF"/>
<stop offset="0.35" stop-color="#FFA3FF"/>
<stop offset="0.39" stop-color="#FFB1FF"/>
<stop offset="0.44" stop-color="#FFC5FF"/>
<stop offset="0.47" stop-color="#FFDFFF"/>
<stop offset="0.51" stop-color="white"/>
<stop offset="0.53" stop-color="#FFFBDF"/>
<stop offset="0.56" stop-color="#FFF7B1"/>
<stop offset="0.59" stop-color="#FFF287"/>
<stop offset="0.63" stop-color="#FFEF63"/>
<stop offset="0.66" stop-color="#FFEB44"/>
<stop offset="0.7" stop-color="#FFE92B"/>
<stop offset="0.75" stop-color="#FFE718"/>
<stop offset="0.8" stop-color="#FFE60B"/>
<stop offset="0.87" stop-color="#FFE503"/>
<stop offset="1" stop-color="#FFE501"/>
</linearGradient>
<radialGradient id="paint4_radial_727_29729" cx="0" cy="0" r="1" gradientUnits="userSpaceOnUse" gradientTransform="translate(136.198 93.4514) rotate(-0.728626) scale(167.98 166.069)">
<stop stop-color="#FFA710"/>
<stop offset="0.32" stop-color="#FCE29D"/>
<stop offset="0.4" stop-color="#FDB8BB"/>
<stop offset="0.46" stop-color="#E2ABC5"/>
<stop offset="0.59" stop-color="#AD93D9"/>
<stop offset="0.72" stop-color="#8380E9"/>
<stop offset="0.83" stop-color="#6572F5"/>
<stop offset="0.93" stop-color="#536AFC"/>
<stop offset="1" stop-color="#4D67FF"/>
</radialGradient>
<radialGradient id="paint5_radial_727_29729" cx="0" cy="0" r="1" gradientUnits="userSpaceOnUse" gradientTransform="translate(162.392 97.8837) rotate(-0.728626) scale(79.6541 78.7477)">
<stop offset="0.08" stop-color="#FEFED7"/>
<stop offset="0.35" stop-color="#FCE29D"/>
<stop offset="0.72" stop-color="#FDB8BB"/>
<stop offset="0.99" stop-color="#FEFED7"/>
</radialGradient>
<linearGradient id="paint6_linear_727_29729" x1="149.17" y1="25.5489" x2="150.257" y2="111.018" gradientUnits="userSpaceOnUse">
<stop stop-color="#4D67FF"/>
<stop offset="0.07" stop-color="#536AFC"/>
<stop offset="0.17" stop-color="#6572F5"/>
<stop offset="0.28" stop-color="#8380E9"/>
<stop offset="0.41" stop-color="#AD93D9"/>
<stop offset="0.54" stop-color="#E2ABC5"/>
<stop offset="0.6" stop-color="#FDB8BB"/>
<stop offset="0.68" stop-color="#FCE29D"/>
<stop offset="1" stop-color="#FFA710"/>
</linearGradient>
<linearGradient id="paint7_linear_727_29729" x1="117.719" y1="228.478" x2="114.429" y2="135.743" gradientUnits="userSpaceOnUse">
<stop stop-color="#4D67FF"/>
<stop offset="0.07" stop-color="#536AFC"/>
<stop offset="0.17" stop-color="#6572F5"/>
<stop offset="0.28" stop-color="#8380E9"/>
<stop offset="0.41" stop-color="#AD93D9"/>
<stop offset="0.54" stop-color="#E2ABC5"/>
<stop offset="0.6" stop-color="#FDB8BB"/>
<stop offset="0.68" stop-color="#FCE29D"/>
<stop offset="1" stop-color="#FFA710"/>
</linearGradient>
<linearGradient id="paint8_linear_727_29729" x1="238.147" y1="58.4049" x2="196.609" y2="87.2845" gradientUnits="userSpaceOnUse">
<stop stop-color="#4D67FF"/>
<stop offset="0.07" stop-color="#536AFC"/>
<stop offset="0.17" stop-color="#6572F5"/>
<stop offset="0.28" stop-color="#8380E9"/>
<stop offset="0.41" stop-color="#AD93D9"/>
<stop offset="0.54" stop-color="#E2ABC5"/>
<stop offset="0.6" stop-color="#FDB8BB"/>
<stop offset="0.68" stop-color="#FCE29D"/>
<stop offset="1" stop-color="#FFA710"/>
</linearGradient>
<linearGradient id="paint9_linear_727_29729" x1="79.8999" y1="0.376516" x2="-3.52157" y2="141.948" gradientUnits="userSpaceOnUse">
<stop stop-color="#4D67FF"/>
<stop offset="0.07" stop-color="#536AFC"/>
<stop offset="0.17" stop-color="#6572F5"/>
<stop offset="0.28" stop-color="#8380E9"/>
<stop offset="0.41" stop-color="#AD93D9"/>
<stop offset="0.54" stop-color="#E2ABC5"/>
<stop offset="0.6" stop-color="#FDB8BB"/>
<stop offset="0.68" stop-color="#FCE29D"/>
<stop offset="1" stop-color="#FFA710"/>
</linearGradient>
<linearGradient id="paint10_linear_727_29729" x1="36.0629" y1="108.025" x2="34.4317" y2="110.876" gradientUnits="userSpaceOnUse">
<stop stop-color="#FF99FF"/>
<stop offset="0.16" stop-color="#FF9BFF"/>
<stop offset="0.25" stop-color="#FFA3FF"/>
<stop offset="0.33" stop-color="#FFB1FF"/>
<stop offset="0.39" stop-color="#FFC5FF"/>
<stop offset="0.45" stop-color="#FFDFFF"/>
<stop offset="0.51" stop-color="white"/>
<stop offset="0.53" stop-color="#FFFBDF"/>
<stop offset="0.56" stop-color="#FFF7B1"/>
<stop offset="0.59" stop-color="#FFF287"/>
<stop offset="0.63" stop-color="#FFEF63"/>
<stop offset="0.66" stop-color="#FFEB44"/>
<stop offset="0.7" stop-color="#FFE92B"/>
<stop offset="0.75" stop-color="#FFE718"/>
<stop offset="0.8" stop-color="#FFE60B"/>
<stop offset="0.87" stop-color="#FFE503"/>
<stop offset="1" stop-color="#FFE501"/>
</linearGradient>
<linearGradient id="paint11_linear_727_29729" x1="57.0893" y1="16.3508" x2="88.9766" y2="37.8416" gradientUnits="userSpaceOnUse">
<stop stop-color="#4D67FF"/>
<stop offset="0.07" stop-color="#536AFC"/>
<stop offset="0.17" stop-color="#6572F5"/>
<stop offset="0.28" stop-color="#8380E9"/>
<stop offset="0.41" stop-color="#AD93D9"/>
<stop offset="0.54" stop-color="#E2ABC5"/>
<stop offset="0.6" stop-color="#FDB8BB"/>
<stop offset="0.68" stop-color="#FCE29D"/>
<stop offset="1" stop-color="#FFA710"/>
</linearGradient>
<linearGradient id="paint12_linear_727_29729" x1="52.9355" y1="101.719" x2="52.8026" y2="99.3828" gradientUnits="userSpaceOnUse">
<stop stop-color="#FFF39F"/>
<stop offset="0.06" stop-color="#FFF0A1"/>
<stop offset="0.09" stop-color="#FFE8A9"/>
<stop offset="0.12" stop-color="#FFDBB7"/>
<stop offset="0.15" stop-color="#FFC9CB"/>
<stop offset="0.17" stop-color="#FFB1E5"/>
<stop offset="0.19" stop-color="#FF99FF"/>
<stop offset="0.29" stop-color="#FF9BFF"/>
<stop offset="0.35" stop-color="#FFA3FF"/>
<stop offset="0.39" stop-color="#FFB1FF"/>
<stop offset="0.44" stop-color="#FFC5FF"/>
<stop offset="0.47" stop-color="#FFDFFF"/>
<stop offset="0.51" stop-color="white"/>
<stop offset="0.53" stop-color="#FFFBDF"/>
<stop offset="0.56" stop-color="#FFF7B1"/>
<stop offset="0.59" stop-color="#FFF287"/>
<stop offset="0.63" stop-color="#FFEF63"/>
<stop offset="0.66" stop-color="#FFEB44"/>
<stop offset="0.7" stop-color="#FFE92B"/>
<stop offset="0.75" stop-color="#FFE718"/>
<stop offset="0.8" stop-color="#FFE60B"/>
<stop offset="0.87" stop-color="#FFE503"/>
<stop offset="1" stop-color="#FFE501"/>
</linearGradient>
<radialGradient id="paint13_radial_727_29729" cx="0" cy="0" r="1" gradientUnits="userSpaceOnUse" gradientTransform="translate(38.8471 51.9856) rotate(-3.25515) scale(97.3327 96.2251)">
<stop stop-color="#FFA710"/>
<stop offset="0.32" stop-color="#FCE29D"/>
<stop offset="0.4" stop-color="#FDB8BB"/>
<stop offset="0.46" stop-color="#E2ABC5"/>
<stop offset="0.59" stop-color="#AD93D9"/>
<stop offset="0.72" stop-color="#8380E9"/>
<stop offset="0.83" stop-color="#6572F5"/>
<stop offset="0.93" stop-color="#536AFC"/>
<stop offset="1" stop-color="#4D67FF"/>
</radialGradient>
<radialGradient id="paint14_radial_727_29729" cx="0" cy="0" r="1" gradientUnits="userSpaceOnUse" gradientTransform="translate(54.1112 53.8715) rotate(-3.25515) scale(46.1516 45.6265)">
<stop offset="0.08" stop-color="#FEFED7"/>
<stop offset="0.35" stop-color="#FCE29D"/>
<stop offset="0.72" stop-color="#FDB8BB"/>
<stop offset="0.99" stop-color="#FEFED7"/>
</radialGradient>
<linearGradient id="paint15_linear_727_29729" x1="44.6086" y1="12.3442" x2="47.4211" y2="61.7954" gradientUnits="userSpaceOnUse">
<stop stop-color="#4D67FF"/>
<stop offset="0.07" stop-color="#536AFC"/>
<stop offset="0.17" stop-color="#6572F5"/>
<stop offset="0.28" stop-color="#8380E9"/>
<stop offset="0.41" stop-color="#AD93D9"/>
<stop offset="0.54" stop-color="#E2ABC5"/>
<stop offset="0.6" stop-color="#FDB8BB"/>
<stop offset="0.68" stop-color="#FCE29D"/>
<stop offset="1" stop-color="#FFA710"/>
</linearGradient>
<linearGradient id="paint16_linear_727_29729" x1="31.5851" y1="130.632" x2="27.3201" y2="77.0292" gradientUnits="userSpaceOnUse">
<stop stop-color="#4D67FF"/>
<stop offset="0.07" stop-color="#536AFC"/>
<stop offset="0.17" stop-color="#6572F5"/>
<stop offset="0.28" stop-color="#8380E9"/>
<stop offset="0.41" stop-color="#AD93D9"/>
<stop offset="0.54" stop-color="#E2ABC5"/>
<stop offset="0.6" stop-color="#FDB8BB"/>
<stop offset="0.68" stop-color="#FCE29D"/>
<stop offset="1" stop-color="#FFA710"/>
</linearGradient>
<linearGradient id="paint17_linear_727_29729" x1="96.9592" y1="29.0964" x2="73.6527" y2="46.8646" gradientUnits="userSpaceOnUse">
<stop stop-color="#4D67FF"/>
<stop offset="0.07" stop-color="#536AFC"/>
<stop offset="0.17" stop-color="#6572F5"/>
<stop offset="0.28" stop-color="#8380E9"/>
<stop offset="0.41" stop-color="#AD93D9"/>
<stop offset="0.54" stop-color="#E2ABC5"/>
<stop offset="0.6" stop-color="#FDB8BB"/>
<stop offset="0.68" stop-color="#FCE29D"/>
<stop offset="1" stop-color="#FFA710"/>
</linearGradient>
</defs>
</svg>
