
<svg width="103" height="48" viewBox="0 0 103 48" fill="none" xmlns="http://www.w3.org/2000/svg">
<path d="M12.6825 0.451172H17.9789V20.4855H12.0975L7.88874 13.3661C6.75481 11.434 5.84448 9.78355 5.15689 8.41399C5.24935 11.1718 5.29643 14.1078 5.29643 17.2211V20.4855H0V0.451172H5.88146L10.0902 7.57053C11.0938 9.29648 12.0042 10.9563 12.822 12.5507C12.7287 9.79289 12.6825 6.84756 12.6825 3.7147V0.451172Z" fill="#2B190F"/>
<path d="M23.5612 18.0658C21.6472 16.1897 20.6907 13.6576 20.6907 10.4687C20.6907 7.27986 21.6472 4.75627 23.5612 2.84363C25.4945 0.947961 28.012 0.000976562 31.1154 0.000976562C34.2188 0.000976562 36.7363 0.947961 38.6688 2.84278C40.5827 4.75627 41.5393 7.29853 41.5393 10.4679C41.5393 13.6372 40.5827 16.1888 38.6688 18.065C36.7548 19.9785 34.2364 20.9348 31.1154 20.9348C27.9944 20.9348 25.4752 19.9785 23.5612 18.065V18.0658ZM31.1154 16.0683C32.5276 16.0683 33.6514 15.5711 34.4878 14.5774C35.3241 13.6016 35.7419 12.2329 35.7419 10.4687C35.7419 8.70458 35.3241 7.37829 34.4878 6.37446C33.6514 5.37062 32.5276 4.86912 31.1154 4.86912C29.7033 4.86912 28.5786 5.37062 27.743 6.37446C26.9067 7.37744 26.4889 8.74277 26.4889 10.4687C26.4889 12.1947 26.9067 13.6016 27.743 14.5774C28.5794 15.5719 29.7033 16.0683 31.1154 16.0683Z" fill="#2B190F"/>
<path d="M56.4425 0.451172H62.1845L55.4112 20.4855H48.7219L41.6973 0.451172H47.6619L49.9475 7.8514C50.672 10.1773 51.3873 12.7475 52.0943 15.5613C52.7255 12.8417 53.4224 10.2715 54.1848 7.8514L56.4425 0.451172Z" fill="#2B190F"/>
<path d="M67.4052 18.8257C65.7333 17.4188 64.897 15.412 64.897 12.8044V0.451172H70.4716V12.8604C70.4716 13.9109 70.7641 14.717 71.3492 15.2805C71.9351 15.8431 72.7571 16.1248 73.8163 16.1248C74.8754 16.1248 75.6975 15.8431 76.2833 15.2805C76.8684 14.7179 77.1617 13.9109 77.1617 12.8604V0.451172H82.7364V12.8044C82.7364 15.4493 81.9286 17.4655 80.3113 18.8537C78.6756 20.242 76.5111 20.9361 73.8171 20.9361C71.1231 20.9361 69.0418 20.2326 67.4061 18.8257H67.4052Z" fill="#2B190F"/>
<path d="M87.684 19.05C86.1508 17.7933 85.3842 16.0767 85.3842 13.901H90.7361C90.7546 14.9515 91.0614 15.6736 91.6556 16.0673C92.2499 16.4611 93.1888 16.6579 94.4707 16.6579C96.3292 16.6579 97.258 16.058 97.258 14.8573C97.258 14.2947 97.0445 13.8823 96.6167 13.6193C96.1897 13.3571 95.3626 13.122 94.1362 12.9158L92.5752 12.6621C87.9857 11.912 85.6901 9.75496 85.6901 6.19019C85.6901 4.29622 86.3912 2.79089 87.7949 1.67419C89.1978 0.558348 91.2093 0 93.8294 0C96.4494 0 98.5122 0.558348 99.9613 1.67419C101.41 2.79004 102.191 4.43623 102.302 6.61192H97.0622C97.0252 5.8058 96.7554 5.21435 96.2536 4.84014C95.7517 4.46423 94.9717 4.27755 93.9126 4.27755C92.2213 4.27755 91.3766 4.83081 91.3766 5.93817C91.3766 6.50076 91.5901 6.92249 92.0179 7.20421C92.4449 7.48593 93.1981 7.72013 94.2757 7.90766L95.9199 8.18938C98.3911 8.60178 100.189 9.30098 101.314 10.2862C102.438 11.2705 103 12.6545 103 14.4364C103 16.5561 102.228 18.1692 100.687 19.2766C99.1443 20.3831 96.9983 20.9363 94.248 20.9363C91.4976 20.9363 89.2172 20.3076 87.684 19.0509V19.05Z" fill="#2B190F"/>
<path d="M5.57466 42.5302H14.3544V47.5392H0V27.5049H5.57466V42.5311V42.5302Z" fill="#2B190F"/>
<path d="M32.2022 47.5392L31.3658 44.9223H23.5897L22.7533 47.5392H17.0669L24.1193 27.5049H30.8085L38.1114 47.5392H32.2022ZM25.0389 40.279H29.8612L28.3843 35.6646C27.864 34.0515 27.548 32.9916 27.4362 32.485C26.9713 34.0421 26.6561 35.102 26.4888 35.6646L25.0397 40.279H25.0389Z" fill="#2B190F"/>
<path d="M53.7224 27.5038H59.0189V47.5381H53.1374L48.9287 40.4188C47.7947 38.4866 46.8844 36.8362 46.1968 35.4666C46.2893 38.2244 46.3364 41.1604 46.3364 44.2737V47.5381H41.0408V27.5038H46.9222L51.131 34.6231C52.1346 36.3491 53.0449 38.0089 53.8628 39.6033C53.7704 36.8455 53.7233 33.9002 53.7233 30.7673V27.5029L53.7224 27.5038Z" fill="#2B190F"/>
<path d="M70.4749 27.5039C73.9129 27.5039 76.4867 28.4042 78.1964 30.2057C79.9061 32.0258 80.761 34.4637 80.761 37.5211C80.761 40.5784 79.9061 43.018 78.1964 44.8364C76.4867 46.6379 73.9129 47.5382 70.4749 47.5382H61.8062V27.5039H70.4749ZM70.364 42.8118C73.4304 42.8118 74.9627 41.0485 74.9627 37.5219C74.9627 33.9953 73.4295 32.232 70.364 32.232H67.3817V42.8118H70.364Z" fill="#2B190F"/>
<path d="M89.3971 46.5469V28.5635C89.3971 28.0696 89.9888 27.8218 90.3352 28.1714L99.225 37.1457C99.4495 37.3723 99.4495 37.7389 99.225 37.9646L90.3352 46.9389C89.9888 47.2885 89.3971 47.0407 89.3971 46.5469Z" fill="#2B190F"/>
</svg>
