<svg width="127" height="61" viewBox="0 0 127 61" fill="none" xmlns="http://www.w3.org/2000/svg">
<g clip-path="url(#clip0_261_7766)">
<path d="M45.6104 40.0293C42.106 40.0293 37.4385 37.7711 37.4385 31.1475C37.4385 24.5238 42.5742 22.2656 45.6406 22.2656C48.0801 22.2656 49.7114 22.9529 50.2175 23.2701L48.8958 25.7021C48.2236 25.3773 47.0756 25.1809 46.4638 25.1809C43.8431 25.1809 41.683 27.628 41.683 31.1248C41.683 34.025 43.6543 36.9403 46.4336 36.9403C47.3852 36.9403 48.1329 36.7817 48.8051 36.4192L50.2099 39.0097C49.1903 39.6894 47.2871 40.0293 45.3989 40.0293" fill="#2B190F"/>
<path d="M85.5026 39.6582V27.7025C85.5026 25.7992 84.1129 25.3914 83.2822 25.3914C82.4514 25.3914 81.7414 25.6633 81.2883 26.2146V39.6582H77.0211V27.6345C77.0211 26.9623 76.8096 26.4185 76.3867 26.0031C75.9637 25.5877 75.3519 25.3838 74.5438 25.3838C73.6677 25.3838 73.0333 25.5953 72.7539 25.701V39.6507H68.5244V23.0954C70.0878 22.6649 72.1874 22.3628 73.5242 22.2722C75.0574 22.174 76.802 22.4308 77.5724 22.7631C78.3352 23.0878 78.9394 23.4957 79.3775 23.9866C79.8684 23.5183 80.5179 23.118 81.3185 22.7782C82.1191 22.4383 83.1613 22.2722 84.4226 22.2722C85.6159 22.2722 87.3455 22.7102 88.3877 23.8582C88.8333 24.3491 89.7472 25.4593 89.7472 27.6949V39.6507H85.4951L85.5026 39.6582Z" fill="#2B190F"/>
<path d="M51.4258 57.966C50.0588 59.4388 47.6269 60.3678 43.9865 60.3678C41.1996 60.3678 38.1182 60.0354 38.1182 60.0354V41.4334C38.1182 41.4334 40.9051 41.1162 42.9141 41.1162C47.7099 41.1162 48.8504 41.9545 49.7189 42.4908C50.9198 43.2385 51.9621 44.3563 51.9621 46.0027C51.9621 48.9709 49.1827 49.7488 48.3897 50.0811V50.134C49.7189 50.5116 51.2597 51.2442 52.0678 52.785C52.8155 54.22 52.3623 56.954 51.4258 57.966ZM47.7099 46.0783C47.7099 44.5073 46.5695 43.7219 44.4246 43.7219C43.3219 43.7219 42.8687 43.8578 42.3627 43.9409V49.1673H42.9443C46.8943 49.1673 47.7099 47.6114 47.7099 46.0707V46.0783ZM48.2537 54.7713C48.2537 53.3061 47.6571 51.3198 42.9443 51.3198H42.3627V57.5431C43.6995 57.8905 45.5726 57.7848 46.713 57.1806C47.6193 56.7048 48.2462 55.874 48.2462 54.7713H48.2537Z" fill="#2B190F"/>
<path d="M67.0749 60.0359C67.0749 60.0359 64.3861 60.3682 62.566 60.3682C56.3049 60.3682 53.6992 58.1478 53.6992 54.4621C53.6992 51.5393 56.6221 48.8128 62.8001 48.8128V48.0424C62.8001 47.1663 62.0901 45.7087 59.6507 45.7087C58.1175 45.7087 56.8638 46.1996 56.2293 46.5168C56.2067 46.4488 54.8321 43.9187 54.8321 43.9187C55.8215 43.3598 57.8758 42.6348 60.6325 42.6348C63.7064 42.6348 67.0749 44.3114 67.0749 48.0349V60.0284V60.0359ZM62.8076 51.0106C59.477 51.0106 57.8985 52.1661 57.8985 54.4621C57.8985 56.3201 59.2428 57.7324 61.3349 57.7324C62.1506 57.7324 62.8001 57.5209 62.8001 57.5209V51.0106H62.8076Z" fill="#2B190F"/>
<path d="M78.7132 60.0435V49.5152C78.7132 47.3098 78.3733 46.2223 76.5758 45.8144C75.7223 45.6256 74.6801 45.8371 73.8342 46.0561V60.036H69.6123V43.4731C69.6123 43.4731 72.2557 42.8236 74.5744 42.7028C77.7313 42.5442 79.3098 42.9218 80.8732 43.9565C82.3686 44.9383 82.9351 46.6679 82.9351 47.982V60.036H78.7056L78.7132 60.0435Z" fill="#2B190F"/>
<path d="M66.3948 31.1543C66.3948 25.588 63.4568 22.2725 58.3815 22.2725C53.3061 22.2725 50.2549 25.588 50.2549 31.1543C50.2549 36.7206 53.3061 40.0361 58.3815 40.0361C63.4568 40.0361 66.3948 36.7206 66.3948 31.1543ZM62.12 31.1543C62.12 35.6707 60.1186 36.9622 58.3739 36.9622C56.6293 36.9622 54.5145 35.6707 54.5145 31.1543C54.5145 26.6379 56.6293 25.3464 58.3739 25.3464C60.1186 25.3464 62.12 26.6379 62.12 31.1543Z" fill="#2B190F"/>
<path d="M126.324 22.1446C127.502 20.8229 124.73 19.2822 122.948 18.6251C119.964 17.5225 116.981 17.024 113.877 16.6992V26.0116C119.768 25.4149 124.413 23.9724 126.324 22.1446Z" fill="#2B190F"/>
<path d="M89.543 22.2351L107.896 40.5879L126.362 22.1143C123.869 24.5386 116.551 26.3059 107.896 26.3059C99.2405 26.3059 92.1562 24.6066 89.5505 22.2351H89.543Z" fill="#2B190F"/>
<path d="M89.4677 18.4353C88.297 19.757 91.0613 21.2977 92.8437 21.9548C95.827 23.0575 98.8102 23.5559 101.914 23.8807V14.5684C96.0233 15.165 91.3785 16.6076 89.4677 18.4353Z" fill="#2B190F"/>
<path d="M126.249 18.3528L107.896 0L89.4375 18.4736C91.9299 16.0492 99.2483 14.2819 107.904 14.2819C116.559 14.2819 123.643 15.9813 126.249 18.3528Z" fill="#2B190F"/>
<path d="M16.9253 24.2511C16.9253 27.4157 15.3922 29.84 14.4783 30.6935C12.7412 32.3173 11.0796 32.8837 6.74446 32.8082H5.95899V39.6584H0V15.9508C0 15.9508 3.24006 15.5732 6.64628 15.5505C11.4497 15.5203 13.3303 16.4115 14.7502 17.7635C15.8227 18.7831 16.9253 21.2981 16.9253 24.2511ZM11.0645 24.1378C11.0645 19.8329 8.91961 18.8057 7.44685 18.7302C6.90306 18.7 5.95899 18.7528 5.95899 18.7528V29.4851H6.76712C8.76855 29.4851 11.057 27.8613 11.057 24.1378H11.0645Z" fill="#2B190F"/>
<path d="M30.943 39.6579H25.9054L17.4541 15.8975H24.6366C24.6366 15.8975 28.5715 29.9981 28.6168 30.3229H28.6546C28.6999 29.9981 32.801 15.8975 32.801 15.8975H39.3566L30.943 39.6579Z" fill="#2B190F"/>
<path d="M95.3968 60.0354L89.7324 53.3665H89.7022L89.755 60.043H85.5029V41.4561H89.755L89.7022 48.6008H89.755L94.7171 43.0345H100.51L92.6024 50.9723L101.069 60.0354H95.3968Z" fill="#2B190F"/>
</g>
<defs>
<clipPath id="clip0_261_7766">
<rect width="126.604" height="60.3754" fill="white"/>
</clipPath>
</defs>
</svg>
