<svg width="26" height="26" viewBox="0 0 26 26" fill="none" xmlns="http://www.w3.org/2000/svg">
<path fill-rule="evenodd" clip-rule="evenodd" d="M5.79741 25.4892C5.22868 25.469 4.4957 25.4245 4.16254 25.3573C3.65398 25.2546 3.17372 25.0989 2.77433 24.8953C2.30507 24.6561 1.8845 24.351 1.52134 23.9884C1.15736 23.6251 0.851013 23.2042 0.610904 22.7342C0.40791 22.337 0.252291 21.8596 0.149156 21.354C0.0805602 21.0174 0.0351932 20.279 0.0146275 19.7066C0.00628763 19.4726 0.00200855 19.1699 0.00200855 19.0302L0 6.4735C0 6.33443 0.00423542 6.03158 0.0125316 5.79737C0.0327481 5.22869 0.0772417 4.4957 0.144528 4.16254C0.247182 3.65403 0.402932 3.17372 0.60645 2.77433C0.845642 2.30503 1.15072 1.88454 1.51331 1.52134C1.87659 1.1574 2.2976 0.851056 2.76752 0.610904C3.16482 0.407953 3.64215 0.252291 4.14778 0.149156C4.4843 0.0805602 5.22279 0.0351932 5.79518 0.0146711C6.02905 0.00628763 6.33186 0.00200855 6.4715 0.00200855L19.0282 0C19.1673 0 19.4702 0.00419175 19.7043 0.0125316C20.2731 0.0327917 21.0061 0.0772417 21.3392 0.144528C21.8478 0.247226 22.3281 0.402976 22.7274 0.60645C23.1967 0.845642 23.6172 1.15077 23.9804 1.51331C24.3443 1.87664 24.6507 2.29756 24.8908 2.76752C25.0938 3.16482 25.2495 3.64211 25.3526 4.14778C25.4212 4.4843 25.4665 5.22283 25.4871 5.79518C25.4955 6.02909 25.4997 6.33186 25.4997 6.4715L25.5018 19.0282C25.5018 19.1673 25.4975 19.4702 25.4892 19.7044C25.4689 20.2731 25.4245 21.006 25.3572 21.3392C25.2546 21.8478 25.0988 22.328 24.8953 22.7274C24.6561 23.1967 24.351 23.6172 23.9885 23.9804C23.6251 24.3443 23.2041 24.6507 22.7342 24.8908C22.3369 25.0938 21.8596 25.2495 21.354 25.3526C21.0174 25.4212 20.2789 25.4665 19.7066 25.4871C19.4726 25.4955 19.1699 25.4997 19.0302 25.4997L6.4735 25.5017C6.33439 25.5017 6.03154 25.4975 5.79741 25.4892Z" fill="#2B190F"/>
<mask id="mask0_2156_8770" style="mask-type:luminance" maskUnits="userSpaceOnUse" x="0" y="0" width="26" height="26">
<path fill-rule="evenodd" clip-rule="evenodd" d="M5.79741 25.4892C5.22869 25.469 4.4957 25.4245 4.16254 25.3573C3.65398 25.2546 3.17372 25.0989 2.77433 24.8953C2.30507 24.6561 1.8845 24.351 1.52134 23.9884C1.15736 23.6251 0.851013 23.2042 0.610904 22.7342C0.40791 22.337 0.252291 21.8596 0.149156 21.354C0.0805602 21.0174 0.0351932 20.279 0.0146275 19.7066C0.00628763 19.4727 0.00200855 19.1699 0.00200855 19.0302L0 6.4735C0 6.33443 0.00423542 6.03158 0.0125316 5.79737C0.0327481 5.22869 0.0772417 4.4957 0.144528 4.16254C0.247182 3.65403 0.402932 3.17372 0.60645 2.77433C0.845642 2.30503 1.15072 1.88454 1.51331 1.52134C1.87659 1.1574 2.2976 0.851056 2.76752 0.610904C3.16482 0.407953 3.64215 0.252291 4.14778 0.149156C4.4843 0.0805602 5.22279 0.0351932 5.79518 0.0146711C6.02905 0.00628763 6.33186 0.00200855 6.4715 0.00200855L19.0282 0C19.1673 0 19.4702 0.00419175 19.7043 0.0125316C20.2731 0.0327917 21.0061 0.0772417 21.3392 0.144528C21.8478 0.247226 22.3281 0.402976 22.7274 0.60645C23.1967 0.845642 23.6172 1.15077 23.9804 1.51331C24.3443 1.87664 24.6507 2.29756 24.8908 2.76752C25.0938 3.16482 25.2495 3.64211 25.3526 4.14778C25.4212 4.4843 25.4665 5.22283 25.4871 5.79518C25.4955 6.02909 25.4997 6.33186 25.4997 6.4715L25.5018 19.0282C25.5018 19.1673 25.4975 19.4702 25.4892 19.7044C25.4689 20.2731 25.4245 21.006 25.3572 21.3392C25.2546 21.8478 25.0988 22.328 24.8953 22.7274C24.6561 23.1967 24.351 23.6172 23.9885 23.9804C23.6251 24.3443 23.2041 24.6507 22.7342 24.8908C22.3369 25.0938 21.8596 25.2495 21.354 25.3526C21.0174 25.4212 20.279 25.4665 19.7066 25.4871C19.4727 25.4955 19.1699 25.4997 19.0302 25.4997L6.4735 25.5017C6.33439 25.5017 6.03154 25.4975 5.79741 25.4892Z" fill="white"/>
</mask>
<g mask="url(#mask0_2156_8770)">
<path d="M10.5645 10.6735V9.89139C10.2931 9.84821 10.019 9.82479 9.74433 9.82131C8.4511 9.81822 7.19071 10.2284 6.14703 10.9921C5.10335 11.7558 4.33097 12.8329 3.94258 14.0665C3.55418 15.3 3.57008 16.6254 3.98796 17.8492C4.40583 19.0731 5.20383 20.1314 6.26553 20.8698C5.4672 20.0147 4.93339 18.9467 4.72853 17.7949C4.52367 16.6431 4.6565 15.4566 5.11099 14.3786C5.56549 13.3006 6.32223 12.3772 7.28991 11.7198C8.25758 11.0623 9.39484 10.6989 10.5645 10.6735Z" fill="#FBFB79" fill-opacity="0.7"/>
<path d="M10.7121 19.5088C11.4264 19.5079 12.1128 19.2316 12.6285 18.7373C13.1442 18.2431 13.4493 17.5689 13.4804 16.8553V3.62828H15.8975C15.8482 3.35197 15.8245 3.07169 15.8267 2.79102H12.5216V16.0046C12.495 16.7216 12.1918 17.4004 11.6755 17.8986C11.1592 18.3968 10.47 18.6757 9.75258 18.6767C9.30715 18.6728 8.86897 18.5635 8.47394 18.3576C8.72993 18.7123 9.0661 19.0014 9.45506 19.2015C9.84401 19.4015 10.2747 19.5068 10.7121 19.5088Z" fill="#FBFB79" fill-opacity="0.7"/>
<path d="M20.4111 8.11561V7.38049C19.5217 7.38047 18.6521 7.11801 17.9113 6.62598C18.5605 7.3813 19.438 7.90472 20.4111 8.1171V8.11561Z" fill="#FBFB79"/>
<path d="M17.9112 6.62646C17.1816 5.79531 16.7793 4.72707 16.7795 3.62109H15.8975C16.0115 4.23244 16.2487 4.81417 16.5948 5.33086C16.9409 5.84754 17.3885 6.28836 17.9105 6.62646H17.9112Z" fill="#FBFB79"/>
<path d="M9.74661 13.1291C9.12782 13.1325 8.52793 13.3427 8.04223 13.7261C7.55653 14.1095 7.21288 14.6442 7.06587 15.2453C6.91885 15.8464 6.9769 16.4794 7.2308 17.0437C7.4847 17.608 7.91989 18.0713 8.46723 18.3599C8.16789 17.9465 7.98866 17.4583 7.94934 16.9494C7.91002 16.4405 8.01214 15.9306 8.24442 15.4761C8.4767 15.0215 8.8301 14.64 9.26558 14.3737C9.70106 14.1075 10.2017 13.9667 10.7121 13.9671C10.9902 13.97 11.2664 14.013 11.5322 14.0946V10.7313C11.2607 10.6908 10.9866 10.6696 10.7121 10.668H10.563V13.2253C10.2969 13.154 10.022 13.1216 9.74661 13.1291Z" fill="#FBFB79"/>
<path d="M20.4111 8.11621V10.6735C18.7643 10.6699 17.1604 10.1482 15.8266 9.18237V15.9021C15.8233 17.5125 15.1812 19.0557 14.0413 20.1932C12.9015 21.3307 11.3569 21.9695 9.74656 21.9695C8.50108 21.972 7.28555 21.5877 6.26776 20.8698C7.09768 21.7625 8.17721 22.3846 9.36573 22.6551C10.5543 22.9255 11.7967 22.8318 12.9311 22.386C14.0656 21.9403 15.0396 21.1632 15.7261 20.156C16.4126 19.1489 16.78 17.9583 16.7802 16.7394V10.0405C18.1186 11 19.7246 11.5146 21.3714 11.5115V8.21835C21.0486 8.21764 20.7268 8.18341 20.4111 8.11621Z" fill="#FBFB79" fill-opacity="0.2"/>
<path d="M15.8267 15.9035V9.18375C17.1657 10.1439 18.7731 10.6583 20.4208 10.654V8.09671C19.448 7.89141 18.5682 7.37539 17.9142 6.62646C17.3923 6.28836 16.9447 5.84754 16.5986 5.33086C16.2525 4.81417 16.0152 4.23244 15.9012 3.62109H13.4804V16.8563C13.4568 17.4324 13.2544 17.9868 12.9013 18.4426C12.5482 18.8983 12.0619 19.2328 11.5099 19.3995C10.958 19.5661 10.3679 19.5568 9.82151 19.3727C9.27516 19.1885 8.79971 18.8388 8.46124 18.3721C7.91373 18.0837 7.47834 17.6205 7.22426 17.0563C6.97017 16.492 6.91199 15.859 7.05895 15.2579C7.20591 14.6568 7.54958 14.122 8.03534 13.7386C8.5211 13.3552 9.12107 13.1452 9.73988 13.1419C10.018 13.1442 10.2943 13.1872 10.56 13.2694V10.7114C9.38398 10.7314 8.23918 11.0931 7.26517 11.7525C6.29116 12.4118 5.53002 13.3403 5.07455 14.4247C4.61908 15.5091 4.48895 16.7027 4.70003 17.8598C4.91111 19.0168 5.45428 20.0875 6.26332 20.9413C7.29083 21.6345 8.50733 21.9936 9.74659 21.9694C11.3567 21.9694 12.901 21.3308 14.0409 20.1936C15.1807 19.0564 15.8229 17.5136 15.8267 15.9035Z" fill="#FBFB79"/>
</g>
</svg>
