<svg width="171" height="124" viewBox="0 0 171 124" fill="none" xmlns="http://www.w3.org/2000/svg">
<g clip-path="url(#clip0_393_9146)">
<path d="M127.301 77.3811L136.262 87.1838C139.736 90.9866 145.411 91.7876 149.805 89.1026C152.109 87.6939 153.445 85.1197 153.272 82.4223L153.249 82.0819C152.986 77.9537 150.381 74.3325 146.54 72.7839L133.465 67.4983L127.294 77.383L127.301 77.3811Z" fill="url(#paint0_linear_393_9146)"/>
<path d="M128.663 76.1409L137.623 85.9436C141.097 89.7464 146.772 90.5474 151.167 87.8624C153.47 86.4536 154.806 83.8795 154.633 81.1821L154.61 80.8416C154.347 76.7135 151.743 73.0922 147.901 71.5437L134.826 66.2581L128.655 76.1428L128.663 76.1409Z" fill="url(#paint1_linear_393_9146)"/>
<path d="M112.556 85.8169C107.204 86.5875 102.485 86.0655 99.5656 85.5136C97.8926 85.2006 96.87 83.4921 97.3841 81.8694L97.3221 82.0594L97.3906 81.8375C97.8227 80.4705 99.1974 79.6423 100.608 79.905C103.248 80.3962 107.774 80.902 112.774 79.9994C122.291 78.3012 129.442 72.4427 134.077 62.5854C134.719 61.2148 136.308 60.5703 137.71 61.1369L137.744 61.1504C139.263 61.7609 139.939 63.5246 139.244 65.0072C132.418 79.5298 121.618 84.2781 113.533 85.6682C113.202 85.7267 112.876 85.7762 112.558 85.8239L112.556 85.8169Z" fill="url(#paint2_linear_393_9146)"/>
<path d="M116.949 32.7352C115.717 32.9146 114.576 32.0594 114.396 30.8261L113.26 22.9296C112.774 19.5699 114.059 16.3007 116.696 14.1694C119.334 12.0381 122.804 11.4701 125.983 12.6535L154.082 23.0793L152.518 27.3049L124.419 16.8791C122.73 16.2537 120.877 16.5618 119.478 17.7206C118.103 18.8579 117.481 20.6678 117.735 22.4314L118.852 30.1975C119.032 31.4308 118.178 32.5717 116.946 32.7511L116.949 32.7352Z" fill="url(#paint3_linear_393_9146)"/>
<path d="M115.943 33.5613C114.711 33.7408 113.57 32.8855 113.391 31.6523L112.254 23.7558C111.768 20.396 113.053 17.1269 115.691 14.9956C118.328 12.8643 121.798 12.2962 124.977 13.4796L153.076 23.9055L151.512 28.1311L123.413 17.7053C121.724 17.0799 119.871 17.388 118.472 18.5468C117.097 19.684 116.475 21.494 116.729 23.2575L117.846 31.0237C118.026 32.2569 117.172 33.3979 115.94 33.5773L115.943 33.5613Z" fill="url(#paint4_linear_393_9146)"/>
<path d="M152.177 22.8494L148.472 23.3596L148.698 28.1913L152.399 27.614L152.282 25.0146L152.177 22.8494Z" fill="url(#paint5_linear_393_9146)"/>
<path d="M154.038 22.7655L150.334 23.2756L150.559 28.1073L154.26 27.5301L154.038 22.7655Z" fill="url(#paint6_linear_393_9146)"/>
<path d="M148.466 23.3603L148.689 28.1895L150.55 28.104L150.326 23.2748L148.466 23.3603Z" fill="url(#paint7_linear_393_9146)"/>
<path d="M150.333 23.2755L154.037 22.7653L152.177 22.8492L148.473 23.3594L150.333 23.2755Z" fill="url(#paint8_linear_393_9146)"/>
<path d="M7.9372 57.0067C6.70494 57.1861 5.56448 56.3308 5.38466 55.0976L4.24788 47.2011C3.77078 43.8465 5.05445 40.5703 7.69175 38.439C10.329 36.3077 13.7994 35.7397 16.9785 36.9231L45.0776 47.3489L43.5136 51.5745L15.4126 41.1417C13.7237 40.5163 11.8707 40.8244 10.4715 41.9832C9.07241 43.142 8.4746 44.9304 8.72874 46.6939L9.84565 54.4601C10.0255 55.6933 9.17135 56.8343 7.93908 57.0137L7.9372 57.0067Z" fill="url(#paint9_linear_393_9146)"/>
<path d="M6.93146 57.8333C5.6992 58.0127 4.55874 57.1575 4.37893 55.9242L3.24215 48.0277C2.76504 44.6731 4.04871 41.397 6.68601 39.2657C9.31628 37.1363 12.7867 36.5682 15.9638 37.7445L44.0629 48.1704L42.4989 52.396L14.4068 41.9683C12.7179 41.3429 10.8649 41.651 9.46579 42.8098C8.09101 43.9471 7.46886 45.757 7.723 47.5206L8.83992 55.2867C9.01973 56.52 8.16561 57.6609 6.93335 57.8403L6.93146 57.8333Z" fill="url(#paint10_linear_393_9146)"/>
<path d="M144.505 19.1243C137.984 14.2383 128.745 15.5681 123.866 22.0917C117.345 17.2058 108.106 18.5355 103.226 25.0592C98.3467 31.5828 99.6794 40.8288 106.2 45.7148L126.301 60.7787L127.356 61.5665C127.867 61.9572 128.462 62.1521 129.057 62.1811L131.347 62.5474L131.331 61.308C131.446 61.2019 131.549 61.0836 131.642 60.9531L147.474 39.7888C152.353 33.2652 151.021 24.0192 144.5 19.1332L144.505 19.1243Z" fill="url(#paint11_linear_393_9146)"/>
<path d="M121.112 48.5247C128.978 46.4168 133.645 38.3257 131.535 30.4526C129.426 22.5794 121.339 17.9057 113.472 20.0135C105.606 22.1214 100.939 30.2125 103.048 38.0856C105.158 45.9588 113.245 50.6325 121.112 48.5247Z" fill="url(#paint12_linear_393_9146)"/>
<path d="M126.135 22.4621L108.465 46.0859L128.566 61.1477L146.237 37.5239L126.135 22.4621Z" fill="url(#paint13_linear_393_9146)"/>
<path d="M121.112 48.5247C128.978 46.4168 133.645 38.3257 131.535 30.4526C129.426 22.5794 121.339 17.9057 113.472 20.0135C105.606 22.1214 100.939 30.2125 103.048 38.0856C105.158 45.9588 113.245 50.6325 121.112 48.5247Z" fill="url(#paint14_linear_393_9146)"/>
<path d="M108.465 46.0918L126.135 22.468L149.749 40.1615L133.918 61.3262C132.903 62.684 130.978 62.9605 129.621 61.9435L108.465 46.0918Z" fill="url(#paint15_linear_393_9146)"/>
<path d="M141.76 45.5618C149.626 43.454 154.293 35.3628 152.184 27.4897C150.074 19.6165 141.987 14.9428 134.12 17.0507C126.254 19.1585 121.587 27.2496 123.697 35.1227C125.806 42.9959 133.894 47.6696 141.76 45.5618Z" fill="url(#paint16_linear_393_9146)"/>
<path d="M111.093 42.5682L134.707 60.2617L149.749 40.1517L126.135 22.4582L111.093 42.5682Z" fill="url(#paint17_linear_393_9146)"/>
<path d="M141.76 45.5618C149.626 43.454 154.293 35.3628 152.184 27.4897C150.074 19.6165 141.987 14.9428 134.12 17.0507C126.254 19.1585 121.587 27.2496 123.697 35.1227C125.806 42.9959 133.894 47.6696 141.76 45.5618Z" fill="url(#paint18_linear_393_9146)"/>
<path d="M129.628 61.9297L108.472 46.0779L126.143 22.4541L149.757 40.1476L133.925 61.3124C132.91 62.6701 130.989 62.9408 129.638 61.9282L129.628 61.9297Z" fill="url(#paint19_linear_393_9146)"/>
<path d="M110.442 43.4404C107.607 41.3206 105.928 38.0619 105.849 34.4499C105.807 32.3808 106.34 30.3233 107.382 28.5364C109.195 25.4352 112.224 23.4174 115.717 22.9338C118.766 22.5087 121.859 23.3986 124.328 25.2472C125.686 26.2701 127.607 25.9892 128.623 24.6389C130.47 22.1693 133.184 20.4394 136.235 19.9913C139.726 19.4706 143.203 20.5589 145.821 23.0232C147.324 24.4446 148.423 26.2683 148.958 28.2656C149.902 31.7591 149.208 35.3521 147.089 38.1812L133.232 56.706C132.217 58.0633 130.295 58.3372 128.938 57.3213L110.421 43.4461L110.442 43.4404Z" fill="#0A0A0A"/>
<mask id="mask0_393_9146" style="mask-type:luminance" maskUnits="userSpaceOnUse" x="105" y="19" width="45" height="41">
<path d="M110.44 43.44C107.991 41.6087 106.407 38.9277 105.972 35.9009C105.538 32.8741 106.304 29.8573 108.14 27.4055C109.968 24.9557 112.647 23.3712 115.671 22.9377C118.696 22.5041 121.711 23.2717 124.161 25.11L126.809 27.0917L128.788 24.4433C130.617 21.9934 133.295 20.4089 136.319 19.9754C139.344 19.5419 142.359 20.3094 144.809 22.1478C147.258 23.9791 148.843 26.6601 149.277 29.6869C149.712 32.7137 148.946 35.7305 147.11 38.1822L131.417 59.1588L110.449 43.4452L110.44 43.44Z" fill="white"/>
</mask>
<g mask="url(#mask0_393_9146)">
<path d="M114.931 49.3813L114.62 49.148C113.773 48.5157 113.602 47.3177 114.236 46.4771L121.883 36.257C122.515 35.4094 123.712 35.2394 124.552 35.8736L128.075 38.51C130.054 39.9924 132.853 39.5891 134.333 37.6095L145.28 22.9778C145.911 22.1302 147.108 21.9602 147.949 22.5943L148.26 22.8276C149.107 23.4599 149.277 24.6579 148.644 25.4985L133.644 45.5505C133.013 46.3981 131.816 46.5681 130.976 45.9339L127.452 43.2975C125.474 41.8151 122.675 42.2184 121.194 44.198L117.607 48.9959C116.975 49.8435 115.778 50.0135 114.938 49.3794L114.931 49.3813Z" fill="white"/>
</g>
<path d="M94.5148 37.2902C94.5148 37.2902 99.895 33.1123 102.578 33.3432L100.298 32.9591C100.298 32.9591 96.0827 31.8424 93.2245 35.2012L94.5148 37.2902Z" fill="url(#paint20_linear_393_9146)"/>
<path d="M96.7941 37.6749C96.7941 37.6749 99.018 34.7876 102.664 36.1398L102.578 33.3438C102.578 33.3438 98.362 32.2271 95.5038 35.586L96.7941 37.6749Z" fill="url(#paint21_linear_393_9146)"/>
<path d="M90.2177 32.1848C83.6968 27.2989 74.4581 28.6286 69.5785 35.1523C63.0575 30.2663 53.8188 31.5961 48.9392 38.1197C44.0596 44.6433 45.3923 53.8894 51.9132 58.7753L72.014 73.8393L73.0686 74.6271C73.58 75.0177 74.1745 75.2127 74.7697 75.2416L77.0595 75.608L77.0437 74.3685C77.1584 74.2624 77.2623 74.1441 77.3553 74.0136L93.1865 52.8494C98.0662 46.3258 96.7335 37.0797 90.2126 32.1938L90.2177 32.1848Z" fill="url(#paint22_linear_393_9146)"/>
<path d="M66.8323 61.5852C74.6987 59.4774 79.3656 51.3862 77.256 43.5131C75.1464 35.64 67.0592 30.9663 59.1927 33.0741C51.3263 35.1819 46.6594 43.2731 48.769 51.1462C50.8786 59.0193 58.9658 63.693 66.8323 61.5852Z" fill="url(#paint23_linear_393_9146)"/>
<path d="M71.8464 35.5148L54.1758 59.1387L74.2774 74.2005L91.948 50.5766L71.8464 35.5148Z" fill="url(#paint24_linear_393_9146)"/>
<path d="M66.8323 61.5852C74.6987 59.4774 79.3656 51.3862 77.256 43.5131C75.1464 35.64 67.0592 30.9663 59.1927 33.0741C51.3263 35.1819 46.6594 43.2731 48.769 51.1462C50.8786 59.0193 58.9658 63.693 66.8323 61.5852Z" fill="url(#paint25_linear_393_9146)"/>
<path d="M54.1816 59.1426L71.8523 35.5187L95.4663 53.2123L79.6351 74.377C78.6195 75.7348 76.6948 76.0112 75.3376 74.9943L54.1816 59.1426Z" fill="url(#paint26_linear_393_9146)"/>
<path d="M87.4709 58.6184C95.3374 56.5106 100.004 48.4194 97.8947 40.5463C95.7851 32.6732 87.6979 27.9995 79.8314 30.1073C71.9649 32.2151 67.2981 40.3063 69.4077 48.1794C71.5173 56.0525 79.6045 60.7262 87.4709 58.6184Z" fill="url(#paint27_linear_393_9146)"/>
<path d="M56.8098 55.6229L80.4238 73.3164L95.4661 53.2064L71.8521 35.5129L56.8098 55.6229Z" fill="url(#paint28_linear_393_9146)"/>
<path d="M87.4709 58.6184C95.3374 56.5106 100.004 48.4194 97.8947 40.5463C95.7851 32.6732 87.6979 27.9995 79.8314 30.1073C71.9649 32.2151 67.2981 40.3063 69.4077 48.1794C71.5173 56.0525 79.6045 60.7262 87.4709 58.6184Z" fill="url(#paint29_linear_393_9146)"/>
<path d="M75.3427 74.9902L54.1868 59.1385L71.8574 35.5146L95.4714 53.2082L79.6402 74.3729C78.6246 75.7307 76.7042 76.0013 75.3529 74.9888L75.3427 74.9902Z" fill="url(#paint30_linear_393_9146)"/>
<path d="M56.1587 56.4931C53.3237 54.3733 51.6447 51.1147 51.5656 47.5027C51.5233 45.4336 52.0565 43.3761 53.0991 41.5892C54.9116 38.4879 57.9409 36.4702 61.4339 35.9865C64.4832 35.5614 67.576 36.4513 70.0446 38.2999C71.4032 39.3228 73.3237 39.0419 74.3402 37.6916C76.1864 35.222 78.9011 33.4921 81.9518 33.044C85.4424 32.5233 88.9198 33.6117 91.5383 36.0759C93.0413 37.4973 94.14 39.321 94.6752 41.3184C95.6188 44.8118 94.9246 48.4049 92.8057 51.234L78.9484 69.7587C77.9338 71.116 76.0114 71.3899 74.6547 70.3741L56.1376 56.4988L56.1587 56.4931Z" fill="#0A0A0A"/>
<mask id="mask1_393_9146" style="mask-type:luminance" maskUnits="userSpaceOnUse" x="51" y="32" width="45" height="41">
<path d="M56.1589 56.4928C53.71 54.6615 52.1255 51.9805 51.6911 48.9536C51.2566 45.9268 52.0223 42.91 53.8583 40.4583C55.6872 38.0084 58.3655 36.4239 61.39 35.9904C64.4144 35.5569 67.4293 36.3244 69.88 38.1628L72.5273 40.1444L74.5064 37.496C76.3353 35.0461 79.0137 33.4616 82.0381 33.0281C85.0626 32.5946 88.0775 33.3622 90.5282 35.2005C92.9771 37.0318 94.5615 39.7128 94.996 42.7396C95.4305 45.7665 94.6648 48.7832 92.8288 51.235L77.1356 72.2115L56.1678 56.4979L56.1589 56.4928Z" fill="white"/>
</mask>
<g mask="url(#mask1_393_9146)">
<path d="M60.644 62.4359L60.3329 62.2027C59.4857 61.5704 59.3153 60.3723 59.9486 59.5318L67.596 49.3117C68.2274 48.4641 69.4246 48.2941 70.2648 48.9283L73.788 51.5647C75.7668 53.0471 78.5658 52.6438 80.0463 50.6642L90.9927 36.0325C91.6242 35.1849 92.8213 35.0149 93.6615 35.649L93.9725 35.8823C94.8198 36.5146 94.9902 37.7126 94.3568 38.5532L79.3573 58.6051C78.7258 59.4528 77.5287 59.6228 76.6885 58.9886L73.1653 56.3522C71.1865 54.8698 68.3875 55.2731 66.907 57.2527L63.3198 62.0506C62.6883 62.8982 61.4912 63.0682 60.651 62.4341L60.644 62.4359Z" fill="white"/>
</g>
<path d="M45.9865 47.0604L42.2752 47.5725L42.5003 52.4042L46.2018 51.8269L46.0833 49.2205L45.9865 47.0604Z" fill="url(#paint31_linear_393_9146)"/>
<path d="M47.8478 46.9765L44.1365 47.4885L44.3617 52.3202L48.0631 51.743L47.8478 46.9765Z" fill="url(#paint32_linear_393_9146)"/>
<path d="M42.2784 47.5751L42.502 52.4043L44.3624 52.3188L44.1389 47.4897L42.2784 47.5751Z" fill="url(#paint33_linear_393_9146)"/>
<path d="M44.1358 47.4884L47.8471 46.9763L45.9867 47.0602L42.2754 47.5723L44.1358 47.4884Z" fill="url(#paint34_linear_393_9146)"/>
<path d="M113.897 85.6235C108.546 86.3942 103.827 85.8722 100.907 85.3202C99.2344 85.0072 98.2118 83.2988 98.7259 81.6761L98.6639 81.8661L98.7324 81.6442C99.1645 80.2771 100.539 79.449 101.95 79.7116C104.59 80.2028 109.116 80.7086 114.116 79.8061C123.633 78.1079 130.784 72.2494 135.418 62.392C136.06 61.0215 137.65 60.3769 139.052 60.9435L139.086 60.9571C140.605 61.5676 141.281 63.3312 140.586 64.8139C133.76 79.3365 122.96 84.0848 114.874 85.4748C114.544 85.5333 114.218 85.5829 113.899 85.6305L113.897 85.6235Z" fill="url(#paint35_radial_393_9146)"/>
<path d="M115.371 64.6486C121.301 63.0596 124.819 56.9603 123.229 51.0254C121.638 45.0904 115.542 41.5673 109.612 43.1562C103.682 44.7451 100.164 50.8444 101.754 56.7794C103.345 62.7143 109.441 66.2375 115.371 64.6486Z" fill="url(#paint36_radial_393_9146)"/>
</g>
<defs>
<linearGradient id="paint0_linear_393_9146" x1="161.51" y1="103.66" x2="143.802" y2="82.3955" gradientUnits="userSpaceOnUse">
<stop stop-color="#4D67FF"/>
<stop offset="0.07" stop-color="#FCE29D"/>
<stop offset="0.12" stop-color="#FFA710"/>
<stop offset="0.2" stop-color="#7A8DFF"/>
<stop offset="0.26" stop-color="#8A9BFF"/>
<stop offset="0.42" stop-color="#FDB8BB"/>
<stop offset="0.72" stop-color="#FBFB81"/>
<stop offset="0.82" stop-color="#FBFB7C"/>
<stop offset="0.9" stop-color="#FBFB79"/>
</linearGradient>
<linearGradient id="paint1_linear_393_9146" x1="129.539" y1="66.0256" x2="176.817" y2="109.945" gradientUnits="userSpaceOnUse">
<stop stop-color="#4D67FF"/>
<stop offset="0.07" stop-color="#FCE29D"/>
<stop offset="0.12" stop-color="#FFA710"/>
<stop offset="0.2" stop-color="#7A8DFF"/>
<stop offset="0.26" stop-color="#8A9BFF"/>
<stop offset="0.42" stop-color="#FDB8BB"/>
<stop offset="0.72" stop-color="#FBFB81"/>
<stop offset="0.82" stop-color="#FBFB7C"/>
<stop offset="0.9" stop-color="#FBFB79"/>
</linearGradient>
<linearGradient id="paint2_linear_393_9146" x1="118.948" y1="66.1107" x2="117.397" y2="85.1836" gradientUnits="userSpaceOnUse">
<stop stop-color="#4D67FF"/>
<stop offset="0.07" stop-color="#FCE29D"/>
<stop offset="0.17" stop-color="#FFA710"/>
<stop offset="0.25" stop-color="#4D67FF"/>
<stop offset="0.32" stop-color="#7A8DFF"/>
<stop offset="0.37" stop-color="#8A9BFF"/>
<stop offset="0.56" stop-color="#FDB8BB"/>
<stop offset="0.6" stop-color="#7080FF"/>
<stop offset="0.72" stop-color="#FBFB81"/>
<stop offset="0.82" stop-color="#FBFB7C"/>
<stop offset="0.9" stop-color="#FBFB79"/>
</linearGradient>
<linearGradient id="paint3_linear_393_9146" x1="141.892" y1="7.34721" x2="125.237" y2="36.3712" gradientUnits="userSpaceOnUse">
<stop stop-color="#BFC8FF"/>
<stop offset="0.51" stop-color="white"/>
<stop offset="0.54" stop-color="#E0E4FF"/>
<stop offset="0.58" stop-color="#C5CDFF"/>
<stop offset="0.63" stop-color="#B2BDFF"/>
<stop offset="0.67" stop-color="#A7B4FF"/>
<stop offset="0.71" stop-color="#A4B1FF"/>
<stop offset="0.75" stop-color="#A2AFFF"/>
<stop offset="1" stop-color="#9FADFF"/>
</linearGradient>
<linearGradient id="paint4_linear_393_9146" x1="123.196" y1="38.4756" x2="137.418" y2="14.5869" gradientUnits="userSpaceOnUse">
<stop stop-color="#B6C1FF"/>
<stop offset="0.08" stop-color="#B8C3FF"/>
<stop offset="0.13" stop-color="#C0C9FF"/>
<stop offset="0.17" stop-color="#CED5FF"/>
<stop offset="0.19" stop-color="#DADFFF"/>
<stop offset="0.33" stop-color="#DCE1FF"/>
<stop offset="0.41" stop-color="#E4E8FF"/>
<stop offset="0.47" stop-color="#F2F4FF"/>
<stop offset="0.51" stop-color="#FBFCFF"/>
<stop offset="0.55" stop-color="#D2D9FF"/>
<stop offset="0.59" stop-color="#AEBAFF"/>
<stop offset="0.63" stop-color="#90A0FF"/>
<stop offset="0.67" stop-color="#778BFF"/>
<stop offset="0.72" stop-color="#647BFF"/>
<stop offset="0.78" stop-color="#576FFF"/>
<stop offset="0.86" stop-color="#4F68FF"/>
<stop offset="1" stop-color="#4D67FF"/>
</linearGradient>
<linearGradient id="paint5_linear_393_9146" x1="148.435" y1="28.9113" x2="158.063" y2="12.7496" gradientUnits="userSpaceOnUse">
<stop stop-color="#BFC8FF"/>
<stop offset="0.51" stop-color="white"/>
<stop offset="0.54" stop-color="#E0E4FF"/>
<stop offset="0.58" stop-color="#C5CDFF"/>
<stop offset="0.63" stop-color="#B2BDFF"/>
<stop offset="0.67" stop-color="#A7B4FF"/>
<stop offset="0.71" stop-color="#A4B1FF"/>
<stop offset="0.75" stop-color="#A2AFFF"/>
<stop offset="1" stop-color="#9FADFF"/>
</linearGradient>
<linearGradient id="paint6_linear_393_9146" x1="150.303" y1="28.8254" x2="159.925" y2="12.664" gradientUnits="userSpaceOnUse">
<stop stop-color="#BFC8FF"/>
<stop offset="0.51" stop-color="white"/>
<stop offset="0.54" stop-color="#E0E4FF"/>
<stop offset="0.58" stop-color="#C5CDFF"/>
<stop offset="0.63" stop-color="#B2BDFF"/>
<stop offset="0.67" stop-color="#A7B4FF"/>
<stop offset="0.71" stop-color="#A4B1FF"/>
<stop offset="0.75" stop-color="#A2AFFF"/>
<stop offset="1" stop-color="#9FADFF"/>
</linearGradient>
<linearGradient id="paint7_linear_393_9146" x1="147.907" y1="28.4295" x2="155.552" y2="15.5858" gradientUnits="userSpaceOnUse">
<stop stop-color="#BFC8FF"/>
<stop offset="0.51" stop-color="white"/>
<stop offset="0.54" stop-color="#E0E4FF"/>
<stop offset="0.58" stop-color="#C5CDFF"/>
<stop offset="0.63" stop-color="#B2BDFF"/>
<stop offset="0.67" stop-color="#A7B4FF"/>
<stop offset="0.71" stop-color="#A4B1FF"/>
<stop offset="0.75" stop-color="#A2AFFF"/>
<stop offset="1" stop-color="#9FADFF"/>
</linearGradient>
<linearGradient id="paint8_linear_393_9146" x1="150.228" y1="24.8638" x2="155.303" y2="16.334" gradientUnits="userSpaceOnUse">
<stop stop-color="#BFC8FF"/>
<stop offset="0.51" stop-color="white"/>
<stop offset="0.54" stop-color="#E0E4FF"/>
<stop offset="0.58" stop-color="#C5CDFF"/>
<stop offset="0.63" stop-color="#B2BDFF"/>
<stop offset="0.67" stop-color="#A7B4FF"/>
<stop offset="0.71" stop-color="#A4B1FF"/>
<stop offset="0.75" stop-color="#A2AFFF"/>
<stop offset="1" stop-color="#9FADFF"/>
</linearGradient>
<linearGradient id="paint9_linear_393_9146" x1="32.8822" y1="31.6182" x2="16.2276" y2="60.6422" gradientUnits="userSpaceOnUse">
<stop stop-color="#BFC8FF"/>
<stop offset="0.51" stop-color="white"/>
<stop offset="0.54" stop-color="#E0E4FF"/>
<stop offset="0.58" stop-color="#C5CDFF"/>
<stop offset="0.63" stop-color="#B2BDFF"/>
<stop offset="0.67" stop-color="#A7B4FF"/>
<stop offset="0.71" stop-color="#A4B1FF"/>
<stop offset="0.75" stop-color="#A2AFFF"/>
<stop offset="1" stop-color="#9FADFF"/>
</linearGradient>
<linearGradient id="paint10_linear_393_9146" x1="55.0757" y1="42.4462" x2="-3.6663" y2="48.9788" gradientUnits="userSpaceOnUse">
<stop stop-color="#B6C1FF"/>
<stop offset="0.08" stop-color="#B8C3FF"/>
<stop offset="0.13" stop-color="#C0C9FF"/>
<stop offset="0.17" stop-color="#CED5FF"/>
<stop offset="0.19" stop-color="#DADFFF"/>
<stop offset="0.33" stop-color="#DCE1FF"/>
<stop offset="0.41" stop-color="#E4E8FF"/>
<stop offset="0.47" stop-color="#F2F4FF"/>
<stop offset="0.51" stop-color="#FBFCFF"/>
<stop offset="0.55" stop-color="#D2D9FF"/>
<stop offset="0.59" stop-color="#AEBAFF"/>
<stop offset="0.63" stop-color="#90A0FF"/>
<stop offset="0.67" stop-color="#778BFF"/>
<stop offset="0.72" stop-color="#647BFF"/>
<stop offset="0.78" stop-color="#576FFF"/>
<stop offset="0.86" stop-color="#4F68FF"/>
<stop offset="1" stop-color="#4D67FF"/>
</linearGradient>
<linearGradient id="paint11_linear_393_9146" x1="104.763" y1="51.7596" x2="172.832" y2="5.86817" gradientUnits="userSpaceOnUse">
<stop stop-color="#BFC8FF"/>
<stop offset="0.51" stop-color="white"/>
<stop offset="0.54" stop-color="#E0E4FF"/>
<stop offset="0.58" stop-color="#C5CDFF"/>
<stop offset="0.63" stop-color="#B2BDFF"/>
<stop offset="0.67" stop-color="#A7B4FF"/>
<stop offset="0.71" stop-color="#A4B1FF"/>
<stop offset="0.75" stop-color="#A2AFFF"/>
<stop offset="1" stop-color="#9FADFF"/>
</linearGradient>
<linearGradient id="paint12_linear_393_9146" x1="104.463" y1="24.3426" x2="122.826" y2="38.3145" gradientUnits="userSpaceOnUse">
<stop stop-color="#BFC8FF"/>
<stop offset="0.51" stop-color="white"/>
<stop offset="0.54" stop-color="#E0E4FF"/>
<stop offset="0.58" stop-color="#C5CDFF"/>
<stop offset="0.63" stop-color="#B2BDFF"/>
<stop offset="0.67" stop-color="#A7B4FF"/>
<stop offset="0.71" stop-color="#A4B1FF"/>
<stop offset="0.75" stop-color="#A2AFFF"/>
<stop offset="1" stop-color="#9FADFF"/>
</linearGradient>
<linearGradient id="paint13_linear_393_9146" x1="116.141" y1="33.2599" x2="131.917" y2="45.2698" gradientUnits="userSpaceOnUse">
<stop stop-color="#BFC8FF"/>
<stop offset="0.51" stop-color="white"/>
<stop offset="0.54" stop-color="#E0E4FF"/>
<stop offset="0.58" stop-color="#C5CDFF"/>
<stop offset="0.63" stop-color="#B2BDFF"/>
<stop offset="0.67" stop-color="#A7B4FF"/>
<stop offset="0.71" stop-color="#A4B1FF"/>
<stop offset="0.75" stop-color="#A2AFFF"/>
<stop offset="1" stop-color="#9FADFF"/>
</linearGradient>
<linearGradient id="paint14_linear_393_9146" x1="104.463" y1="24.3426" x2="122.826" y2="38.3145" gradientUnits="userSpaceOnUse">
<stop stop-color="#BFC8FF"/>
<stop offset="0.51" stop-color="white"/>
<stop offset="0.54" stop-color="#E0E4FF"/>
<stop offset="0.58" stop-color="#C5CDFF"/>
<stop offset="0.63" stop-color="#B2BDFF"/>
<stop offset="0.67" stop-color="#A7B4FF"/>
<stop offset="0.71" stop-color="#A4B1FF"/>
<stop offset="0.75" stop-color="#A2AFFF"/>
<stop offset="1" stop-color="#9FADFF"/>
</linearGradient>
<linearGradient id="paint15_linear_393_9146" x1="115.946" y1="33.1013" x2="134.443" y2="47.1734" gradientUnits="userSpaceOnUse">
<stop stop-color="#BFC8FF"/>
<stop offset="0.51" stop-color="white"/>
<stop offset="0.54" stop-color="#E0E4FF"/>
<stop offset="0.58" stop-color="#C5CDFF"/>
<stop offset="0.63" stop-color="#B2BDFF"/>
<stop offset="0.67" stop-color="#A7B4FF"/>
<stop offset="0.71" stop-color="#A4B1FF"/>
<stop offset="0.75" stop-color="#A2AFFF"/>
<stop offset="1" stop-color="#9FADFF"/>
</linearGradient>
<linearGradient id="paint16_linear_393_9146" x1="147.793" y1="17.5408" x2="134.101" y2="36.117" gradientUnits="userSpaceOnUse">
<stop stop-color="#BFC8FF"/>
<stop offset="0.51" stop-color="white"/>
<stop offset="0.54" stop-color="#E0E4FF"/>
<stop offset="0.58" stop-color="#C5CDFF"/>
<stop offset="0.63" stop-color="#B2BDFF"/>
<stop offset="0.67" stop-color="#A7B4FF"/>
<stop offset="0.71" stop-color="#A4B1FF"/>
<stop offset="0.75" stop-color="#A2AFFF"/>
<stop offset="1" stop-color="#9FADFF"/>
</linearGradient>
<linearGradient id="paint17_linear_393_9146" x1="138.769" y1="30.0056" x2="127.01" y2="45.9654" gradientUnits="userSpaceOnUse">
<stop stop-color="#BFC8FF"/>
<stop offset="0.51" stop-color="white"/>
<stop offset="0.54" stop-color="#E0E4FF"/>
<stop offset="0.58" stop-color="#C5CDFF"/>
<stop offset="0.63" stop-color="#B2BDFF"/>
<stop offset="0.67" stop-color="#A7B4FF"/>
<stop offset="0.71" stop-color="#A4B1FF"/>
<stop offset="0.75" stop-color="#A2AFFF"/>
<stop offset="1" stop-color="#9FADFF"/>
</linearGradient>
<linearGradient id="paint18_linear_393_9146" x1="147.793" y1="17.5408" x2="134.101" y2="36.117" gradientUnits="userSpaceOnUse">
<stop stop-color="#BFC8FF"/>
<stop offset="0.51" stop-color="white"/>
<stop offset="0.54" stop-color="#E0E4FF"/>
<stop offset="0.58" stop-color="#C5CDFF"/>
<stop offset="0.63" stop-color="#B2BDFF"/>
<stop offset="0.67" stop-color="#A7B4FF"/>
<stop offset="0.71" stop-color="#A4B1FF"/>
<stop offset="0.75" stop-color="#A2AFFF"/>
<stop offset="1" stop-color="#9FADFF"/>
</linearGradient>
<linearGradient id="paint19_linear_393_9146" x1="138.913" y1="29.7946" x2="125.131" y2="48.5033" gradientUnits="userSpaceOnUse">
<stop stop-color="#BFC8FF"/>
<stop offset="0.51" stop-color="white"/>
<stop offset="0.54" stop-color="#E0E4FF"/>
<stop offset="0.58" stop-color="#C5CDFF"/>
<stop offset="0.63" stop-color="#B2BDFF"/>
<stop offset="0.67" stop-color="#A7B4FF"/>
<stop offset="0.71" stop-color="#A4B1FF"/>
<stop offset="0.75" stop-color="#A2AFFF"/>
<stop offset="1" stop-color="#9FADFF"/>
</linearGradient>
<linearGradient id="paint20_linear_393_9146" x1="95.7589" y1="38.8196" x2="104.583" y2="20.0995" gradientUnits="userSpaceOnUse">
<stop stop-color="#BFC8FF"/>
<stop offset="0.51" stop-color="white"/>
<stop offset="0.54" stop-color="#E0E4FF"/>
<stop offset="0.58" stop-color="#C5CDFF"/>
<stop offset="0.63" stop-color="#B2BDFF"/>
<stop offset="0.67" stop-color="#A7B4FF"/>
<stop offset="0.71" stop-color="#A4B1FF"/>
<stop offset="0.75" stop-color="#A2AFFF"/>
<stop offset="1" stop-color="#9FADFF"/>
</linearGradient>
<linearGradient id="paint21_linear_393_9146" x1="98.0067" y1="37.8941" x2="109.972" y2="15.3939" gradientUnits="userSpaceOnUse">
<stop stop-color="#BFC8FF"/>
<stop offset="0.51" stop-color="white"/>
<stop offset="0.54" stop-color="#E0E4FF"/>
<stop offset="0.58" stop-color="#C5CDFF"/>
<stop offset="0.63" stop-color="#B2BDFF"/>
<stop offset="0.67" stop-color="#A7B4FF"/>
<stop offset="0.71" stop-color="#A4B1FF"/>
<stop offset="0.75" stop-color="#A2AFFF"/>
<stop offset="1" stop-color="#9FADFF"/>
</linearGradient>
<linearGradient id="paint22_linear_393_9146" x1="50.4761" y1="64.816" x2="118.551" y2="18.9163" gradientUnits="userSpaceOnUse">
<stop stop-color="#BFC8FF"/>
<stop offset="0.51" stop-color="white"/>
<stop offset="0.54" stop-color="#E0E4FF"/>
<stop offset="0.58" stop-color="#C5CDFF"/>
<stop offset="0.63" stop-color="#B2BDFF"/>
<stop offset="0.67" stop-color="#A7B4FF"/>
<stop offset="0.71" stop-color="#A4B1FF"/>
<stop offset="0.75" stop-color="#A2AFFF"/>
<stop offset="1" stop-color="#9FADFF"/>
</linearGradient>
<linearGradient id="paint23_linear_393_9146" x1="50.1829" y1="37.3939" x2="68.5458" y2="51.3657" gradientUnits="userSpaceOnUse">
<stop stop-color="#BFC8FF"/>
<stop offset="0.51" stop-color="white"/>
<stop offset="0.54" stop-color="#E0E4FF"/>
<stop offset="0.58" stop-color="#C5CDFF"/>
<stop offset="0.63" stop-color="#B2BDFF"/>
<stop offset="0.67" stop-color="#A7B4FF"/>
<stop offset="0.71" stop-color="#A4B1FF"/>
<stop offset="0.75" stop-color="#A2AFFF"/>
<stop offset="1" stop-color="#9FADFF"/>
</linearGradient>
<linearGradient id="paint24_linear_393_9146" x1="61.8416" y1="46.3141" x2="77.6283" y2="58.3225" gradientUnits="userSpaceOnUse">
<stop stop-color="#BFC8FF"/>
<stop offset="0.51" stop-color="white"/>
<stop offset="0.54" stop-color="#E0E4FF"/>
<stop offset="0.58" stop-color="#C5CDFF"/>
<stop offset="0.63" stop-color="#B2BDFF"/>
<stop offset="0.67" stop-color="#A7B4FF"/>
<stop offset="0.71" stop-color="#A4B1FF"/>
<stop offset="0.75" stop-color="#A2AFFF"/>
<stop offset="1" stop-color="#9FADFF"/>
</linearGradient>
<linearGradient id="paint25_linear_393_9146" x1="50.1829" y1="37.3939" x2="68.5458" y2="51.3657" gradientUnits="userSpaceOnUse">
<stop stop-color="#BFC8FF"/>
<stop offset="0.51" stop-color="white"/>
<stop offset="0.54" stop-color="#E0E4FF"/>
<stop offset="0.58" stop-color="#C5CDFF"/>
<stop offset="0.63" stop-color="#B2BDFF"/>
<stop offset="0.67" stop-color="#A7B4FF"/>
<stop offset="0.71" stop-color="#A4B1FF"/>
<stop offset="0.75" stop-color="#A2AFFF"/>
<stop offset="1" stop-color="#9FADFF"/>
</linearGradient>
<linearGradient id="paint26_linear_393_9146" x1="61.6727" y1="46.1506" x2="80.1697" y2="60.2228" gradientUnits="userSpaceOnUse">
<stop stop-color="#BFC8FF"/>
<stop offset="0.51" stop-color="white"/>
<stop offset="0.54" stop-color="#E0E4FF"/>
<stop offset="0.58" stop-color="#C5CDFF"/>
<stop offset="0.63" stop-color="#B2BDFF"/>
<stop offset="0.67" stop-color="#A7B4FF"/>
<stop offset="0.71" stop-color="#A4B1FF"/>
<stop offset="0.75" stop-color="#A2AFFF"/>
<stop offset="1" stop-color="#9FADFF"/>
</linearGradient>
<linearGradient id="paint27_linear_393_9146" x1="93.5075" y1="30.5992" x2="79.8204" y2="49.1695" gradientUnits="userSpaceOnUse">
<stop stop-color="#BFC8FF"/>
<stop offset="0.51" stop-color="white"/>
<stop offset="0.54" stop-color="#E0E4FF"/>
<stop offset="0.58" stop-color="#C5CDFF"/>
<stop offset="0.63" stop-color="#B2BDFF"/>
<stop offset="0.67" stop-color="#A7B4FF"/>
<stop offset="0.71" stop-color="#A4B1FF"/>
<stop offset="0.75" stop-color="#A2AFFF"/>
<stop offset="1" stop-color="#9FADFF"/>
</linearGradient>
<linearGradient id="paint28_linear_393_9146" x1="84.4899" y1="43.0544" x2="72.7272" y2="59.0201" gradientUnits="userSpaceOnUse">
<stop stop-color="#BFC8FF"/>
<stop offset="0.51" stop-color="white"/>
<stop offset="0.54" stop-color="#E0E4FF"/>
<stop offset="0.58" stop-color="#C5CDFF"/>
<stop offset="0.63" stop-color="#B2BDFF"/>
<stop offset="0.67" stop-color="#A7B4FF"/>
<stop offset="0.71" stop-color="#A4B1FF"/>
<stop offset="0.75" stop-color="#A2AFFF"/>
<stop offset="1" stop-color="#9FADFF"/>
</linearGradient>
<linearGradient id="paint29_linear_393_9146" x1="93.5075" y1="30.5992" x2="79.8204" y2="49.1695" gradientUnits="userSpaceOnUse">
<stop stop-color="#BFC8FF"/>
<stop offset="0.51" stop-color="white"/>
<stop offset="0.54" stop-color="#E0E4FF"/>
<stop offset="0.58" stop-color="#C5CDFF"/>
<stop offset="0.63" stop-color="#B2BDFF"/>
<stop offset="0.67" stop-color="#A7B4FF"/>
<stop offset="0.71" stop-color="#A4B1FF"/>
<stop offset="0.75" stop-color="#A2AFFF"/>
<stop offset="1" stop-color="#9FADFF"/>
</linearGradient>
<linearGradient id="paint30_linear_393_9146" x1="84.6158" y1="42.8464" x2="70.8341" y2="61.5551" gradientUnits="userSpaceOnUse">
<stop stop-color="#BFC8FF"/>
<stop offset="0.51" stop-color="white"/>
<stop offset="0.54" stop-color="#E0E4FF"/>
<stop offset="0.58" stop-color="#C5CDFF"/>
<stop offset="0.63" stop-color="#B2BDFF"/>
<stop offset="0.67" stop-color="#A7B4FF"/>
<stop offset="0.71" stop-color="#A4B1FF"/>
<stop offset="0.75" stop-color="#A2AFFF"/>
<stop offset="1" stop-color="#9FADFF"/>
</linearGradient>
<linearGradient id="paint31_linear_393_9146" x1="42.243" y1="53.1333" x2="51.8641" y2="36.9646" gradientUnits="userSpaceOnUse">
<stop stop-color="#BFC8FF"/>
<stop offset="0.51" stop-color="white"/>
<stop offset="0.54" stop-color="#E0E4FF"/>
<stop offset="0.58" stop-color="#C5CDFF"/>
<stop offset="0.63" stop-color="#B2BDFF"/>
<stop offset="0.67" stop-color="#A7B4FF"/>
<stop offset="0.71" stop-color="#A4B1FF"/>
<stop offset="0.75" stop-color="#A2AFFF"/>
<stop offset="1" stop-color="#9FADFF"/>
</linearGradient>
<linearGradient id="paint32_linear_393_9146" x1="44.1044" y1="53.0477" x2="53.7255" y2="36.8791" gradientUnits="userSpaceOnUse">
<stop stop-color="#BFC8FF"/>
<stop offset="0.51" stop-color="white"/>
<stop offset="0.54" stop-color="#E0E4FF"/>
<stop offset="0.58" stop-color="#C5CDFF"/>
<stop offset="0.63" stop-color="#B2BDFF"/>
<stop offset="0.67" stop-color="#A7B4FF"/>
<stop offset="0.71" stop-color="#A4B1FF"/>
<stop offset="0.75" stop-color="#A2AFFF"/>
<stop offset="1" stop-color="#9FADFF"/>
</linearGradient>
<linearGradient id="paint33_linear_393_9146" x1="41.7192" y1="52.6443" x2="49.3649" y2="39.8006" gradientUnits="userSpaceOnUse">
<stop stop-color="#BFC8FF"/>
<stop offset="0.51" stop-color="white"/>
<stop offset="0.54" stop-color="#E0E4FF"/>
<stop offset="0.58" stop-color="#C5CDFF"/>
<stop offset="0.63" stop-color="#B2BDFF"/>
<stop offset="0.67" stop-color="#A7B4FF"/>
<stop offset="0.71" stop-color="#A4B1FF"/>
<stop offset="0.75" stop-color="#A2AFFF"/>
<stop offset="1" stop-color="#9FADFF"/>
</linearGradient>
<linearGradient id="paint34_linear_393_9146" x1="44.0292" y1="49.0789" x2="49.1108" y2="40.5487" gradientUnits="userSpaceOnUse">
<stop stop-color="#BFC8FF"/>
<stop offset="0.51" stop-color="white"/>
<stop offset="0.54" stop-color="#E0E4FF"/>
<stop offset="0.58" stop-color="#C5CDFF"/>
<stop offset="0.63" stop-color="#B2BDFF"/>
<stop offset="0.67" stop-color="#A7B4FF"/>
<stop offset="0.71" stop-color="#A4B1FF"/>
<stop offset="0.75" stop-color="#A2AFFF"/>
<stop offset="1" stop-color="#9FADFF"/>
</linearGradient>
<radialGradient id="paint35_radial_393_9146" cx="0" cy="0" r="1" gradientTransform="matrix(17.405 -0.808589 0.815352 17.4181 119.721 73.5719)" gradientUnits="userSpaceOnUse">
<stop stop-color="#BFC8FF"/>
<stop offset="0.51" stop-color="white"/>
<stop offset="0.54" stop-color="#E0E4FF"/>
<stop offset="0.58" stop-color="#C5CDFF"/>
<stop offset="0.63" stop-color="#B2BDFF"/>
<stop offset="0.67" stop-color="#A7B4FF"/>
<stop offset="0.71" stop-color="#A4B1FF"/>
<stop offset="0.75" stop-color="#A2AFFF"/>
<stop offset="1" stop-color="#9FADFF"/>
</radialGradient>
<radialGradient id="paint36_radial_393_9146" cx="0" cy="0" r="1" gradientTransform="matrix(54.1267 11.9796 -11.948 54.1612 135.734 45.7442)" gradientUnits="userSpaceOnUse">
<stop stop-color="#4D67FF"/>
<stop offset="0.07" stop-color="#FCE29D"/>
<stop offset="0.12" stop-color="#FFA710"/>
<stop offset="0.2" stop-color="#7A8DFF"/>
<stop offset="0.26" stop-color="#8A9BFF"/>
<stop offset="0.42" stop-color="#FDB8BB"/>
<stop offset="0.72" stop-color="#FBFB81"/>
<stop offset="0.82" stop-color="#FBFB7C"/>
<stop offset="0.9" stop-color="#FBFB79"/>
</radialGradient>
<clipPath id="clip0_393_9146">
<rect width="153.156" height="86.9925" fill="white" transform="translate(0 39.6406) rotate(-15)"/>
</clipPath>
</defs>
</svg>
