
<svg width="209" height="171" viewBox="0 0 209 171" fill="none" xmlns="http://www.w3.org/2000/svg">
<g filter="url(#filter0_d_2245_62322)">
<path d="M36.0576 71.5795L69.9806 26.1493C71.2399 24.4616 73.6995 24.2648 75.2097 25.736L97.4348 47.3907L54.9474 71.8206L36.0576 71.5745V71.5795Z" fill="black"/>
<path d="M171.642 3.87451L58.5784 42.9967L70.1139 110.303L118.888 92.7322L119.355 95.6549C119.552 96.8948 120.728 97.7313 121.963 97.5197L199.357 88.6236L200.69 32.2407L174.308 39.759L171.642 3.87451Z" fill="black"/>
<path d="M80.8276 44.6942L85.7272 43.3755L90.3709 60.6117L95.7624 59.1602L96.9627 63.623L86.6717 66.3932L80.8276 44.6892V44.6942Z" fill="#5AE500"/>
<path d="M98.055 34.5972L100.47 33.9478C101.125 34.5677 101.867 35.0056 102.704 35.2615C103.535 35.5124 104.489 35.4928 105.567 35.2074L105.901 36.4473C104.868 36.7278 103.806 36.8557 102.714 36.841C101.621 36.8262 100.677 36.526 99.8801 35.9405L99.5701 36.0242C99.1717 36.9295 98.5027 37.6627 97.568 38.2236C96.6334 38.7845 95.6495 39.2077 94.6165 39.4832L94.282 38.2433C95.379 37.948 96.2202 37.4757 96.8105 36.8311C97.4008 36.1865 97.814 35.4386 98.055 34.6022V34.5972ZM98.0452 63.3324L97.8386 62.555L96.5104 40.4673L104.765 38.2777L114.702 58.0135L114.908 58.7909L109.792 60.1686L107.692 55.4499L102.61 56.8178L103.161 61.9547L98.0452 63.3324ZM102.108 52.3599L105.891 51.3414L102.541 43.8329L101.238 44.1822L102.108 52.3599ZM109.359 28.1958H109.591L110.058 29.9376C109.669 30.3952 109.172 30.8282 108.562 31.2366C107.953 31.645 107.303 32.014 106.614 32.3437C105.926 32.6734 105.262 32.9538 104.612 33.1802C103.963 33.4114 103.422 33.5836 102.989 33.7017L102.654 32.4618C103.274 32.2945 104.002 32.014 104.839 31.6253C105.675 31.2317 106.501 30.7446 107.318 30.159C108.135 29.5735 108.813 28.9191 109.35 28.2007L109.359 28.1958Z" fill="#5AE500"/>
<path d="M108.105 37.3481L113.251 35.9605L118.465 45.6931L119.892 45.3093L119.513 34.2728L124.658 32.8853L124.865 33.6627L124.806 49.0094L122.883 49.5261L124.668 56.1588L119.769 57.4775L117.988 50.8743L116.065 51.3909L108.302 38.1206L108.095 37.3431L108.105 37.3481Z" fill="#5AE500"/>
<path d="M131.688 30.9908L136.804 29.613L144.01 45.7618L145.314 45.4125L143.435 27.8269L148.551 26.4492L148.757 27.2266L150.076 49.2848L141.841 51.5384L131.894 31.7731L131.688 30.9957V30.9908Z" fill="#5AE500"/>
<path d="M161.321 23.0049L162.521 27.4677L156.195 29.1701L157.43 33.7609C157.991 33.3673 158.581 33.013 159.206 32.6981C159.831 32.3832 160.455 32.1224 161.09 31.9108C161.72 31.6992 162.32 31.5467 162.895 31.4581L164.056 35.7684L163.796 36.039C163.323 36.0095 162.797 36.0636 162.226 36.1965C161.651 36.3293 161.046 36.5262 160.406 36.7869C159.767 37.0477 159.137 37.3823 158.517 37.7956L159.639 41.9484L165.96 40.246L167.16 44.7088L155.94 47.7299L150.095 26.026L161.316 23.0049H161.321ZM158.955 18.2911L159.25 18.2764L159.717 20.0133C159.206 20.5053 158.566 20.9777 157.789 21.4303C157.012 21.883 156.19 22.3013 155.315 22.6801C154.439 23.059 153.603 23.3838 152.801 23.6544C151.999 23.925 151.32 24.1366 150.76 24.2891L150.425 23.0492C151.188 22.8425 152.102 22.5128 153.165 22.0602C154.228 21.6075 155.285 21.0564 156.328 20.4118C157.371 19.7673 158.247 19.0587 158.95 18.2911H158.955Z" fill="#5AE500"/>
<path d="M98.4333 69.5962L103.205 68.312L109.049 90.0159L103.967 91.3838L96.1016 80.5687L95.7917 80.6524L99.2548 92.6533L94.4832 93.9375L88.6392 72.2336L93.7207 70.8657L101.655 81.9317L101.965 81.848L98.4333 69.5962Z" fill="#5AE500"/>
<path d="M108.178 78.6106C107.48 76.0274 107.372 73.7837 107.844 71.8844C108.316 69.9852 109.221 68.4352 110.549 67.2297C111.878 66.0291 113.471 65.1779 115.331 64.676C116.344 64.4054 117.279 64.2578 118.14 64.2332C119.001 64.2135 119.748 64.2627 120.393 64.3906C121.037 64.5137 121.519 64.681 121.839 64.8827L123.182 69.8769L122.562 70.0442C122.233 69.7342 121.79 69.4636 121.229 69.2372C120.668 69.0109 120.044 68.8682 119.355 68.8141C118.661 68.755 117.933 68.8289 117.171 69.0355C115.97 69.3603 115.011 69.8769 114.283 70.5953C113.555 71.3137 113.103 72.2289 112.925 73.3409C112.748 74.4529 112.862 75.7519 113.26 77.2428C113.649 78.6894 114.185 79.8653 114.859 80.7707C115.533 81.676 116.334 82.2862 117.264 82.6011C118.194 82.916 119.202 82.9258 120.299 82.6306C120.609 82.5469 120.88 82.4436 121.111 82.3108C121.342 82.1828 121.509 82.0254 121.618 81.8433L120.447 77.5035L115.985 78.7041L114.834 74.4234L123.762 72.0173L126.694 82.9012C126.045 84.028 125.199 84.9481 124.161 85.6616C123.123 86.375 121.933 86.9114 120.59 87.2705C119.37 87.6002 118.14 87.6937 116.89 87.551C115.646 87.4083 114.46 87.0048 113.339 86.3307C112.217 85.6566 111.209 84.6873 110.313 83.4228C109.418 82.1582 108.71 80.5542 108.188 78.6106H108.178Z" fill="#5AE500"/>
<path d="M128.672 84.7266L128.465 83.9492L127.137 61.8615L135.391 59.6719L145.328 79.4076L145.535 80.1851L140.419 81.5628L138.318 76.8392L133.237 78.2071L133.788 83.344L128.672 84.7217V84.7266ZM132.735 73.759L136.518 72.7405L133.168 65.2319L131.864 65.5813L132.735 73.759Z" fill="#5AE500"/>
<path d="M138.727 58.7421L143.872 57.3546L149.086 67.0871L150.513 66.7033L150.134 55.6669L155.28 54.2793L155.486 55.0567L155.432 70.4035L153.509 70.9201L155.295 77.5528L150.395 78.8715L148.614 72.2683L146.691 72.7849L138.928 59.5146L138.722 58.7372L138.727 58.7421Z" fill="#5AE500"/>
<path d="M155.251 54.289L160.396 52.9014L165.61 62.634L167.037 62.2502L166.658 51.2137L171.804 49.8262L172.01 50.6036L171.956 65.9503L170.033 66.467L171.818 73.0997L166.919 74.4184L165.138 67.8152L163.215 68.3318L155.452 55.0615L155.246 54.2841L155.251 54.289Z" fill="#5AE500"/>
<path d="M46.1473 77.8874C46.1473 77.8874 48.0461 61.9305 58.3912 57.1577C66.8818 53.2411 69.8776 46.9282 70.6745 44.7927C70.8418 44.3499 71.2698 44.0596 71.742 44.0596H71.9634C73.2424 44.0596 78.1173 50.6824 75.4216 59.18C73.3211 65.793 74.3394 69.5916 77.345 70.6593C77.7976 70.8217 78.1124 71.235 78.1124 71.7221V72.5635C78.1124 72.9079 77.955 73.2376 77.6894 73.4541C75.7266 75.0286 68.0428 82.0599 77.527 88.9632C77.8812 89.224 78.0632 89.6619 77.9845 90.0949L77.8566 90.7838C77.8025 91.0839 77.6303 91.3447 77.3794 91.5169C75.884 92.5453 69.8924 97.2541 75.2396 103.41C75.5692 103.788 75.6921 104.3 75.5839 104.787C75.5151 105.092 75.3626 105.368 75.1363 105.589C74.4181 106.298 72.7701 108.699 72.6668 115.878L46.1375 77.8923L46.1473 77.8874Z" fill="#5A4536"/>
<path d="M77.537 88.9535C77.8911 89.2143 78.0682 89.6522 77.9944 90.0852L77.8665 90.774C77.8124 91.0742 77.6403 91.335 77.3894 91.5072C75.889 92.5355 69.9023 97.2444 75.2495 103.4C75.5791 103.779 75.7021 104.29 75.5939 104.778C75.525 105.083 75.3725 105.358 75.1462 105.58C74.428 106.288 72.7801 108.689 72.6768 115.868L72.5292 115.657C71.8257 107.38 74.3493 104.507 74.3493 104.507C68.0822 96.1028 75.4512 89.5981 75.4512 89.5981C66.3162 78.7732 75.7414 72.6768 75.7414 72.6768C72.6964 70.2166 71.7913 66.9101 72.5685 58.8111C73.1884 52.321 70.3647 48.8768 69.2136 47.7598C69.9761 46.5002 70.4287 45.4423 70.6796 44.783C70.8468 44.3401 71.2699 44.0449 71.747 44.0449H71.9684C73.2474 44.0449 78.1273 50.6678 75.4266 59.1653C73.3261 65.7784 74.3444 69.572 77.35 70.6446C77.8026 70.807 78.1174 71.2253 78.1174 71.7075V72.5488C78.1174 72.8933 77.96 73.2229 77.6944 73.4394C75.7316 75.014 68.0478 82.0403 77.532 88.9486L77.537 88.9535Z" fill="#5A4536"/>
<path d="M69.5189 66.7526C67.7677 70.6741 64.0487 74.8024 63.1633 73.6018C62.2827 72.4012 63.7585 65.8423 65.5097 61.9207C67.261 57.9992 68.3924 58.0681 69.4992 59.4015C70.6061 60.7349 71.2652 62.831 69.514 66.7526H69.5189Z" fill="#E1CDAD"/>
<path d="M68.9381 78.4434C67.7428 79.6981 65.5685 80.5789 65.0815 79.3241C64.5945 78.0694 65.9817 75.1615 67.177 73.9068C68.3724 72.6521 69.4153 73.2573 69.8285 74.3201C70.2417 75.3829 70.1335 77.1887 68.9381 78.4434Z" fill="#E1CDAD"/>
<path d="M67.5705 93.0718C66.0407 92.0779 64.1123 89.0764 64.5747 87.1722C65.0322 85.268 67.7034 85.1844 69.2332 86.1783C70.7631 87.1722 71.0583 89.4848 70.6696 91.0987C70.281 92.7126 69.1053 94.0657 67.5755 93.0718H67.5705Z" fill="#E1CDAD"/>
<path d="M84.6107 149.971C81.3886 157.357 76.071 163.355 74.5411 163.626C73.0112 163.891 72.1405 162.386 72.0618 161.387C72.0421 161.096 72.052 160.762 72.1061 160.378C72.1799 159.871 72.0224 159.276 71.5502 159.074C66.8573 157.067 63.8664 154.444 62.1299 151.634L71.442 135.313C77.5467 138.782 82.9038 145.499 84.5665 148.166C84.9354 148.756 85.1223 148.805 84.6058 149.976L84.6107 149.971Z" fill="#FF9BC9"/>
<path d="M72.1013 160.112C72.1013 160.112 72.8294 157.037 78.5652 151.664" stroke="#5A4536" stroke-width="0.443939" stroke-miterlimit="10"/>
<path d="M33.987 165.712C25.9687 164.905 18.6341 161.682 17.906 160.31C17.1829 158.937 18.3488 157.643 19.2785 157.264C19.5491 157.156 19.8688 157.062 20.2525 156.998C20.7543 156.91 21.379 156.58 21.3249 156.068C20.7198 150.321 23.2926 140.087 25.4325 137.567L42.3448 150.71C40.6329 155.069 36.968 162.775 35.6989 165.117C35.3693 165.727 35.2611 165.845 33.987 165.707V165.712Z" fill="#FF9BC9"/>
<path d="M20.5034 156.91C20.5034 156.91 23.6517 156.659 30.5239 160.477" stroke="#5A4536" stroke-width="0.443939" stroke-miterlimit="10"/>
<path d="M15.9925 105.422C15.7859 104.719 15.3874 104.084 14.8217 103.622C12.1555 101.437 8.22992 101.373 5.48008 103.656C2.66136 105.998 2.03662 110.003 3.85673 113.059C4.1814 113.6 4.65365 114.033 5.2046 114.343C9.4253 116.725 18.7866 125.685 21.7332 123.239C24.6454 120.818 17.2518 109.728 15.9875 105.422H15.9925Z" fill="#FF9BC9"/>
<path d="M105.355 133.818C105.355 133.818 102.89 138.876 96.7954 137.262C96.2444 137.114 95.6689 136.918 95.054 136.652C95.7574 134.295 95.8066 132.514 95.5361 131.171C94.931 128.179 92.7419 127.411 92.7419 127.411C92.7419 127.411 92.9289 119.185 98.3351 115.868C98.3351 115.868 109.772 118.609 105.35 133.813L105.355 133.818Z" fill="#5A4536"/>
<path d="M88.1328 129.345C87.3162 129.507 86.475 129.596 85.6141 129.596C72.5142 129.596 72.6815 118.431 72.6815 118.195C72.6815 118.195 73.1341 118.52 73.6653 118.643C73.7785 118.668 73.8916 118.682 74.0048 118.687C74.2999 118.697 74.5656 118.879 74.6935 119.15C75.5888 121.015 79.2437 125.738 87.2178 124.425C87.6212 124.356 88.0147 124.607 88.118 125C88.1623 125.182 88.2115 125.399 88.2508 125.635C88.3541 126.275 88.305 128.44 88.1377 129.35L88.1328 129.345Z" fill="#5A4536"/>
<path d="M88.2459 125.635C77.3449 127.288 74.2753 120.818 73.6653 118.638C73.7784 118.663 73.8916 118.678 74.0047 118.682C74.2999 118.692 74.5655 118.874 74.6934 119.145C75.5887 121.01 79.2437 125.733 87.2177 124.42C87.6211 124.351 88.0147 124.602 88.118 124.995C88.1622 125.177 88.2114 125.394 88.2508 125.63L88.2459 125.635Z" fill="#FF9BC9"/>
<path d="M95.5413 131.175C91.0845 135.845 85.3339 139.82 78.5454 139.82C38.8276 139.82 31.9406 105.24 19.0621 125.901C17.6208 121.266 18.4324 115.819 18.9047 114.121C6.71485 105.299 8.2103 92.5058 11.1471 85.573C13.6411 79.6931 19.5294 74.2216 26.7115 71.6236C28.1233 73.8427 30.4354 75.4271 33.136 75.8699C33.6329 75.9536 34.1445 75.993 34.6659 75.993C39.0538 75.993 42.7383 72.9964 43.7861 68.9371C43.8747 68.5976 43.9436 68.2532 43.9927 67.9038C44.3322 67.9481 44.6716 68.0022 45.011 68.0613C45.193 68.0908 45.375 68.1252 45.5571 68.1597C45.7587 68.199 45.9604 68.2433 46.1621 68.2827C46.172 68.8092 46.2162 69.3258 46.2949 69.8326C47.7461 78.7828 57.5403 80.81 62.9022 77.3805C63.7238 78.5319 72.539 87.8216 72.6768 117.073V117.088C72.6768 117.319 72.6768 117.551 72.6768 117.782C72.6768 124.833 78.5601 129.591 85.6094 129.591C86.4703 129.591 87.3164 129.507 88.128 129.34C89.289 129.109 90.3958 128.715 91.419 128.189C91.8765 127.957 92.3192 127.692 92.7423 127.406C92.7423 127.406 94.9313 128.174 95.5364 131.165L95.5413 131.175Z" fill="#FF9BC9"/>
<path d="M54.495 93.4999C53.1963 94.0608 51.3959 92.7716 50.4661 90.6165C49.5364 88.4663 49.8365 86.2669 51.1352 85.7059C52.4289 85.145 54.2343 86.4342 55.164 88.5844C56.0937 90.7346 55.7937 92.934 54.4999 93.4949L54.495 93.4999Z" fill="#FCE29D"/>
<path d="M55.5327 101.952C55.1786 102.016 54.8049 101.593 54.6967 101.003C54.5885 100.413 54.7901 99.8863 55.1442 99.8223C55.4983 99.7584 55.872 100.181 55.9802 100.772C56.0884 101.362 55.8867 101.888 55.5327 101.952Z" fill="#FCE29D"/>
<path d="M60.7916 94.4202C60.7916 95.36 60.3341 96.1178 59.7635 96.1178C59.1928 96.1178 58.7354 95.3551 58.7354 94.4202C58.7354 93.4854 59.1928 92.7178 59.7635 92.7178C60.3341 92.7178 60.7916 93.4804 60.7916 94.4202Z" fill="#FCE29D"/>
<path d="M10.7977 94.2569C10.2861 95.054 9.72532 95.7675 9.15469 96.3629C9.07106 94.9064 9.02187 91.7082 10.5763 87.0584C10.9502 87.0239 11.5946 87.0928 11.8701 87.2749C12.1505 87.4569 12.3473 87.7325 12.4702 88.0917C12.9277 89.4349 12.3128 91.8804 10.7977 94.2569Z" fill="#FCE29D"/>
<path d="M15.7613 99.0795C15.4416 100.265 14.6053 101.072 13.8871 100.88C13.1738 100.688 12.8491 99.5716 13.1689 98.3857C13.4886 97.1999 14.3249 96.393 15.0431 96.5849C15.7564 96.7768 16.0811 97.8937 15.7613 99.0795Z" fill="#FCE29D"/>
<path d="M55.5774 61.3548C55.5774 62.2552 54.8494 62.9883 53.9442 62.9883C53.0391 62.9883 52.311 62.2552 52.311 61.3548C52.311 60.4543 53.044 59.7212 53.9442 59.7212C54.8444 59.7212 55.5774 60.4494 55.5774 61.3548Z" stroke="#B2B2B2" stroke-width="0.443939" stroke-miterlimit="10"/>
<path d="M55.5774 61.3548C55.5774 62.2552 54.8494 62.9883 53.9442 62.9883C53.0391 62.9883 52.311 62.2552 52.311 61.3548C52.311 60.4543 53.044 59.7212 53.9442 59.7212C54.8444 59.7212 55.5774 60.4494 55.5774 61.3548Z" stroke="#B2B2B2" stroke-width="0.443939" stroke-miterlimit="10"/>
<path d="M34.6707 61.3548C34.6707 62.2552 33.9377 62.9883 33.0375 62.9883C32.1373 62.9883 31.4043 62.2552 31.4043 61.3548C31.4043 60.4543 32.1323 59.7212 33.0375 59.7212C33.9426 59.7212 34.6707 60.4494 34.6707 61.3548Z" stroke="#B2B2B2" stroke-width="0.443939" stroke-miterlimit="10"/>
<path d="M34.6707 61.3548C34.6707 62.2552 33.9377 62.9883 33.0375 62.9883C32.1373 62.9883 31.4043 62.2552 31.4043 61.3548C31.4043 60.4543 32.1323 59.7212 33.0375 59.7212C33.9426 59.7212 34.6707 60.4494 34.6707 61.3548Z" stroke="#B2B2B2" stroke-width="0.443939" stroke-miterlimit="10"/>
<path d="M34.6707 61.3548C34.6707 62.2552 33.9377 62.9883 33.0375 62.9883C32.1373 62.9883 31.4043 62.2552 31.4043 61.3548C31.4043 60.4543 32.1323 59.7212 33.0375 59.7212C33.9426 59.7212 34.6707 60.4494 34.6707 61.3548Z" stroke="#B2B2B2" stroke-width="0.517929" stroke-miterlimit="10"/>
<path d="M59.0555 79.9636C65.2553 79.9636 70.2812 74.9365 70.2812 68.7352C70.2812 62.534 65.2553 57.5068 59.0555 57.5068C52.8557 57.5068 47.8298 62.534 47.8298 68.7352C47.8298 74.9365 52.8557 79.9636 59.0555 79.9636Z" fill="#FF9BC9"/>
<path d="M38.3897 79.9636C44.5895 79.9636 49.6154 74.9365 49.6154 68.7352C49.6154 62.534 44.5895 57.5068 38.3897 57.5068C32.19 57.5068 27.1641 62.534 27.1641 68.7352C27.1641 74.9365 32.19 79.9636 38.3897 79.9636Z" fill="#FF9BC9"/>
<path d="M95.0594 136.652C95.0102 136.701 94.9315 136.775 94.8282 136.868C68.1119 160.545 38.6309 151.133 30.8537 145.636C22.304 139.599 18.5654 129.891 18.5654 123.78C19.8592 120.124 22.8255 117.034 30.4011 119.061C40.9577 121.886 47.9873 139.097 78.7571 139.097C85.5456 139.097 91.0896 135.835 95.5464 131.17C95.8169 132.509 95.7677 134.29 95.0643 136.652H95.0594Z" fill="#FFEFD7"/>
<path d="M44.8679 59.564C44.8679 59.564 46.7323 61.0942 50.5693 59.9281L46.9684 63.9579L44.8679 59.564Z" fill="#FF9BC9"/>
<path d="M95.5413 127.259C95.5413 127.259 96.4316 123.441 99.0437 120.661" stroke="#FF9BC9" stroke-width="0.983092" stroke-linecap="round" stroke-linejoin="round"/>
<path d="M96.8298 129.778C96.8298 129.778 100.165 128.287 102.821 126.407" stroke="#FF9BC9" stroke-width="0.983092" stroke-linecap="round" stroke-linejoin="round"/>
<path d="M97.1055 132.888C97.1055 132.888 99.5602 133.911 102.822 132.662" stroke="#FF9BC9" stroke-width="0.983092" stroke-linecap="round" stroke-linejoin="round"/>
<path d="M66.9556 76.7114C66.9556 76.7114 64.6288 78.4729 66.3948 82.9013L62.9907 78.837L66.9556 76.7114Z" fill="#FF9BC9"/>
<path d="M9.97607 101.963C9.97607 101.963 15.8841 121.507 36.3431 116.479" stroke="#5A4536" stroke-width="0.443939" stroke-miterlimit="10"/>
<path d="M77.537 88.9535C77.8911 89.2143 78.0682 89.6522 77.9944 90.0852L77.8665 90.774C77.8124 91.0742 77.6403 91.335 77.3894 91.5072C75.889 92.5355 69.9023 97.2444 75.2495 103.4C75.5791 103.779 75.7021 104.29 75.5939 104.778C75.525 105.083 75.3725 105.358 75.1462 105.58C74.428 106.288 72.7801 108.689 72.6768 115.868L72.5292 115.657C72.0274 109.786 73.1539 106.637 73.8475 105.299C74.1132 104.782 74.0886 104.167 73.7737 103.68C69.7843 97.5544 72.8883 92.5552 74.5608 90.5477C75.038 89.9769 75.0675 89.1503 74.6149 88.5549C68.8594 80.948 72.3423 75.8406 74.4674 73.7445C75.0675 73.1491 75.1216 72.1897 74.5608 71.5549C72.4702 69.1685 71.9044 65.7488 72.5685 58.8111C73.1884 52.321 70.3647 48.8768 69.2136 47.7598C69.9761 46.5002 70.4287 45.4423 70.6796 44.783C70.8468 44.3401 71.2699 44.0449 71.747 44.0449H71.9684C73.2474 44.0449 78.1273 50.6678 75.4266 59.1653C73.3261 65.7784 74.3444 69.572 77.35 70.6446C77.8026 70.807 78.1174 71.2253 78.1174 71.7075V72.5488C78.1174 72.8933 77.96 73.2229 77.6944 73.4394C75.7316 75.014 68.0478 82.0403 77.532 88.9486L77.537 88.9535Z" fill="#FF991C"/>
<path d="M78.8939 115.893C79.5974 115.701 80.232 115.317 80.7042 114.766C82.9228 112.158 83.0408 106.559 80.8223 103.784C78.5496 100.94 72.981 99.5571 69.9163 101.309C69.3703 101.619 69.0063 102.135 68.6127 102.627C65.0365 107.11 58.6907 116.601 61.0667 119.573C63.418 122.516 74.5896 117.069 78.889 115.893H78.8939Z" fill="#FF9BC9"/>
<path d="M69.4838 119.509C72.6961 118.048 76.8577 116.587 78.7467 116.07C79.4502 115.878 80.0847 115.494 80.557 114.943C82.7756 112.335 83.0412 106.559 80.8226 103.784C78.5499 100.94 72.9814 99.5571 69.9167 101.309C69.3707 101.619 67.8801 103.38 67.5161 103.897C64.1169 108.729 58.691 116.601 61.067 119.573" stroke="#5A4536" stroke-width="0.443939" stroke-miterlimit="10"/>
<path d="M79.0668 102.317C79.0668 102.317 75.5397 106.204 70.1089 110.298" stroke="#5A4536" stroke-width="0.443939" stroke-miterlimit="10"/>
<path d="M82.4115 108.674C82.4115 108.674 78.1712 109.904 72.396 113.113" stroke="#5A4536" stroke-width="0.443939" stroke-miterlimit="10"/>
<path d="M44.0765 66.5754C44.0765 67.0231 44.047 67.4709 43.983 67.9039C43.9338 68.2532 43.8649 68.6026 43.7764 68.9372C42.7286 72.9965 39.0441 75.993 34.6562 75.993C34.1347 75.993 33.6231 75.9488 33.1263 75.87C30.4305 75.4321 28.1136 73.8428 26.7018 71.6237C26.4656 71.2547 26.2541 70.866 26.0721 70.4625C25.531 69.2767 25.2358 67.958 25.2358 66.5754C25.2358 66.5311 25.2358 66.4917 25.2358 66.4474C25.2752 63.4903 26.6772 60.8628 28.8367 59.1652C28.8613 59.1505 28.881 59.1308 28.9007 59.116C29.1811 58.8995 29.4762 58.6929 29.7861 58.5108C30.6322 57.9991 31.5718 57.6153 32.5655 57.389C33.2345 57.2364 33.933 57.1577 34.6512 57.1577C37.7749 57.1577 40.5396 58.6781 42.2564 61.0202C43.3976 62.58 44.0716 64.499 44.0716 66.5803L44.0765 66.5754Z" fill="white"/>
<mask id="mask0_2245_62322" style="mask-type:luminance" maskUnits="userSpaceOnUse" x="25" y="57" width="20" height="19">
<path d="M44.0765 66.5754C44.0765 67.0231 44.047 67.4709 43.983 67.9039C43.9338 68.2532 43.8649 68.6026 43.7764 68.9372C42.7286 72.9965 39.0441 75.993 34.6562 75.993C34.1347 75.993 33.6231 75.9488 33.1263 75.87C30.4305 75.4321 28.1136 73.8428 26.7018 71.6237C26.4656 71.2547 26.2541 70.866 26.0721 70.4625C25.531 69.2767 25.2358 67.958 25.2358 66.5754C25.2358 66.5311 25.2358 66.4917 25.2358 66.4474C25.2752 63.4903 26.6772 60.8628 28.8367 59.1652C28.8613 59.1505 28.881 59.1308 28.9007 59.116C29.1811 58.8995 29.4762 58.6929 29.7861 58.5108C30.6322 57.9991 31.5718 57.6153 32.5655 57.389C33.2345 57.2364 33.933 57.1577 34.6512 57.1577C37.7749 57.1577 40.5396 58.6781 42.2564 61.0202C43.3976 62.58 44.0716 64.499 44.0716 66.5803L44.0765 66.5754Z" fill="white"/>
</mask>
<g mask="url(#mask0_2245_62322)">
<path d="M37.4502 73.0605C41.8406 73.0605 45.3997 69.5005 45.3997 65.1091C45.3997 60.7177 41.8406 57.1577 37.4502 57.1577C33.0598 57.1577 29.5007 60.7177 29.5007 65.1091C29.5007 69.5005 33.0598 73.0605 37.4502 73.0605Z" fill="#5A4536"/>
<path d="M39.7869 62.324C39.7869 63.2244 39.0539 63.9576 38.1537 63.9576C37.2535 63.9576 36.5205 63.2244 36.5205 62.324C36.5205 61.4236 37.2486 60.6904 38.1537 60.6904C39.0588 60.6904 39.7869 61.4186 39.7869 62.324Z" fill="white"/>
</g>
<path d="M68.0331 68.1056C68.0331 68.6271 67.9986 69.1438 67.9248 69.6457C67.8658 70.0541 67.7871 70.4575 67.6887 70.8462C66.4687 75.5649 62.189 79.0486 57.0927 79.0486C56.4876 79.0486 55.8924 78.9994 55.3169 78.9059C52.1833 78.3942 49.4925 76.5539 47.8544 73.9756C47.5789 73.5476 47.3379 73.0949 47.1264 72.6274C46.5016 71.2497 46.1523 69.7195 46.1523 68.1105C46.1523 68.0613 46.1523 68.0121 46.1523 67.9629C46.1966 64.5284 47.8249 61.4778 50.3337 59.4998C50.3583 59.4801 50.3878 59.4604 50.4075 59.4407C50.7371 59.1849 51.0765 58.9536 51.4356 58.7371C52.4194 58.1418 53.5066 57.6989 54.6675 57.4332C55.4448 57.2561 56.2564 57.1626 57.0927 57.1626C60.7231 57.1626 63.9353 58.929 65.9276 61.65C67.2509 63.4607 68.038 65.6946 68.038 68.1105L68.0331 68.1056Z" fill="white"/>
<mask id="mask1_2245_62322" style="mask-type:luminance" maskUnits="userSpaceOnUse" x="46" y="57" width="23" height="23">
<path d="M68.0331 68.1056C68.0331 68.6271 67.9986 69.1438 67.9248 69.6457C67.8658 70.0541 67.7871 70.4575 67.6887 70.8462C66.4687 75.5649 62.189 79.0486 57.0927 79.0486C56.4876 79.0486 55.8924 78.9994 55.3169 78.9059C52.1833 78.3942 49.4925 76.5539 47.8544 73.9756C47.5789 73.5476 47.3379 73.0949 47.1264 72.6274C46.5016 71.2497 46.1523 69.7195 46.1523 68.1105C46.1523 68.0613 46.1523 68.0121 46.1523 67.9629C46.1966 64.5284 47.8249 61.4778 50.3337 59.4998C50.3583 59.4801 50.3878 59.4604 50.4075 59.4407C50.7371 59.1849 51.0765 58.9536 51.4356 58.7371C52.4194 58.1418 53.5066 57.6989 54.6675 57.4332C55.4448 57.2561 56.2564 57.1626 57.0927 57.1626C60.7231 57.1626 63.9353 58.929 65.9276 61.65C67.2509 63.4607 68.038 65.6946 68.038 68.1105L68.0331 68.1056Z" fill="white"/>
</mask>
<g mask="url(#mask1_2245_62322)">
<path d="M60.3345 75.6388C65.4367 75.6388 69.5728 71.5016 69.5728 66.3982C69.5728 61.2948 65.4367 57.1577 60.3345 57.1577C55.2323 57.1577 51.0962 61.2948 51.0962 66.3982C51.0962 71.5016 55.2323 75.6388 60.3345 75.6388Z" fill="#5A4536"/>
<path d="M63.0498 63.1605C63.0498 64.2086 62.1988 65.0598 61.151 65.0598C60.1032 65.0598 59.2522 64.2086 59.2522 63.1605C59.2522 62.1125 60.0983 61.2612 61.151 61.2612C62.2037 61.2612 63.0498 62.1075 63.0498 63.1605Z" fill="white"/>
</g>
<path d="M31.6944 88.378C30.4154 88.9488 28.9102 88.56 28.069 87.4431C26.4112 85.2486 23.4006 82.5424 20.026 85.6324C14.915 90.3117 19.6768 100.167 29.53 101.127C39.3832 102.086 45.542 92.7375 41.3705 88.6535C38.6256 85.967 34.3262 87.2118 31.6994 88.378H31.6944Z" fill="#5A4536"/>
<mask id="mask2_2245_62322" style="mask-type:luminance" maskUnits="userSpaceOnUse" x="17" y="84" width="26" height="18">
<path d="M31.6944 88.378C30.4154 88.9488 28.9102 88.56 28.069 87.4431C26.4112 85.2486 23.4006 82.5424 20.026 85.6324C14.915 90.3117 19.6768 100.167 29.53 101.127C39.3832 102.086 45.542 92.7375 41.3705 88.6535C38.6256 85.967 34.3262 87.2118 31.6994 88.378H31.6944Z" fill="white"/>
</mask>
<g mask="url(#mask2_2245_62322)">
<path d="M21.7825 100.113C21.7825 100.113 24.2864 92.5009 30.6371 94.474C30.6371 94.474 36.7517 90.4442 42.4629 95.5122C42.4629 95.5122 33.3181 110.308 21.7874 100.113H21.7825Z" fill="#FF991C"/>
</g>
<path d="M28.6153 124.425C28.5907 124.321 28.6153 124.218 28.6497 124.12C28.7629 123.805 29.0334 123.588 29.2843 123.436C29.8254 123.106 30.4403 122.998 30.9913 122.698C31.2864 122.535 31.616 122.319 31.7882 121.979C31.8423 121.876 31.8964 121.723 31.8669 121.595C31.8472 121.507 31.5373 121.605 31.5619 121.689C31.5865 121.787 31.557 121.886 31.5176 121.979C31.3848 122.294 31.0798 122.491 30.8191 122.634C30.2681 122.939 29.6532 123.047 29.1121 123.372C28.8268 123.544 28.5218 123.77 28.3742 124.115C28.325 124.228 28.2808 124.385 28.3103 124.518C28.33 124.607 28.6399 124.508 28.6153 124.425Z" fill="#5A4536"/>
<path d="M30.4058 125.61C30.5681 125.66 30.7403 125.689 30.9223 125.689C31.4929 125.689 31.9996 125.418 32.339 124.99C32.4128 124.897 32.4768 124.799 32.5358 124.695C32.6883 124.41 32.7768 124.08 32.7768 123.731C32.7768 123.165 32.5505 122.658 32.1914 122.299C32.3882 122.092 32.5063 121.807 32.5063 121.492C32.5063 120.872 32.034 120.365 31.4536 120.365C31.3404 120.365 31.2322 120.385 31.1289 120.419C31.0403 120.449 30.9567 120.493 30.8829 120.542C30.2336 121.025 30.2631 122.299 30.2631 122.299V122.309C30.2729 123.007 30.4992 123.642 30.8632 124.12C30.9321 124.208 31.001 124.292 31.0797 124.366C31.0846 124.37 31.0895 124.375 31.0994 124.375C31.1141 124.375 31.1338 124.375 31.1535 124.375C31.2469 124.375 31.3257 124.336 31.3798 124.277C31.3945 124.257 31.3945 124.233 31.3798 124.213C31.2765 124.115 31.1781 124.001 31.0895 123.878C30.7895 123.455 30.5976 122.899 30.5779 122.289C30.5779 122.255 30.5779 122.215 30.5779 122.181C30.5779 122.171 30.5779 122.156 30.5779 122.146C30.5779 122.127 30.5779 122.107 30.5779 122.087C30.5779 121.989 30.5878 121.891 30.5976 121.792C30.6124 121.684 30.632 121.576 30.6517 121.467C30.6665 121.403 30.6812 121.339 30.7009 121.285C30.7157 121.231 30.7353 121.177 30.755 121.123C30.755 121.118 30.755 121.113 30.7599 121.108C30.8682 120.813 31.0846 120.596 31.3453 120.552C31.3798 120.547 31.4142 120.542 31.4486 120.542C31.8717 120.542 32.2111 120.985 32.2111 121.536C32.2111 121.768 32.1521 121.979 32.0488 122.146C32.0045 122.22 31.9553 122.284 31.8963 122.338C31.8766 122.358 31.8766 122.388 31.8963 122.402C31.9209 122.422 31.9406 122.447 31.9652 122.466C32.2849 122.781 32.4866 123.254 32.4866 123.78C32.4866 124.1 32.4128 124.405 32.28 124.661C32.2308 124.759 32.1718 124.853 32.1078 124.936C31.8373 125.281 31.4536 125.502 31.0207 125.502C30.819 125.502 30.6271 125.453 30.455 125.369C30.3713 125.325 30.2877 125.276 30.209 125.217C30.209 125.217 30.1992 125.217 30.1942 125.212H30.1844C30.0811 125.212 29.9925 125.256 29.9434 125.33C29.9335 125.345 29.9384 125.364 29.9483 125.374C30.0958 125.473 30.2533 125.546 30.4254 125.601L30.4058 125.61Z" fill="#5A4536"/>
<path d="M29.7617 120.42C29.5994 120.37 29.4272 120.341 29.2452 120.341C28.6745 120.341 28.1679 120.611 27.8284 121.04C27.7546 121.133 27.6907 121.231 27.6317 121.335C27.4792 121.62 27.3906 121.95 27.3906 122.299C27.3906 122.865 27.6169 123.372 27.976 123.731C27.7792 123.938 27.6612 124.223 27.6612 124.538C27.6612 125.158 28.1334 125.665 28.7139 125.665C28.827 125.665 28.9353 125.645 29.0386 125.611C29.1271 125.581 29.2107 125.537 29.2845 125.488C29.9339 125.005 29.9043 123.731 29.9043 123.731V123.721C29.8945 123.022 29.6682 122.388 29.3042 121.91C29.2353 121.822 29.1665 121.738 29.0878 121.664C29.0828 121.659 29.0779 121.655 29.0681 121.655C29.0533 121.655 29.0336 121.655 29.014 121.655C28.9205 121.655 28.8418 121.694 28.7877 121.753C28.7729 121.773 28.7729 121.797 28.7877 121.817C28.891 121.915 28.9894 122.029 29.0779 122.152C29.378 122.575 29.5698 123.131 29.5895 123.741C29.5895 123.775 29.5895 123.815 29.5895 123.849C29.5895 123.859 29.5895 123.874 29.5895 123.884C29.5895 123.903 29.5895 123.923 29.5895 123.943C29.5895 124.041 29.5797 124.139 29.5698 124.238C29.5551 124.346 29.5354 124.454 29.5157 124.563C29.501 124.626 29.4862 124.69 29.4665 124.745C29.4518 124.799 29.4321 124.853 29.4124 124.907C29.4124 124.912 29.4124 124.917 29.4075 124.922C29.2993 125.217 29.0828 125.433 28.8221 125.478C28.7877 125.483 28.7533 125.488 28.7188 125.488C28.2958 125.488 27.9563 125.045 27.9563 124.494C27.9563 124.262 28.0154 124.051 28.1187 123.884C28.1629 123.81 28.2121 123.746 28.2712 123.692C28.2908 123.672 28.2908 123.642 28.2712 123.628C28.2466 123.608 28.2269 123.583 28.2023 123.564C27.8825 123.249 27.6809 122.776 27.6809 122.25C27.6809 121.93 27.7546 121.625 27.8875 121.369C27.9367 121.271 27.9957 121.177 28.0596 121.094C28.3302 120.749 28.7139 120.528 29.1468 120.528C29.3485 120.528 29.5403 120.577 29.7125 120.661C29.7961 120.705 29.8798 120.754 29.9585 120.813C29.9585 120.813 29.9683 120.813 29.9732 120.818H29.9831C30.0864 120.818 30.1749 120.774 30.2241 120.7C30.2339 120.685 30.229 120.666 30.2192 120.656C30.0716 120.557 29.9142 120.484 29.742 120.429L29.7617 120.42Z" fill="#5A4536"/>
<path d="M71.8206 128.405C71.8206 128.405 73.7047 127.067 73.7735 122.417L77.3351 127.155C77.3351 127.155 77.1383 130.108 74.8607 132.74C74.8607 132.74 70.9204 132.543 71.8157 128.41L71.8206 128.405Z" fill="#FCE29D"/>
<mask id="mask3_2245_62322" style="mask-type:luminance" maskUnits="userSpaceOnUse" x="71" y="122" width="7" height="11">
<path d="M71.8206 128.405C71.8206 128.405 73.7047 127.067 73.7735 122.417L77.3351 127.155C77.3351 127.155 77.1383 130.108 74.8607 132.74C74.8607 132.74 70.9204 132.543 71.8157 128.41L71.8206 128.405Z" fill="white"/>
</mask>
<g mask="url(#mask3_2245_62322)">
<mask id="mask4_2245_62322" style="mask-type:luminance" maskUnits="userSpaceOnUse" x="76" y="116" width="17" height="17">
<path d="M82.5437 116.17L76.2966 125.434L86.276 132.167L92.5231 122.903L82.5437 116.17Z" fill="white"/>
</mask>
<g mask="url(#mask4_2245_62322)">
<path d="M77.8512 123.117L77.0728 124.271L79.5686 125.955L80.3471 124.801L77.8512 123.117Z" fill="#5AE500"/>
</g>
<mask id="mask5_2245_62322" style="mask-type:luminance" maskUnits="userSpaceOnUse" x="70" y="125" width="17" height="17">
<path d="M76.2915 125.432L70.0444 134.696L80.0238 141.429L86.2709 132.165L76.2915 125.432Z" fill="white"/>
</mask>
<g mask="url(#mask5_2245_62322)">
<path d="M71.6073 132.382L70.8289 133.536L73.3247 135.22L74.1032 134.066L71.6073 132.382Z" fill="#5AE500"/>
<path d="M76.4452 130.589L75.6667 131.743L78.1626 133.427L78.9411 132.273L76.4452 130.589Z" fill="#FBFB79"/>
<path d="M73.1659 130.068L72.3875 131.222L74.8833 132.906L75.6618 131.752L73.1659 130.068Z" fill="#5AE500"/>
<path d="M78.0036 128.275L77.2251 129.43L79.721 131.114L80.4994 129.959L78.0036 128.275Z" fill="#FBFB79"/>
<path d="M74.7309 127.753L73.9524 128.907L76.4483 130.591L77.2267 129.437L74.7309 127.753Z" fill="#5AE500"/>
<path d="M76.2895 125.44L75.511 126.594L78.0069 128.278L78.7853 127.124L76.2895 125.44Z" fill="#5AE500"/>
</g>
<mask id="mask6_2245_62322" style="mask-type:luminance" maskUnits="userSpaceOnUse" x="66" y="109" width="17" height="17">
<path d="M72.5596 109.437L66.3125 118.701L76.2919 125.434L82.539 116.17L72.5596 109.437Z" fill="white"/>
</mask>
<g mask="url(#mask6_2245_62322)">
<path d="M74.5485 122.63L73.77 123.784L76.2659 125.468L77.0444 124.314L74.5485 122.63Z" fill="#FBFB79"/>
<path d="M72.8595 119.756L72.0811 120.911L74.5769 122.595L75.3554 121.44L72.8595 119.756Z" fill="#5AE500"/>
<path d="M76.1108 120.319L75.3323 121.473L77.8282 123.157L78.6066 122.003L76.1108 120.319Z" fill="#FBFB79"/>
</g>
<mask id="mask7_2245_62322" style="mask-type:luminance" maskUnits="userSpaceOnUse" x="60" y="118" width="17" height="17">
<path d="M66.3196 118.698L60.0725 127.961L70.0519 134.694L76.299 125.43L66.3196 118.698Z" fill="white"/>
</mask>
<g mask="url(#mask7_2245_62322)">
<path d="M69.8639 129.581L69.0854 130.735L71.5813 132.419L72.3598 131.265L69.8639 129.581Z" fill="#FBFB79"/>
<path d="M71.4296 127.266L70.6511 128.42L73.147 130.104L73.9255 128.95L71.4296 127.266Z" fill="#FBFB79"/>
<path d="M69.7389 124.381L68.9604 125.536L71.4563 127.22L72.2348 126.065L69.7389 124.381Z" fill="#5AE500"/>
<path d="M72.9872 124.953L72.2087 126.107L74.7046 127.791L75.4831 126.636L72.9872 124.953Z" fill="#FBFB79"/>
<path d="M71.3014 122.07L70.5229 123.225L73.0188 124.909L73.7973 123.754L71.3014 122.07Z" fill="#5AE500"/>
<path d="M74.5487 122.63L73.7703 123.785L76.2661 125.469L77.0446 124.314L74.5487 122.63Z" fill="#FBFB79"/>
</g>
</g>
<path d="M55.9267 138.123C53.2654 138.379 52.38 138.315 50.0236 138.231C49.8761 138.231 49.7334 138.222 49.5858 138.217C48.0314 138.148 46.5458 138.015 45.1241 137.818C32.1816 136.057 23.7255 129.114 19.4851 124.002C19.2244 123.687 18.6537 123.067 18.4717 122.698C16.8287 119.411 17.1091 117.236 17.3305 115.967C17.3993 115.573 17.9109 115.465 18.1372 115.794C31.0354 134.571 47.2197 133.493 55.3758 133.035C55.7988 133.872 55.9316 138.118 55.9316 138.118L55.9267 138.123Z" fill="#FCE29D"/>
<mask id="mask8_2245_62322" style="mask-type:luminance" maskUnits="userSpaceOnUse" x="17" y="115" width="39" height="24">
<path d="M55.9267 138.123C53.2654 138.379 52.38 138.315 50.0236 138.231C49.8761 138.231 49.7334 138.222 49.5858 138.217C48.0314 138.148 46.5458 138.015 45.1241 137.818C32.1816 136.057 23.7255 129.114 19.4851 124.002C19.2244 123.687 18.6537 123.067 18.4717 122.698C16.8287 119.411 17.1091 117.236 17.3305 115.967C17.3993 115.573 17.9109 115.465 18.1372 115.794C31.0354 134.571 47.2197 133.493 55.3758 133.035C55.7988 133.872 55.9316 138.118 55.9316 138.118L55.9267 138.123Z" fill="white"/>
</mask>
<g mask="url(#mask8_2245_62322)">
<mask id="mask9_2245_62322" style="mask-type:luminance" maskUnits="userSpaceOnUse" x="51" y="124" width="17" height="17">
<path d="M57.9983 124.712L51.7512 133.976L61.7306 140.709L67.9777 131.445L57.9983 124.712Z" fill="white"/>
</mask>
<g mask="url(#mask9_2245_62322)">
<path d="M55.0297 134.502L54.2512 135.657L56.7471 137.341L57.5256 136.186L55.0297 134.502Z" fill="#FBFB79"/>
<path d="M56.5878 132.189L55.8093 133.344L58.3052 135.028L59.0837 133.873L56.5878 132.189Z" fill="#FBFB79"/>
<path d="M53.31 131.666L52.5315 132.821L55.0274 134.505L55.8058 133.35L53.31 131.666Z" fill="#5AE500"/>
<path d="M54.8683 129.353L54.0898 130.508L56.5857 132.192L57.3642 131.037L54.8683 129.353Z" fill="#5AE500"/>
<path d="M56.4381 127.034L55.6597 128.188L58.1555 129.872L58.934 128.717L56.4381 127.034Z" fill="#5AE500"/>
</g>
<mask id="mask10_2245_62322" style="mask-type:luminance" maskUnits="userSpaceOnUse" x="45" y="133" width="17" height="17">
<path d="M51.7512 133.973L45.5042 143.237L55.4836 149.97L61.7306 140.706L51.7512 133.973Z" fill="white"/>
</mask>
<g mask="url(#mask10_2245_62322)">
<path d="M53.4638 136.822L52.6853 137.976L55.1812 139.66L55.9596 138.506L53.4638 136.822Z" fill="#FBFB79"/>
<path d="M50.1859 136.294L49.4075 137.449L51.9033 139.133L52.6818 137.978L50.1859 136.294Z" fill="#5AE500"/>
<path d="M51.7467 133.977L50.9683 135.131L53.4641 136.815L54.2426 135.661L51.7467 133.977Z" fill="#5AE500"/>
</g>
<mask id="mask11_2245_62322" style="mask-type:luminance" maskUnits="userSpaceOnUse" x="48" y="108" width="17" height="17">
<path d="M54.2617 108.717L48.0146 117.981L57.9941 124.714L64.2411 115.45L54.2617 108.717Z" fill="white"/>
</mask>
<g mask="url(#mask11_2245_62322)">
<path d="M51.2921 118.507L50.5137 119.661L53.0095 121.345L53.788 120.191L51.2921 118.507Z" fill="#FBFB79"/>
<path d="M56.2555 121.914L55.4771 123.068L57.9729 124.752L58.7514 123.598L56.2555 121.914Z" fill="#FBFB79"/>
<path d="M52.8505 116.193L52.072 117.348L54.5679 119.032L55.3464 117.877L52.8505 116.193Z" fill="#FBFB79"/>
<path d="M54.5663 119.036L53.7878 120.19L56.2837 121.874L57.0622 120.72L54.5663 119.036Z" fill="#5AE500"/>
<path d="M49.5775 115.671L48.7991 116.826L51.2949 118.51L52.0734 117.355L49.5775 115.671Z" fill="#5AE500"/>
<path d="M54.4154 113.879L53.637 115.033L56.1328 116.717L56.9113 115.563L54.4154 113.879Z" fill="#FBFB79"/>
<path d="M56.1315 116.722L55.353 117.876L57.8489 119.56L58.6274 118.405L56.1315 116.722Z" fill="#5AE500"/>
<path d="M51.1427 113.351L50.3643 114.506L52.8601 116.19L53.6386 115.035L51.1427 113.351Z" fill="#5AE500"/>
</g>
<mask id="mask12_2245_62322" style="mask-type:luminance" maskUnits="userSpaceOnUse" x="41" y="117" width="17" height="17">
<path d="M48.0183 117.982L41.7712 127.246L51.7507 133.978L57.9977 124.715L48.0183 117.982Z" fill="white"/>
</mask>
<g mask="url(#mask12_2245_62322)">
<path d="M45.0446 127.768L44.2661 128.923L46.762 130.607L47.5405 129.452L45.0446 127.768Z" fill="#FBFB79"/>
<path d="M50.0119 131.179L49.2334 132.333L51.7293 134.017L52.5078 132.863L50.0119 131.179Z" fill="#FBFB79"/>
<path d="M46.6103 125.454L45.8318 126.609L48.3277 128.293L49.1061 127.138L46.6103 125.454Z" fill="#FBFB79"/>
<path d="M48.3207 128.297L47.5422 129.451L50.0381 131.135L50.8166 129.981L48.3207 128.297Z" fill="#5AE500"/>
<path d="M43.3305 124.933L42.552 126.088L45.0479 127.772L45.8263 126.617L43.3305 124.933Z" fill="#5AE500"/>
<path d="M51.5705 128.866L50.792 130.02L53.2879 131.704L54.0663 130.549L51.5705 128.866Z" fill="#FBFB79"/>
<path d="M48.1681 123.141L47.3896 124.295L49.8855 125.979L50.664 124.825L48.1681 123.141Z" fill="#FBFB79"/>
<path d="M49.8839 125.983L49.1055 127.138L51.6013 128.822L52.3798 127.667L49.8839 125.983Z" fill="#5AE500"/>
<path d="M44.8954 122.619L44.1169 123.773L46.6128 125.457L47.3913 124.302L44.8954 122.619Z" fill="#5AE500"/>
<path d="M53.1354 126.546L52.3569 127.7L54.8528 129.384L55.6313 128.23L53.1354 126.546Z" fill="#FBFB79"/>
<path d="M49.7304 120.825L48.9519 121.979L51.4478 123.663L52.2263 122.509L49.7304 120.825Z" fill="#FBFB79"/>
<path d="M51.445 123.666L50.6665 124.82L53.1624 126.504L53.9408 125.35L51.445 123.666Z" fill="#5AE500"/>
<path d="M46.4535 120.3L45.675 121.455L48.1709 123.138L48.9494 121.984L46.4535 120.3Z" fill="#5AE500"/>
<path d="M54.6938 124.232L53.9153 125.387L56.4112 127.071L57.1896 125.916L54.6938 124.232Z" fill="#FBFB79"/>
<path d="M53.0075 121.35L52.229 122.504L54.7249 124.188L55.5033 123.034L53.0075 121.35Z" fill="#5AE500"/>
<path d="M48.019 117.985L47.2405 119.14L49.7363 120.824L50.5148 119.669L48.019 117.985Z" fill="#5AE500"/>
<path d="M56.2548 121.914L55.4763 123.069L57.9722 124.753L58.7507 123.598L56.2548 121.914Z" fill="#FBFB79"/>
</g>
<mask id="mask13_2245_62322" style="mask-type:luminance" maskUnits="userSpaceOnUse" x="35" y="127" width="17" height="17">
<path d="M41.7744 127.244L35.5273 136.508L45.5068 143.241L51.7538 133.977L41.7744 127.244Z" fill="white"/>
</mask>
<g mask="url(#mask13_2245_62322)">
<path d="M38.8051 137.029L38.0266 138.184L40.5225 139.867L41.301 138.713L38.8051 137.029Z" fill="#FBFB79"/>
<path d="M40.3637 134.716L39.5852 135.87L42.0811 137.554L42.8596 136.4L40.3637 134.716Z" fill="#FBFB79"/>
<path d="M42.0739 137.563L41.2954 138.717L43.7913 140.401L44.5698 139.247L42.0739 137.563Z" fill="#5AE500"/>
<path d="M37.0856 134.193L36.3071 135.348L38.803 137.032L39.5815 135.877L37.0856 134.193Z" fill="#5AE500"/>
<path d="M45.3212 138.123L44.5427 139.277L47.0386 140.961L47.8171 139.807L45.3212 138.123Z" fill="#FBFB79"/>
<path d="M41.9259 132.405L41.1475 133.56L43.6433 135.243L44.4218 134.089L41.9259 132.405Z" fill="#FBFB79"/>
<path d="M43.6349 135.241L42.8564 136.395L45.3523 138.079L46.1308 136.924L43.6349 135.241Z" fill="#5AE500"/>
<path d="M38.644 131.88L37.8655 133.034L40.3613 134.718L41.1398 133.564L38.644 131.88Z" fill="#5AE500"/>
<path d="M46.8883 135.807L46.1099 136.961L48.6057 138.645L49.3842 137.491L46.8883 135.807Z" fill="#FBFB79"/>
<path d="M43.4872 130.087L42.7087 131.242L45.2046 132.926L45.9831 131.771L43.4872 130.087Z" fill="#FBFB79"/>
<path d="M45.1977 132.93L44.4192 134.084L46.9151 135.768L47.6935 134.613L45.1977 132.93Z" fill="#5AE500"/>
<path d="M40.2089 129.559L39.4304 130.714L41.9263 132.398L42.7048 131.243L40.2089 129.559Z" fill="#5AE500"/>
<path d="M48.4474 133.494L47.6689 134.648L50.1648 136.332L50.9433 135.177L48.4474 133.494Z" fill="#FBFB79"/>
<path d="M46.7558 130.616L45.9773 131.771L48.4732 133.454L49.2516 132.3L46.7558 130.616Z" fill="#5AE500"/>
<path d="M41.7724 127.246L40.9939 128.401L43.4898 130.085L44.2682 128.93L41.7724 127.246Z" fill="#5AE500"/>
<path d="M50.0124 131.179L49.2339 132.333L51.7298 134.017L52.5082 132.862L50.0124 131.179Z" fill="#FBFB79"/>
</g>
<mask id="mask14_2245_62322" style="mask-type:luminance" maskUnits="userSpaceOnUse" x="29" y="136" width="17" height="17">
<path d="M35.5273 136.506L29.2803 145.77L39.2597 152.502L45.5067 143.238L35.5273 136.506Z" fill="white"/>
</mask>
<g mask="url(#mask14_2245_62322)">
<path d="M35.5204 136.509L34.7419 137.663L37.2378 139.347L38.0163 138.193L35.5204 136.509Z" fill="#5AE500"/>
</g>
<mask id="mask15_2245_62322" style="mask-type:luminance" maskUnits="userSpaceOnUse" x="38" y="101" width="17" height="17">
<path d="M44.289 101.983L38.042 111.247L48.0214 117.979L54.2685 108.716L44.289 101.983Z" fill="white"/>
</mask>
<g mask="url(#mask15_2245_62322)">
<path d="M46.2753 115.184L45.4968 116.338L47.9927 118.022L48.7712 116.868L46.2753 115.184Z" fill="#FBFB79"/>
<path d="M47.8376 112.868L47.0591 114.022L49.555 115.706L50.3334 114.552L47.8376 112.868Z" fill="#FBFB79"/>
</g>
<mask id="mask16_2245_62322" style="mask-type:luminance" maskUnits="userSpaceOnUse" x="31" y="111" width="18" height="17">
<path d="M38.0371 111.249L31.79 120.513L41.7695 127.246L48.0165 117.982L38.0371 111.249Z" fill="white"/>
</mask>
<g mask="url(#mask16_2245_62322)">
<path d="M35.0678 121.035L34.2893 122.189L36.7852 123.873L37.5637 122.718L35.0678 121.035Z" fill="#FBFB79"/>
<path d="M40.028 124.447L39.2495 125.601L41.7454 127.285L42.5239 126.131L40.028 124.447Z" fill="#FBFB79"/>
<path d="M36.6298 118.724L35.8513 119.878L38.3472 121.562L39.1257 120.408L36.6298 118.724Z" fill="#FBFB79"/>
<path d="M38.3417 121.564L37.5632 122.718L40.0591 124.402L40.8376 123.248L38.3417 121.564Z" fill="#5AE500"/>
<path d="M33.3532 118.199L32.5747 119.354L35.0706 121.037L35.8491 119.883L33.3532 118.199Z" fill="#5AE500"/>
<path d="M41.5932 122.131L40.8147 123.286L43.3106 124.97L44.089 123.815L41.5932 122.131Z" fill="#FBFB79"/>
<path d="M38.1884 116.411L37.4099 117.565L39.9058 119.249L40.6843 118.094L38.1884 116.411Z" fill="#FBFB79"/>
<path d="M39.9069 119.249L39.1284 120.403L41.6243 122.087L42.4028 120.933L39.9069 119.249Z" fill="#5AE500"/>
<path d="M34.9154 115.888L34.137 117.042L36.6328 118.726L37.4113 117.572L34.9154 115.888Z" fill="#5AE500"/>
<path d="M43.1518 119.813L42.3733 120.967L44.8692 122.651L45.6476 121.497L43.1518 119.813Z" fill="#FBFB79"/>
<path d="M39.7494 114.093L38.9709 115.248L41.4668 116.931L42.2453 115.777L39.7494 114.093Z" fill="#FBFB79"/>
<path d="M41.4652 116.936L40.6868 118.09L43.1826 119.774L43.9611 118.62L41.4652 116.936Z" fill="#5AE500"/>
<path d="M36.4767 113.566L35.6982 114.72L38.1941 116.404L38.9726 115.25L36.4767 113.566Z" fill="#5AE500"/>
<path d="M44.7167 117.498L43.9382 118.652L46.4341 120.336L47.2126 119.182L44.7167 117.498Z" fill="#FBFB79"/>
<path d="M43.0277 114.625L42.2493 115.779L44.7451 117.463L45.5236 116.309L43.0277 114.625Z" fill="#5AE500"/>
<path d="M46.2751 115.185L45.4966 116.339L47.9925 118.023L48.7709 116.869L46.2751 115.185Z" fill="#FBFB79"/>
</g>
<mask id="mask17_2245_62322" style="mask-type:luminance" maskUnits="userSpaceOnUse" x="25" y="120" width="17" height="17">
<path d="M31.7939 120.513L25.5469 129.777L35.5263 136.51L41.7733 127.246L31.7939 120.513Z" fill="white"/>
</mask>
<g mask="url(#mask17_2245_62322)">
<path d="M28.8202 130.3L28.0417 131.455L30.5376 133.138L31.3161 131.984L28.8202 130.3Z" fill="#FBFB79"/>
<path d="M33.7875 133.705L33.009 134.86L35.5049 136.544L36.2834 135.389L33.7875 133.705Z" fill="#FBFB79"/>
<path d="M30.383 127.985L29.6045 129.14L32.1004 130.824L32.8788 129.669L30.383 127.985Z" fill="#FBFB79"/>
<path d="M32.0966 130.828L31.3181 131.983L33.814 133.667L34.5925 132.512L32.0966 130.828Z" fill="#5AE500"/>
<path d="M27.1061 127.46L26.3276 128.614L28.8235 130.298L29.602 129.144L27.1061 127.46Z" fill="#5AE500"/>
<path d="M35.3459 131.392L34.5674 132.547L37.0633 134.231L37.8417 133.076L35.3459 131.392Z" fill="#FBFB79"/>
<path d="M31.944 125.667L31.1655 126.822L33.6614 128.506L34.4399 127.351L31.944 125.667Z" fill="#FBFB79"/>
<path d="M33.6549 128.51L32.8765 129.665L35.3723 131.348L36.1508 130.194L33.6549 128.51Z" fill="#5AE500"/>
<path d="M28.6711 125.145L27.8926 126.299L30.3885 127.983L31.1669 126.829L28.6711 125.145Z" fill="#5AE500"/>
<path d="M36.9113 129.072L36.1328 130.227L38.6287 131.91L39.4072 130.756L36.9113 129.072Z" fill="#FBFB79"/>
<path d="M33.5063 123.357L32.7278 124.511L35.2237 126.195L36.0021 125.041L33.5063 123.357Z" fill="#FBFB79"/>
<path d="M35.2182 126.197L34.4397 127.351L36.9356 129.035L37.714 127.881L35.2182 126.197Z" fill="#5AE500"/>
<path d="M30.2294 122.832L29.4509 123.986L31.9468 125.67L32.7253 124.516L30.2294 122.832Z" fill="#5AE500"/>
<path d="M38.4696 126.759L37.6912 127.914L40.187 129.597L40.9655 128.443L38.4696 126.759Z" fill="#FBFB79"/>
<path d="M36.7831 123.882L36.0046 125.036L38.5005 126.72L39.279 125.566L36.7831 123.882Z" fill="#5AE500"/>
<path d="M31.7919 120.516L31.0134 121.67L33.5093 123.354L34.2878 122.2L31.7919 120.516Z" fill="#5AE500"/>
<path d="M40.028 124.446L39.2495 125.6L41.7454 127.284L42.5239 126.13L40.028 124.446Z" fill="#FBFB79"/>
</g>
<mask id="mask18_2245_62322" style="mask-type:luminance" maskUnits="userSpaceOnUse" x="19" y="129" width="17" height="17">
<path d="M25.5503 129.771L19.3032 139.035L29.2826 145.767L35.5297 136.504L25.5503 129.771Z" fill="white"/>
</mask>
<g mask="url(#mask18_2245_62322)">
<path d="M24.1391 137.243L23.3606 138.397L25.8565 140.081L26.6349 138.927L24.1391 137.243Z" fill="#FBFB79"/>
<path d="M20.8612 136.721L20.0828 137.875L22.5786 139.559L23.3571 138.404L20.8612 136.721Z" fill="#5AE500"/>
<path d="M25.7013 134.932L24.9229 136.087L27.4187 137.771L28.1972 136.616L25.7013 134.932Z" fill="#FBFB79"/>
<path d="M27.4081 137.772L26.6296 138.926L29.1255 140.61L29.904 139.456L27.4081 137.772Z" fill="#5AE500"/>
<path d="M22.4198 134.407L21.6414 135.562L24.1372 137.245L24.9157 136.091L22.4198 134.407Z" fill="#5AE500"/>
<path d="M27.2624 132.615L26.4839 133.769L28.9798 135.453L29.7582 134.299L27.2624 132.615Z" fill="#FBFB79"/>
<path d="M28.9733 135.457L28.1948 136.611L30.6907 138.295L31.4692 137.141L28.9733 135.457Z" fill="#5AE500"/>
<path d="M23.9818 132.096L23.2034 133.25L25.6992 134.934L26.4777 133.78L23.9818 132.096Z" fill="#5AE500"/>
<path d="M32.2228 136.021L31.4443 137.175L33.9402 138.859L34.7187 137.705L32.2228 136.021Z" fill="#FBFB79"/>
<path d="M30.5314 133.143L29.7529 134.298L32.2488 135.982L33.0273 134.827L30.5314 133.143Z" fill="#5AE500"/>
<path d="M25.5431 129.774L24.7646 130.928L27.2605 132.612L28.039 131.458L25.5431 129.774Z" fill="#5AE500"/>
<path d="M33.788 133.706L33.0095 134.86L35.5054 136.544L36.2839 135.39L33.788 133.706Z" fill="#FBFB79"/>
</g>
<mask id="mask19_2245_62322" style="mask-type:luminance" maskUnits="userSpaceOnUse" x="21" y="104" width="18" height="17">
<path d="M28.0622 104.519L21.8152 113.783L31.7946 120.516L38.0417 111.252L28.0622 104.519Z" fill="white"/>
</mask>
<g mask="url(#mask19_2245_62322)">
<path d="M25.0878 114.309L24.3093 115.463L26.8052 117.147L27.5837 115.993L25.0878 114.309Z" fill="#FBFB79"/>
<path d="M30.0509 117.711L29.2725 118.866L31.7683 120.55L32.5468 119.395L30.0509 117.711Z" fill="#FBFB79"/>
<path d="M28.3644 114.834L27.5859 115.988L30.0818 117.672L30.8603 116.518L28.3644 114.834Z" fill="#5AE500"/>
<path d="M31.6132 115.4L30.8347 116.555L33.3306 118.239L34.1091 117.084L31.6132 115.4Z" fill="#FBFB79"/>
<path d="M33.1745 113.078L32.396 114.232L34.8919 115.916L35.6703 114.762L33.1745 113.078Z" fill="#FBFB79"/>
</g>
<mask id="mask20_2245_62322" style="mask-type:luminance" maskUnits="userSpaceOnUse" x="15" y="113" width="17" height="17">
<path d="M21.813 113.776L15.5659 123.04L25.5453 129.773L31.7924 120.509L21.813 113.776Z" fill="white"/>
</mask>
<g mask="url(#mask20_2245_62322)">
<path d="M18.841 123.571L18.0625 124.725L20.5584 126.409L21.3368 125.255L18.841 123.571Z" fill="#FBFB79"/>
<path d="M23.8083 126.976L23.0298 128.13L25.5257 129.814L26.3041 128.66L23.8083 126.976Z" fill="#FBFB79"/>
<path d="M20.4064 121.251L19.6279 122.406L22.1238 124.09L22.9023 122.935L20.4064 121.251Z" fill="#FBFB79"/>
<path d="M22.1181 124.096L21.3396 125.25L23.8355 126.934L24.614 125.78L22.1181 124.096Z" fill="#5AE500"/>
<path d="M17.1295 120.726L16.3511 121.88L18.8469 123.564L19.6254 122.41L17.1295 120.726Z" fill="#5AE500"/>
<path d="M25.3695 124.659L24.5911 125.813L27.0869 127.497L27.8654 126.342L25.3695 124.659Z" fill="#FBFB79"/>
<path d="M21.9643 118.937L21.1858 120.092L23.6817 121.776L24.4601 120.621L21.9643 118.937Z" fill="#FBFB79"/>
<path d="M23.6803 121.78L22.9019 122.935L25.3977 124.618L26.1762 123.464L23.6803 121.78Z" fill="#5AE500"/>
<path d="M18.692 118.415L17.9136 119.57L20.4094 121.254L21.1879 120.099L18.692 118.415Z" fill="#5AE500"/>
<path d="M26.9276 122.345L26.1492 123.5L28.645 125.183L29.4235 124.029L26.9276 122.345Z" fill="#FBFB79"/>
<path d="M23.5255 116.62L22.7471 117.774L25.2429 119.458L26.0214 118.304L23.5255 116.62Z" fill="#FBFB79"/>
<path d="M25.2411 119.462L24.4626 120.617L26.9585 122.301L27.737 121.146L25.2411 119.462Z" fill="#5AE500"/>
<path d="M20.2528 116.098L19.4744 117.252L21.9702 118.936L22.7487 117.781L20.2528 116.098Z" fill="#5AE500"/>
<path d="M28.4899 120.029L27.7114 121.184L30.2073 122.867L30.9858 121.713L28.4899 120.029Z" fill="#FBFB79"/>
<path d="M26.8036 117.152L26.0251 118.306L28.521 119.99L29.2995 118.836L26.8036 117.152Z" fill="#5AE500"/>
<path d="M21.8109 113.779L21.0325 114.934L23.5283 116.617L24.3068 115.463L21.8109 113.779Z" fill="#5AE500"/>
<path d="M30.0509 117.712L29.2725 118.866L31.7683 120.55L32.5468 119.396L30.0509 117.712Z" fill="#FBFB79"/>
</g>
<mask id="mask21_2245_62322" style="mask-type:luminance" maskUnits="userSpaceOnUse" x="9" y="123" width="17" height="17">
<path d="M15.5701 123.041L9.323 132.305L19.3024 139.037L25.5495 129.774L15.5701 123.041Z" fill="white"/>
</mask>
<g mask="url(#mask21_2245_62322)">
<path d="M17.5609 136.237L16.7825 137.392L19.2784 139.076L20.0568 137.921L17.5609 136.237Z" fill="#FBFB79"/>
<path d="M15.8695 133.359L15.0911 134.514L17.5869 136.198L18.3654 135.043L15.8695 133.359Z" fill="#5AE500"/>
<path d="M19.1217 133.919L18.3433 135.074L20.8391 136.758L21.6176 135.603L19.1217 133.919Z" fill="#FBFB79"/>
<path d="M15.7201 128.194L14.9417 129.349L17.4375 131.033L18.216 129.878L15.7201 128.194Z" fill="#FBFB79"/>
<path d="M17.4308 131.042L16.6523 132.196L19.1482 133.88L19.9267 132.726L17.4308 131.042Z" fill="#5AE500"/>
<path d="M20.6845 131.608L19.906 132.763L22.4019 134.447L23.1804 133.292L20.6845 131.608Z" fill="#FBFB79"/>
<path d="M17.2824 125.883L16.5039 127.038L18.9998 128.721L19.7783 127.567L17.2824 125.883Z" fill="#FBFB79"/>
<path d="M18.9933 128.726L18.2148 129.88L20.7107 131.564L21.4892 130.41L18.9933 128.726Z" fill="#5AE500"/>
<path d="M22.2455 129.286L21.467 130.44L23.9629 132.124L24.7414 130.969L22.2455 129.286Z" fill="#FBFB79"/>
<path d="M20.5592 126.409L19.7808 127.563L22.2766 129.247L23.0551 128.092L20.5592 126.409Z" fill="#5AE500"/>
<path d="M15.5683 123.048L14.7898 124.202L17.2857 125.886L18.0641 124.732L15.5683 123.048Z" fill="#5AE500"/>
<path d="M23.8083 126.975L23.0298 128.129L25.5257 129.813L26.3041 128.659L23.8083 126.975Z" fill="#FBFB79"/>
</g>
<mask id="mask22_2245_62322" style="mask-type:luminance" maskUnits="userSpaceOnUse" x="3" y="132" width="17" height="17">
<path d="M9.32323 132.302L3.07617 141.566L13.0556 148.299L19.3026 139.035L9.32323 132.302Z" fill="white"/>
</mask>
<g mask="url(#mask22_2245_62322)">
<path d="M17.5609 136.237L16.7825 137.391L19.2784 139.075L20.0568 137.921L17.5609 136.237Z" fill="#FBFB79"/>
</g>
<mask id="mask23_2245_62322" style="mask-type:luminance" maskUnits="userSpaceOnUse" x="5" y="107" width="17" height="17">
<path d="M11.8386 107.046L5.59155 116.31L15.571 123.042L21.818 113.779L11.8386 107.046Z" fill="white"/>
</mask>
<g mask="url(#mask23_2245_62322)">
<path d="M15.3896 117.928L14.6111 119.082L17.107 120.766L17.8854 119.612L15.3896 117.928Z" fill="#FBFB79"/>
<path d="M16.9484 115.614L16.1699 116.768L18.6658 118.452L19.4443 117.298L16.9484 115.614Z" fill="#FBFB79"/>
<path d="M18.5094 113.292L17.731 114.446L20.2268 116.13L21.0053 114.976L18.5094 113.292Z" fill="#FBFB79"/>
</g>
</g>
<path d="M45.1239 137.818C31.778 136.003 23.0612 128.524 18.9536 123.382" stroke="#5A4536" stroke-width="0.454509" stroke-miterlimit="10"/>
<path d="M77.4678 138.433C78.1073 139.835 77.5317 141.494 76.1543 142.187C73.7685 143.393 70.7678 144.633 67.2063 145.533C63.325 146.512 59.8274 146.822 56.9792 146.842C55.4247 146.857 54.1408 145.632 54.0818 144.077L53.7325 134.767C53.6735 133.183 54.9082 131.85 56.4971 131.79C58.5041 131.717 60.9588 131.402 63.6447 130.546C65.8584 129.842 67.7228 128.932 69.2281 128.031C70.694 127.16 72.5879 127.761 73.3012 129.311C74.6884 132.351 76.0805 135.392 77.4678 138.433Z" fill="#FCE29D"/>
<mask id="mask24_2245_62322" style="mask-type:luminance" maskUnits="userSpaceOnUse" x="53" y="127" width="25" height="20">
<path d="M77.4678 138.433C78.1073 139.835 77.5317 141.494 76.1543 142.187C73.7685 143.393 70.7678 144.633 67.2063 145.533C63.325 146.512 59.8274 146.822 56.9792 146.842C55.4247 146.857 54.1408 145.632 54.0818 144.077L53.7325 134.767C53.6735 133.183 54.9082 131.85 56.4971 131.79C58.5041 131.717 60.9588 131.402 63.6447 130.546C65.8584 129.842 67.7228 128.932 69.2281 128.031C70.694 127.16 72.5879 127.761 73.3012 129.311C74.6884 132.351 76.0805 135.392 77.4678 138.433Z" fill="white"/>
</mask>
<g mask="url(#mask24_2245_62322)">
<mask id="mask25_2245_62322" style="mask-type:luminance" maskUnits="userSpaceOnUse" x="71" y="139" width="14" height="16">
<path d="M81.9032 139.68L71.0635 142.384L73.9756 154.066L84.8153 151.363L81.9032 139.68Z" fill="white"/>
</mask>
<g mask="url(#mask25_2245_62322)">
<path d="M73.1455 144.965L71.7947 145.302L72.523 148.224L73.8738 147.887L73.1455 144.965Z" fill="#FBFB79"/>
<path d="M75.8523 144.285L74.5015 144.622L75.2298 147.544L76.5806 147.207L75.8523 144.285Z" fill="#FBFB79"/>
<path d="M73.7707 141.707L72.4199 142.044L73.1482 144.966L74.499 144.629L73.7707 141.707Z" fill="#5AE500"/>
<path d="M78.5603 143.616L77.2095 143.953L77.9378 146.875L79.2886 146.538L78.5603 143.616Z" fill="#FBFB79"/>
<path d="M76.4724 141.028L75.1216 141.365L75.8499 144.287L77.2007 143.95L76.4724 141.028Z" fill="#5AE500"/>
</g>
<mask id="mask26_2245_62322" style="mask-type:luminance" maskUnits="userSpaceOnUse" x="60" y="142" width="14" height="15">
<path d="M71.0626 142.38L60.2229 145.083L63.135 156.766L73.9747 154.063L71.0626 142.38Z" fill="white"/>
</mask>
<g mask="url(#mask26_2245_62322)">
<path d="M62.9299 144.412L61.5791 144.749L62.3074 147.671L63.6582 147.334L62.9299 144.412Z" fill="#5AE500"/>
<path d="M67.7199 146.315L66.3691 146.652L67.0975 149.574L68.4483 149.237L67.7199 146.315Z" fill="#FBFB79"/>
<path d="M65.6381 143.737L64.2874 144.074L65.0157 146.996L66.3665 146.659L65.6381 143.737Z" fill="#5AE500"/>
<path d="M70.4326 145.64L69.0818 145.977L69.8101 148.899L71.1609 148.562L70.4326 145.64Z" fill="#FBFB79"/>
<path d="M68.3449 143.058L66.9941 143.395L67.7225 146.316L69.0733 145.979L68.3449 143.058Z" fill="#5AE500"/>
<path d="M71.0581 142.382L69.7073 142.719L70.4356 145.641L71.7864 145.304L71.0581 142.382Z" fill="#5AE500"/>
</g>
<mask id="mask27_2245_62322" style="mask-type:luminance" maskUnits="userSpaceOnUse" x="49" y="145" width="15" height="15">
<path d="M60.2262 145.084L49.3865 147.788L52.2986 159.47L63.1383 156.767L60.2262 145.084Z" fill="white"/>
</mask>
<g mask="url(#mask27_2245_62322)">
<path d="M54.7966 146.438L53.4458 146.774L54.1741 149.696L55.5249 149.359L54.7966 146.438Z" fill="#5AE500"/>
<path d="M57.51 145.762L56.1592 146.099L56.8875 149.02L58.2383 148.684L57.51 145.762Z" fill="#5AE500"/>
<path d="M60.2211 145.082L58.8704 145.419L59.5987 148.341L60.9495 148.004L60.2211 145.082Z" fill="#5AE500"/>
</g>
<mask id="mask28_2245_62322" style="mask-type:luminance" maskUnits="userSpaceOnUse" x="68" y="127" width="14" height="16">
<path d="M78.9908 127.993L68.1511 130.696L71.0632 142.379L81.9029 139.676L78.9908 127.993Z" fill="white"/>
</mask>
<g mask="url(#mask28_2245_62322)">
<path d="M70.2295 133.287L68.8787 133.624L69.607 136.545L70.9578 136.209L70.2295 133.287Z" fill="#FBFB79"/>
<path d="M71.6369 139.135L70.2861 139.472L71.0145 142.394L72.3652 142.057L71.6369 139.135Z" fill="#FBFB79"/>
<path d="M72.9411 132.607L71.5903 132.944L72.3187 135.866L73.6694 135.529L72.9411 132.607Z" fill="#FBFB79"/>
<path d="M72.3122 135.866L70.9614 136.203L71.6897 139.124L73.0405 138.788L72.3122 135.866Z" fill="#5AE500"/>
<path d="M70.853 130.025L69.5022 130.362L70.2305 133.284L71.5813 132.947L70.853 130.025Z" fill="#5AE500"/>
<path d="M74.3498 138.46L72.999 138.797L73.7273 141.719L75.0781 141.382L74.3498 138.46Z" fill="#FBFB79"/>
<path d="M75.6489 131.933L74.2981 132.27L75.0264 135.192L76.3772 134.855L75.6489 131.933Z" fill="#FBFB79"/>
<path d="M75.0192 135.192L73.6685 135.529L74.3968 138.451L75.7476 138.114L75.0192 135.192Z" fill="#5AE500"/>
<path d="M73.5615 129.351L72.2107 129.688L72.939 132.609L74.2898 132.272L73.5615 129.351Z" fill="#5AE500"/>
<path d="M77.0563 137.78L75.7056 138.117L76.4339 141.039L77.7847 140.702L77.0563 137.78Z" fill="#FBFB79"/>
<path d="M78.3569 131.258L77.0061 131.595L77.7344 134.517L79.0852 134.18L78.3569 131.258Z" fill="#FBFB79"/>
<path d="M77.7272 134.517L76.3765 134.854L77.1048 137.776L78.4556 137.439L77.7272 134.517Z" fill="#5AE500"/>
<path d="M76.2741 128.675L74.9233 129.012L75.6517 131.934L77.0025 131.597L76.2741 128.675Z" fill="#5AE500"/>
<path d="M78.9809 127.996L77.6301 128.333L78.3584 131.254L79.7092 130.917L78.9809 127.996Z" fill="#5AE500"/>
</g>
<mask id="mask29_2245_62322" style="mask-type:luminance" maskUnits="userSpaceOnUse" x="57" y="130" width="15" height="16">
<path d="M68.152 130.702L57.3123 133.406L60.2243 145.088L71.0641 142.385L68.152 130.702Z" fill="white"/>
</mask>
<g mask="url(#mask29_2245_62322)">
<path d="M59.3935 135.987L58.0427 136.324L58.771 139.246L60.1218 138.909L59.3935 135.987Z" fill="#FBFB79"/>
<path d="M60.8012 141.835L59.4504 142.172L60.1788 145.094L61.5295 144.757L60.8012 141.835Z" fill="#FBFB79"/>
<path d="M62.1005 135.309L60.7498 135.646L61.4781 138.567L62.8289 138.23L62.1005 135.309Z" fill="#FBFB79"/>
<path d="M61.4765 138.571L60.1257 138.908L60.8541 141.83L62.2048 141.493L61.4765 138.571Z" fill="#5AE500"/>
<path d="M60.019 132.73L58.6682 133.066L59.3965 135.988L60.7473 135.651L60.019 132.73Z" fill="#5AE500"/>
<path d="M63.5092 141.165L62.1584 141.502L62.8868 144.424L64.2376 144.087L63.5092 141.165Z" fill="#FBFB79"/>
<path d="M64.8088 134.633L63.458 134.97L64.1863 137.892L65.5371 137.555L64.8088 134.633Z" fill="#FBFB79"/>
<path d="M64.1787 137.892L62.8279 138.229L63.5562 141.151L64.907 140.814L64.1787 137.892Z" fill="#5AE500"/>
<path d="M62.7258 132.051L61.375 132.388L62.1033 135.31L63.4541 134.973L62.7258 132.051Z" fill="#5AE500"/>
<path d="M66.2221 140.49L64.8713 140.827L65.5997 143.748L66.9504 143.412L66.2221 140.49Z" fill="#FBFB79"/>
<path d="M67.5214 133.959L66.1707 134.295L66.899 137.217L68.2498 136.88L67.5214 133.959Z" fill="#FBFB79"/>
<path d="M66.8913 137.217L65.5405 137.554L66.2688 140.476L67.6196 140.139L66.8913 137.217Z" fill="#5AE500"/>
<path d="M65.4333 131.376L64.0825 131.713L64.8108 134.635L66.1616 134.298L65.4333 131.376Z" fill="#5AE500"/>
<path d="M68.9292 139.811L67.5784 140.148L68.3067 143.07L69.6575 142.733L68.9292 139.811Z" fill="#FBFB79"/>
<path d="M69.5996 136.542L68.2488 136.878L68.9771 139.8L70.3279 139.463L69.5996 136.542Z" fill="#5AE500"/>
<path d="M68.146 130.7L66.7952 131.037L67.5235 133.959L68.8743 133.622L68.146 130.7Z" fill="#5AE500"/>
<path d="M71.6372 139.136L70.2864 139.473L71.0147 142.394L72.3655 142.058L71.6372 139.136Z" fill="#FBFB79"/>
</g>
<mask id="mask30_2245_62322" style="mask-type:luminance" maskUnits="userSpaceOnUse" x="46" y="133" width="15" height="15">
<path d="M57.3158 133.402L46.4761 136.105L49.3882 147.788L60.2279 145.085L57.3158 133.402Z" fill="white"/>
</mask>
<g mask="url(#mask30_2245_62322)">
<path d="M53.9726 137.337L52.6218 137.674L53.3501 140.596L54.7009 140.259L53.9726 137.337Z" fill="#FBFB79"/>
<path d="M53.3442 140.596L51.9934 140.933L52.7217 143.855L54.0725 143.518L53.3442 140.596Z" fill="#5AE500"/>
<path d="M55.3864 143.189L54.0356 143.526L54.764 146.448L56.1148 146.111L55.3864 143.189Z" fill="#FBFB79"/>
<path d="M56.6853 136.662L55.3345 136.999L56.0628 139.921L57.4136 139.584L56.6853 136.662Z" fill="#FBFB79"/>
<path d="M56.0505 139.916L54.6997 140.253L55.428 143.175L56.7788 142.838L56.0505 139.916Z" fill="#5AE500"/>
<path d="M54.5979 134.08L53.2471 134.417L53.9754 137.338L55.3262 137.001L54.5979 134.08Z" fill="#5AE500"/>
<path d="M58.0893 142.515L56.7385 142.852L57.4669 145.774L58.8176 145.437L58.0893 142.515Z" fill="#FBFB79"/>
<path d="M58.7634 139.246L57.4126 139.583L58.1409 142.504L59.4917 142.167L58.7634 139.246Z" fill="#5AE500"/>
<path d="M57.3059 133.404L55.9551 133.741L56.6834 136.663L58.0342 136.326L57.3059 133.404Z" fill="#5AE500"/>
<path d="M60.801 141.835L59.4502 142.172L60.1785 145.094L61.5293 144.757L60.801 141.835Z" fill="#FBFB79"/>
</g>
<mask id="mask31_2245_62322" style="mask-type:luminance" maskUnits="userSpaceOnUse" x="65" y="116" width="14" height="15">
<path d="M76.0751 116.311L65.2354 119.014L68.1474 130.697L78.9872 127.993L76.0751 116.311Z" fill="white"/>
</mask>
<g mask="url(#mask31_2245_62322)">
<path d="M68.726 127.453L67.3752 127.79L68.1036 130.711L69.4544 130.375L68.726 127.453Z" fill="#FBFB79"/>
<path d="M71.4377 126.778L70.0869 127.115L70.8152 130.037L72.166 129.7L71.4377 126.778Z" fill="#FBFB79"/>
<path d="M74.1457 126.103L72.7949 126.439L73.5232 129.361L74.874 129.024L74.1457 126.103Z" fill="#FBFB79"/>
<path d="M76.8586 125.428L75.5078 125.765L76.2361 128.686L77.5869 128.35L76.8586 125.428Z" fill="#FBFB79"/>
</g>
<mask id="mask32_2245_62322" style="mask-type:luminance" maskUnits="userSpaceOnUse" x="54" y="119" width="15" height="15">
<path d="M65.2406 119.02L54.4009 121.723L57.313 133.406L68.1527 130.702L65.2406 119.02Z" fill="white"/>
</mask>
<g mask="url(#mask32_2245_62322)">
<path d="M57.8903 130.158L56.5396 130.495L57.2679 133.416L58.6187 133.08L57.8903 130.158Z" fill="#FBFB79"/>
<path d="M58.561 126.889L57.2102 127.226L57.9385 130.147L59.2893 129.811L58.561 126.889Z" fill="#5AE500"/>
<path d="M60.5986 129.482L59.2478 129.819L59.9761 132.741L61.3269 132.404L60.5986 129.482Z" fill="#FBFB79"/>
<path d="M61.2678 126.21L59.917 126.547L60.6453 129.469L61.9961 129.132L61.2678 126.21Z" fill="#5AE500"/>
<path d="M63.31 128.803L61.9592 129.14L62.6875 132.061L64.0383 131.725L63.31 128.803Z" fill="#FBFB79"/>
<path d="M63.9804 125.535L62.6296 125.872L63.358 128.793L64.7087 128.457L63.9804 125.535Z" fill="#5AE500"/>
<path d="M66.0131 128.129L64.6624 128.466L65.3907 131.388L66.7415 131.051L66.0131 128.129Z" fill="#FBFB79"/>
<path d="M66.6884 124.864L65.3376 125.201L66.066 128.123L67.4168 127.786L66.6884 124.864Z" fill="#5AE500"/>
<path d="M68.7263 127.453L67.3755 127.79L68.1038 130.712L69.4546 130.375L68.7263 127.453Z" fill="#FBFB79"/>
</g>
<mask id="mask33_2245_62322" style="mask-type:luminance" maskUnits="userSpaceOnUse" x="43" y="121" width="15" height="16">
<path d="M54.4054 121.72L43.5657 124.423L46.4778 136.105L57.3175 133.402L54.4054 121.72Z" fill="white"/>
</mask>
<g mask="url(#mask33_2245_62322)">
<path d="M53.77 124.98L52.4192 125.317L53.1475 128.239L54.4983 127.902L53.77 124.98Z" fill="#FBFB79"/>
<path d="M53.1403 128.239L51.7896 128.576L52.5179 131.498L53.8687 131.161L53.1403 128.239Z" fill="#5AE500"/>
<path d="M55.1779 130.833L53.8271 131.17L54.5555 134.092L55.9063 133.755L55.1779 130.833Z" fill="#FBFB79"/>
<path d="M55.8532 127.564L54.5024 127.9L55.2308 130.822L56.5816 130.485L55.8532 127.564Z" fill="#5AE500"/>
<path d="M57.8908 130.158L56.54 130.495L57.2684 133.416L58.6191 133.08L57.8908 130.158Z" fill="#FBFB79"/>
</g>
</g>
<path d="M77.468 138.433C78.1075 139.835 77.5319 141.494 76.1546 142.187C73.7687 143.393 70.768 144.633 67.2065 145.533C63.3252 146.512 59.8277 146.822 56.9794 146.842C55.4249 146.857 54.141 145.632 54.082 144.077L53.8557 138.118" stroke="#5A4536" stroke-width="0.454509" stroke-miterlimit="10"/>
<path d="M56.6353 136.642L58.8096 145.45L73.7984 141.705L71.5848 132.947L56.6353 136.642Z" fill="#FBFB7A"/>
<path d="M63.261 138.136L62.9712 136.996L63.5705 136.844C63.6147 136.834 63.6589 136.824 63.7031 136.824C63.7424 136.824 63.7817 136.824 63.8161 136.834C63.8505 136.844 63.8848 136.859 63.9094 136.878C63.9389 136.898 63.9634 136.922 63.9831 136.957C64.0027 136.986 64.0175 137.026 64.0322 137.065C64.0518 137.134 64.0469 137.198 64.0224 137.257C63.9978 137.316 63.9536 137.36 63.8947 137.394V137.404C63.9438 137.404 63.9831 137.404 64.0175 137.414C64.0469 137.424 64.0764 137.443 64.0961 137.473C64.1157 137.497 64.1304 137.532 64.1452 137.576L64.1894 137.758C64.1894 137.758 64.1992 137.802 64.209 137.822C64.2139 137.841 64.2287 137.866 64.2434 137.885L63.9585 137.959C63.9585 137.959 63.9389 137.93 63.929 137.91C63.9192 137.89 63.9143 137.861 63.9045 137.831L63.8701 137.699C63.8603 137.669 63.8505 137.645 63.8406 137.63C63.8259 137.61 63.8062 137.601 63.7817 137.596C63.7571 137.591 63.7227 137.596 63.6785 137.605L63.4182 137.669L63.3642 137.448L63.6392 137.379C63.6982 137.365 63.7375 137.34 63.7522 137.306C63.7719 137.271 63.7719 137.232 63.762 137.193C63.7571 137.168 63.7473 137.148 63.7326 137.129C63.7227 137.114 63.708 137.104 63.6884 137.094C63.6687 137.09 63.654 137.085 63.6294 137.085C63.6098 137.085 63.5852 137.085 63.5606 137.094L63.3101 137.158L63.541 138.067L63.261 138.136Z" fill="black"/>
<path d="M64.4068 137.846L64.1562 136.859L64.4362 136.79L64.6868 137.778L64.4068 137.846Z" fill="black"/>
<path d="M65.3114 137.635C65.2082 137.659 65.1149 137.669 65.0363 137.654C64.9577 137.64 64.8939 137.61 64.8398 137.566C64.7907 137.517 64.7514 137.458 64.7367 137.384L65.0216 137.31C65.0314 137.345 65.0461 137.369 65.0658 137.389C65.0854 137.409 65.1149 137.423 65.1493 137.428C65.1837 137.433 65.223 137.428 65.2721 137.419C65.3065 137.409 65.3409 137.399 65.3654 137.384C65.39 137.369 65.4047 137.35 65.4194 137.33C65.4293 137.31 65.4293 137.281 65.4194 137.251C65.4145 137.232 65.4047 137.212 65.3949 137.202C65.3851 137.193 65.3654 137.183 65.3458 137.178C65.3261 137.178 65.2966 137.173 65.2623 137.173C65.2279 137.173 65.1837 137.173 65.1345 137.183C65.0658 137.188 65.0068 137.188 64.9479 137.183C64.8939 137.178 64.8447 137.163 64.8054 137.148C64.7661 137.129 64.7318 137.104 64.7072 137.07C64.6826 137.035 64.663 136.996 64.6482 136.947C64.6286 136.873 64.6335 136.804 64.6532 136.74C64.6777 136.677 64.717 136.623 64.7809 136.578C64.8398 136.534 64.9184 136.5 65.0167 136.475C65.1149 136.451 65.1886 136.446 65.2623 136.46C65.3359 136.47 65.3998 136.5 65.4489 136.539C65.498 136.583 65.5324 136.637 65.5521 136.701L65.2672 136.775C65.2573 136.741 65.2426 136.721 65.223 136.706C65.2033 136.691 65.1788 136.682 65.1493 136.682C65.1198 136.682 65.0903 136.682 65.0658 136.691C65.0314 136.701 65.0068 136.711 64.9823 136.726C64.9626 136.741 64.943 136.755 64.9381 136.775C64.9282 136.795 64.9282 136.819 64.9381 136.844C64.9479 136.868 64.9577 136.888 64.9724 136.898C64.9921 136.908 65.0216 136.917 65.0609 136.917C65.1002 136.917 65.1591 136.917 65.2279 136.908C65.277 136.908 65.3261 136.903 65.3752 136.903C65.4244 136.903 65.4686 136.912 65.5128 136.927C65.557 136.942 65.5963 136.971 65.6307 137.006C65.6651 137.045 65.6896 137.099 65.7093 137.168C65.7289 137.237 65.724 137.306 65.7043 137.364C65.6798 137.428 65.6405 137.482 65.5766 137.532C65.5128 137.581 65.4293 137.615 65.3212 137.645L65.3114 137.635Z" fill="black"/>
<path d="M65.9368 137.457L65.647 136.317L66.4919 136.101L66.5508 136.342L65.927 136.499L65.9712 136.425L66.1677 137.207L66.094 137.162L66.7178 137.005L66.7768 137.246L65.927 137.462L65.9368 137.457ZM66.0399 136.936L65.981 136.715L66.5262 136.578L66.5852 136.799L66.0399 136.936Z" fill="black"/>
<path d="M63.6245 139.578L63.3347 138.438L63.9094 138.29C64.0273 138.261 64.1207 138.266 64.1943 138.305C64.268 138.344 64.3122 138.408 64.3368 138.497C64.3466 138.541 64.3515 138.58 64.3368 138.615C64.327 138.654 64.3122 138.688 64.2926 138.718C64.268 138.747 64.2385 138.772 64.1992 138.792V138.801C64.2533 138.797 64.3024 138.801 64.3417 138.816C64.381 138.831 64.4154 138.855 64.4399 138.89C64.4645 138.919 64.4841 138.959 64.494 139.003C64.5136 139.077 64.5136 139.14 64.494 139.199C64.4743 139.258 64.435 139.307 64.381 139.347C64.327 139.386 64.2533 139.416 64.1649 139.44L63.6245 139.578ZM63.8456 139.298L64.0814 139.239C64.1403 139.224 64.1796 139.199 64.1992 139.17C64.2189 139.14 64.2238 139.106 64.214 139.062C64.2042 139.013 64.1796 138.983 64.1452 138.968C64.1108 138.954 64.0715 138.954 64.0224 138.968L63.7572 139.037L63.7031 138.831L63.9586 138.767C63.9929 138.757 64.0175 138.747 64.0371 138.733C64.0568 138.718 64.0666 138.698 64.0715 138.679C64.0764 138.659 64.0715 138.634 64.0715 138.61C64.0617 138.57 64.0421 138.541 64.0077 138.531C63.9782 138.516 63.9389 138.516 63.8947 138.531L63.6687 138.59L63.8505 139.303L63.8456 139.298Z" fill="black"/>
<path d="M65.0311 139.224L64.923 138.796L64.3188 138.192L64.6381 138.114L64.8592 138.364L64.9967 138.526H65.0065L65.0507 138.315L65.1293 137.991L65.4486 137.912L65.2079 138.733L65.316 139.16L65.036 139.229L65.0311 139.224Z" fill="black"/>
<path d="M66.1333 138.943L65.8435 137.803L66.1235 137.735L66.4133 138.874L66.1333 138.943ZM66.2414 138.427L66.1824 138.187L66.7768 138.034L66.8357 138.275L66.2414 138.427ZM66.8947 138.752L66.6049 137.612L66.8849 137.543L67.1747 138.683L66.8947 138.752Z" fill="black"/>
<path d="M67.2996 138.648L67.3782 137.415L67.776 137.312L68.4293 138.358L68.1395 138.432L67.7122 137.709L67.6336 137.572H67.6238V137.734L67.5943 138.574L67.3045 138.648H67.2996ZM67.5796 138.343V138.112L67.9234 138.029L68.0364 138.225L67.5746 138.343H67.5796Z" fill="black"/>
<path d="M68.5535 138.328L68.2637 137.188L68.7401 137.066C68.8384 137.041 68.9219 137.036 68.9956 137.051C69.0692 137.066 69.1282 137.1 69.1773 137.144C69.2215 137.193 69.2559 137.257 69.2756 137.331C69.2952 137.414 69.2952 137.488 69.2756 137.552C69.251 137.621 69.2117 137.675 69.1528 137.724C69.0938 137.773 69.0201 137.807 68.9366 137.827L68.7156 137.881L68.6615 137.665L68.858 137.616C68.9219 137.601 68.9612 137.572 68.9808 137.537C69.0005 137.498 69.0054 137.459 68.9956 137.414C68.9808 137.36 68.9563 137.326 68.917 137.311C68.8777 137.296 68.8335 137.296 68.7794 137.311L68.5731 137.365L68.5977 137.326L68.8335 138.259L68.5535 138.328Z" fill="black"/>
<path d="M69.6116 138.063L69.3218 136.923L69.7983 136.8C69.8965 136.775 69.98 136.77 70.0537 136.785C70.1274 136.8 70.1863 136.834 70.2354 136.879C70.2796 136.928 70.314 136.992 70.3337 137.065C70.3533 137.149 70.3533 137.222 70.3337 137.286C70.3091 137.355 70.2698 137.409 70.2109 137.458C70.1519 137.507 70.0782 137.542 69.9947 137.561L69.7737 137.615L69.7197 137.399L69.9161 137.35C69.98 137.335 70.0193 137.306 70.0389 137.272C70.0586 137.232 70.0635 137.193 70.0537 137.149C70.0389 137.095 70.0144 137.06 69.9751 137.046C69.9358 137.031 69.8916 137.031 69.8375 137.046L69.6312 137.1L69.6558 137.06L69.8916 137.994L69.6116 138.063Z" fill="black"/>
<path d="M70.9735 137.718L70.8654 137.291L70.2612 136.686L70.5805 136.608L70.8016 136.858L70.9391 137.02H70.9489L70.9931 136.809L71.0717 136.485L71.391 136.406L71.1503 137.227L71.2584 137.654L70.9784 137.723L70.9735 137.718Z" fill="black"/>
<path d="M63.9937 141.024L63.7039 139.884L63.9838 139.816L64.2737 140.956L63.9937 141.024ZM64.1017 140.504L64.0428 140.263L64.6372 140.11L64.6961 140.351L64.1017 140.504ZM64.755 140.828L64.4652 139.688L64.7452 139.619L65.035 140.759L64.755 140.828Z" fill="black"/>
<path d="M65.7689 140.587C65.6804 140.611 65.5969 140.616 65.5233 140.607C65.4447 140.597 65.3759 140.577 65.312 140.538C65.2482 140.503 65.1941 140.449 65.1499 140.385C65.1057 140.322 65.0713 140.238 65.0468 140.145C65.0222 140.051 65.0173 139.963 65.0222 139.884C65.032 139.806 65.0566 139.732 65.091 139.673C65.1303 139.609 65.1794 139.555 65.2433 139.516C65.3071 139.472 65.3808 139.437 65.4692 139.418C65.5576 139.398 65.6362 139.388 65.7148 139.398C65.7934 139.408 65.8622 139.427 65.926 139.467C65.9899 139.506 66.0439 139.555 66.0881 139.619C66.1324 139.683 66.1667 139.761 66.1913 139.855C66.2159 139.948 66.2208 140.037 66.2159 140.115C66.206 140.194 66.1815 140.268 66.1471 140.327C66.1078 140.39 66.0587 140.444 65.9948 140.484C65.931 140.528 65.8573 140.562 65.7689 140.582V140.587ZM65.7099 140.351C65.7689 140.336 65.818 140.312 65.8524 140.272C65.8917 140.238 65.9113 140.189 65.926 140.135C65.9359 140.076 65.931 140.012 65.9113 139.929C65.8966 139.87 65.8769 139.82 65.8524 139.781C65.8278 139.742 65.7983 139.712 65.7689 139.688C65.7345 139.668 65.7001 139.653 65.6608 139.648C65.6215 139.644 65.5822 139.648 65.538 139.658C65.479 139.673 65.4299 139.698 65.3955 139.732C65.3562 139.766 65.3366 139.816 65.3219 139.87C65.312 139.929 65.3169 139.992 65.3366 140.076C65.3513 140.135 65.371 140.184 65.3955 140.228C65.4201 140.268 65.4496 140.302 65.484 140.322C65.5183 140.341 65.5527 140.356 65.592 140.361C65.6313 140.361 65.6706 140.361 65.7148 140.351H65.7099Z" fill="black"/>
<path d="M66.4931 140.392L66.2029 139.25L66.6407 139.137L66.8768 139.56L67.0047 139.831H67.0195L67.0047 139.531V139.044L67.4474 138.931L67.7377 140.072L67.4671 140.141L67.3392 139.629L67.2556 139.26H67.2408V139.629V140.2L67.0047 140.259L66.7243 139.757L66.5521 139.437H66.5374L66.6358 139.806L66.7637 140.313L66.4882 140.382L66.4931 140.392Z" fill="black"/>
<path d="M67.9341 140.021L67.6443 138.881L68.4892 138.665L68.5481 138.905L67.9243 139.063L67.9685 138.989L68.165 139.77L68.0913 139.726L68.7151 139.569L68.7741 139.809L67.9243 140.026L67.9341 140.021ZM68.0373 139.5L67.9783 139.279L68.5236 139.141L68.5825 139.362L68.0373 139.5Z" fill="black"/>
<path d="M64.2192 136.739C64.3382 136.739 64.4347 136.642 64.4347 136.523C64.4347 136.404 64.3382 136.308 64.2192 136.308C64.1002 136.308 64.0037 136.404 64.0037 136.523C64.0037 136.642 64.1002 136.739 64.2192 136.739Z" fill="black"/>
<path d="M62.6216 138.079L62.8819 139.096C62.9261 138.919 62.9261 138.733 62.8819 138.556C62.8377 138.379 62.7493 138.217 62.6265 138.079H62.6216Z" fill="black"/>
<path d="M62.6561 138.616C62.5627 138.242 62.356 137.922 62.0806 137.686L62.1888 138.114C62.0707 137.951 61.9182 137.809 61.751 137.7L61.8002 137.892C61.4509 137.617 60.9787 137.504 60.5113 137.622L58.4846 138.138L59.5029 142.163L60.6491 141.873L60.3588 140.736L60.7622 140.633L61.9084 141.553L63.1825 141.228L61.874 140.175C62.0363 140.028 62.1593 139.851 62.2478 139.654L62.297 139.846C62.3954 139.669 62.4594 139.477 62.4839 139.275L62.5922 139.703C62.7201 139.363 62.7496 138.985 62.6512 138.611L62.6561 138.616ZM60.7721 139.865C60.3736 139.969 59.9653 139.723 59.862 139.324C59.7587 138.926 60.0047 138.517 60.4031 138.414C60.8016 138.31 61.2099 138.557 61.3132 138.955C61.4165 139.354 61.1705 139.762 60.7721 139.865Z" fill="black"/>
</g>
<path d="M22.9069 66.5748V66.4157C22.9562 62.727 24.7077 59.4479 27.3965 57.3341L27.5124 57.2432L27.5488 57.2204C27.8667 56.9783 28.2196 56.7314 28.6059 56.5044C29.6549 55.8735 30.8182 55.4002 32.0475 55.12L32.684 54.9927C33.3256 54.8841 33.983 54.829 34.6504 54.829C35.1367 54.829 35.6084 54.8684 36.0643 54.9245C36.5143 54.8631 36.9775 54.829 37.451 54.829C38.6374 54.8291 39.7774 55.0356 40.8381 55.4064C42.079 55.6332 43.2599 56.0266 44.3571 56.5657L68.117 24.7564C70.1508 22.0327 74.0612 21.6374 76.5939 23.8471L76.8348 24.0676L84.5161 31.5556L173.741 0.685059L176.409 36.6386L177.244 36.4067L203.09 29.1482L201.636 90.7007L187.466 92.3556L187.46 92.3306L122.229 99.8323L122.227 99.8277C119.768 100.179 117.453 98.5035 117.057 96.0223L117.032 95.8723L84.8548 107.457C84.9336 108.139 84.9625 108.828 84.9412 109.507C84.8681 111.831 84.2321 114.373 82.8316 116.243L82.8112 116.27L82.7907 116.295L82.5793 116.561L82.552 116.595L82.5247 116.627C81.7952 117.478 80.8646 118.081 79.8628 118.432L79.4309 118.568C78.9416 118.702 78.2635 118.914 77.4691 119.18C78.7174 120.751 81.5586 122.989 86.8303 122.124L87.1235 122.09C88.4916 121.989 89.7946 122.801 90.2788 124.115L90.3697 124.404L90.3765 124.424L90.3811 124.445C90.4221 124.613 90.4559 124.805 90.4947 125.011L90.5197 125.079L90.5493 125.265C90.5629 125.35 90.569 125.444 90.5788 125.543C90.7036 124.618 90.923 123.416 91.3108 122.117C92.1107 119.436 93.7407 115.956 97.1189 113.883L97.9396 113.378L98.8784 113.604L98.3351 115.868C98.8369 113.774 98.8764 113.617 98.8807 113.606L98.9102 113.613C98.9238 113.616 98.9413 113.619 98.9602 113.624C98.9984 113.634 99.0471 113.648 99.1057 113.665C99.2241 113.699 99.3841 113.749 99.5763 113.815C99.9597 113.947 100.482 114.148 101.083 114.445C102.28 115.035 103.838 116.018 105.239 117.589C108.001 120.685 109.775 125.631 107.944 133.115L108.174 133.344L107.449 134.836L105.355 133.817L105.35 133.813C109.773 118.609 98.3351 115.868 98.3351 115.868C93.0022 119.139 92.7489 127.189 92.7429 127.407C92.3201 127.692 91.8771 127.957 91.4199 128.189C90.3997 128.714 89.2946 129.103 88.1374 129.334C88.3024 128.416 88.3536 126.273 88.251 125.636L88.2488 125.629C88.2094 125.393 88.1634 125.176 88.1192 124.995C88.0159 124.601 87.622 124.351 87.219 124.42C79.2459 125.733 75.5893 121.011 74.6934 119.146C74.5655 118.875 74.2998 118.692 74.0047 118.682C73.8918 118.677 73.7788 118.663 73.6659 118.639V118.643L73.2863 118.521C73.1518 118.466 73.0334 118.402 72.9362 118.348C75.2716 117.438 77.5578 116.667 78.8171 116.322C79.5669 116.118 80.2474 115.707 80.7562 115.113L80.9676 114.847C81.9937 113.477 82.5523 111.452 82.6157 109.434C82.653 108.243 82.5107 107.036 82.186 105.947L118.887 92.7329L119.356 95.654C119.552 96.894 120.728 97.7319 121.963 97.5204L189.278 89.78L189.283 89.8005L199.355 88.6229L200.69 32.2398L177.873 38.6481L177.892 38.7368L174.309 39.7597L171.642 3.87441L83.9228 34.2267L75.2095 25.7361C73.6993 24.265 71.2403 24.4622 69.981 26.1498L44.9754 59.6301C44.9123 59.5881 44.8736 59.5682 44.8686 59.5641L44.8709 59.5687C43.5155 58.6082 41.9388 57.9411 40.2312 57.6592C39.3657 57.3358 38.4293 57.1569 37.451 57.1568C36.9918 57.1568 36.5409 57.1979 36.103 57.2727C35.6296 57.1994 35.1445 57.1568 34.6504 57.1568C33.9326 57.1568 33.2345 57.2363 32.5658 57.3887C31.5722 57.615 30.6318 57.9999 29.7857 58.5116C29.4761 58.6935 29.1815 58.9001 28.9014 59.1163C28.8817 59.1311 28.8601 59.1493 28.8355 59.1641C26.6761 60.8616 25.274 63.4905 25.2346 66.4475V66.5748C25.2346 67.9573 25.5302 69.2763 26.0712 70.462C26.2532 70.8655 26.4648 71.2547 26.7009 71.6237L26.7032 71.6259C19.525 74.225 13.6407 79.6948 11.1474 85.5722C9.41318 89.6662 8.18438 95.8034 9.97669 101.96C9.96758 101.963 9.95787 101.967 9.94941 101.969C8.36833 102.015 6.7908 102.568 5.48023 103.656C2.66161 105.998 2.03709 110.002 3.85714 113.058C4.18181 113.599 4.65421 114.032 5.20517 114.342C8.36179 116.124 14.394 121.582 18.4672 123.199C18.4951 123.395 18.531 123.591 18.565 123.788C18.5672 128.048 20.3864 134.052 24.3822 139.343C22.5498 143.279 20.8174 151.249 21.3247 156.068C21.3502 156.309 21.2219 156.507 21.0292 156.661C20.8685 156.649 20.7437 156.643 20.6541 156.643C20.6011 156.642 20.5597 156.644 20.5313 156.645C20.5175 156.645 20.5052 156.647 20.4972 156.647H20.4836L20.504 156.909C20.5047 156.916 20.5035 156.924 20.504 156.931C20.4189 156.959 20.3338 156.983 20.2517 156.997C19.8684 157.061 19.5491 157.155 19.2788 157.263C18.349 157.642 17.1826 158.937 17.9057 160.309C18.6344 161.682 25.9689 164.904 33.9866 165.711V165.706C35.2599 165.844 35.3692 165.726 35.6984 165.117C36.9675 162.775 40.6334 155.069 42.3453 150.71L41.8611 150.334C47.4625 151.835 54.5114 152.712 62.2679 151.848C64.0227 154.576 66.9774 157.117 71.5496 159.073C71.7716 159.168 71.9218 159.352 72.0133 159.571C71.9599 159.704 71.9209 159.81 71.8951 159.889C71.8787 159.939 71.8664 159.978 71.8587 160.005C71.855 160.018 71.8516 160.029 71.8496 160.037L71.8474 160.048V160.053C71.8558 160.055 71.8984 160.063 72.102 160.112C72.1073 160.113 72.1128 160.113 72.1179 160.114C72.1191 160.203 72.119 160.291 72.1065 160.378C72.0524 160.761 72.0414 161.097 72.061 161.387C72.1399 162.386 73.0115 163.892 74.5411 163.626C76.071 163.355 81.3895 157.356 84.6116 149.971L84.6048 149.975C85.1211 148.805 84.935 148.756 84.5661 148.166C84.1415 147.485 83.4755 146.539 82.618 145.452C86.6937 143.258 90.7936 140.443 94.8275 136.868C94.93 136.775 95.0078 136.701 95.0571 136.652C95.6711 136.917 96.2459 137.114 96.7961 137.261C102.891 138.875 105.355 133.817 105.355 133.817C107.448 134.837 107.446 134.84 107.446 134.84L107.442 134.847L107.437 134.858C107.433 134.867 107.427 134.877 107.421 134.888C107.41 134.91 107.397 134.936 107.38 134.967C107.347 135.03 107.3 135.112 107.244 135.208C107.131 135.401 106.97 135.659 106.757 135.952C106.335 136.533 105.687 137.291 104.782 137.989C102.9 139.44 100.026 140.524 96.2005 139.512L96.1937 139.509C95.9805 139.452 95.7662 139.386 95.5481 139.316C93.6702 140.931 91.7805 142.395 89.8809 143.713L86.7461 150.9C85.0466 154.796 82.8025 158.31 80.7744 160.9C79.7611 162.195 78.7723 163.296 77.8987 164.115C77.464 164.522 77.0231 164.893 76.5961 165.186C76.2281 165.438 75.6406 165.795 74.9458 165.918L74.939 165.92C73.2268 166.217 71.8614 165.471 71.0222 164.533C70.3475 163.779 69.9316 162.835 69.7855 161.951L69.5196 160.707C65.7999 158.948 63.0521 156.758 61.1518 154.297C54.7494 154.855 48.8492 154.29 43.8388 153.203C41.9455 157.719 38.9083 164.073 37.7443 166.222C37.649 166.398 37.2528 167.246 36.3144 167.729C35.419 168.19 33.7525 168.027 33.7525 168.027C29.5241 167.601 25.4948 166.542 22.409 165.406C20.8673 164.838 19.5161 164.236 18.4695 163.656C17.9487 163.367 17.4626 163.06 17.0533 162.744C16.7003 162.471 16.1811 162.023 15.8507 161.401L15.8462 161.394C15.0359 159.855 15.3265 158.325 15.9621 157.238C16.4714 156.368 17.9579 155.181 17.9579 155.181L18.9128 154.319C18.9022 151.997 19.2146 149.384 19.6902 146.931C20.198 144.314 20.9231 141.712 21.7293 139.648C18.2618 134.639 16.4909 129.116 16.2622 124.738C14.2347 123.698 12.0375 122.133 10.1063 120.701C7.56494 118.815 5.47208 117.166 4.06173 116.37C3.20348 115.887 2.4175 115.183 1.86124 114.256L1.85669 114.249C-0.541118 110.223 0.281079 104.949 3.99353 101.865C4.95815 101.064 6.03615 100.49 7.16015 100.123C6.10078 94.196 7.35491 88.5554 9.00374 84.6629C11.4901 78.8019 16.9018 73.4636 23.5479 70.4075C23.1306 69.1993 22.9069 67.9078 22.9069 66.5748ZM86.0437 146.177C86.0499 146.186 86.0558 146.195 86.0619 146.204L86.6007 145.845C86.4155 145.957 86.229 146.067 86.0437 146.177ZM46.0939 57.9433L46.3326 57.7547C46.3075 57.7344 46.2849 57.716 46.2666 57.7024L46.2598 57.6955L46.0939 57.9433Z" fill="#5AE500"/>
<path d="M98.3351 115.868L98.8784 113.604L97.9396 113.378L97.1189 113.883C93.7407 115.956 92.1107 119.436 91.3108 122.117C90.923 123.416 90.7036 124.618 90.5788 125.543C90.569 125.444 90.5629 125.35 90.5493 125.265L90.5197 125.079L90.4947 125.011C90.4559 124.805 90.4221 124.613 90.3811 124.445L90.3765 124.424L90.3697 124.404L90.2788 124.115C89.7946 122.801 88.4916 121.989 87.1235 122.09L86.8303 122.124C81.5586 122.989 78.7174 120.751 77.4691 119.18C78.2635 118.914 78.9416 118.702 79.4309 118.568L79.8628 118.432C80.8646 118.081 81.7952 117.478 82.5248 116.627L82.552 116.595L82.5793 116.561L82.7907 116.295L82.8112 116.27L82.8316 116.243C84.2321 114.373 84.8681 111.831 84.9412 109.507C84.9625 108.828 84.9336 108.139 84.8548 107.457L117.032 95.8723L117.057 96.0223C117.453 98.5035 119.768 100.179 122.227 99.8277L122.229 99.8323L187.46 92.3306L187.466 92.3556L201.636 90.7007L203.09 29.1482L177.244 36.4067L176.409 36.6386L173.741 0.685059L84.5161 31.5556L76.8348 24.0676L76.5939 23.8471C74.0612 21.6374 70.1508 22.0327 68.117 24.7564L44.3571 56.5657C43.2599 56.0266 42.079 55.6332 40.8381 55.4064C39.7774 55.0356 38.6374 54.8291 37.451 54.829C36.9775 54.829 36.5143 54.8631 36.0643 54.9245C35.6084 54.8684 35.1367 54.829 34.6504 54.829C33.983 54.829 33.3256 54.8841 32.684 54.9927L32.0475 55.12C30.8182 55.4002 29.6549 55.8735 28.6059 56.5044C28.2196 56.7314 27.8667 56.9783 27.5488 57.2204L27.5124 57.2432L27.3965 57.3341C24.7077 59.4479 22.9562 62.727 22.9069 66.4157V66.5748C22.9069 67.9078 23.1306 69.1993 23.5479 70.4075C16.9018 73.4636 11.4901 78.8019 9.00374 84.6629C7.35491 88.5554 6.10078 94.196 7.16015 100.123C6.03615 100.49 4.95815 101.064 3.99353 101.865C0.281079 104.949 -0.541118 110.223 1.85669 114.249L1.86124 114.256C2.4175 115.183 3.20348 115.887 4.06173 116.37C5.47208 117.166 7.56494 118.815 10.1063 120.701C12.0375 122.133 14.2347 123.698 16.2622 124.738C16.4909 129.116 18.2618 134.639 21.7293 139.648C20.9231 141.712 20.198 144.314 19.6902 146.931C19.2146 149.384 18.9022 151.997 18.9128 154.319L17.9579 155.181C17.9579 155.181 16.4714 156.368 15.9621 157.238C15.3265 158.325 15.0359 159.855 15.8462 161.394L15.8507 161.401C16.1811 162.023 16.7003 162.471 17.0533 162.744C17.4626 163.06 17.9487 163.367 18.4695 163.656C19.5161 164.236 20.8673 164.838 22.409 165.406C25.4948 166.542 29.5241 167.601 33.7525 168.027C33.7525 168.027 35.419 168.19 36.3144 167.729C37.2528 167.246 37.649 166.398 37.7443 166.222C38.9083 164.073 41.9455 157.719 43.8388 153.203C48.8492 154.29 54.7494 154.855 61.1518 154.297C63.0521 156.758 65.7999 158.948 69.5196 160.707L69.7855 161.951C69.9316 162.835 70.3475 163.779 71.0222 164.533C71.8614 165.471 73.2268 166.217 74.939 165.92L74.9458 165.918C75.6406 165.795 76.2281 165.438 76.5961 165.186C77.0231 164.893 77.464 164.522 77.8987 164.115C78.7723 163.296 79.7611 162.195 80.7744 160.9C82.8025 158.31 85.0466 154.796 86.7461 150.9L89.8809 143.713C91.7805 142.395 93.6702 140.931 95.5481 139.316C95.7662 139.386 95.9805 139.452 96.1937 139.509L96.2005 139.512C100.026 140.524 102.9 139.44 104.782 137.989C105.687 137.291 106.335 136.533 106.757 135.952C106.97 135.659 107.131 135.401 107.244 135.208C107.3 135.112 107.347 135.03 107.38 134.967C107.397 134.936 107.41 134.91 107.421 134.888C107.427 134.877 107.433 134.867 107.437 134.858L107.442 134.847L107.446 134.84C107.446 134.84 107.448 134.837 105.355 133.817M98.3351 115.868C98.8369 113.774 98.8764 113.617 98.8807 113.606L98.9102 113.613C98.9238 113.616 98.9413 113.619 98.9602 113.624C98.9984 113.634 99.0471 113.648 99.1057 113.665C99.2241 113.699 99.3841 113.749 99.5763 113.815C99.9597 113.947 100.482 114.148 101.083 114.445C102.28 115.035 103.838 116.018 105.239 117.589C108.001 120.685 109.775 125.631 107.944 133.115L108.174 133.344L107.449 134.836L105.355 133.817M98.3351 115.868C98.3351 115.868 109.773 118.609 105.35 133.813L105.355 133.817M98.3351 115.868C93.0022 119.139 92.7489 127.189 92.7429 127.407C92.3201 127.692 91.8771 127.957 91.4199 128.189C90.3997 128.714 89.2946 129.103 88.1374 129.334C88.3024 128.416 88.3536 126.273 88.251 125.636L88.2488 125.629C88.2094 125.393 88.1634 125.176 88.1192 124.995C88.0159 124.601 87.622 124.351 87.219 124.42C79.2459 125.733 75.5893 121.011 74.6934 119.146C74.5655 118.875 74.2998 118.692 74.0047 118.682C73.8918 118.677 73.7788 118.663 73.666 118.639V118.643L73.2863 118.521C73.1518 118.466 73.0334 118.402 72.9362 118.348C75.2716 117.438 77.5578 116.667 78.8171 116.322C79.5669 116.118 80.2474 115.707 80.7562 115.113L80.9676 114.847C81.9937 113.477 82.5523 111.452 82.6157 109.434C82.653 108.243 82.5107 107.036 82.186 105.947L118.887 92.7329L119.356 95.654C119.552 96.894 120.728 97.732 121.963 97.5204L189.278 89.78L189.283 89.8005L199.355 88.6229L200.69 32.2398L177.873 38.6481L177.892 38.7368L174.309 39.7597L171.642 3.87441L83.9228 34.2267L75.2095 25.7361C73.6993 24.265 71.2403 24.4622 69.981 26.1498L44.9754 59.6301C44.9123 59.5881 44.8736 59.5682 44.8686 59.5641L44.8709 59.5687C43.5155 58.6082 41.9388 57.9411 40.2312 57.6592C39.3657 57.3358 38.4293 57.1569 37.451 57.1568C36.9918 57.1568 36.5409 57.1979 36.103 57.2727C35.6296 57.1994 35.1445 57.1568 34.6504 57.1568C33.9326 57.1568 33.2345 57.2363 32.5658 57.3887C31.5722 57.615 30.6318 57.9999 29.7857 58.5116C29.4761 58.6935 29.1815 58.9001 28.9014 59.1163C28.8817 59.1311 28.8601 59.1493 28.8355 59.1641C26.6761 60.8616 25.274 63.4905 25.2347 66.4475V66.5748C25.2347 67.9573 25.5302 69.2763 26.0712 70.462C26.2532 70.8655 26.4648 71.2547 26.7009 71.6237L26.7032 71.6259C19.525 74.225 13.6407 79.6948 11.1474 85.5722C9.41318 89.6662 8.18438 95.8034 9.97669 101.96C9.96758 101.963 9.95787 101.967 9.94941 101.969C8.36833 102.015 6.79081 102.568 5.48023 103.656C2.66161 105.998 2.03709 110.002 3.85714 113.058C4.18181 113.599 4.65421 114.032 5.20517 114.342C8.36179 116.124 14.394 121.582 18.4672 123.199C18.4951 123.395 18.531 123.591 18.565 123.788C18.5672 128.048 20.3864 134.052 24.3822 139.343C22.5498 143.279 20.8174 151.249 21.3247 156.068C21.3502 156.309 21.2219 156.507 21.0292 156.661C20.8685 156.649 20.7437 156.643 20.6541 156.643C20.6011 156.642 20.5597 156.644 20.5313 156.645C20.5175 156.645 20.5052 156.647 20.4972 156.647H20.4836L20.504 156.909C20.5047 156.916 20.5035 156.924 20.504 156.931C20.4189 156.959 20.3338 156.983 20.2517 156.997C19.8684 157.061 19.5491 157.155 19.2788 157.263C18.349 157.642 17.1826 158.937 17.9057 160.309C18.6344 161.682 25.9689 164.904 33.9866 165.711V165.706C35.2599 165.844 35.3692 165.726 35.6984 165.117C36.9675 162.775 40.6334 155.069 42.3453 150.71L41.8611 150.334C47.4625 151.835 54.5114 152.712 62.2679 151.848C64.0227 154.576 66.9774 157.117 71.5496 159.073C71.7716 159.168 71.9218 159.352 72.0133 159.571C71.9599 159.704 71.9209 159.81 71.8951 159.889C71.8787 159.939 71.8664 159.978 71.8587 160.005C71.855 160.018 71.8516 160.029 71.8496 160.037L71.8474 160.048V160.053C71.8558 160.055 71.8984 160.063 72.102 160.112C72.1073 160.113 72.1128 160.113 72.1179 160.114C72.1191 160.203 72.119 160.291 72.1065 160.378C72.0524 160.761 72.0414 161.097 72.061 161.387C72.1399 162.386 73.0115 163.892 74.5411 163.626C76.071 163.355 81.3895 157.356 84.6116 149.971L84.6048 149.975C85.1211 148.805 84.935 148.756 84.5661 148.166C84.1415 147.485 83.4755 146.539 82.618 145.452C86.6937 143.258 90.7936 140.443 94.8275 136.868C94.93 136.775 95.0078 136.701 95.0571 136.652C95.6711 136.917 96.2459 137.114 96.7961 137.261C102.891 138.875 105.355 133.817 105.355 133.817M86.0437 146.177C86.0499 146.186 86.0558 146.195 86.0619 146.204L86.6007 145.845C86.4154 145.957 86.229 146.067 86.0437 146.177ZM46.0939 57.9433L46.3326 57.7547C46.3075 57.7344 46.2849 57.716 46.2666 57.7024L46.2598 57.6955L46.0939 57.9433Z" stroke="#5AE500" stroke-linecap="round"/>
<defs>
<filter id="filter0_d_2245_62322" x="2.82715" y="3.87451" width="205.863" height="166.874" filterUnits="userSpaceOnUse" color-interpolation-filters="sRGB">
<feFlood flood-opacity="0" result="BackgroundImageFix"/>
<feColorMatrix in="SourceAlpha" type="matrix" values="0 0 0 0 0 0 0 0 0 0 0 0 0 0 0 0 0 0 127 0" result="hardAlpha"/>
<feOffset dx="8" dy="4.99"/>
<feComposite in2="hardAlpha" operator="out"/>
<feColorMatrix type="matrix" values="0 0 0 0 0.352941 0 0 0 0 0.898039 0 0 0 0 0 0 0 0 1 0"/>
<feBlend mode="normal" in2="BackgroundImageFix" result="effect1_dropShadow_2245_62322"/>
<feBlend mode="normal" in="SourceGraphic" in2="effect1_dropShadow_2245_62322" result="shape"/>
</filter>
</defs>
</svg>
