<svg width="172" height="145" viewBox="0 0 172 145" fill="none" xmlns="http://www.w3.org/2000/svg">
<g filter="url(#filter0_d_408_19186)">
<path d="M30.0332 59.8812L58.6864 21.5084C59.7501 20.0828 61.8277 19.9166 63.1033 21.1592L81.8758 39.45L45.9886 60.0848L30.0332 59.877V59.8812Z" fill="#FBFB79"/>
<path d="M144.554 2.69391L49.0547 35.7387L58.7983 92.5893L99.9956 77.748L100.39 80.2167C100.557 81.264 101.55 81.9706 102.593 81.7919L167.964 74.2777L169.09 26.6535L146.806 33.004L144.554 2.69391Z" fill="#FBFB79"/>
<path d="M67.8477 37.1724L71.9861 36.0586L75.9085 50.6172L80.4624 49.3912L81.4762 53.1607L72.7839 55.5006L67.8477 37.1683V37.1724Z" fill="#4D67FF"/>
<path d="M82.3979 28.6442L84.438 28.0956C84.9906 28.6193 85.618 28.9892 86.3244 29.2053C87.0266 29.4172 87.8327 29.4006 88.7426 29.1596L89.0252 30.2069C88.1526 30.4438 87.2551 30.5518 86.3327 30.5394C85.4103 30.5269 84.6125 30.2734 83.9394 29.7788L83.6776 29.8495C83.3411 30.6142 82.776 31.2334 81.9865 31.7072C81.197 32.181 80.366 32.5384 79.4935 32.7712L79.2109 31.7238C80.1375 31.4745 80.848 31.0755 81.3466 30.5311C81.8452 29.9866 82.1943 29.3549 82.3979 28.6484V28.6442ZM82.3895 52.9155L82.215 52.2589L81.0932 33.6024L88.0654 31.7529L96.4586 48.4228L96.6331 49.0795L92.3118 50.2432L90.5376 46.2575L86.2454 47.4129L86.7108 51.7518L82.3895 52.9155ZM85.8216 43.6475L89.0169 42.7872L86.1873 36.4451L85.0862 36.7402L85.8216 43.6475ZM91.9462 23.2372H92.1415L92.5362 24.7084C92.2079 25.0949 91.7883 25.4607 91.2731 25.8056C90.7578 26.1506 90.2094 26.4623 89.6276 26.7407C89.0459 27.0192 88.485 27.2561 87.9365 27.4473C87.3881 27.6426 86.931 27.7881 86.5654 27.8878L86.2828 26.8405C86.8064 26.6992 87.4213 26.4623 88.1277 26.1339C88.834 25.8015 89.5321 25.39 90.2218 24.8954C90.9116 24.4009 91.485 23.8481 91.9379 23.2413L91.9462 23.2372Z" fill="#4D67FF"/>
<path d="M90.8872 30.9675L95.2334 29.7955L99.6378 38.0161L100.843 37.692L100.523 28.3699L104.869 27.1979L105.043 27.8546L104.994 40.8173L103.369 41.2537L104.877 46.8561L100.739 47.9699L99.2347 42.3925L97.6101 42.8288L91.0534 31.62L90.8789 30.9633L90.8872 30.9675Z" fill="#4D67FF"/>
<path d="M110.807 25.5979L115.128 24.4342L121.215 38.0743L122.316 37.7793L120.729 22.9255L125.05 21.7618L125.225 22.4185L126.338 41.0501L119.383 42.9535L110.981 26.2587L110.807 25.602V25.5979Z" fill="#4D67FF"/>
<path d="M135.837 18.8525L136.851 22.6221L131.508 24.0601L132.551 27.9377C133.024 27.6052 133.523 27.306 134.051 27.04C134.578 26.774 135.106 26.5537 135.642 26.375C136.174 26.1963 136.681 26.0674 137.167 25.9926L138.148 29.6333L137.927 29.8619C137.528 29.837 137.084 29.8827 136.602 29.9949C136.116 30.1071 135.605 30.2734 135.064 30.4936C134.524 30.7139 133.992 30.9965 133.469 31.3456L134.416 34.8533L139.756 33.4153L140.769 37.1849L131.292 39.7367L126.355 21.4044L135.833 18.8525H135.837ZM133.839 14.871L134.088 14.8586L134.483 16.3257C134.051 16.7413 133.51 17.1403 132.854 17.5226C132.197 17.905 131.504 18.2582 130.764 18.5782C130.024 18.8983 129.318 19.1726 128.641 19.4011C127.963 19.6297 127.39 19.8084 126.916 19.9373L126.634 18.89C127.278 18.7154 128.051 18.4369 128.948 18.0546C129.846 17.6722 130.739 17.2068 131.62 16.6623C132.501 16.1179 133.24 15.5194 133.835 14.871H133.839Z" fill="#4D67FF"/>
<path d="M82.72 58.2064L86.7504 57.1216L91.6866 75.454L87.3944 76.6094L80.7505 67.4744L80.4887 67.545L83.4139 77.6816L79.3835 78.7663L74.4473 60.434L78.7394 59.2786L85.4415 68.6256L85.7033 68.5549L82.72 58.2064Z" fill="#4D67FF"/>
<path d="M90.9512 65.8203C90.3611 63.6384 90.2697 61.7432 90.6686 60.139C91.0675 58.5348 91.832 57.2256 92.9539 56.2074C94.0758 55.1933 95.422 54.4743 96.9926 54.0504C97.8485 53.8218 98.638 53.6971 99.3651 53.6763C100.092 53.6597 100.724 53.7013 101.268 53.8093C101.812 53.9132 102.22 54.0545 102.49 54.2249L103.624 58.4433L103.101 58.5846C102.822 58.3228 102.448 58.0942 101.975 57.903C101.501 57.7119 100.973 57.5913 100.391 57.5456C99.8056 57.4957 99.1906 57.5581 98.5466 57.7326C97.5328 58.0069 96.7225 58.4433 96.1076 59.0501C95.4926 59.6569 95.1104 60.4299 94.9608 61.3692C94.8112 62.3084 94.9068 63.4056 95.2433 64.6649C95.5716 65.8868 96.0245 66.8801 96.5937 67.6448C97.163 68.4095 97.8402 68.9249 98.6255 69.1909C99.4108 69.4569 100.263 69.4652 101.189 69.2158C101.451 69.1451 101.679 69.0579 101.875 68.9457C102.07 68.8376 102.211 68.7046 102.303 68.5508L101.314 64.8852L97.5452 65.8993L96.5729 62.2835L104.114 60.2512L106.591 69.4444C106.042 70.3961 105.328 71.1733 104.451 71.7759C103.574 72.3786 102.569 72.8316 101.434 73.135C100.404 73.4134 99.3651 73.4924 98.3098 73.3718C97.2585 73.2513 96.2572 72.9105 95.3098 72.3411C94.3625 71.7718 93.5107 70.953 92.7544 69.8849C91.9982 68.8168 91.3999 67.4619 90.9595 65.8203H90.9512Z" fill="#4D67FF"/>
<path d="M108.261 70.9861L108.087 70.3294L106.965 51.6729L113.937 49.8235L122.33 66.4934L122.505 67.1501L118.183 68.3138L116.409 64.3239L112.117 65.4793L112.582 69.8182L108.261 70.9819V70.9861ZM111.693 61.7223L114.889 60.862L112.059 54.5198L110.958 54.8149L111.693 61.7223Z" fill="#4D67FF"/>
<path d="M116.754 49.0381L121.1 47.8661L125.505 56.0868L126.71 55.7626L126.39 46.4406L130.736 45.2686L130.91 45.9252L130.865 58.8879L129.24 59.3243L130.748 64.9267L126.61 66.0405L125.106 60.4631L123.481 60.8995L116.925 49.6906L116.75 49.0339L116.754 49.0381Z" fill="#4D67FF"/>
<path d="M130.711 45.2769L135.057 44.1049L139.462 52.3255L140.667 52.0014L140.347 42.6793L144.693 41.5073L144.867 42.164L144.822 55.1267L143.197 55.5631L144.705 61.1654L140.567 62.2793L139.063 56.7018L137.438 57.1382L130.882 45.9294L130.707 45.2727L130.711 45.2769Z" fill="#4D67FF"/>
<path d="M38.5552 65.2092C38.5552 65.2092 40.159 51.7311 48.8971 47.6998C56.0687 44.3915 58.5991 39.0593 59.2723 37.2556C59.4135 36.8816 59.775 36.6364 60.1739 36.6364H60.3609C61.4412 36.6364 65.5589 42.2304 63.2819 49.4079C61.5077 54.9936 62.3678 58.2021 64.9065 59.104C65.2888 59.2411 65.5547 59.5902 65.5547 60.0017V60.7124C65.5547 61.0033 65.4217 61.2817 65.1974 61.4646C63.5395 62.7945 57.0493 68.7335 65.0603 74.5645C65.3594 74.7847 65.5132 75.1546 65.4467 75.5204L65.3386 76.1022C65.2929 76.3557 65.1475 76.576 64.9356 76.7215C63.6725 77.5901 58.6116 81.5674 63.1282 86.7666C63.4065 87.0867 63.5104 87.5189 63.419 87.9303C63.3608 88.188 63.232 88.4207 63.0409 88.6078C62.4343 89.2062 61.0423 91.2344 60.9551 97.2981L38.5469 65.2134L38.5552 65.2092Z" fill="#5A4536"/>
<path d="M65.0694 74.5561C65.3686 74.7764 65.5182 75.1463 65.4558 75.512L65.3478 76.0938C65.3021 76.3474 65.1567 76.5676 64.9448 76.7131C63.6775 77.5817 58.6208 81.5591 63.1373 86.7583C63.4157 87.0783 63.5196 87.5105 63.4282 87.922C63.37 88.1796 63.2412 88.4124 63.0501 88.5994C62.4434 89.1979 61.0515 91.226 60.9642 97.2897L60.8396 97.111C60.2454 90.1205 62.3769 87.6934 62.3769 87.6934C57.0834 80.5949 63.3077 75.1006 63.3077 75.1006C55.5917 65.9572 63.5528 60.8079 63.5528 60.8079C60.9808 58.7299 60.2163 55.937 60.8728 49.0961C61.3963 43.6143 59.0113 40.7051 58.0391 39.7617C58.6831 38.6977 59.0654 37.8042 59.2773 37.2472C59.4185 36.8732 59.7759 36.6238 60.1789 36.6238H60.3659C61.4462 36.6238 65.568 42.2179 63.2869 49.3954C61.5127 54.9811 62.3728 58.1854 64.9115 59.0914C65.2938 59.2286 65.5597 59.5819 65.5597 59.9892V60.6998C65.5597 60.9908 65.4267 61.2692 65.2024 61.4521C63.5445 62.782 57.0543 68.7169 65.0653 74.552L65.0694 74.5561Z" fill="#5A4536"/>
<path d="M58.297 55.804C56.8178 59.1164 53.6766 62.6033 52.9287 61.5893C52.1849 60.5752 53.4314 55.0352 54.9106 51.7228C56.3898 48.4104 57.3455 48.4686 58.2804 49.5949C59.2153 50.7212 59.772 52.4917 58.2928 55.804H58.297Z" fill="#E1CDAD"/>
<path d="M57.8069 65.6788C56.7972 66.7386 54.9607 67.4825 54.5493 66.4227C54.138 65.3629 55.3097 62.9067 56.3194 61.8469C57.329 60.7871 58.2099 61.2983 58.5589 62.196C58.908 63.0937 58.8166 64.619 57.8069 65.6788Z" fill="#E1CDAD"/>
<path d="M56.6519 78.0347C55.3597 77.1952 53.7309 74.66 54.1215 73.0516C54.5079 71.4432 56.7641 71.3726 58.0563 72.2121C59.3485 73.0516 59.5979 75.005 59.2696 76.3681C58.9414 77.7313 57.9483 78.8742 56.6561 78.0347H56.6519Z" fill="#E1CDAD"/>
<path d="M71.0433 126.095C68.3217 132.334 63.8301 137.4 62.5379 137.628C61.2457 137.853 60.5102 136.581 60.4437 135.737C60.4271 135.492 60.4354 135.21 60.4811 134.885C60.5435 134.457 60.4105 133.954 60.0116 133.784C56.0477 132.088 53.5214 129.873 52.0547 127.5L59.9202 113.714C65.0766 116.644 69.6015 122.317 71.0059 124.57C71.3175 125.069 71.4754 125.11 71.0391 126.1L71.0433 126.095Z" fill="#FF9BC9"/>
<path d="M60.4766 134.661C60.4766 134.661 61.0915 132.063 65.9363 127.525" stroke="#5A4536" stroke-width="0.443939" stroke-miterlimit="10"/>
<path d="M28.2852 139.391C21.5124 138.709 15.3172 135.987 14.7023 134.827C14.0915 133.668 15.0762 132.575 15.8616 132.255C16.0901 132.163 16.3602 132.084 16.6843 132.03C17.1081 131.955 17.6358 131.677 17.5901 131.245C17.079 126.39 19.2521 117.746 21.0595 115.618L35.3446 126.719C33.8986 130.401 30.8031 136.909 29.7311 138.888C29.4527 139.403 29.3613 139.503 28.2852 139.386V139.391Z" fill="#FF9BC9"/>
<path d="M16.8965 131.955C16.8965 131.955 19.5557 131.743 25.3603 134.969" stroke="#5A4536" stroke-width="0.443939" stroke-miterlimit="10"/>
<path d="M13.085 88.4666C12.9105 87.8723 12.5739 87.3361 12.0961 86.9455C9.84406 85.1002 6.52833 85.0461 4.20566 86.9746C1.82481 88.9528 1.29712 92.3359 2.83449 94.9168C3.10872 95.3739 3.50761 95.7397 3.97297 96.0015C7.53801 98.013 15.4451 105.581 17.9339 103.516C20.3937 101.471 14.1487 92.1031 13.0808 88.4666H13.085Z" fill="#FF9BC9"/>
<path d="M88.5657 112.451C88.5657 112.451 86.484 116.723 81.3359 115.36C80.8705 115.236 80.3844 115.069 79.865 114.845C80.4592 112.854 80.5007 111.35 80.2722 110.215C79.7611 107.688 77.9121 107.04 77.9121 107.04C77.9121 107.04 78.07 100.091 82.6364 97.2897C82.6364 97.2897 92.2969 99.6046 88.5615 112.447L88.5657 112.451Z" fill="#5A4536"/>
<path d="M74.0179 108.673C73.3282 108.81 72.6176 108.885 71.8905 108.885C60.8256 108.885 60.9669 99.455 60.9669 99.2555C60.9669 99.2555 61.3491 99.5298 61.7979 99.6337C61.8935 99.6545 61.989 99.6669 62.0846 99.6711C62.3339 99.6794 62.5583 99.8332 62.6663 100.062C63.4225 101.637 66.5097 105.627 73.2451 104.517C73.5858 104.459 73.9182 104.671 74.0054 105.003C74.0428 105.157 74.0844 105.34 74.1176 105.539C74.2049 106.08 74.1633 107.908 74.0221 108.677L74.0179 108.673Z" fill="#5A4536"/>
<path d="M74.1144 105.539C64.9068 106.936 62.3141 101.471 61.7988 99.6295C61.8944 99.6503 61.99 99.6628 62.0855 99.6669C62.3348 99.6752 62.5592 99.829 62.6672 100.058C63.4235 101.633 66.5107 105.623 73.246 104.513C73.5867 104.455 73.9191 104.667 74.0064 104.999C74.0438 105.153 74.0853 105.336 74.1186 105.535L74.1144 105.539Z" fill="#FF9BC9"/>
<path d="M80.2754 110.219C76.5109 114.163 71.6537 117.521 65.9197 117.521C32.3718 117.521 26.5547 88.3127 15.6768 105.764C14.4594 101.849 15.145 97.2482 15.5439 95.8143C5.24764 88.3625 6.51078 77.5568 8.99134 71.7009C11.098 66.7344 16.0715 62.1129 22.1379 59.9185C23.3304 61.7929 25.2833 63.1312 27.5644 63.5052C27.9841 63.5758 28.4162 63.6091 28.8566 63.6091C32.5629 63.6091 35.6751 61.0781 36.5601 57.6493C36.6349 57.3625 36.6931 57.0716 36.7346 56.7766C37.0213 56.814 37.308 56.8597 37.5947 56.9095C37.7485 56.9345 37.9022 56.9636 38.0559 56.9927C38.2263 57.0259 38.3966 57.0633 38.567 57.0966C38.5753 57.5413 38.6127 57.9776 38.6792 58.4057C39.9049 65.9656 48.1776 67.6779 52.7066 64.7811C53.4005 65.7536 60.8464 73.6002 60.9627 98.308V98.3204C60.9627 98.5158 60.9627 98.7111 60.9627 98.9064C60.9627 104.862 65.9322 108.881 71.8864 108.881C72.6135 108.881 73.3282 108.81 74.0137 108.669C74.9943 108.474 75.9292 108.141 76.7935 107.696C77.1799 107.501 77.5538 107.277 77.9112 107.036C77.9112 107.036 79.7602 107.684 80.2712 110.211L80.2754 110.219Z" fill="#FF9BC9"/>
<path d="M45.6075 78.3964C44.5105 78.8701 42.9898 77.7813 42.2045 75.9609C41.4192 74.1447 41.6726 72.287 42.7696 71.8132C43.8623 71.3394 45.3872 72.4283 46.1725 74.2445C46.9578 76.0607 46.7044 77.9184 45.6116 78.3922L45.6075 78.3964Z" fill="#FCE29D"/>
<path d="M46.4847 85.5358C46.1856 85.5898 45.87 85.2325 45.7786 84.7339C45.6872 84.2354 45.8575 83.7909 46.1566 83.7368C46.4556 83.6828 46.7713 84.0401 46.8627 84.5387C46.9541 85.0372 46.7838 85.4818 46.4847 85.5358Z" fill="#FCE29D"/>
<path d="M50.9263 79.1736C50.9263 79.9674 50.5398 80.6074 50.0579 80.6074C49.5759 80.6074 49.1895 79.9632 49.1895 79.1736C49.1895 78.3839 49.5759 77.7356 50.0579 77.7356C50.5398 77.7356 50.9263 78.3798 50.9263 79.1736Z" fill="#FCE29D"/>
<path d="M8.69741 79.036C8.26529 79.7092 7.79161 80.3119 7.30963 80.8148C7.23899 79.5846 7.19744 76.8831 8.51044 72.9557C8.82622 72.9266 9.37053 72.9848 9.60322 73.1385C9.84005 73.2923 10.0063 73.525 10.1101 73.8284C10.4966 74.963 9.97717 77.0286 8.69741 79.036Z" fill="#FCE29D"/>
<path d="M12.8895 83.1094C12.6194 84.111 11.9131 84.7925 11.3064 84.6305C10.7039 84.4684 10.4297 83.525 10.6998 82.5234C10.9699 81.5217 11.6762 80.8401 12.2829 81.0022C12.8853 81.1643 13.1596 82.1077 12.8895 83.1094Z" fill="#FCE29D"/>
<path d="M46.5207 51.2449C46.5207 52.0055 45.9057 52.6247 45.1412 52.6247C44.3767 52.6247 43.7617 52.0055 43.7617 51.2449C43.7617 50.4844 44.3808 49.8651 45.1412 49.8651C45.9016 49.8651 46.5207 50.4802 46.5207 51.2449Z" stroke="#B2B2B2" stroke-width="0.443939" stroke-miterlimit="10"/>
<path d="M46.5207 51.2449C46.5207 52.0055 45.9057 52.6247 45.1412 52.6247C44.3767 52.6247 43.7617 52.0055 43.7617 51.2449C43.7617 50.4844 44.3808 49.8651 45.1412 49.8651C45.9016 49.8651 46.5207 50.4802 46.5207 51.2449Z" stroke="#B2B2B2" stroke-width="0.443939" stroke-miterlimit="10"/>
<path d="M28.8625 51.2449C28.8625 52.0055 28.2434 52.6247 27.483 52.6247C26.7226 52.6247 26.1035 52.0055 26.1035 51.2449C26.1035 50.4844 26.7185 49.8651 27.483 49.8651C28.2475 49.8651 28.8625 50.4802 28.8625 51.2449Z" stroke="#B2B2B2" stroke-width="0.443939" stroke-miterlimit="10"/>
<path d="M28.8625 51.2449C28.8625 52.0055 28.2434 52.6247 27.483 52.6247C26.7226 52.6247 26.1035 52.0055 26.1035 51.2449C26.1035 50.4844 26.7185 49.8651 27.483 49.8651C28.2475 49.8651 28.8625 50.4802 28.8625 51.2449Z" stroke="#B2B2B2" stroke-width="0.443939" stroke-miterlimit="10"/>
<path d="M28.8625 51.2449C28.8625 52.0055 28.2434 52.6247 27.483 52.6247C26.7226 52.6247 26.1035 52.0055 26.1035 51.2449C26.1035 50.4844 26.7185 49.8651 27.483 49.8651C28.2475 49.8651 28.8625 50.4802 28.8625 51.2449Z" stroke="#B2B2B2" stroke-width="0.517929" stroke-miterlimit="10"/>
<path d="M49.4584 66.963C54.6951 66.963 58.9402 62.7168 58.9402 57.4789C58.9402 52.241 54.6951 47.9948 49.4584 47.9948C44.2217 47.9948 39.9766 52.241 39.9766 57.4789C39.9766 62.7168 44.2217 66.963 49.4584 66.963Z" fill="#FF9BC9"/>
<path d="M32.0033 66.963C37.24 66.963 41.4851 62.7168 41.4851 57.4789C41.4851 52.241 37.24 47.9948 32.0033 47.9948C26.7666 47.9948 22.5215 52.241 22.5215 57.4789C22.5215 62.7168 26.7666 66.963 32.0033 66.963Z" fill="#FF9BC9"/>
<path d="M79.8689 114.845C79.8273 114.886 79.7608 114.949 79.6736 115.028C57.1075 135.027 32.2063 127.076 25.6371 122.434C18.4157 117.334 15.2578 109.134 15.2578 103.973C16.3506 100.885 18.8561 98.2746 25.2549 99.9869C34.1716 102.373 40.1092 116.91 66.099 116.91C71.833 116.91 76.5157 114.155 80.2802 110.215C80.5087 111.345 80.4672 112.85 79.873 114.845H79.8689Z" fill="#FFEFD7"/>
<path d="M37.4746 49.7321C37.4746 49.7321 39.0494 51.0246 42.2903 50.0397L39.2488 53.4435L37.4746 49.7321Z" fill="#FF9BC9"/>
<path d="M80.2773 106.911C80.2773 106.911 81.0294 103.686 83.2357 101.338" stroke="#FF9BC9" stroke-width="0.983092" stroke-linecap="round" stroke-linejoin="round"/>
<path d="M81.3652 109.039C81.3652 109.039 84.1824 107.78 86.4261 106.192" stroke="#FF9BC9" stroke-width="0.983092" stroke-linecap="round" stroke-linejoin="round"/>
<path d="M81.5977 111.666C81.5977 111.666 83.671 112.53 86.4258 111.474" stroke="#FF9BC9" stroke-width="0.983092" stroke-linecap="round" stroke-linejoin="round"/>
<path d="M56.1322 64.2158C56.1322 64.2158 54.1668 65.7037 55.6585 69.4441L52.7832 66.0112L56.1322 64.2158Z" fill="#FF9BC9"/>
<path d="M8.00391 85.5449C8.00391 85.5449 12.9941 102.053 30.275 97.8052" stroke="#5A4536" stroke-width="0.443939" stroke-miterlimit="10"/>
<path d="M65.0694 74.5561C65.3686 74.7764 65.5182 75.1463 65.4558 75.512L65.3478 76.0938C65.3021 76.3474 65.1567 76.5676 64.9448 76.7131C63.6775 77.5817 58.6208 81.5591 63.1373 86.7583C63.4157 87.0783 63.5196 87.5105 63.4282 87.922C63.37 88.1796 63.2412 88.4124 63.0501 88.5994C62.4434 89.1979 61.0515 91.226 60.9642 97.2897L60.8396 97.111C60.4158 92.1528 61.3673 89.493 61.9531 88.3625C62.1775 87.9261 62.1567 87.4066 61.8908 86.9952C58.5211 81.8209 61.1429 77.5983 62.5556 75.9027C62.9586 75.4206 62.9836 74.7224 62.6013 74.2195C57.7399 67.7942 60.6817 63.4802 62.4767 61.7098C62.9836 61.2069 63.0293 60.3964 62.5556 59.8603C60.7897 57.8446 60.3119 54.9562 60.8728 49.0961C61.3963 43.6143 59.0113 40.7051 58.0391 39.7617C58.6831 38.6977 59.0654 37.8042 59.2773 37.2472C59.4185 36.8732 59.7759 36.6238 60.1789 36.6238H60.3659C61.4462 36.6238 65.568 42.2179 63.2869 49.3954C61.5127 54.9811 62.3728 58.1854 64.9115 59.0914C65.2938 59.2286 65.5597 59.5819 65.5597 59.9892V60.6998C65.5597 60.9908 65.4267 61.2692 65.2024 61.4521C63.5445 62.782 57.0543 68.7169 65.0653 74.552L65.0694 74.5561Z" fill="#FF991C"/>
<path d="M66.2153 97.3106C66.8095 97.1485 67.3455 96.8243 67.7443 96.3588C69.6183 94.1561 69.718 89.4265 67.8441 87.0825C65.9244 84.6803 61.2209 83.5125 58.6323 84.992C58.1711 85.2539 57.8636 85.6903 57.5312 86.1059C54.5105 89.892 49.1505 97.909 51.1574 100.419C53.1435 102.905 62.5796 98.3039 66.2111 97.3106H66.2153Z" fill="#FF9BC9"/>
<path d="M58.2663 100.365C60.9796 99.1309 64.4947 97.8966 66.0903 97.4602C66.6844 97.2981 67.2204 96.9739 67.6193 96.5085C69.4933 94.3057 69.7176 89.4265 67.8437 87.0825C65.9241 84.6803 61.2206 83.5125 58.632 84.992C58.1708 85.2539 56.9118 86.7417 56.6043 87.1781C53.7332 91.2594 49.1501 97.909 51.157 100.419" stroke="#5A4536" stroke-width="0.443939" stroke-miterlimit="10"/>
<path d="M66.3613 85.8441C66.3613 85.8441 63.3821 89.1273 58.7949 92.5852" stroke="#5A4536" stroke-width="0.443939" stroke-miterlimit="10"/>
<path d="M69.1862 91.2136C69.1862 91.2136 65.6046 92.2526 60.7266 94.9624" stroke="#5A4536" stroke-width="0.443939" stroke-miterlimit="10"/>
<path d="M36.8064 55.6543C36.8064 56.0325 36.7815 56.4107 36.7275 56.7765C36.6859 57.0715 36.6278 57.3666 36.553 57.6492C35.6679 61.078 32.5558 63.609 28.8495 63.609C28.4091 63.609 27.9769 63.5716 27.5573 63.5051C25.2803 63.1352 23.3233 61.7928 22.1308 59.9184C21.9313 59.6067 21.7527 59.2784 21.5989 58.9376C21.1419 57.936 20.8926 56.8222 20.8926 55.6543C20.8926 55.6169 20.8926 55.5837 20.8926 55.5463C20.9258 53.0485 22.11 50.8292 23.9341 49.3953C23.9549 49.3828 23.9715 49.3662 23.9881 49.3538C24.2249 49.1709 24.4742 48.9963 24.736 48.8426C25.4507 48.4103 26.2443 48.0862 27.0836 47.895C27.6487 47.7661 28.2387 47.6996 28.8453 47.6996C31.4838 47.6996 33.8189 48.9839 35.2691 50.9621C36.233 52.2796 36.8023 53.9005 36.8023 55.6585L36.8064 55.6543Z" fill="white"/>
<mask id="mask0_408_19186" style="mask-type:luminance" maskUnits="userSpaceOnUse" x="20" y="47" width="17" height="17">
<path d="M36.8064 55.6543C36.8064 56.0325 36.7815 56.4107 36.7275 56.7765C36.6859 57.0715 36.6278 57.3666 36.553 57.6492C35.6679 61.078 32.5558 63.609 28.8495 63.609C28.4091 63.609 27.9769 63.5716 27.5573 63.5051C25.2803 63.1352 23.3233 61.7928 22.1308 59.9184C21.9313 59.6067 21.7527 59.2784 21.5989 58.9376C21.1419 57.936 20.8926 56.8222 20.8926 55.6543C20.8926 55.6169 20.8926 55.5837 20.8926 55.5463C20.9258 53.0485 22.11 50.8292 23.9341 49.3953C23.9549 49.3828 23.9715 49.3662 23.9881 49.3538C24.2249 49.1709 24.4742 48.9963 24.736 48.8426C25.4507 48.4103 26.2443 48.0862 27.0836 47.895C27.6487 47.7661 28.2387 47.6996 28.8453 47.6996C31.4838 47.6996 33.8189 48.9839 35.2691 50.9621C36.233 52.2796 36.8023 53.9005 36.8023 55.6585L36.8064 55.6543Z" fill="white"/>
</mask>
<g mask="url(#mask0_408_19186)">
<path d="M31.2087 61.132C34.9171 61.132 37.9233 58.1251 37.9233 54.4158C37.9233 50.7066 34.9171 47.6996 31.2087 47.6996C27.5004 47.6996 24.4941 50.7066 24.4941 54.4158C24.4941 58.1251 27.5004 61.132 31.2087 61.132Z" fill="#5A4536"/>
<path d="M33.1828 52.0635C33.1828 52.8241 32.5637 53.4433 31.8033 53.4433C31.0429 53.4433 30.4238 52.8241 30.4238 52.0635C30.4238 51.303 31.0388 50.6837 31.8033 50.6837C32.5678 50.6837 33.1828 51.2988 33.1828 52.0635Z" fill="white"/>
</g>
<path d="M57.0422 56.947C57.0422 57.3876 57.0131 57.824 56.9508 58.2479C56.9009 58.5928 56.8345 58.9336 56.7514 59.262C55.7209 63.2476 52.106 66.1901 47.8014 66.1901C47.2903 66.1901 46.7875 66.1485 46.3014 66.0696C43.6546 65.6373 41.3818 64.083 39.9982 61.9052C39.7655 61.5436 39.5619 61.1613 39.3832 60.7664C38.8556 59.6027 38.5605 58.3102 38.5605 56.9512C38.5605 56.9096 38.5605 56.8681 38.5605 56.8265C38.5979 53.9256 39.9733 51.3488 42.0923 49.6781C42.1131 49.6615 42.138 49.6449 42.1547 49.6282C42.4331 49.4121 42.7198 49.2168 43.0231 49.0339C43.8541 48.531 44.7723 48.157 45.7529 47.9326C46.4094 47.7829 47.095 47.704 47.8014 47.704C50.8678 47.704 53.5811 49.196 55.2639 51.4943C56.3816 53.0237 57.0464 54.9106 57.0464 56.9512L57.0422 56.947Z" fill="white"/>
<mask id="mask1_408_19186" style="mask-type:luminance" maskUnits="userSpaceOnUse" x="38" y="47" width="20" height="20">
<path d="M57.0422 56.947C57.0422 57.3876 57.0131 57.824 56.9508 58.2479C56.9009 58.5928 56.8345 58.9336 56.7514 59.262C55.7209 63.2476 52.106 66.1901 47.8014 66.1901C47.2903 66.1901 46.7875 66.1485 46.3014 66.0696C43.6546 65.6373 41.3818 64.083 39.9982 61.9052C39.7655 61.5436 39.5619 61.1613 39.3832 60.7664C38.8556 59.6027 38.5605 58.3102 38.5605 56.9512C38.5605 56.9096 38.5605 56.8681 38.5605 56.8265C38.5979 53.9256 39.9733 51.3488 42.0923 49.6781C42.1131 49.6615 42.138 49.6449 42.1547 49.6282C42.4331 49.4121 42.7198 49.2168 43.0231 49.0339C43.8541 48.531 44.7723 48.157 45.7529 47.9326C46.4094 47.7829 47.095 47.704 47.8014 47.704C50.8678 47.704 53.5811 49.196 55.2639 51.4943C56.3816 53.0237 57.0464 54.9106 57.0464 56.9512L57.0422 56.947Z" fill="white"/>
</mask>
<g mask="url(#mask1_408_19186)">
<path d="M50.5395 63.3098C54.8491 63.3098 58.3427 59.8153 58.3427 55.5047C58.3427 51.1941 54.8491 47.6996 50.5395 47.6996C46.2299 47.6996 42.7363 51.1941 42.7363 55.5047C42.7363 59.8153 46.2299 63.3098 50.5395 63.3098Z" fill="#5A4536"/>
<path d="M52.8327 52.7701C52.8327 53.6554 52.1139 54.3744 51.2289 54.3744C50.3438 54.3744 49.625 53.6554 49.625 52.7701C49.625 51.8849 50.3397 51.1659 51.2289 51.1659C52.118 51.1659 52.8327 51.8807 52.8327 52.7701Z" fill="white"/>
</g>
<path d="M26.3478 74.07C25.2675 74.5521 23.9961 74.2237 23.2856 73.2803C21.8853 71.4267 19.3424 69.1409 16.4921 71.7509C12.175 75.7033 16.1971 84.0279 24.5196 84.8383C32.8422 85.6487 38.0443 77.7522 34.5208 74.3027C32.2023 72.0335 28.5708 73.085 26.352 74.07H26.3478Z" fill="#5A4536"/>
<mask id="mask2_408_19186" style="mask-type:luminance" maskUnits="userSpaceOnUse" x="14" y="70" width="22" height="15">
<path d="M26.3478 74.07C25.2675 74.5521 23.9961 74.2237 23.2856 73.2803C21.8853 71.4267 19.3424 69.1409 16.4921 71.7509C12.175 75.7033 16.1971 84.0279 24.5196 84.8383C32.8422 85.6487 38.0443 77.7522 34.5208 74.3027C32.2023 72.0335 28.5708 73.085 26.352 74.07H26.3478Z" fill="white"/>
</mask>
<g mask="url(#mask2_408_19186)">
<path d="M17.9766 83.982C17.9766 83.982 20.0915 77.5526 25.4557 79.2192C25.4557 79.2192 30.6204 75.8154 35.4444 80.0961C35.4444 80.0961 27.7202 92.5934 17.9807 83.982H17.9766Z" fill="#FF991C"/>
</g>
<path d="M23.7481 104.517C23.7273 104.43 23.7481 104.343 23.7771 104.259C23.8727 103.993 24.1012 103.811 24.3131 103.682C24.7702 103.403 25.2896 103.312 25.755 103.058C26.0043 102.921 26.2826 102.738 26.4281 102.452C26.4738 102.364 26.5195 102.235 26.4945 102.127C26.4779 102.053 26.2162 102.136 26.2369 102.206C26.2577 102.289 26.2328 102.373 26.1995 102.452C26.0874 102.718 25.8297 102.884 25.6095 103.004C25.1442 103.262 24.6248 103.353 24.1677 103.628C23.9267 103.773 23.6691 103.964 23.5445 104.255C23.5029 104.351 23.4655 104.484 23.4904 104.596C23.5071 104.671 23.7688 104.588 23.7481 104.517Z" fill="#5A4536"/>
<path d="M25.2603 105.519C25.3975 105.56 25.5429 105.585 25.6966 105.585C26.1786 105.585 26.6066 105.357 26.8933 104.995C26.9556 104.916 27.0096 104.833 27.0595 104.746C27.1883 104.505 27.2631 104.226 27.2631 103.931C27.2631 103.453 27.0719 103.025 26.7686 102.722C26.9348 102.547 27.0345 102.306 27.0345 102.04C27.0345 101.516 26.6357 101.088 26.1454 101.088C26.0498 101.088 25.9584 101.105 25.8711 101.134C25.7963 101.159 25.7257 101.196 25.6634 101.238C25.1149 101.645 25.1398 102.722 25.1398 102.722V102.73C25.1482 103.32 25.3393 103.856 25.6468 104.259C25.7049 104.334 25.7631 104.405 25.8296 104.467C25.8337 104.471 25.8379 104.475 25.8462 104.475C25.8587 104.475 25.8753 104.475 25.8919 104.475C25.9709 104.475 26.0373 104.442 26.083 104.392C26.0955 104.376 26.0955 104.355 26.083 104.338C25.9958 104.255 25.9127 104.16 25.8379 104.056C25.5844 103.698 25.4224 103.229 25.4058 102.713C25.4058 102.684 25.4058 102.651 25.4058 102.622C25.4058 102.614 25.4058 102.601 25.4058 102.593C25.4058 102.576 25.4058 102.56 25.4058 102.543C25.4058 102.46 25.4141 102.377 25.4224 102.294C25.4349 102.202 25.4515 102.111 25.4681 102.019C25.4806 101.965 25.493 101.911 25.5096 101.865C25.5221 101.82 25.5387 101.774 25.5553 101.728C25.5553 101.724 25.5553 101.72 25.5595 101.716C25.6509 101.467 25.8337 101.284 26.054 101.246C26.083 101.242 26.1121 101.238 26.1412 101.238C26.4985 101.238 26.7852 101.612 26.7852 102.077C26.7852 102.273 26.7354 102.452 26.6481 102.593C26.6107 102.655 26.5692 102.709 26.5193 102.755C26.5027 102.772 26.5027 102.796 26.5193 102.809C26.5401 102.826 26.5567 102.846 26.5775 102.863C26.8476 103.129 27.0179 103.528 27.0179 103.973C27.0179 104.243 26.9556 104.5 26.8434 104.717C26.8019 104.8 26.752 104.879 26.698 104.949C26.4695 105.24 26.1454 105.427 25.7797 105.427C25.6094 105.427 25.4473 105.386 25.3019 105.315C25.2313 105.278 25.1606 105.236 25.0941 105.186C25.0941 105.186 25.0858 105.186 25.0817 105.182H25.0734C24.9861 105.182 24.9113 105.219 24.8698 105.282C24.8615 105.294 24.8656 105.311 24.8739 105.319C24.9986 105.402 25.1315 105.465 25.277 105.51L25.2603 105.519Z" fill="#5A4536"/>
<path d="M24.7156 101.134C24.5785 101.093 24.4331 101.068 24.2793 101.068C23.7974 101.068 23.3694 101.296 23.0827 101.658C23.0204 101.737 22.9663 101.82 22.9165 101.907C22.7877 102.148 22.7129 102.427 22.7129 102.722C22.7129 103.2 22.904 103.628 23.2073 103.931C23.0411 104.106 22.9414 104.347 22.9414 104.613C22.9414 105.136 23.3403 105.564 23.8306 105.564C23.9262 105.564 24.0176 105.548 24.1048 105.519C24.1796 105.494 24.2503 105.456 24.3126 105.415C24.8611 105.008 24.8361 103.931 24.8361 103.931V103.923C24.8278 103.333 24.6367 102.796 24.3292 102.393C24.271 102.319 24.2129 102.248 24.1464 102.186C24.1422 102.181 24.1381 102.177 24.1298 102.177C24.1173 102.177 24.1007 102.177 24.0841 102.177C24.0051 102.177 23.9386 102.21 23.8929 102.26C23.8805 102.277 23.8805 102.298 23.8929 102.314C23.9802 102.398 24.0633 102.493 24.1381 102.597C24.3915 102.954 24.5536 103.424 24.5702 103.939C24.5702 103.968 24.5702 104.002 24.5702 104.031C24.5702 104.039 24.5702 104.052 24.5702 104.06C24.5702 104.077 24.5702 104.093 24.5702 104.11C24.5702 104.193 24.5619 104.276 24.5536 104.359C24.5411 104.451 24.5245 104.542 24.5079 104.633C24.4954 104.687 24.4829 104.742 24.4663 104.787C24.4539 104.833 24.4372 104.879 24.4206 104.924C24.4206 104.929 24.4206 104.933 24.4165 104.937C24.325 105.186 24.1422 105.369 23.922 105.406C23.8929 105.411 23.8638 105.415 23.8348 105.415C23.4774 105.415 23.1907 105.041 23.1907 104.575C23.1907 104.38 23.2406 104.201 23.3278 104.06C23.3652 103.998 23.4068 103.944 23.4566 103.898C23.4733 103.881 23.4733 103.856 23.4566 103.844C23.4359 103.827 23.4192 103.806 23.3985 103.79C23.1284 103.524 22.958 103.125 22.958 102.68C22.958 102.41 23.0204 102.152 23.1326 101.936C23.1741 101.853 23.224 101.774 23.278 101.703C23.5065 101.413 23.8306 101.225 24.1962 101.225C24.3666 101.225 24.5286 101.267 24.6741 101.338C24.7447 101.375 24.8153 101.417 24.8818 101.467C24.8818 101.467 24.8901 101.467 24.8943 101.471H24.9026C24.9899 101.471 25.0646 101.433 25.1062 101.371C25.1145 101.358 25.1104 101.342 25.102 101.334C24.9774 101.25 24.8444 101.188 24.699 101.142L24.7156 101.134Z" fill="#5A4536"/>
<path d="M60.2409 107.879C60.2409 107.879 61.8323 106.749 61.8905 102.821L64.8988 106.824C64.8988 106.824 64.7325 109.317 62.8088 111.541C62.8088 111.541 59.4806 111.375 60.2368 107.884L60.2409 107.879Z" fill="#FCE29D"/>
<mask id="mask3_408_19186" style="mask-type:luminance" maskUnits="userSpaceOnUse" x="60" y="102" width="5" height="10">
<path d="M60.2409 107.879C60.2409 107.879 61.8323 106.749 61.8905 102.821L64.8988 106.824C64.8988 106.824 64.7325 109.317 62.8088 111.541C62.8088 111.541 59.4806 111.375 60.2368 107.884L60.2409 107.879Z" fill="white"/>
</mask>
<g mask="url(#mask3_408_19186)">
<mask id="mask4_408_19186" style="mask-type:luminance" maskUnits="userSpaceOnUse" x="64" y="97" width="14" height="15">
<path d="M69.2961 97.5455L64.0195 105.37L72.4487 111.057L77.7253 103.232L69.2961 97.5455Z" fill="white"/>
</mask>
<g mask="url(#mask4_408_19186)">
<path d="M65.3333 103.413L64.6758 104.388L66.7839 105.81L67.4415 104.835L65.3333 103.413Z" fill="#5AE500"/>
</g>
<mask id="mask5_408_19186" style="mask-type:luminance" maskUnits="userSpaceOnUse" x="58" y="105" width="15" height="14">
<path d="M64.0168 105.368L58.7402 113.193L67.1694 118.88L72.446 111.055L64.0168 105.368Z" fill="white"/>
</mask>
<g mask="url(#mask5_408_19186)">
<path d="M60.0599 111.238L59.4023 112.213L61.5105 113.636L62.168 112.66L60.0599 111.238Z" fill="#5AE500"/>
<path d="M64.1458 109.724L63.4883 110.699L65.5964 112.121L66.254 111.146L64.1458 109.724Z" fill="#FBFB79"/>
<path d="M61.3763 109.284L60.7188 110.259L62.8269 111.681L63.4844 110.706L61.3763 109.284Z" fill="#5AE500"/>
<path d="M65.4622 107.77L64.8047 108.745L66.9128 110.167L67.5704 109.192L65.4622 107.77Z" fill="#FBFB79"/>
<path d="M62.6986 107.329L62.041 108.304L64.1492 109.726L64.8067 108.751L62.6986 107.329Z" fill="#5AE500"/>
<path d="M64.015 105.375L63.3574 106.35L65.4656 107.772L66.1231 106.797L64.015 105.375Z" fill="#5AE500"/>
</g>
<mask id="mask6_408_19186" style="mask-type:luminance" maskUnits="userSpaceOnUse" x="55" y="91" width="15" height="15">
<path d="M60.8645 91.8583L55.5879 99.683L64.0171 105.37L69.2937 97.5452L60.8645 91.8583Z" fill="white"/>
</mask>
<g mask="url(#mask6_408_19186)">
<path d="M62.5443 103.001L61.8867 103.976L63.9949 105.399L64.6524 104.424L62.5443 103.001Z" fill="#FBFB79"/>
<path d="M61.1165 100.574L60.459 101.55L62.5671 102.972L63.2247 101.997L61.1165 100.574Z" fill="#5AE500"/>
<path d="M63.8646 101.05L63.207 102.025L65.3152 103.447L65.9727 102.472L63.8646 101.05Z" fill="#FBFB79"/>
</g>
<mask id="mask7_408_19186" style="mask-type:luminance" maskUnits="userSpaceOnUse" x="50" y="99" width="15" height="15">
<path d="M55.593 99.68L50.3164 107.505L58.7456 113.192L64.0222 105.367L55.593 99.68Z" fill="white"/>
</mask>
<g mask="url(#mask7_408_19186)">
<path d="M58.5872 108.872L57.9297 109.848L60.0378 111.27L60.6954 110.295L58.5872 108.872Z" fill="#FBFB79"/>
<path d="M59.9115 106.917L59.2539 107.892L61.3621 109.314L62.0196 108.339L59.9115 106.917Z" fill="#FBFB79"/>
<path d="M58.4837 104.48L57.8262 105.455L59.9343 106.878L60.5919 105.903L58.4837 104.48Z" fill="#5AE500"/>
<path d="M61.2259 104.963L60.5684 105.938L62.6765 107.36L63.3341 106.385L61.2259 104.963Z" fill="#FBFB79"/>
<path d="M59.8021 102.528L59.1445 103.504L61.2527 104.926L61.9102 103.951L59.8021 102.528Z" fill="#5AE500"/>
<path d="M62.5462 103.001L61.8887 103.976L63.9968 105.399L64.6544 104.424L62.5462 103.001Z" fill="#FBFB79"/>
</g>
</g>
<path d="M46.816 116.088C44.5682 116.304 43.8202 116.25 41.83 116.179C41.7053 116.179 41.5848 116.171 41.4602 116.167C40.1472 116.108 38.8924 115.996 37.6915 115.83C26.7596 114.342 19.6171 108.478 16.0354 104.16C15.8152 103.894 15.3332 103.37 15.1795 103.058C13.7917 100.282 14.0285 98.4452 14.2155 97.3729C14.2737 97.0404 14.7058 96.949 14.8969 97.2274C25.7915 113.087 39.4616 112.177 46.3507 111.79C46.708 112.497 46.8202 116.083 46.8202 116.083L46.816 116.088Z" fill="#FCE29D"/>
<mask id="mask8_408_19186" style="mask-type:luminance" maskUnits="userSpaceOnUse" x="14" y="97" width="33" height="20">
<path d="M46.816 116.088C44.5682 116.304 43.8202 116.25 41.83 116.179C41.7053 116.179 41.5848 116.171 41.4602 116.167C40.1472 116.108 38.8924 115.996 37.6915 115.83C26.7596 114.342 19.6171 108.478 16.0354 104.16C15.8152 103.894 15.3332 103.37 15.1795 103.058C13.7917 100.282 14.0285 98.4452 14.2155 97.3729C14.2737 97.0404 14.7058 96.949 14.8969 97.2274C25.7915 113.087 39.4616 112.177 46.3507 111.79C46.708 112.497 46.8202 116.083 46.8202 116.083L46.816 116.088Z" fill="white"/>
</mask>
<g mask="url(#mask8_408_19186)">
<mask id="mask9_408_19186" style="mask-type:luminance" maskUnits="userSpaceOnUse" x="43" y="104" width="14" height="15">
<path d="M48.5657 104.76L43.2891 112.585L51.7182 118.271L56.9948 110.447L48.5657 104.76Z" fill="white"/>
</mask>
<g mask="url(#mask9_408_19186)">
<path d="M46.0579 113.029L45.4004 114.004L47.5085 115.426L48.1661 114.451L46.0579 113.029Z" fill="#FBFB79"/>
<path d="M47.3743 111.075L46.7168 112.05L48.8249 113.472L49.4825 112.497L47.3743 111.075Z" fill="#FBFB79"/>
<path d="M44.6048 110.633L43.9473 111.608L46.0554 113.031L46.713 112.056L44.6048 110.633Z" fill="#5AE500"/>
<path d="M45.9212 108.68L45.2637 109.655L47.3718 111.077L48.0294 110.102L45.9212 108.68Z" fill="#5AE500"/>
<path d="M47.2474 106.72L46.5898 107.695L48.698 109.118L49.3555 108.143L47.2474 106.72Z" fill="#5AE500"/>
</g>
<mask id="mask10_408_19186" style="mask-type:luminance" maskUnits="userSpaceOnUse" x="38" y="112" width="14" height="15">
<path d="M43.2883 112.583L38.0117 120.407L46.4409 126.094L51.7175 118.269L43.2883 112.583Z" fill="white"/>
</mask>
<g mask="url(#mask10_408_19186)">
<path d="M44.7357 114.988L44.0781 115.964L46.1863 117.386L46.8438 116.411L44.7357 114.988Z" fill="#FBFB79"/>
<path d="M41.9661 114.543L41.3086 115.518L43.4167 116.94L44.0743 115.965L41.9661 114.543Z" fill="#5AE500"/>
<path d="M43.2845 112.586L42.627 113.561L44.7351 114.983L45.3926 114.008L43.2845 112.586Z" fill="#5AE500"/>
</g>
<mask id="mask11_408_19186" style="mask-type:luminance" maskUnits="userSpaceOnUse" x="40" y="91" width="14" height="14">
<path d="M45.4094 91.2496L40.1328 99.0744L48.562 104.761L53.8386 96.9365L45.4094 91.2496Z" fill="white"/>
</mask>
<g mask="url(#mask11_408_19186)">
<path d="M42.8997 99.5189L42.2422 100.494L44.3503 101.916L45.0079 100.941L42.8997 99.5189Z" fill="#FBFB79"/>
<path d="M47.0911 102.397L46.4336 103.372L48.5417 104.794L49.1993 103.819L47.0911 102.397Z" fill="#FBFB79"/>
<path d="M44.2161 97.5647L43.5586 98.5397L45.6667 99.962L46.3243 98.987L44.2161 97.5647Z" fill="#FBFB79"/>
<path d="M45.6654 99.9658L45.0078 100.941L47.116 102.363L47.7735 101.388L45.6654 99.9658Z" fill="#5AE500"/>
<path d="M41.4525 97.1236L40.7949 98.0987L42.9031 99.521L43.5606 98.5459L41.4525 97.1236Z" fill="#5AE500"/>
<path d="M45.5384 95.6094L44.8809 96.5845L46.989 98.0068L47.6466 97.0317L45.5384 95.6094Z" fill="#FBFB79"/>
<path d="M46.9876 98.0105L46.3301 98.9856L48.4382 100.408L49.0958 99.4328L46.9876 98.0105Z" fill="#5AE500"/>
<path d="M42.7747 95.1642L42.1172 96.1393L44.2253 97.5616L44.8829 96.5865L42.7747 95.1642Z" fill="#5AE500"/>
</g>
<mask id="mask12_408_19186" style="mask-type:luminance" maskUnits="userSpaceOnUse" x="34" y="99" width="15" height="14">
<path d="M40.136 99.0748L34.8594 106.9L43.2885 112.587L48.5652 104.762L40.136 99.0748Z" fill="white"/>
</mask>
<g mask="url(#mask12_408_19186)">
<path d="M37.6243 107.341L36.9668 108.316L39.0749 109.739L39.7325 108.764L37.6243 107.341Z" fill="#FBFB79"/>
<path d="M41.8197 110.222L41.1621 111.197L43.2703 112.619L43.9278 111.644L41.8197 110.222Z" fill="#FBFB79"/>
<path d="M38.9486 105.387L38.291 106.362L40.3992 107.784L41.0567 106.809L38.9486 105.387Z" fill="#FBFB79"/>
<path d="M40.3919 107.787L39.7344 108.763L41.8425 110.185L42.5001 109.21L40.3919 107.787Z" fill="#5AE500"/>
<path d="M36.1771 104.947L35.5195 105.922L37.6277 107.344L38.2852 106.369L36.1771 104.947Z" fill="#5AE500"/>
<path d="M43.138 108.268L42.4805 109.243L44.5886 110.665L45.2462 109.69L43.138 108.268Z" fill="#FBFB79"/>
<path d="M40.263 103.432L39.6055 104.407L41.7136 105.83L42.3712 104.855L40.263 103.432Z" fill="#FBFB79"/>
<path d="M41.7122 105.833L41.0547 106.808L43.1628 108.231L43.8204 107.256L41.7122 105.833Z" fill="#5AE500"/>
<path d="M37.4993 102.991L36.8418 103.966L38.95 105.389L39.6075 104.414L37.4993 102.991Z" fill="#5AE500"/>
<path d="M44.4583 106.308L43.8008 107.284L45.9089 108.706L46.5665 107.731L44.4583 106.308Z" fill="#FBFB79"/>
<path d="M41.5833 101.476L40.9258 102.451L43.0339 103.874L43.6915 102.899L41.5833 101.476Z" fill="#FBFB79"/>
<path d="M43.0325 103.876L42.375 104.851L44.4832 106.273L45.1407 105.298L43.0325 103.876Z" fill="#5AE500"/>
<path d="M38.8157 101.033L38.1582 102.008L40.2664 103.43L40.9239 102.455L38.8157 101.033Z" fill="#5AE500"/>
<path d="M45.7767 104.354L45.1191 105.329L47.2273 106.752L47.8848 105.777L45.7767 104.354Z" fill="#FBFB79"/>
<path d="M44.3509 101.92L43.6934 102.895L45.8015 104.317L46.4591 103.342L44.3509 101.92Z" fill="#5AE500"/>
<path d="M40.138 99.0777L39.4805 100.053L41.5886 101.475L42.2462 100.5L40.138 99.0777Z" fill="#5AE500"/>
<path d="M47.095 102.397L46.4375 103.372L48.5457 104.794L49.2032 103.819L47.095 102.397Z" fill="#FBFB79"/>
</g>
<mask id="mask13_408_19186" style="mask-type:luminance" maskUnits="userSpaceOnUse" x="29" y="106" width="15" height="15">
<path d="M34.8625 106.898L29.5859 114.723L38.0151 120.41L43.2917 112.585L34.8625 106.898Z" fill="white"/>
</mask>
<g mask="url(#mask13_408_19186)">
<path d="M32.3548 115.164L31.6973 116.139L33.8054 117.561L34.463 116.586L32.3548 115.164Z" fill="#FBFB79"/>
<path d="M33.6712 113.209L33.0137 114.184L35.1218 115.607L35.7794 114.632L33.6712 113.209Z" fill="#FBFB79"/>
<path d="M35.1146 115.614L34.457 116.59L36.5652 118.012L37.2227 117.037L35.1146 115.614Z" fill="#5AE500"/>
<path d="M30.9017 112.768L30.2441 113.743L32.3523 115.166L33.0098 114.19L30.9017 112.768Z" fill="#5AE500"/>
<path d="M37.8587 116.087L37.2012 117.062L39.3093 118.485L39.9669 117.51L37.8587 116.087Z" fill="#FBFB79"/>
<path d="M34.9896 111.257L34.332 112.233L36.4402 113.655L37.0977 112.68L34.9896 111.257Z" fill="#FBFB79"/>
<path d="M36.4329 113.653L35.7754 114.628L37.8835 116.05L38.5411 115.075L36.4329 113.653Z" fill="#5AE500"/>
<path d="M32.2181 110.814L31.5605 111.789L33.6687 113.211L34.3262 112.236L32.2181 110.814Z" fill="#5AE500"/>
<path d="M39.181 114.131L38.5234 115.106L40.6316 116.529L41.2891 115.554L39.181 114.131Z" fill="#FBFB79"/>
<path d="M36.3099 109.3L35.6523 110.275L37.7605 111.697L38.418 110.722L36.3099 109.3Z" fill="#FBFB79"/>
<path d="M37.7532 111.701L37.0957 112.676L39.2039 114.098L39.8614 113.123L37.7532 111.701Z" fill="#5AE500"/>
<path d="M33.5404 108.854L32.8828 109.829L34.991 111.252L35.6485 110.277L33.5404 108.854Z" fill="#5AE500"/>
<path d="M40.4993 112.177L39.8418 113.152L41.9499 114.575L42.6075 113.6L40.4993 112.177Z" fill="#FBFB79"/>
<path d="M39.0697 109.747L38.4121 110.722L40.5203 112.144L41.1778 111.169L39.0697 109.747Z" fill="#5AE500"/>
<path d="M34.8607 106.901L34.2031 107.876L36.3113 109.298L36.9688 108.323L34.8607 106.901Z" fill="#5AE500"/>
<path d="M41.8197 110.222L41.1621 111.197L43.2703 112.619L43.9278 111.644L41.8197 110.222Z" fill="#FBFB79"/>
</g>
<mask id="mask14_408_19186" style="mask-type:luminance" maskUnits="userSpaceOnUse" x="24" y="114" width="15" height="15">
<path d="M29.5852 114.721L24.3086 122.546L32.7378 128.233L38.0144 120.408L29.5852 114.721Z" fill="white"/>
</mask>
<g mask="url(#mask14_408_19186)">
<path d="M29.5794 114.723L28.9219 115.698L31.03 117.121L31.6876 116.146L29.5794 114.723Z" fill="#5AE500"/>
</g>
<mask id="mask15_408_19186" style="mask-type:luminance" maskUnits="userSpaceOnUse" x="31" y="85" width="15" height="15">
<path d="M36.9856 85.5613L31.709 93.3861L40.1382 99.073L45.4148 91.2482L36.9856 85.5613Z" fill="white"/>
</mask>
<g mask="url(#mask15_408_19186)">
<path d="M38.6615 96.7119L38.0039 97.687L40.1121 99.1093L40.7696 98.1342L38.6615 96.7119Z" fill="#FBFB79"/>
<path d="M39.9818 94.7561L39.3242 95.7311L41.4324 97.1535L42.0899 96.1784L39.9818 94.7561Z" fill="#FBFB79"/>
</g>
<mask id="mask16_408_19186" style="mask-type:luminance" maskUnits="userSpaceOnUse" x="26" y="93" width="15" height="14">
<path d="M31.7063 93.3884L26.4297 101.213L34.8589 106.9L40.1355 99.0753L31.7063 93.3884Z" fill="white"/>
</mask>
<g mask="url(#mask16_408_19186)">
<path d="M29.1966 101.653L28.5391 102.628L30.6472 104.05L31.3048 103.075L29.1966 101.653Z" fill="#FBFB79"/>
<path d="M33.3861 104.535L32.7285 105.51L34.8367 106.932L35.4942 105.957L33.3861 104.535Z" fill="#FBFB79"/>
<path d="M30.5169 99.7017L29.8594 100.677L31.9675 102.099L32.6251 101.124L30.5169 99.7017Z" fill="#FBFB79"/>
<path d="M31.9622 102.1L31.3047 103.076L33.4128 104.498L34.0704 103.523L31.9622 102.1Z" fill="#5AE500"/>
<path d="M27.7493 99.2583L27.0918 100.233L29.1999 101.656L29.8575 100.681L27.7493 99.2583Z" fill="#5AE500"/>
<path d="M34.7083 102.58L34.0508 103.555L36.1589 104.977L36.8165 104.002L34.7083 102.58Z" fill="#FBFB79"/>
<path d="M31.8333 97.7476L31.1758 98.7227L33.2839 100.145L33.9415 99.1699L31.8333 97.7476Z" fill="#FBFB79"/>
<path d="M33.2865 100.145L32.6289 101.12L34.7371 102.542L35.3946 101.567L33.2865 100.145Z" fill="#5AE500"/>
<path d="M29.0697 97.3064L28.4121 98.2815L30.5203 99.7038L31.1778 98.7287L29.0697 97.3064Z" fill="#5AE500"/>
<path d="M36.0267 100.621L35.3691 101.596L37.4773 103.019L38.1348 102.044L36.0267 100.621Z" fill="#FBFB79"/>
<path d="M33.1517 95.7901L32.4941 96.7652L34.6023 98.1875L35.2598 97.2124L33.1517 95.7901Z" fill="#FBFB79"/>
<path d="M34.6009 98.1912L33.9434 99.1663L36.0515 100.589L36.7091 99.6135L34.6009 98.1912Z" fill="#5AE500"/>
<path d="M30.388 95.3449L29.7305 96.3199L31.8386 97.7423L32.4962 96.7672L30.388 95.3449Z" fill="#5AE500"/>
<path d="M37.347 98.6662L36.6895 99.6413L38.7976 101.064L39.4551 100.089L37.347 98.6662Z" fill="#FBFB79"/>
<path d="M35.9212 96.2392L35.2637 97.2143L37.3718 98.6366L38.0294 97.6615L35.9212 96.2392Z" fill="#5AE500"/>
<path d="M38.6654 96.712L38.0078 97.6871L40.116 99.1094L40.7735 98.1343L38.6654 96.712Z" fill="#FBFB79"/>
</g>
<mask id="mask17_408_19186" style="mask-type:luminance" maskUnits="userSpaceOnUse" x="21" y="101" width="14" height="14">
<path d="M26.4329 101.213L21.1562 109.038L29.5854 114.725L34.862 106.9L26.4329 101.213Z" fill="white"/>
</mask>
<g mask="url(#mask17_408_19186)">
<path d="M23.9193 109.48L23.2617 110.455L25.3699 111.878L26.0274 110.902L23.9193 109.48Z" fill="#FBFB79"/>
<path d="M28.1146 112.356L27.457 113.331L29.5652 114.754L30.2227 113.779L28.1146 112.356Z" fill="#FBFB79"/>
<path d="M25.2396 107.524L24.582 108.5L26.6902 109.922L27.3477 108.947L25.2396 107.524Z" fill="#FBFB79"/>
<path d="M26.6868 109.926L26.0293 110.901L28.1374 112.324L28.795 111.348L26.6868 109.926Z" fill="#5AE500"/>
<path d="M22.472 107.081L21.8145 108.056L23.9226 109.478L24.5801 108.503L22.472 107.081Z" fill="#5AE500"/>
<path d="M29.4329 110.402L28.7754 111.378L30.8835 112.8L31.5411 111.825L29.4329 110.402Z" fill="#FBFB79"/>
<path d="M26.5579 105.567L25.9004 106.542L28.0085 107.964L28.6661 106.989L26.5579 105.567Z" fill="#FBFB79"/>
<path d="M28.0032 107.968L27.3457 108.943L29.4539 110.365L30.1114 109.39L28.0032 107.968Z" fill="#5AE500"/>
<path d="M23.7943 105.126L23.1367 106.101L25.2449 107.523L25.9024 106.548L23.7943 105.126Z" fill="#5AE500"/>
<path d="M30.7552 108.443L30.0977 109.418L32.2058 110.84L32.8634 109.865L30.7552 108.443Z" fill="#FBFB79"/>
<path d="M27.8782 103.615L27.2207 104.59L29.3289 106.013L29.9864 105.037L27.8782 103.615Z" fill="#FBFB79"/>
<path d="M29.3236 106.014L28.666 106.989L30.7742 108.411L31.4317 107.436L29.3236 106.014Z" fill="#5AE500"/>
<path d="M25.1107 103.172L24.4531 104.147L26.5613 105.569L27.2188 104.594L25.1107 103.172Z" fill="#5AE500"/>
<path d="M32.0716 106.489L31.4141 107.464L33.5222 108.886L34.1798 107.911L32.0716 106.489Z" fill="#FBFB79"/>
<path d="M30.6478 104.059L29.9902 105.034L32.0984 106.456L32.7559 105.481L30.6478 104.059Z" fill="#5AE500"/>
<path d="M26.431 101.216L25.7734 102.191L27.8816 103.613L28.5391 102.638L26.431 101.216Z" fill="#5AE500"/>
<path d="M33.388 104.535L32.7305 105.51L34.8386 106.932L35.4962 105.957L33.388 104.535Z" fill="#FBFB79"/>
</g>
<mask id="mask18_408_19186" style="mask-type:luminance" maskUnits="userSpaceOnUse" x="15" y="109" width="15" height="14">
<path d="M21.1575 109.033L15.8809 116.858L24.31 122.545L29.5866 114.72L21.1575 109.033Z" fill="white"/>
</mask>
<g mask="url(#mask18_408_19186)">
<path d="M19.9661 115.344L19.3086 116.319L21.4167 117.741L22.0743 116.766L19.9661 115.344Z" fill="#FBFB79"/>
<path d="M17.1966 114.903L16.5391 115.878L18.6472 117.3L19.3048 116.325L17.1966 114.903Z" fill="#5AE500"/>
<path d="M21.2845 113.392L20.627 114.367L22.7351 115.789L23.3926 114.814L21.2845 113.392Z" fill="#FBFB79"/>
<path d="M22.7259 115.791L22.0684 116.766L24.1765 118.188L24.8341 117.213L22.7259 115.791Z" fill="#5AE500"/>
<path d="M18.513 112.949L17.8555 113.924L19.9636 115.346L20.6212 114.371L18.513 112.949Z" fill="#5AE500"/>
<path d="M22.6048 111.435L21.9473 112.41L24.0554 113.832L24.713 112.857L22.6048 111.435Z" fill="#FBFB79"/>
<path d="M24.0501 113.835L23.3926 114.811L25.5007 116.233L26.1583 115.258L24.0501 113.835Z" fill="#5AE500"/>
<path d="M19.8333 110.997L19.1758 111.972L21.2839 113.394L21.9415 112.419L19.8333 110.997Z" fill="#5AE500"/>
<path d="M26.7943 114.312L26.1367 115.287L28.2449 116.709L28.9024 115.734L26.7943 114.312Z" fill="#FBFB79"/>
<path d="M25.3646 111.881L24.707 112.857L26.8152 114.279L27.4727 113.304L25.3646 111.881Z" fill="#5AE500"/>
<path d="M21.1517 109.035L20.4941 110.01L22.6023 111.433L23.2598 110.457L21.1517 109.035Z" fill="#5AE500"/>
<path d="M28.1165 112.357L27.459 113.332L29.5671 114.754L30.2247 113.779L28.1165 112.357Z" fill="#FBFB79"/>
</g>
<mask id="mask19_408_19186" style="mask-type:luminance" maskUnits="userSpaceOnUse" x="18" y="87" width="14" height="15">
<path d="M23.2805 87.7034L18.0039 95.5281L26.4331 101.215L31.7097 93.3903L23.2805 87.7034Z" fill="white"/>
</mask>
<g mask="url(#mask19_408_19186)">
<path d="M20.7669 95.9726L20.1094 96.9477L22.2175 98.37L22.8751 97.3949L20.7669 95.9726Z" fill="#FBFB79"/>
<path d="M24.9583 98.8465L24.3008 99.8216L26.4089 101.244L27.0665 100.269L24.9583 98.8465Z" fill="#FBFB79"/>
<path d="M23.5345 96.416L22.877 97.3911L24.9851 98.8134L25.6426 97.8383L23.5345 96.416Z" fill="#5AE500"/>
<path d="M26.2786 96.8945L25.6211 97.8696L27.7292 99.2919L28.3868 98.3169L26.2786 96.8945Z" fill="#FBFB79"/>
<path d="M27.597 94.9328L26.9395 95.9078L29.0476 97.3301L29.7051 96.3551L27.597 94.9328Z" fill="#FBFB79"/>
</g>
<mask id="mask20_408_19186" style="mask-type:luminance" maskUnits="userSpaceOnUse" x="12" y="95" width="15" height="15">
<path d="M18.0012 95.5229L12.7246 103.348L21.1538 109.035L26.4304 101.21L18.0012 95.5229Z" fill="white"/>
</mask>
<g mask="url(#mask20_408_19186)">
<path d="M15.4915 103.796L14.834 104.771L16.9421 106.193L17.5997 105.218L15.4915 103.796Z" fill="#FBFB79"/>
<path d="M19.6868 106.672L19.0293 107.647L21.1375 109.069L21.795 108.094L19.6868 106.672Z" fill="#FBFB79"/>
<path d="M16.8138 101.836L16.1562 102.811L18.2644 104.234L18.9219 103.259L16.8138 101.836Z" fill="#FBFB79"/>
<path d="M18.2591 104.239L17.6016 105.214L19.7097 106.636L20.3673 105.661L18.2591 104.239Z" fill="#5AE500"/>
<path d="M14.0462 101.393L13.3887 102.368L15.4968 103.79L16.1544 102.815L14.0462 101.393Z" fill="#5AE500"/>
<path d="M21.0052 104.714L20.3477 105.689L22.4558 107.112L23.1134 106.136L21.0052 104.714Z" fill="#FBFB79"/>
<path d="M18.1302 99.882L17.4727 100.857L19.5808 102.279L20.2384 101.304L18.1302 99.882Z" fill="#FBFB79"/>
<path d="M19.5794 102.283L18.9219 103.258L21.03 104.681L21.6876 103.705L19.5794 102.283Z" fill="#5AE500"/>
<path d="M15.3665 99.4409L14.709 100.416L16.8171 101.838L17.4747 100.863L15.3665 99.4409Z" fill="#5AE500"/>
<path d="M22.3236 102.76L21.666 103.735L23.7742 105.158L24.4317 104.182L22.3236 102.76Z" fill="#FBFB79"/>
<path d="M19.4486 97.9245L18.791 98.8996L20.8992 100.322L21.5567 99.3468L19.4486 97.9245Z" fill="#FBFB79"/>
<path d="M20.8978 100.326L20.2402 101.301L22.3484 102.723L23.0059 101.748L20.8978 100.326Z" fill="#5AE500"/>
<path d="M16.6849 97.4834L16.0273 98.4584L18.1355 99.8807L18.793 98.9057L16.6849 97.4834Z" fill="#5AE500"/>
<path d="M23.6419 100.804L22.9844 101.779L25.0925 103.201L25.7501 102.226L23.6419 100.804Z" fill="#FBFB79"/>
<path d="M22.2181 98.3737L21.5605 99.3488L23.6687 100.771L24.3262 99.796L22.2181 98.3737Z" fill="#5AE500"/>
<path d="M18.0013 95.525L17.3438 96.5001L19.4519 97.9224L20.1094 96.9473L18.0013 95.525Z" fill="#5AE500"/>
<path d="M24.9603 98.8465L24.3027 99.8216L26.4109 101.244L27.0684 100.269L24.9603 98.8465Z" fill="#FBFB79"/>
</g>
<mask id="mask21_408_19186" style="mask-type:luminance" maskUnits="userSpaceOnUse" x="7" y="103" width="15" height="14">
<path d="M12.7297 103.348L7.45312 111.173L15.8823 116.86L21.1589 109.035L12.7297 103.348Z" fill="white"/>
</mask>
<g mask="url(#mask21_408_19186)">
<path d="M14.4114 114.495L13.7539 115.47L15.8621 116.892L16.5196 115.917L14.4114 114.495Z" fill="#FBFB79"/>
<path d="M12.9818 112.064L12.3242 113.039L14.4324 114.461L15.0899 113.486L12.9818 112.064Z" fill="#5AE500"/>
<path d="M15.7298 112.537L15.0723 113.512L17.1804 114.934L17.838 113.959L15.7298 112.537Z" fill="#FBFB79"/>
<path d="M12.8568 107.701L12.1992 108.676L14.3074 110.099L14.9649 109.124L12.8568 107.701Z" fill="#FBFB79"/>
<path d="M14.3001 110.107L13.6426 111.082L15.7507 112.504L16.4083 111.529L14.3001 110.107Z" fill="#5AE500"/>
<path d="M17.0501 110.585L16.3926 111.56L18.5007 112.982L19.1583 112.007L17.0501 110.585Z" fill="#FBFB79"/>
<path d="M14.1751 105.75L13.5176 106.725L15.6257 108.147L16.2833 107.172L14.1751 105.75Z" fill="#FBFB79"/>
<path d="M15.6204 108.151L14.9629 109.126L17.071 110.548L17.7286 109.573L15.6204 108.151Z" fill="#5AE500"/>
<path d="M18.3665 108.623L17.709 109.598L19.8171 111.021L20.4747 110.046L18.3665 108.623Z" fill="#FBFB79"/>
<path d="M16.9427 106.193L16.2852 107.168L18.3933 108.59L19.0509 107.615L16.9427 106.193Z" fill="#5AE500"/>
<path d="M12.7279 103.354L12.0703 104.329L14.1785 105.752L14.836 104.777L12.7279 103.354Z" fill="#5AE500"/>
<path d="M19.6868 106.671L19.0293 107.647L21.1375 109.069L21.795 108.094L19.6868 106.671Z" fill="#FBFB79"/>
</g>
<mask id="mask22_408_19186" style="mask-type:luminance" maskUnits="userSpaceOnUse" x="2" y="111" width="14" height="14">
<path d="M7.45239 111.171L2.17578 118.996L10.6049 124.683L15.8816 116.858L7.45239 111.171Z" fill="white"/>
</mask>
<g mask="url(#mask22_408_19186)">
<path d="M14.4095 114.495L13.752 115.47L15.8601 116.892L16.5177 115.917L14.4095 114.495Z" fill="#FBFB79"/>
</g>
<mask id="mask23_408_19186" style="mask-type:luminance" maskUnits="userSpaceOnUse" x="4" y="89" width="15" height="15">
<path d="M9.57739 89.8379L4.30078 97.6627L12.7299 103.35L18.0066 95.5249L9.57739 89.8379Z" fill="white"/>
</mask>
<g mask="url(#mask23_408_19186)">
<path d="M12.5775 99.0291L11.9199 100.004L14.0281 101.427L14.6856 100.451L12.5775 99.0291Z" fill="#FBFB79"/>
<path d="M13.8919 97.0749L13.2344 98.05L15.3425 99.4723L16.0001 98.4972L13.8919 97.0749Z" fill="#FBFB79"/>
<path d="M15.2122 95.1133L14.5547 96.0884L16.6628 97.5107L17.3204 96.5356L15.2122 95.1133Z" fill="#FBFB79"/>
</g>
</g>
<path d="M37.6908 115.83C26.4182 114.296 19.0554 107.979 15.5859 103.636" stroke="#5A4536" stroke-width="0.454509" stroke-miterlimit="10"/>
<path d="M65.0108 116.349C65.5509 117.534 65.0648 118.934 63.9014 119.52C61.8862 120.539 59.3516 121.586 56.3433 122.347C53.065 123.174 50.1108 123.435 47.705 123.452C46.392 123.465 45.3075 122.43 45.2577 121.116L44.9627 113.253C44.9128 111.915 45.9557 110.789 47.2978 110.739C48.9931 110.676 51.0664 110.41 53.3351 109.687C55.2049 109.093 56.7796 108.324 58.0511 107.564C59.2893 106.828 60.889 107.335 61.4914 108.644C62.6632 111.213 63.839 113.781 65.0108 116.349Z" fill="#FCE29D"/>
<mask id="mask24_408_19186" style="mask-type:luminance" maskUnits="userSpaceOnUse" x="44" y="107" width="22" height="17">
<path d="M65.0108 116.349C65.5509 117.534 65.0648 118.934 63.9014 119.52C61.8862 120.539 59.3516 121.586 56.3433 122.347C53.065 123.174 50.1108 123.435 47.705 123.452C46.392 123.465 45.3075 122.43 45.2577 121.116L44.9627 113.253C44.9128 111.915 45.9557 110.789 47.2978 110.739C48.9931 110.676 51.0664 110.41 53.3351 109.687C55.2049 109.093 56.7796 108.324 58.0511 107.564C59.2893 106.828 60.889 107.335 61.4914 108.644C62.6632 111.213 63.839 113.781 65.0108 116.349Z" fill="white"/>
</mask>
<g mask="url(#mask24_408_19186)">
<mask id="mask25_408_19186" style="mask-type:luminance" maskUnits="userSpaceOnUse" x="59" y="117" width="13" height="13">
<path d="M68.7574 117.403L59.6016 119.687L62.0613 129.554L71.2171 127.271L68.7574 117.403Z" fill="white"/>
</mask>
<g mask="url(#mask25_408_19186)">
<path d="M61.3597 121.867L60.2188 122.151L60.8339 124.619L61.9749 124.335L61.3597 121.867Z" fill="#FBFB79"/>
<path d="M63.6468 121.293L62.5059 121.577L63.121 124.045L64.262 123.761L63.6468 121.293Z" fill="#FBFB79"/>
<path d="M61.889 119.115L60.748 119.4L61.3632 121.868L62.5042 121.583L61.889 119.115Z" fill="#5AE500"/>
<path d="M65.9339 120.727L64.793 121.012L65.4081 123.48L66.5491 123.195L65.9339 120.727Z" fill="#FBFB79"/>
<path d="M64.1702 118.542L63.0293 118.826L63.6445 121.294L64.7854 121.01L64.1702 118.542Z" fill="#5AE500"/>
</g>
<mask id="mask26_408_19186" style="mask-type:luminance" maskUnits="userSpaceOnUse" x="50" y="119" width="13" height="13">
<path d="M59.6011 119.684L50.4453 121.967L52.905 131.835L62.0609 129.551L59.6011 119.684Z" fill="white"/>
</mask>
<g mask="url(#mask26_408_19186)">
<path d="M52.7308 121.4L51.5898 121.684L52.205 124.152L53.346 123.868L52.7308 121.4Z" fill="#5AE500"/>
<path d="M56.7777 123.008L55.6367 123.292L56.2519 125.76L57.3929 125.476L56.7777 123.008Z" fill="#FBFB79"/>
<path d="M55.0199 120.83L53.8789 121.115L54.4941 123.583L55.635 123.298L55.0199 120.83Z" fill="#5AE500"/>
<path d="M59.0687 122.437L57.9277 122.722L58.5429 125.19L59.6839 124.905L59.0687 122.437Z" fill="#FBFB79"/>
<path d="M57.305 120.256L56.1641 120.541L56.7792 123.009L57.9202 122.724L57.305 120.256Z" fill="#5AE500"/>
<path d="M59.598 119.685L58.457 119.97L59.0722 122.438L60.2132 122.153L59.598 119.685Z" fill="#5AE500"/>
</g>
<mask id="mask27_408_19186" style="mask-type:luminance" maskUnits="userSpaceOnUse" x="41" y="121" width="12" height="14">
<path d="M50.4488 121.968L41.293 124.251L43.7527 134.119L52.9085 131.836L50.4488 121.968Z" fill="white"/>
</mask>
<g mask="url(#mask27_408_19186)">
<path d="M45.8617 123.111L44.7207 123.395L45.3359 125.863L46.4768 125.579L45.8617 123.111Z" fill="#5AE500"/>
<path d="M48.1546 122.54L47.0137 122.825L47.6289 125.292L48.7698 125.008L48.1546 122.54Z" fill="#5AE500"/>
<path d="M50.4437 121.966L49.3027 122.25L49.9179 124.718L51.0589 124.434L50.4437 121.966Z" fill="#5AE500"/>
</g>
<mask id="mask28_408_19186" style="mask-type:luminance" maskUnits="userSpaceOnUse" x="57" y="107" width="12" height="13">
<path d="M66.2984 107.532L57.1426 109.815L59.6023 119.683L68.7581 117.399L66.2984 107.532Z" fill="white"/>
</mask>
<g mask="url(#mask28_408_19186)">
<path d="M58.8988 112.003L57.7578 112.288L58.373 114.756L59.5139 114.471L58.8988 112.003Z" fill="#FBFB79"/>
<path d="M60.0882 116.943L58.9473 117.227L59.5624 119.695L60.7034 119.411L60.0882 116.943Z" fill="#FBFB79"/>
<path d="M61.1898 111.429L60.0488 111.714L60.664 114.182L61.805 113.897L61.1898 111.429Z" fill="#FBFB79"/>
<path d="M60.6585 114.182L59.5176 114.466L60.1328 116.934L61.2737 116.65L60.6585 114.182Z" fill="#5AE500"/>
<path d="M59.4261 109.248L58.2852 109.532L58.9003 112L60.0413 111.716L59.4261 109.248Z" fill="#5AE500"/>
<path d="M62.3792 116.373L61.2383 116.657L61.8535 119.125L62.9944 118.841L62.3792 116.373Z" fill="#FBFB79"/>
<path d="M63.4769 110.86L62.3359 111.144L62.9511 113.612L64.0921 113.328L63.4769 110.86Z" fill="#FBFB79"/>
<path d="M62.9456 113.612L61.8047 113.897L62.4199 116.365L63.5608 116.08L62.9456 113.612Z" fill="#5AE500"/>
<path d="M61.7132 108.678L60.5723 108.963L61.1874 111.431L62.3284 111.146L61.7132 108.678Z" fill="#5AE500"/>
<path d="M64.6644 115.798L63.5234 116.083L64.1386 118.551L65.2796 118.266L64.6644 115.798Z" fill="#FBFB79"/>
<path d="M65.764 110.289L64.623 110.574L65.2382 113.042L66.3792 112.757L65.764 110.289Z" fill="#FBFB79"/>
<path d="M65.2308 113.042L64.0898 113.327L64.705 115.795L65.846 115.51L65.2308 113.042Z" fill="#5AE500"/>
<path d="M64.0042 108.108L62.8633 108.392L63.4785 110.86L64.6194 110.576L64.0042 108.108Z" fill="#5AE500"/>
<path d="M66.2913 107.534L65.1504 107.818L65.7656 110.286L66.9065 110.002L66.2913 107.534Z" fill="#5AE500"/>
</g>
<mask id="mask29_408_19186" style="mask-type:luminance" maskUnits="userSpaceOnUse" x="47" y="109" width="13" height="13">
<path d="M57.1422 109.82L47.9863 112.104L50.446 121.971L59.6019 119.688L57.1422 109.82Z" fill="white"/>
</mask>
<g mask="url(#mask29_408_19186)">
<path d="M49.7445 114.284L48.6035 114.568L49.2187 117.036L50.3596 116.752L49.7445 114.284Z" fill="#FBFB79"/>
<path d="M50.9339 119.223L49.793 119.508L50.4081 121.976L51.5491 121.691L50.9339 119.223Z" fill="#FBFB79"/>
<path d="M52.0296 113.71L50.8887 113.995L51.5039 116.463L52.6448 116.178L52.0296 113.71Z" fill="#FBFB79"/>
<path d="M51.5023 116.466L50.3613 116.75L50.9765 119.218L52.1175 118.934L51.5023 116.466Z" fill="#5AE500"/>
<path d="M50.2718 111.532L49.1309 111.816L49.746 114.284L50.887 114L50.2718 111.532Z" fill="#5AE500"/>
<path d="M53.2191 118.657L52.0781 118.941L52.6933 121.409L53.8343 121.125L53.2191 118.657Z" fill="#FBFB79"/>
<path d="M54.3187 113.14L53.1777 113.425L53.7929 115.893L54.9339 115.608L54.3187 113.14Z" fill="#FBFB79"/>
<path d="M53.7855 115.893L52.6445 116.177L53.2597 118.645L54.4007 118.361L53.7855 115.893Z" fill="#5AE500"/>
<path d="M52.5589 110.959L51.418 111.243L52.0331 113.711L53.1741 113.427L52.5589 110.959Z" fill="#5AE500"/>
<path d="M55.512 118.087L54.3711 118.371L54.9863 120.839L56.1272 120.555L55.512 118.087Z" fill="#FBFB79"/>
<path d="M56.6097 112.57L55.4688 112.854L56.0839 115.322L57.2249 115.038L56.6097 112.57Z" fill="#FBFB79"/>
<path d="M56.0785 115.322L54.9375 115.607L55.5527 118.075L56.6936 117.79L56.0785 115.322Z" fill="#5AE500"/>
<path d="M54.846 110.389L53.7051 110.673L54.3203 113.141L55.4612 112.857L54.846 110.389Z" fill="#5AE500"/>
<path d="M57.7991 117.513L56.6582 117.798L57.2734 120.266L58.4143 119.981L57.7991 117.513Z" fill="#FBFB79"/>
<path d="M58.3656 114.752L57.2246 115.036L57.8398 117.504L58.9807 117.22L58.3656 114.752Z" fill="#5AE500"/>
<path d="M57.137 109.818L55.9961 110.102L56.6113 112.57L57.7522 112.286L57.137 109.818Z" fill="#5AE500"/>
<path d="M60.0863 116.943L58.9453 117.228L59.5605 119.696L60.7014 119.411L60.0863 116.943Z" fill="#FBFB79"/>
</g>
<mask id="mask30_408_19186" style="mask-type:luminance" maskUnits="userSpaceOnUse" x="38" y="112" width="13" height="13">
<path d="M47.9898 112.1L38.834 114.384L41.2937 124.251L50.4495 121.968L47.9898 112.1Z" fill="white"/>
</mask>
<g mask="url(#mask30_408_19186)">
<path d="M45.1644 115.424L44.0234 115.709L44.6386 118.177L45.7796 117.892L45.1644 115.424Z" fill="#FBFB79"/>
<path d="M44.6331 118.177L43.4922 118.461L44.1074 120.929L45.2483 120.645L44.6331 118.177Z" fill="#5AE500"/>
<path d="M46.3597 120.367L45.2188 120.651L45.8339 123.119L46.9749 122.835L46.3597 120.367Z" fill="#FBFB79"/>
<path d="M47.4574 114.854L46.3164 115.139L46.9316 117.607L48.0725 117.322L47.4574 114.854Z" fill="#FBFB79"/>
<path d="M46.9202 117.603L45.7793 117.887L46.3945 120.355L47.5354 120.07L46.9202 117.603Z" fill="#5AE500"/>
<path d="M45.6937 112.672L44.5527 112.957L45.1679 115.425L46.3089 115.14L45.6937 112.672Z" fill="#5AE500"/>
<path d="M48.6429 119.798L47.502 120.082L48.1171 122.55L49.2581 122.266L48.6429 119.798Z" fill="#FBFB79"/>
<path d="M49.2113 117.036L48.0703 117.321L48.6855 119.789L49.8264 119.504L49.2113 117.036Z" fill="#5AE500"/>
<path d="M47.9808 112.102L46.8398 112.387L47.455 114.855L48.596 114.57L47.9808 112.102Z" fill="#5AE500"/>
<path d="M50.9339 119.223L49.793 119.508L50.4081 121.976L51.5491 121.691L50.9339 119.223Z" fill="#FBFB79"/>
</g>
<mask id="mask31_408_19186" style="mask-type:luminance" maskUnits="userSpaceOnUse" x="54" y="97" width="13" height="13">
<path d="M63.8355 97.664L54.6797 99.9474L57.1394 109.815L66.2952 107.532L63.8355 97.664Z" fill="white"/>
</mask>
<g mask="url(#mask31_408_19186)">
<path d="M57.6273 107.075L56.4863 107.36L57.1015 109.828L58.2425 109.543L57.6273 107.075Z" fill="#FBFB79"/>
<path d="M59.9183 106.505L58.7773 106.79L59.3925 109.258L60.5335 108.973L59.9183 106.505Z" fill="#FBFB79"/>
<path d="M62.2074 105.935L61.0664 106.219L61.6816 108.687L62.8225 108.403L62.2074 105.935Z" fill="#FBFB79"/>
<path d="M64.4984 105.365L63.3574 105.649L63.9726 108.117L65.1136 107.832L64.4984 105.365Z" fill="#FBFB79"/>
</g>
<mask id="mask32_408_19186" style="mask-type:luminance" maskUnits="userSpaceOnUse" x="45" y="99" width="13" height="14">
<path d="M54.6832 99.9525L45.5273 102.236L47.9871 112.104L57.1429 109.82L54.6832 99.9525Z" fill="white"/>
</mask>
<g mask="url(#mask32_408_19186)">
<path d="M48.4749 109.36L47.334 109.644L47.9492 112.112L49.0901 111.828L48.4749 109.36Z" fill="#FBFB79"/>
<path d="M49.0394 106.599L47.8984 106.883L48.5136 109.351L49.6546 109.066L49.0394 106.599Z" fill="#5AE500"/>
<path d="M50.762 108.789L49.6211 109.074L50.2363 111.542L51.3772 111.257L50.762 108.789Z" fill="#FBFB79"/>
<path d="M51.3285 106.025L50.1875 106.31L50.8027 108.778L51.9436 108.493L51.3285 106.025Z" fill="#5AE500"/>
<path d="M53.0531 108.215L51.9121 108.5L52.5273 110.968L53.6682 110.683L53.0531 108.215Z" fill="#FBFB79"/>
<path d="M53.6195 105.455L52.4785 105.739L53.0937 108.207L54.2346 107.923L53.6195 105.455Z" fill="#5AE500"/>
<path d="M55.3363 107.646L54.1953 107.93L54.8105 110.398L55.9514 110.114L55.3363 107.646Z" fill="#FBFB79"/>
<path d="M55.9046 104.889L54.7637 105.173L55.3789 107.641L56.5198 107.357L55.9046 104.889Z" fill="#5AE500"/>
<path d="M57.6273 107.076L56.4863 107.36L57.1015 109.828L58.2425 109.543L57.6273 107.076Z" fill="#FBFB79"/>
</g>
<mask id="mask33_408_19186" style="mask-type:luminance" maskUnits="userSpaceOnUse" x="36" y="102" width="12" height="13">
<path d="M45.5308 102.233L36.375 104.516L38.8347 114.384L47.9905 112.1L45.5308 102.233Z" fill="white"/>
</mask>
<g mask="url(#mask33_408_19186)">
<path d="M44.9945 104.986L43.8535 105.271L44.4687 107.739L45.6096 107.454L44.9945 104.986Z" fill="#FBFB79"/>
<path d="M44.4613 107.739L43.3203 108.024L43.9355 110.492L45.0764 110.207L44.4613 107.739Z" fill="#5AE500"/>
<path d="M46.182 109.93L45.041 110.215L45.6562 112.683L46.7971 112.398L46.182 109.93Z" fill="#FBFB79"/>
<path d="M46.7542 107.169L45.6133 107.453L46.2285 109.921L47.3694 109.637L46.7542 107.169Z" fill="#5AE500"/>
<path d="M48.4749 109.36L47.334 109.644L47.9492 112.112L49.0901 111.828L48.4749 109.36Z" fill="#FBFB79"/>
</g>
</g>
<path d="M65.0106 116.349C65.5508 117.534 65.0647 118.934 63.9012 119.52C61.886 120.539 59.3515 121.586 56.3432 122.347C53.0649 123.174 50.1106 123.435 47.7049 123.452C46.3919 123.465 45.3074 122.43 45.2575 121.116L45.0664 116.083" stroke="#5A4536" stroke-width="0.454509" stroke-miterlimit="10"/>
<path d="M47.4141 114.837L49.2506 122.276L61.911 119.113L60.0413 111.716L47.4141 114.837Z" fill="#FBFB7A"/>
<path d="M53.0104 116.098L52.7656 115.136L53.2718 115.007C53.3091 114.999 53.3465 114.99 53.3838 114.99C53.417 114.99 53.4502 114.99 53.4793 114.999C53.5083 115.007 53.5373 115.019 53.5581 115.036C53.583 115.053 53.6037 115.073 53.6203 115.102C53.6369 115.127 53.6494 115.16 53.6618 115.194C53.6784 115.252 53.6743 115.306 53.6535 115.355C53.6328 115.405 53.5954 115.443 53.5456 115.472V115.48C53.5871 115.48 53.6203 115.48 53.6494 115.488C53.6743 115.497 53.6992 115.513 53.7158 115.538C53.7323 115.559 53.7448 115.588 53.7572 115.625L53.7946 115.779C53.7946 115.779 53.8029 115.816 53.8112 115.833C53.8153 115.849 53.8278 115.87 53.8402 115.887L53.5996 115.949C53.5996 115.949 53.583 115.924 53.5747 115.907C53.5664 115.891 53.5622 115.866 53.5539 115.841L53.5249 115.729C53.5166 115.704 53.5083 115.683 53.5 115.671C53.4876 115.654 53.471 115.646 53.4502 115.642C53.4295 115.638 53.4004 115.642 53.3631 115.65L53.1432 115.704L53.0975 115.517L53.3299 115.459C53.3797 115.447 53.4129 115.426 53.4253 115.397C53.4419 115.368 53.4419 115.335 53.4336 115.302C53.4295 115.281 53.4212 115.264 53.4087 115.248C53.4004 115.235 53.388 115.227 53.3714 115.219C53.3548 115.214 53.3423 115.21 53.3216 115.21C53.305 115.21 53.2843 115.21 53.2635 115.219L53.0519 115.272L53.2469 116.04L53.0104 116.098Z" fill="black"/>
<path d="M53.9772 115.853L53.7656 115.019L54.0021 114.961L54.2137 115.795L53.9772 115.853Z" fill="black"/>
<path d="M54.7426 115.675C54.6554 115.695 54.5766 115.704 54.5102 115.691C54.4438 115.679 54.3899 115.654 54.3443 115.617C54.3028 115.575 54.2696 115.525 54.2571 115.463L54.4978 115.401C54.5061 115.43 54.5185 115.451 54.5351 115.467C54.5517 115.484 54.5766 115.496 54.6056 115.5C54.6347 115.505 54.6679 115.5 54.7094 115.492C54.7384 115.484 54.7675 115.476 54.7882 115.463C54.8089 115.451 54.8214 115.434 54.8338 115.417C54.8421 115.401 54.8421 115.376 54.8338 115.351C54.8297 115.334 54.8214 115.318 54.8131 115.31C54.8048 115.301 54.7882 115.293 54.7716 115.289C54.755 115.289 54.7301 115.285 54.7011 115.285C54.672 115.285 54.6347 115.285 54.5932 115.293C54.5351 115.297 54.4853 115.297 54.4355 115.293C54.3899 115.289 54.3484 115.276 54.3152 115.264C54.282 115.247 54.253 115.227 54.2322 115.197C54.2115 115.168 54.1949 115.135 54.1824 115.094C54.1658 115.031 54.17 114.973 54.1866 114.919C54.2073 114.865 54.2405 114.82 54.2945 114.782C54.3443 114.745 54.4106 114.716 54.4936 114.695C54.5766 114.675 54.6388 114.67 54.7011 114.683C54.7633 114.691 54.8172 114.716 54.8587 114.749C54.9002 114.787 54.9293 114.832 54.9459 114.886L54.7052 114.948C54.6969 114.919 54.6845 114.903 54.6679 114.89C54.6513 114.878 54.6305 114.87 54.6056 114.87C54.5807 114.87 54.5559 114.87 54.5351 114.878C54.5061 114.886 54.4853 114.895 54.4646 114.907C54.448 114.919 54.4314 114.932 54.4272 114.948C54.4189 114.965 54.4189 114.986 54.4272 115.007C54.4355 115.027 54.4438 115.044 54.4563 115.052C54.4729 115.061 54.4978 115.069 54.531 115.069C54.5642 115.069 54.6139 115.069 54.672 115.06C54.7135 115.06 54.755 115.056 54.7965 115.056C54.838 115.056 54.8753 115.065 54.9127 115.077C54.95 115.09 54.9832 115.114 55.0122 115.144C55.0413 115.177 55.062 115.222 55.0786 115.28C55.0952 115.339 55.0911 115.397 55.0745 115.446C55.0537 115.5 55.0205 115.546 54.9666 115.588C54.9127 115.629 54.8421 115.658 54.7509 115.683L54.7426 115.675Z" fill="black"/>
<path d="M55.2702 115.525L55.0254 114.562L55.739 114.379L55.7888 114.583L55.2619 114.716L55.2992 114.653L55.4652 115.313L55.403 115.276L55.9299 115.143L55.9797 115.346L55.2619 115.529L55.2702 115.525ZM55.3573 115.085L55.3075 114.898L55.7681 114.782L55.8179 114.969L55.3573 115.085Z" fill="black"/>
<path d="M53.3171 117.316L53.0723 116.353L53.5577 116.229C53.6573 116.204 53.7361 116.208 53.7983 116.241C53.8606 116.274 53.8979 116.328 53.9187 116.403C53.927 116.44 53.9311 116.474 53.9187 116.503C53.9104 116.536 53.8979 116.565 53.8813 116.59C53.8606 116.615 53.8357 116.636 53.8025 116.652V116.66C53.8481 116.656 53.8896 116.66 53.9228 116.673C53.956 116.685 53.9851 116.706 54.0058 116.735C54.0265 116.76 54.0431 116.793 54.0514 116.831C54.068 116.893 54.068 116.947 54.0514 116.997C54.0348 117.046 54.0016 117.088 53.956 117.121C53.9104 117.154 53.8481 117.179 53.7735 117.2L53.3171 117.316ZM53.5038 117.08L53.7029 117.03C53.7527 117.017 53.7859 116.997 53.8025 116.972C53.8191 116.947 53.8232 116.918 53.8149 116.88C53.8066 116.839 53.7859 116.814 53.7569 116.802C53.7278 116.789 53.6946 116.789 53.6531 116.802L53.4291 116.86L53.3834 116.685L53.5992 116.631C53.6282 116.623 53.649 116.615 53.6656 116.602C53.6822 116.59 53.6905 116.573 53.6946 116.557C53.6988 116.54 53.6946 116.519 53.6946 116.499C53.6863 116.465 53.6697 116.44 53.6407 116.432C53.6158 116.42 53.5826 116.42 53.5453 116.432L53.3544 116.482L53.5079 117.084L53.5038 117.08Z" fill="black"/>
<path d="M54.5059 117.017L54.4146 116.656L53.9043 116.146L54.174 116.079L54.3607 116.291L54.4769 116.428H54.4852L54.5225 116.249L54.5889 115.975L54.8586 115.909L54.6553 116.602L54.7465 116.963L54.5101 117.021L54.5059 117.017Z" fill="black"/>
<path d="M55.4362 116.78L55.1914 115.817L55.4279 115.759L55.6727 116.722L55.4362 116.78ZM55.5275 116.344L55.4777 116.141L55.9797 116.012L56.0295 116.216L55.5275 116.344ZM56.0793 116.618L55.8345 115.655L56.071 115.597L56.3158 116.56L56.0793 116.618Z" fill="black"/>
<path d="M56.4219 116.531L56.4883 115.489L56.8243 115.402L57.3762 116.286L57.1314 116.348L56.7704 115.738L56.704 115.622H56.6957V115.759L56.6708 116.468L56.426 116.531H56.4219ZM56.6584 116.273V116.078L56.9488 116.008L57.0442 116.174L56.6542 116.273H56.6584Z" fill="black"/>
<path d="M57.4811 116.261L57.2363 115.298L57.6388 115.194C57.7218 115.173 57.7923 115.169 57.8545 115.182C57.9168 115.194 57.9666 115.223 58.008 115.26C58.0454 115.302 58.0744 115.356 58.091 115.418C58.1076 115.489 58.1076 115.551 58.091 115.605C58.0703 115.663 58.0371 115.709 57.9873 115.75C57.9375 115.792 57.8753 115.821 57.8047 115.837L57.618 115.883L57.5724 115.7L57.7384 115.659C57.7923 115.646 57.8255 115.621 57.8421 115.592C57.8587 115.559 57.8628 115.526 57.8545 115.489C57.8421 115.443 57.8213 115.414 57.7881 115.401C57.755 115.389 57.7176 115.389 57.672 115.401L57.4977 115.447L57.5185 115.414L57.7176 116.202L57.4811 116.261Z" fill="black"/>
<path d="M58.3737 116.036L58.1289 115.073L58.5314 114.97C58.6143 114.949 58.6849 114.945 58.7471 114.957C58.8093 114.97 58.8591 114.999 58.9006 115.036C58.938 115.077 58.967 115.131 58.9836 115.194C59.0002 115.264 59.0002 115.326 58.9836 115.38C58.9629 115.439 58.9297 115.484 58.8799 115.526C58.8301 115.567 58.7679 115.596 58.6973 115.613L58.5106 115.658L58.465 115.476L58.6309 115.434C58.6849 115.422 58.7181 115.397 58.7347 115.368C58.7513 115.335 58.7554 115.302 58.7471 115.264C58.7347 115.219 58.7139 115.19 58.6807 115.177C58.6475 115.165 58.6102 115.165 58.5646 115.177L58.3903 115.223L58.411 115.19L58.6102 115.978L58.3737 116.036Z" fill="black"/>
<path d="M59.5254 115.745L59.4342 115.384L58.9238 114.874L59.1935 114.807L59.3802 115.019L59.4964 115.156H59.5047L59.542 114.977L59.6084 114.704L59.8781 114.637L59.6748 115.33L59.7661 115.691L59.5296 115.749L59.5254 115.745Z" fill="black"/>
<path d="M53.6296 118.538L53.3848 117.575L53.6213 117.517L53.8661 118.48L53.6296 118.538ZM53.7208 118.098L53.671 117.895L54.1731 117.766L54.2229 117.969L53.7208 118.098ZM54.2727 118.372L54.0279 117.409L54.2644 117.351L54.5092 118.314L54.2727 118.372Z" fill="black"/>
<path d="M55.1282 118.168C55.0535 118.189 54.983 118.193 54.9207 118.185C54.8544 118.177 54.7963 118.16 54.7423 118.127C54.6884 118.098 54.6428 118.052 54.6054 117.998C54.5681 117.944 54.539 117.874 54.5183 117.795C54.4975 117.716 54.4934 117.641 54.4975 117.575C54.5058 117.508 54.5266 117.446 54.5556 117.396C54.5888 117.342 54.6303 117.297 54.6842 117.264C54.7382 117.226 54.8004 117.197 54.8751 117.181C54.9498 117.164 55.0162 117.156 55.0825 117.164C55.1489 117.172 55.207 117.189 55.261 117.222C55.3149 117.255 55.3605 117.297 55.3979 117.351C55.4352 117.405 55.4643 117.471 55.485 117.55C55.5058 117.629 55.5099 117.704 55.5058 117.77C55.4975 117.836 55.4767 117.899 55.4477 117.948C55.4145 118.002 55.373 118.048 55.319 118.081C55.2651 118.119 55.2029 118.148 55.1282 118.164V118.168ZM55.0784 117.969C55.1282 117.957 55.1697 117.936 55.1987 117.903C55.2319 117.874 55.2485 117.832 55.261 117.787C55.2693 117.737 55.2651 117.683 55.2485 117.612C55.2361 117.562 55.2195 117.521 55.1987 117.488C55.178 117.455 55.1531 117.43 55.1282 117.409C55.0991 117.392 55.0701 117.38 55.0369 117.376C55.0037 117.372 54.9705 117.376 54.9332 117.384C54.8834 117.396 54.8419 117.417 54.8129 117.446C54.7797 117.475 54.7631 117.517 54.7506 117.562C54.7423 117.612 54.7465 117.666 54.7631 117.737C54.7755 117.787 54.7921 117.828 54.8129 117.865C54.8336 117.899 54.8585 117.928 54.8875 117.944C54.9166 117.961 54.9456 117.973 54.9788 117.977C55.012 117.977 55.0452 117.977 55.0825 117.969H55.0784Z" fill="black"/>
<path d="M55.7412 118.004L55.4961 117.039L55.8659 116.944L56.0653 117.301L56.1734 117.53H56.1858L56.1734 117.276V116.865L56.5473 116.769L56.7925 117.733L56.5639 117.792L56.4559 117.359L56.3853 117.048H56.3728V117.359V117.842L56.1734 117.891L55.9365 117.468L55.7911 117.197H55.7786L55.8617 117.509L55.9698 117.937L55.7371 117.995L55.7412 118.004Z" fill="black"/>
<path d="M56.9577 117.69L56.7129 116.727L57.4265 116.545L57.4763 116.748L56.9494 116.881L56.9867 116.819L57.1527 117.479L57.0905 117.441L57.6174 117.308L57.6672 117.512L56.9494 117.694L56.9577 117.69ZM57.0448 117.25L56.995 117.064L57.4556 116.947L57.5054 117.134L57.0448 117.25Z" fill="black"/>
<path d="M53.8207 114.918C53.9213 114.918 54.0028 114.837 54.0028 114.736C54.0028 114.635 53.9213 114.554 53.8207 114.554C53.7202 114.554 53.6387 114.635 53.6387 114.736C53.6387 114.837 53.7202 114.918 53.8207 114.918Z" fill="black"/>
<path d="M52.4707 116.05L52.6906 116.909C52.7279 116.76 52.7279 116.602 52.6906 116.453C52.6533 116.303 52.5786 116.166 52.4748 116.05H52.4707Z" fill="black"/>
<path d="M52.5 116.503C52.4211 116.187 52.2466 115.917 52.0139 115.718L52.1053 116.079C52.0056 115.942 51.8768 115.822 51.7355 115.73L51.7771 115.892C51.4821 115.66 51.0832 115.564 50.6884 115.664L48.9766 116.1L49.8367 119.5L50.8048 119.255L50.5596 118.295L50.9003 118.207L51.8685 118.984L52.9446 118.71L51.8394 117.821C51.9765 117.696 52.0804 117.546 52.1552 117.38L52.1967 117.542C52.2798 117.393 52.3338 117.231 52.3546 117.06L52.446 117.422C52.5541 117.135 52.579 116.815 52.4959 116.499L52.5 116.503ZM50.9087 117.559C50.5721 117.646 50.2272 117.438 50.14 117.102C50.0527 116.765 50.2605 116.42 50.597 116.333C50.9336 116.246 51.2785 116.453 51.3657 116.79C51.453 117.127 51.2452 117.472 50.9087 117.559Z" fill="black"/>
</g>
<path d="M18.9261 55.6542V55.5197C18.9678 52.4041 20.4472 49.6344 22.7183 47.8489L22.8162 47.7721L22.8469 47.7529C23.1154 47.5484 23.4135 47.3398 23.7398 47.1481C24.6259 46.6152 25.6084 46.2154 26.6468 45.9788L27.1844 45.8712C27.7263 45.7795 28.2816 45.733 28.8453 45.733C29.2561 45.733 29.6545 45.7663 30.0396 45.8136C30.4197 45.7618 30.8109 45.733 31.2109 45.733C32.213 45.7331 33.1759 45.9075 34.0718 46.2207C35.1199 46.4123 36.1174 46.7446 37.0442 47.1999L57.1131 20.332C58.8309 18.0314 62.1339 17.6975 64.2731 19.5639L64.4767 19.7502L70.9647 26.075L146.329 0L148.583 30.3683L149.288 30.1725L171.119 24.0416L169.89 76.0322L157.922 77.43L157.917 77.4089L102.819 83.7452L102.817 83.7414C100.74 84.0379 98.7851 82.6229 98.4509 80.5272L98.4298 80.4004L71.2508 90.1853C71.3173 90.7617 71.3417 91.3435 71.3237 91.9172C71.262 93.8804 70.7248 96.0272 69.5419 97.6065L69.5246 97.6295L69.5073 97.6506L69.3288 97.8753L69.3057 97.9041L69.2827 97.931C68.6665 98.65 67.8804 99.1592 67.0342 99.4555L66.6694 99.5707C66.2562 99.6838 65.6834 99.8624 65.0124 100.087C66.0667 101.414 68.4666 103.304 72.9193 102.574L73.167 102.545C74.3226 102.46 75.4232 103.146 75.8321 104.256L75.9089 104.5L75.9147 104.517L75.9185 104.534C75.9532 104.677 75.9818 104.839 76.0145 105.012L76.0357 105.07L76.0606 105.227C76.0722 105.299 76.0773 105.378 76.0856 105.462C76.191 104.681 76.3763 103.666 76.7039 102.568C77.3795 100.304 78.7562 97.3639 81.6097 95.6134L82.3029 95.1871L83.0959 95.3772L82.637 97.2896C83.0608 95.5209 83.0942 95.3888 83.0978 95.3791L83.1228 95.3849C83.1342 95.3878 83.149 95.3903 83.165 95.3945C83.1972 95.403 83.2383 95.4148 83.2879 95.4291C83.3878 95.4578 83.523 95.4999 83.6854 95.5558C84.0092 95.6673 84.4507 95.8374 84.9584 96.0877C85.9694 96.5861 87.285 97.4166 88.4683 98.7432C90.8012 101.358 92.2995 105.536 90.7533 111.857L90.9472 112.051L90.3347 113.311L88.5663 112.451L88.5624 112.447C92.2978 99.6047 82.637 97.2896 82.637 97.2896C78.1325 100.053 77.9185 106.852 77.9135 107.036C77.5564 107.277 77.1822 107.501 76.796 107.697C75.9343 108.14 75.0009 108.469 74.0234 108.664C74.1628 107.889 74.206 106.079 74.1194 105.54L74.1175 105.535C74.0843 105.335 74.0454 105.152 74.008 104.999C73.9208 104.667 73.5881 104.455 73.2477 104.513C66.5132 105.623 63.4246 101.634 62.6679 100.058C62.5599 99.8298 62.3354 99.675 62.0861 99.6667C61.9908 99.6626 61.8954 99.6509 61.8 99.6302V99.6341L61.4794 99.5304C61.3658 99.484 61.2658 99.43 61.1837 99.3845C63.1563 98.6157 65.0873 97.9646 66.151 97.6737C66.7843 97.5007 67.3591 97.1536 67.7888 96.6522L67.9674 96.4275C68.8342 95.2704 69.3059 93.5597 69.3595 91.8558C69.391 90.8493 69.2708 89.83 68.9966 88.9103L99.9966 77.7488L100.392 80.2161C100.558 81.2634 101.552 81.9712 102.595 81.7925L159.453 75.2546L159.456 75.2718L167.964 74.2772L169.091 26.6529L149.819 32.0657L149.835 32.1406L146.809 33.0046L144.556 2.6939L70.4635 28.3311L63.1038 21.1595C61.8282 19.9169 59.7512 20.0835 58.6875 21.509L37.5664 49.7882C37.5131 49.7528 37.4804 49.736 37.4762 49.7326L37.4781 49.7364C36.3333 48.9251 35.0015 48.3616 33.5592 48.1235C32.8281 47.8503 32.0372 47.6993 31.2109 47.6992C30.823 47.6992 30.4422 47.7339 30.0723 47.7971C29.6724 47.7352 29.2626 47.6992 28.8453 47.6992C28.239 47.6992 27.6494 47.7663 27.0846 47.895C26.2453 48.0862 25.451 48.4113 24.7363 48.8436C24.4748 48.9972 24.226 49.1716 23.9894 49.3543C23.9728 49.3668 23.9545 49.3822 23.9337 49.3946C22.1098 50.8285 20.9255 53.0489 20.8923 55.5466V55.6542C20.8923 56.8219 21.1419 57.936 21.5989 58.9375C21.7526 59.2783 21.9313 59.607 22.1307 59.9187L22.1326 59.9206C16.0696 62.1159 11.0994 66.736 8.99339 71.7004C7.52857 75.1585 6.49066 80.3422 8.00454 85.5425C7.99685 85.5448 7.98865 85.548 7.9815 85.5501C6.64603 85.5893 5.31356 86.0558 4.20658 86.9749C1.82582 88.9531 1.29832 92.3355 2.83562 94.9164C3.10986 95.3736 3.50888 95.7394 3.97424 96.0013C6.64051 97.5058 11.7356 102.116 15.1761 103.482C15.1997 103.648 15.2299 103.813 15.2587 103.979C15.2606 107.578 16.7972 112.649 20.1722 117.119C18.6245 120.443 17.1612 127.175 17.5897 131.245C17.6113 131.449 17.5029 131.616 17.3401 131.746C17.2044 131.735 17.099 131.731 17.0233 131.731C16.9785 131.73 16.9436 131.732 16.9196 131.732C16.9079 131.733 16.8975 131.734 16.8908 131.734H16.8792L16.8965 131.955C16.8971 131.962 16.896 131.968 16.8965 131.974C16.8246 131.997 16.7527 132.018 16.6834 132.03C16.3597 132.084 16.0899 132.163 15.8616 132.255C15.0763 132.575 14.0911 133.668 14.7019 134.828C15.3174 135.987 21.5125 138.708 28.2847 139.39V139.386C29.3601 139.502 29.4525 139.403 29.7305 138.889C30.8025 136.91 33.8989 130.401 35.3449 126.719L34.9359 126.402C39.6672 127.669 45.621 128.41 52.1726 127.681C53.6548 129.985 56.1505 132.131 60.0124 133.783C60.2 133.863 60.3268 134.019 60.4041 134.204C60.359 134.316 60.3261 134.406 60.3043 134.472C60.2904 134.515 60.2801 134.547 60.2736 134.57C60.2704 134.581 60.2676 134.591 60.2659 134.597L60.264 134.607V134.611C60.271 134.612 60.307 134.62 60.479 134.661C60.4835 134.662 60.4882 134.661 60.4924 134.663C60.4935 134.738 60.4934 134.812 60.4828 134.885C60.4371 135.209 60.4278 135.493 60.4444 135.738C60.5111 136.581 61.2472 137.853 62.5393 137.629C63.8315 137.4 68.3238 132.333 71.0453 126.095L71.0396 126.099C71.4757 125.11 71.3185 125.069 71.0069 124.57C70.6482 123.995 70.0857 123.197 69.3614 122.278C72.804 120.425 76.267 118.047 79.6743 115.028C79.7608 114.949 79.8266 114.887 79.8682 114.845C80.3868 115.069 80.8723 115.235 81.3371 115.36C86.485 116.723 88.5663 112.451 88.5663 112.451C90.3338 113.312 90.3327 113.315 90.3327 113.315L90.3289 113.321L90.3251 113.33C90.3215 113.337 90.3164 113.346 90.3116 113.355C90.3022 113.374 90.291 113.396 90.2771 113.422C90.2487 113.475 90.2096 113.544 90.1619 113.626C90.0665 113.788 89.9309 114.006 89.751 114.254C89.394 114.745 88.8466 115.385 88.0824 115.974C86.4926 117.2 84.065 118.116 80.834 117.261L80.8282 117.259C80.6481 117.21 80.4671 117.154 80.2829 117.095C78.6967 118.46 77.1006 119.696 75.4961 120.809L72.8483 126.88C71.4128 130.171 69.5173 133.139 67.8042 135.327C66.9483 136.42 66.1132 137.35 65.3753 138.042C65.0081 138.386 64.6357 138.699 64.275 138.946C63.9641 139.159 63.4679 139.461 62.8811 139.565L62.8753 139.566C61.4291 139.817 60.2758 139.187 59.567 138.395C58.9971 137.758 58.6458 136.961 58.5224 136.214L58.2978 135.164C55.1559 133.678 52.835 131.828 51.2299 129.749C45.8221 130.22 40.8384 129.743 36.6064 128.825C35.0072 132.64 32.4418 138.007 31.4586 139.822C31.3781 139.971 31.0435 140.687 30.2508 141.095C29.4945 141.484 28.0869 141.346 28.0869 141.346C24.5154 140.987 21.112 140.092 18.5056 139.133C17.2034 138.653 16.062 138.144 15.178 137.654C14.7382 137.41 14.3276 137.151 13.9818 136.884C13.6837 136.654 13.2452 136.275 12.9661 135.749L12.9622 135.744C12.2779 134.444 12.5233 133.152 13.0602 132.234C13.4903 131.498 14.7459 130.496 14.7459 130.496L15.5525 129.768C15.5435 127.806 15.8074 125.599 16.2091 123.528C16.638 121.317 17.2505 119.119 17.9315 117.376C15.0026 113.145 13.5068 108.48 13.3136 104.782C11.6011 103.903 9.74522 102.582 8.11399 101.372C5.96744 99.7793 4.19969 98.3863 3.00843 97.714C2.28351 97.3056 1.61963 96.7114 1.14978 95.9283L1.14593 95.9225C-0.879386 92.5221 -0.184913 88.0674 2.95083 85.4618C3.7656 84.7854 4.67614 84.3011 5.62553 83.991C4.73073 78.9845 5.79004 74.2201 7.18274 70.9324C9.28282 65.9818 13.8539 61.4728 19.4675 58.8914C19.1151 57.8709 18.9261 56.7801 18.9261 55.6542ZM72.255 122.89C72.2602 122.898 72.2652 122.906 72.2703 122.913L72.7254 122.61C72.569 122.705 72.4115 122.797 72.255 122.89ZM38.5111 48.3635L38.7127 48.2042C38.6915 48.187 38.6724 48.1716 38.657 48.16L38.6513 48.1542L38.5111 48.3635Z" fill="#FEFED7"/>
<defs>
<filter id="filter0_d_408_19186" x="1.96484" y="2.69391" width="168.187" height="141.73" filterUnits="userSpaceOnUse" color-interpolation-filters="sRGB">
<feFlood flood-opacity="0" result="BackgroundImageFix"/>
<feColorMatrix in="SourceAlpha" type="matrix" values="0 0 0 0 0 0 0 0 0 0 0 0 0 0 0 0 0 0 127 0" result="hardAlpha"/>
<feOffset dx="1.06174" dy="4.99411"/>
<feComposite in2="hardAlpha" operator="out"/>
<feColorMatrix type="matrix" values="0 0 0 0 0.32549 0 0 0 0 0.415686 0 0 0 0 0.988235 0 0 0 1 0"/>
<feBlend mode="normal" in2="BackgroundImageFix" result="effect1_dropShadow_408_19186"/>
<feBlend mode="normal" in="SourceGraphic" in2="effect1_dropShadow_408_19186" result="shape"/>
</filter>
</defs>
</svg>
