<svg width="97" height="82" viewBox="0 0 97 82" fill="none" xmlns="http://www.w3.org/2000/svg">
<g filter="url(#filter0_d_396_9462)">
<path d="M16.8867 33.6682L32.997 12.0931C33.5951 11.2916 34.7632 11.1981 35.4804 11.8968L46.0352 22.1808L25.8577 33.7827L16.8867 33.6659V33.6682Z" fill="#FBFB79"/>
<path d="M81.2768 1.51465L27.582 20.0941L33.0604 52.0584L56.2236 43.7139L56.4455 45.1019C56.539 45.6908 57.0973 46.088 57.6837 45.9875L94.4388 41.7627L95.072 14.986L82.543 18.5565L81.2768 1.51465Z" fill="#FBFB79"/>
<path d="M38.1484 20.9002L40.4753 20.274L42.6806 28.4596L45.2411 27.7703L45.8111 29.8897L40.9238 31.2053L38.1484 20.8979V20.9002Z" fill="#4D67FF"/>
<path d="M46.329 16.1052L47.476 15.7968C47.7867 16.0912 48.1395 16.2992 48.5366 16.4207C48.9315 16.5399 49.3847 16.5305 49.8963 16.395L50.0552 16.9838C49.5646 17.117 49.06 17.1778 48.5413 17.1708C48.0227 17.1638 47.5741 17.0212 47.1957 16.7432L47.0485 16.7829C46.8593 17.2128 46.5416 17.561 46.0977 17.8274C45.6538 18.0938 45.1866 18.2948 44.696 18.4256L44.5371 17.8368C45.0581 17.6965 45.4576 17.4722 45.7379 17.1661C46.0182 16.86 46.2145 16.5048 46.329 16.1076V16.1052ZM46.3243 29.7518L46.2262 29.3826L45.5954 18.893L49.5155 17.8531L54.2346 27.2258L54.3327 27.595L51.9031 28.2493L50.9055 26.0083L48.4923 26.658L48.7539 29.0975L46.3243 29.7518ZM48.254 24.5409L50.0505 24.0572L48.4596 20.4913L47.8405 20.6572L48.254 24.5409ZM51.6975 13.0651H51.8073L52.0292 13.8923C51.8447 14.1096 51.6087 14.3153 51.319 14.5092C51.0294 14.7032 50.721 14.8784 50.3939 15.035C50.0668 15.1916 49.7515 15.3248 49.4431 15.4322C49.1347 15.5421 48.8777 15.6239 48.6721 15.6799L48.5133 15.0911C48.8076 15.0116 49.1534 14.8784 49.5506 14.6938C49.9477 14.5069 50.3402 14.2756 50.728 13.9975C51.1158 13.7194 51.4382 13.4086 51.6928 13.0675L51.6975 13.0651Z" fill="#4D67FF"/>
<path d="M51.1023 17.4115L53.546 16.7525L56.0223 21.3746L56.6998 21.1923L56.5199 15.951L58.9636 15.2921L59.0617 15.6613L59.0337 22.9496L58.1202 23.1949L58.9682 26.3448L56.6414 26.9711L55.7957 23.8352L54.8823 24.0805L51.1958 17.7783L51.0977 17.4091L51.1023 17.4115Z" fill="#4D67FF"/>
<path d="M62.3027 14.3924L64.7324 13.7381L68.1549 21.4073L68.774 21.2414L67.8815 12.8899L70.3112 12.2356L70.4093 12.6048L71.0354 23.0804L67.1246 24.1506L62.4008 14.764L62.3027 14.3947V14.3924Z" fill="#4D67FF"/>
<path d="M76.3761 10.5999L76.9461 12.7193L73.9418 13.5278L74.5282 15.708C74.7945 15.521 75.0748 15.3528 75.3715 15.2032C75.6682 15.0537 75.9649 14.9298 76.2663 14.8294C76.5653 14.7289 76.8503 14.6564 77.1237 14.6144L77.675 16.6614L77.5512 16.7899C77.3269 16.7759 77.0769 16.8016 76.8059 16.8647C76.5326 16.9278 76.2453 17.0212 75.9416 17.1451C75.6379 17.2689 75.3388 17.4278 75.0445 17.6241L75.5771 19.5963L78.5791 18.7878L79.1491 20.9072L73.8203 22.342L71.0449 12.0346L76.3737 10.5999H76.3761ZM75.2524 8.36126L75.3926 8.35425L75.6145 9.17912C75.3715 9.41279 75.0678 9.63712 74.6987 9.8521C74.3296 10.0671 73.9395 10.2657 73.5236 10.4456C73.1078 10.6256 72.7106 10.7798 72.3298 10.9083C71.949 11.0368 71.6266 11.1373 71.3603 11.2097L71.2014 10.6209C71.5636 10.5227 71.9981 10.3662 72.5027 10.1512C73.0073 9.93622 73.5096 9.67451 74.0049 9.36839C74.5001 9.06228 74.916 8.72579 75.25 8.36126H75.2524Z" fill="#4D67FF"/>
<path d="M46.5107 32.7266L48.7768 32.1167L51.5522 42.4241L49.1389 43.0737L45.4034 37.9375L45.2562 37.9772L46.9009 43.6766L44.6348 44.2864L41.8594 33.9791L44.2726 33.3295L48.0409 38.5848L48.1881 38.5451L46.5107 32.7266Z" fill="#4D67FF"/>
<path d="M51.1391 37.0075C50.8074 35.7807 50.756 34.7152 50.9803 33.8132C51.2046 32.9112 51.6344 32.1751 52.2652 31.6026C52.8959 31.0325 53.6529 30.6282 54.5359 30.3898C55.0172 30.2613 55.4611 30.1912 55.8699 30.1795C56.2787 30.1702 56.6338 30.1936 56.9399 30.2543C57.2459 30.3127 57.4749 30.3922 57.6267 30.488L58.2645 32.8598L57.9701 32.9392C57.8136 32.792 57.6034 32.6635 57.337 32.556C57.0707 32.4485 56.774 32.3808 56.4469 32.355C56.1175 32.327 55.7718 32.3621 55.4097 32.4602C54.8397 32.6144 54.3841 32.8598 54.0383 33.2009C53.6926 33.5421 53.4777 33.9767 53.3936 34.5048C53.3095 35.033 53.3632 35.6499 53.5524 36.3579C53.737 37.0449 53.9916 37.6034 54.3117 38.0333C54.6317 38.4633 55.0125 38.753 55.4541 38.9026C55.8956 39.0521 56.3745 39.0568 56.8955 38.9166C57.0427 38.8769 57.1712 38.8278 57.281 38.7647C57.3908 38.704 57.4702 38.6292 57.5216 38.5427L56.9656 36.4817L54.8467 37.0519L54.3 35.0189L58.5402 33.8763L59.9325 39.0451C59.6242 39.5803 59.2223 40.0172 58.7294 40.3561C58.2365 40.6949 57.6711 40.9496 57.0333 41.1202C56.454 41.2767 55.8699 41.3211 55.2765 41.2534C54.6855 41.1856 54.1224 40.994 53.5898 40.6738C53.0571 40.3537 52.5782 39.8934 52.153 39.2928C51.7279 38.6923 51.3914 37.9305 51.1438 37.0075H51.1391Z" fill="#4D67FF"/>
<path d="M60.8715 39.912L60.7733 39.5428L60.1426 29.0532L64.0627 28.0133L68.7818 37.386L68.8799 37.7552L66.4503 38.4095L65.4527 36.1662L63.0394 36.8158L63.3011 39.2554L60.8715 39.9097V39.912ZM62.8011 34.7034L64.5977 34.2197L63.0067 30.6538L62.3876 30.8197L62.8011 34.7034Z" fill="#4D67FF"/>
<path d="M65.6469 27.5717L68.0905 26.9127L70.5669 31.5348L71.2444 31.3525L71.0645 26.1112L73.5081 25.4523L73.6062 25.8215L73.5805 33.1098L72.6671 33.3551L73.5151 36.5051L71.1883 37.1313L70.3426 33.9954L69.4291 34.2408L65.7427 27.9386L65.6445 27.5694L65.6469 27.5717Z" fill="#4D67FF"/>
<path d="M73.4945 25.4569L75.9382 24.798L78.4145 29.4201L79.092 29.2378L78.9121 23.9965L81.3558 23.3375L81.4539 23.7067L81.4282 30.995L80.5147 31.2404L81.3628 34.3903L79.0359 35.0166L78.1903 31.8807L77.2768 32.126L73.5903 25.8238L73.4922 25.4546L73.4945 25.4569Z" fill="#4D67FF"/>
<path d="M21.6785 36.6639C21.6785 36.6639 22.5803 29.0859 27.4933 26.8193C31.5255 24.9592 32.9482 21.9612 33.3267 20.947C33.4061 20.7367 33.6094 20.5988 33.8336 20.5988H33.9388C34.5462 20.5988 36.8613 23.7441 35.5811 27.7797C34.5836 30.9202 35.0671 32.7242 36.4946 33.2313C36.7095 33.3084 36.859 33.5047 36.859 33.736V34.1356C36.859 34.2992 36.7842 34.4557 36.6581 34.5585C35.726 35.3063 32.0768 38.6455 36.581 41.924C36.7492 42.0478 36.8356 42.2558 36.7983 42.4614L36.7375 42.7886C36.7118 42.9311 36.6301 43.0549 36.5109 43.1367C35.8007 43.6251 32.9552 45.8614 35.4947 48.7846C35.6512 48.9646 35.7096 49.2076 35.6582 49.4389C35.6255 49.5838 35.5531 49.7147 35.4456 49.8198C35.1045 50.1563 34.3219 51.2966 34.2728 54.7059L21.6738 36.6663L21.6785 36.6639Z" fill="#5A4536"/>
<path d="M36.5856 41.9193C36.7538 42.0431 36.8379 42.2511 36.8029 42.4567L36.7422 42.7839C36.7165 42.9264 36.6347 43.0503 36.5155 43.132C35.803 43.6204 32.9599 45.8567 35.4993 48.7799C35.6558 48.9599 35.7142 49.2029 35.6628 49.4342C35.6301 49.5791 35.5577 49.71 35.4502 49.8151C35.1092 50.1516 34.3265 51.2919 34.2775 54.7013L34.2074 54.6008C33.8733 50.6704 35.0718 49.3057 35.0718 49.3057C32.0955 45.3146 35.5951 42.2254 35.5951 42.2254C31.2568 37.0846 35.7329 34.1893 35.7329 34.1893C34.2868 33.021 33.857 31.4507 34.2261 27.6044C34.5204 24.5222 33.1795 22.8865 32.6328 22.3561C32.9949 21.7579 33.2098 21.2555 33.329 20.9423C33.4084 20.732 33.6093 20.5918 33.8359 20.5918H33.9411C34.5485 20.5918 36.866 23.7371 35.5834 27.7726C34.5859 30.9132 35.0695 32.7148 36.4969 33.2243C36.7118 33.3014 36.8613 33.5 36.8613 33.729V34.1286C36.8613 34.2921 36.7865 34.4487 36.6604 34.5515C35.7283 35.2993 32.0791 38.6361 36.5833 41.9169L36.5856 41.9193Z" fill="#5A4536"/>
<path d="M32.7777 31.3758C31.946 33.2382 30.1799 35.1988 29.7594 34.6286C29.3412 34.0584 30.0421 30.9435 30.8737 29.0812C31.7054 27.2188 32.2427 27.2515 32.7684 27.8848C33.294 28.518 33.6071 29.5135 32.7754 31.3758H32.7777Z" fill="#E1CDAD"/>
<path d="M32.5021 36.9279C31.9344 37.5238 30.9018 37.9421 30.6705 37.3462C30.4393 36.7503 31.0981 35.3693 31.6658 34.7735C32.2334 34.1776 32.7287 34.465 32.925 34.9698C33.1212 35.4745 33.0698 36.3321 32.5021 36.9279Z" fill="#E1CDAD"/>
<path d="M31.8524 43.8751C31.1258 43.403 30.2101 41.9776 30.4297 41.0733C30.6469 40.169 31.9155 40.1293 32.642 40.6013C33.3686 41.0733 33.5087 42.1716 33.3242 42.938C33.1396 43.7045 32.5813 44.3471 31.8547 43.8751H31.8524Z" fill="#E1CDAD"/>
<path d="M39.9459 70.8972C38.4157 74.4046 35.8903 77.2531 35.1637 77.3817C34.4372 77.5078 34.0237 76.7928 33.9863 76.3184C33.9769 76.1806 33.9816 76.0217 34.0073 75.8394C34.0423 75.5987 33.9676 75.316 33.7433 75.2202C31.5146 74.2668 30.0942 73.0213 29.2695 71.687L33.6919 63.936C36.5911 65.5834 39.1352 68.7731 39.9249 70.0396C40.1001 70.32 40.1888 70.3434 39.9435 70.8995L39.9459 70.8972Z" fill="#FF9BC9"/>
<path d="M34.0059 75.7132C34.0059 75.7132 34.3516 74.2528 37.0756 71.701" stroke="#5A4536" stroke-width="0.249605" stroke-miterlimit="10"/>
<path d="M15.9043 78.3725C12.0963 77.9892 8.61306 76.4587 8.26731 75.8067C7.92389 75.1548 8.47756 74.5402 8.9191 74.3603C9.04759 74.3089 9.19944 74.2645 9.38167 74.2341C9.61996 74.192 9.91665 74.0355 9.89095 73.7924C9.6036 71.0631 10.8254 66.2027 11.8417 65.0063L19.8735 71.2477C19.0605 73.3181 17.32 76.9774 16.7173 78.0897C16.5607 78.3795 16.5094 78.4355 15.9043 78.3701V78.3725Z" fill="#FF9BC9"/>
<path d="M9.5 74.192C9.5 74.192 10.9952 74.0729 14.2588 75.8862" stroke="#5A4536" stroke-width="0.249605" stroke-miterlimit="10"/>
<path d="M7.35778 49.7404C7.25967 49.4062 7.07043 49.1048 6.80177 48.8851C5.53556 47.8476 3.67129 47.8173 2.36537 48.9015C1.02674 50.0138 0.730041 51.9159 1.59443 53.367C1.74862 53.6241 1.97289 53.8297 2.23454 53.9769C4.23898 55.1079 8.68474 59.3631 10.0841 58.2017C11.4671 57.0521 7.95585 51.785 7.35545 49.7404H7.35778Z" fill="#FF9BC9"/>
<path d="M49.7966 63.2257C49.7966 63.2257 48.6262 65.6278 45.7317 64.8614C45.47 64.7913 45.1967 64.6978 44.9046 64.5716C45.2387 63.4523 45.2621 62.6064 45.1336 61.9685C44.8462 60.5478 43.8066 60.1832 43.8066 60.1832C43.8066 60.1832 43.8954 56.2762 46.4629 54.7012C46.4629 54.7012 51.8945 56.0028 49.7943 63.2233L49.7966 63.2257Z" fill="#5A4536"/>
<path d="M41.6173 61.1015C41.2295 61.1786 40.83 61.2207 40.4212 61.2207C34.1999 61.2207 34.2793 55.9186 34.2793 55.8065C34.2793 55.8065 34.4943 55.9607 34.7466 56.0191C34.8003 56.0308 34.854 56.0378 34.9078 56.0401C35.048 56.0448 35.1741 56.1313 35.2348 56.2598C35.66 57.1454 37.3958 59.3887 41.1828 58.7648C41.3743 58.7321 41.5612 58.8512 41.6103 59.0382C41.6313 59.1246 41.6547 59.2275 41.6734 59.3396C41.7224 59.6434 41.6991 60.6716 41.6196 61.1039L41.6173 61.1015Z" fill="#5A4536"/>
<path d="M41.6725 59.3396C36.4955 60.1248 35.0377 57.052 34.748 56.0168C34.8018 56.0285 34.8555 56.0355 34.9092 56.0378C35.0494 56.0425 35.1756 56.1289 35.2363 56.2575C35.6615 57.1431 37.3973 59.3864 41.1842 58.7625C41.3758 58.7297 41.5627 58.8489 41.6117 59.0359C41.6328 59.1223 41.6561 59.2251 41.6748 59.3373L41.6725 59.3396Z" fill="#FF9BC9"/>
<path d="M45.1362 61.9708C43.0196 64.1884 40.2887 66.0765 37.0647 66.0765C18.2024 66.0765 14.9317 49.6539 8.81562 59.4658C8.13112 57.2646 8.51659 54.6779 8.74087 53.8717C2.95181 49.6819 3.66201 43.6064 5.05671 40.3139C6.24115 37.5215 9.03756 34.923 12.4484 33.6892C13.1189 34.7431 14.2169 35.4955 15.4994 35.7059C15.7354 35.7456 15.9784 35.7643 16.226 35.7643C18.3099 35.7643 20.0597 34.3412 20.5573 32.4134C20.5993 32.2521 20.632 32.0886 20.6554 31.9227C20.8166 31.9437 20.9778 31.9694 21.139 31.9974C21.2254 32.0115 21.3119 32.0278 21.3983 32.0442C21.4941 32.0629 21.5899 32.0839 21.6856 32.1026C21.6903 32.3526 21.7113 32.598 21.7487 32.8387C22.4379 37.0892 27.0892 38.0519 29.6357 36.4232C30.0258 36.97 34.2122 41.3818 34.2777 55.2737V55.2807C34.2777 55.3906 34.2777 55.5004 34.2777 55.6102C34.2777 58.9588 37.0717 61.2184 40.4195 61.2184C40.8283 61.2184 41.2301 61.1787 41.6156 61.0992C42.1669 60.9894 42.6926 60.8025 43.1785 60.5524C43.3958 60.4426 43.606 60.3164 43.8069 60.1809C43.8069 60.1809 44.8465 60.5454 45.1339 61.9662L45.1362 61.9708Z" fill="#FF9BC9"/>
<path d="M25.6426 44.0784C25.0259 44.3448 24.1708 43.7326 23.7293 42.7091C23.2877 41.6879 23.4302 40.6434 24.047 40.377C24.6614 40.1106 25.5188 40.7229 25.9603 41.744C26.4019 42.7652 26.2594 43.8097 25.6449 44.0761L25.6426 44.0784Z" fill="#FCE29D"/>
<path d="M26.1355 48.0925C25.9674 48.1229 25.7899 47.922 25.7385 47.6417C25.6871 47.3614 25.7829 47.1115 25.951 47.0811C26.1192 47.0507 26.2966 47.2516 26.348 47.5319C26.3994 47.8122 26.3036 48.0622 26.1355 48.0925Z" fill="#FCE29D"/>
<path d="M28.6328 44.5154C28.6328 44.9617 28.4155 45.3216 28.1445 45.3216C27.8735 45.3216 27.6562 44.9594 27.6562 44.5154C27.6562 44.0714 27.8735 43.7069 28.1445 43.7069C28.4155 43.7069 28.6328 44.0691 28.6328 44.5154Z" fill="#FCE29D"/>
<path d="M4.88999 44.438C4.64703 44.8166 4.3807 45.1554 4.10971 45.4382C4.06999 44.7465 4.04663 43.2276 4.78486 41.0194C4.96241 41.003 5.26845 41.0357 5.39928 41.1222C5.53244 41.2087 5.62589 41.3395 5.68429 41.5101C5.90156 42.148 5.60953 43.3094 4.88999 44.438Z" fill="#FCE29D"/>
<path d="M7.24672 46.7283C7.09486 47.2914 6.69771 47.6747 6.35663 47.5835C6.01788 47.4924 5.8637 46.962 6.01555 46.3988C6.1674 45.8356 6.56455 45.4524 6.90563 45.5436C7.24438 45.6347 7.39857 46.1651 7.24672 46.7283Z" fill="#FCE29D"/>
<path d="M26.1567 28.8125C26.1567 29.2401 25.8109 29.5883 25.3811 29.5883C24.9512 29.5883 24.6055 29.2401 24.6055 28.8125C24.6055 28.3849 24.9536 28.0367 25.3811 28.0367C25.8086 28.0367 26.1567 28.3825 26.1567 28.8125Z" stroke="#B2B2B2" stroke-width="0.249605" stroke-miterlimit="10"/>
<path d="M26.1567 28.8125C26.1567 29.2401 25.8109 29.5883 25.3811 29.5883C24.9512 29.5883 24.6055 29.2401 24.6055 28.8125C24.6055 28.3849 24.9536 28.0367 25.3811 28.0367C25.8086 28.0367 26.1567 28.3825 26.1567 28.8125Z" stroke="#B2B2B2" stroke-width="0.249605" stroke-miterlimit="10"/>
<path d="M16.229 28.8125C16.229 29.2401 15.8809 29.5883 15.4533 29.5883C15.0258 29.5883 14.6777 29.2401 14.6777 28.8125C14.6777 28.3849 15.0235 28.0367 15.4533 28.0367C15.8832 28.0367 16.229 28.3825 16.229 28.8125Z" stroke="#B2B2B2" stroke-width="0.249605" stroke-miterlimit="10"/>
<path d="M16.229 28.8125C16.229 29.2401 15.8809 29.5883 15.4533 29.5883C15.0258 29.5883 14.6777 29.2401 14.6777 28.8125C14.6777 28.3849 15.0235 28.0367 15.4533 28.0367C15.8832 28.0367 16.229 28.3825 16.229 28.8125Z" stroke="#B2B2B2" stroke-width="0.249605" stroke-miterlimit="10"/>
<path d="M16.229 28.8125C16.229 29.2401 15.8809 29.5883 15.4533 29.5883C15.0258 29.5883 14.6777 29.2401 14.6777 28.8125C14.6777 28.3849 15.0235 28.0367 15.4533 28.0367C15.8832 28.0367 16.229 28.3825 16.229 28.8125Z" stroke="#B2B2B2" stroke-width="0.291206" stroke-miterlimit="10"/>
<path d="M27.8097 37.65C30.754 37.65 33.1408 35.2626 33.1408 32.3176C33.1408 29.3725 30.754 26.9851 27.8097 26.9851C24.8654 26.9851 22.4785 29.3725 22.4785 32.3176C22.4785 35.2626 24.8654 37.65 27.8097 37.65Z" fill="#FF9BC9"/>
<path d="M17.9952 37.65C20.9395 37.65 23.3264 35.2626 23.3264 32.3176C23.3264 29.3725 20.9395 26.9851 17.9952 26.9851C15.0509 26.9851 12.6641 29.3725 12.6641 32.3176C12.6641 35.2626 15.0509 37.65 17.9952 37.65Z" fill="#FF9BC9"/>
<path d="M44.9077 64.5716C44.8843 64.5949 44.8469 64.63 44.7979 64.6744C32.1101 75.9188 18.1094 71.4486 14.4159 68.8385C10.3556 65.9713 8.58008 61.3609 8.58008 58.4587C9.19449 56.7225 10.6032 55.255 14.2009 56.2177C19.2144 57.559 22.5528 65.7329 37.1656 65.7329C40.3895 65.7329 43.0224 64.1837 45.139 61.9684C45.2675 62.604 45.2441 63.4499 44.91 64.5716H44.9077Z" fill="#FFEFD7"/>
<path d="M21.0703 27.9619C21.0703 27.9619 21.9557 28.6886 23.7779 28.1348L22.0679 30.0486L21.0703 27.9619Z" fill="#FF9BC9"/>
<path d="M45.1367 60.1109C45.1367 60.1109 45.5596 58.2976 46.8001 56.9773" stroke="#FF9BC9" stroke-width="0.552744" stroke-linecap="round" stroke-linejoin="round"/>
<path d="M45.748 61.3072C45.748 61.3072 47.332 60.5991 48.5935 59.7065" stroke="#FF9BC9" stroke-width="0.552744" stroke-linecap="round" stroke-linejoin="round"/>
<path d="M45.8789 62.7841C45.8789 62.7841 47.0447 63.2701 48.5936 62.6766" stroke="#FF9BC9" stroke-width="0.552744" stroke-linecap="round" stroke-linejoin="round"/>
<path d="M31.5607 36.1054C31.5607 36.1054 30.4557 36.942 31.2944 39.045L29.6777 37.1149L31.5607 36.1054Z" fill="#FF9BC9"/>
<path d="M4.5 48.0977C4.5 48.0977 7.30575 57.3792 17.0219 54.991" stroke="#5A4536" stroke-width="0.249605" stroke-miterlimit="10"/>
<path d="M36.5856 41.9193C36.7538 42.0431 36.8379 42.2511 36.8029 42.4567L36.7422 42.7839C36.7165 42.9264 36.6347 43.0503 36.5155 43.132C35.803 43.6204 32.9599 45.8567 35.4993 48.7799C35.6558 48.9599 35.7142 49.2029 35.6628 49.4342C35.6301 49.5791 35.5577 49.71 35.4502 49.8151C35.1092 50.1516 34.3265 51.2919 34.2775 54.7013L34.2074 54.6008C33.9691 51.813 34.5041 50.3175 34.8335 49.6819C34.9596 49.4366 34.948 49.1445 34.7985 48.9131C32.9038 46.0039 34.3779 43.6298 35.1722 42.6764C35.3989 42.4053 35.4129 42.0127 35.1979 41.73C32.4646 38.1174 34.1186 35.6919 35.1279 34.6964C35.4129 34.4137 35.4386 33.958 35.1722 33.6566C34.1794 32.5232 33.9107 30.8992 34.2261 27.6044C34.5204 24.5222 33.1795 22.8865 32.6328 22.3561C32.9949 21.7579 33.2098 21.2555 33.329 20.9423C33.4084 20.732 33.6093 20.5918 33.8359 20.5918H33.9411C34.5485 20.5918 36.866 23.7371 35.5834 27.7726C34.5859 30.9132 35.0695 32.7148 36.4969 33.2243C36.7118 33.3014 36.8613 33.5 36.8613 33.729V34.1286C36.8613 34.2921 36.7865 34.4487 36.6604 34.5515C35.7283 35.2993 32.0791 38.6361 36.5833 41.9169L36.5856 41.9193Z" fill="#FF991C"/>
<path d="M37.2305 54.7129C37.5646 54.6218 37.866 54.4395 38.0902 54.1778C39.1438 52.9393 39.1999 50.2801 38.1463 48.9622C37.067 47.6116 34.4224 46.9549 32.967 47.7868C32.7077 47.934 32.5348 48.1794 32.3479 48.4131C30.6495 50.5418 27.6358 55.0494 28.7642 56.4608C29.8809 57.8582 35.1864 55.2714 37.2282 54.7129H37.2305Z" fill="#FF9BC9"/>
<path d="M32.7607 56.4304C34.2862 55.7364 36.2626 55.0424 37.1597 54.7971C37.4938 54.7059 37.7952 54.5237 38.0194 54.2619C39.0731 53.0235 39.1992 50.2801 38.1456 48.9622C37.0663 47.6116 34.4217 46.9549 32.9663 47.7868C32.707 47.934 31.9991 48.7706 31.8262 49.016C30.2119 51.3106 27.6351 55.0494 28.7635 56.4608" stroke="#5A4536" stroke-width="0.249605" stroke-miterlimit="10"/>
<path d="M37.3108 48.2659C37.3108 48.2659 35.6358 50.1119 33.0566 52.0561" stroke="#5A4536" stroke-width="0.249605" stroke-miterlimit="10"/>
<path d="M38.901 51.2849C38.901 51.2849 36.8872 51.8691 34.1445 53.3927" stroke="#5A4536" stroke-width="0.249605" stroke-miterlimit="10"/>
<path d="M20.6956 31.2917C20.6956 31.5043 20.6816 31.717 20.6512 31.9226C20.6279 32.0885 20.5952 32.2544 20.5531 32.4133C20.0555 34.3411 18.3057 35.7642 16.2218 35.7642C15.9742 35.7642 15.7312 35.7432 15.4953 35.7058C14.2151 35.4978 13.1147 34.743 12.4442 33.6892C12.3321 33.5139 12.2316 33.3293 12.1452 33.1377C11.8882 32.5745 11.748 31.9483 11.748 31.2917C11.748 31.2706 11.748 31.252 11.748 31.2309C11.7667 29.8265 12.4325 28.5787 13.4581 27.7725C13.4698 27.7655 13.4792 27.7562 13.4885 27.7492C13.6217 27.6464 13.7618 27.5482 13.909 27.4618C14.3108 27.2187 14.757 27.0365 15.229 26.929C15.5467 26.8565 15.8784 26.8192 16.2195 26.8192C17.703 26.8192 19.0159 27.5412 19.8312 28.6535C20.3732 29.3942 20.6933 30.3056 20.6933 31.294L20.6956 31.2917Z" fill="white"/>
<mask id="mask0_396_9462" style="mask-type:luminance" maskUnits="userSpaceOnUse" x="11" y="26" width="10" height="10">
<path d="M20.6956 31.2917C20.6956 31.5043 20.6816 31.717 20.6512 31.9226C20.6279 32.0885 20.5952 32.2544 20.5531 32.4133C20.0555 34.3411 18.3057 35.7642 16.2218 35.7642C15.9742 35.7642 15.7312 35.7432 15.4953 35.7058C14.2151 35.4978 13.1147 34.743 12.4442 33.6892C12.3321 33.5139 12.2316 33.3293 12.1452 33.1377C11.8882 32.5745 11.748 31.9483 11.748 31.2917C11.748 31.2706 11.748 31.252 11.748 31.2309C11.7667 29.8265 12.4325 28.5787 13.4581 27.7725C13.4698 27.7655 13.4792 27.7562 13.4885 27.7492C13.6217 27.6464 13.7618 27.5482 13.909 27.4618C14.3108 27.2187 14.757 27.0365 15.229 26.929C15.5467 26.8565 15.8784 26.8192 16.2195 26.8192C17.703 26.8192 19.0159 27.5412 19.8312 28.6535C20.3732 29.3942 20.6933 30.3056 20.6933 31.294L20.6956 31.2917Z" fill="white"/>
</mask>
<g mask="url(#mask0_396_9462)">
<path d="M17.5487 34.3715C19.6337 34.3715 21.324 32.6809 21.324 30.5953C21.324 28.5098 19.6337 26.8192 17.5487 26.8192C15.4637 26.8192 13.7734 28.5098 13.7734 30.5953C13.7734 32.6809 15.4637 34.3715 17.5487 34.3715Z" fill="#5A4536"/>
<path d="M18.6586 29.2727C18.6586 29.7004 18.3106 30.0485 17.883 30.0485C17.4555 30.0485 17.1074 29.7004 17.1074 29.2727C17.1074 28.8451 17.4532 28.4969 17.883 28.4969C18.3129 28.4969 18.6586 28.8428 18.6586 29.2727Z" fill="white"/>
</g>
<path d="M32.073 32.0185C32.073 32.2662 32.0566 32.5116 32.0216 32.7499C31.9935 32.9439 31.9562 33.1355 31.9094 33.3201C31.3301 35.561 29.2976 37.2154 26.8773 37.2154C26.59 37.2154 26.3073 37.1921 26.0339 37.1477C24.5458 36.9046 23.2679 36.0307 22.49 34.8062C22.3591 34.6029 22.2447 34.388 22.1442 34.166C21.8475 33.5117 21.6816 32.785 21.6816 32.0208C21.6816 31.9975 21.6816 31.9741 21.6816 31.9507C21.7027 30.3197 22.4759 28.8709 23.6674 27.9315C23.6791 27.9222 23.6931 27.9129 23.7024 27.9035C23.859 27.782 24.0202 27.6722 24.1907 27.5694C24.6579 27.2866 25.1742 27.0763 25.7256 26.9501C26.0947 26.866 26.4802 26.8216 26.8773 26.8216C28.6014 26.8216 30.1269 27.6605 31.0731 28.9527C31.7015 29.8126 32.0753 30.8735 32.0753 32.0208L32.073 32.0185Z" fill="white"/>
<mask id="mask1_396_9462" style="mask-type:luminance" maskUnits="userSpaceOnUse" x="21" y="26" width="12" height="12">
<path d="M32.073 32.0185C32.073 32.2662 32.0566 32.5116 32.0216 32.7499C31.9935 32.9439 31.9562 33.1355 31.9094 33.3201C31.3301 35.561 29.2976 37.2154 26.8773 37.2154C26.59 37.2154 26.3073 37.1921 26.0339 37.1477C24.5458 36.9046 23.2679 36.0307 22.49 34.8062C22.3591 34.6029 22.2447 34.388 22.1442 34.166C21.8475 33.5117 21.6816 32.785 21.6816 32.0208C21.6816 31.9975 21.6816 31.9741 21.6816 31.9507C21.7027 30.3197 22.4759 28.8709 23.6674 27.9315C23.6791 27.9222 23.6931 27.9129 23.7024 27.9035C23.859 27.782 24.0202 27.6722 24.1907 27.5694C24.6579 27.2866 25.1742 27.0763 25.7256 26.9501C26.0947 26.866 26.4802 26.8216 26.8773 26.8216C28.6014 26.8216 30.1269 27.6605 31.0731 28.9527C31.7015 29.8126 32.0753 30.8735 32.0753 32.0208L32.073 32.0185Z" fill="white"/>
</mask>
<g mask="url(#mask1_396_9462)">
<path d="M28.4166 35.596C30.8397 35.596 32.804 33.6312 32.804 31.2076C32.804 28.7839 30.8397 26.8192 28.4166 26.8192C25.9936 26.8192 24.0293 28.7839 24.0293 31.2076C24.0293 33.6312 25.9936 35.596 28.4166 35.596Z" fill="#5A4536"/>
<path d="M29.7059 29.67C29.7059 30.1678 29.3017 30.572 28.8041 30.572C28.3065 30.572 27.9023 30.1678 27.9023 29.67C27.9023 29.1723 28.3042 28.7681 28.8041 28.7681C29.3041 28.7681 29.7059 29.17 29.7059 29.67Z" fill="white"/>
</g>
<path d="M14.8146 41.6459C14.2072 41.9169 13.4923 41.7323 13.0928 41.2019C12.3055 40.1597 10.8758 38.8745 9.27317 40.342C6.84588 42.5642 9.1073 47.2447 13.7867 47.7004C18.466 48.156 21.3909 43.7162 19.4099 41.7767C18.1063 40.5009 16.0644 41.0921 14.8169 41.6459H14.8146Z" fill="#5A4536"/>
<mask id="mask2_396_9462" style="mask-type:luminance" maskUnits="userSpaceOnUse" x="8" y="39" width="13" height="9">
<path d="M14.8146 41.6459C14.2072 41.9169 13.4923 41.7323 13.0928 41.2019C12.3055 40.1597 10.8758 38.8745 9.27317 40.342C6.84588 42.5642 9.1073 47.2447 13.7867 47.7004C18.466 48.156 21.3909 43.7162 19.4099 41.7767C18.1063 40.5009 16.0644 41.0921 14.8169 41.6459H14.8146Z" fill="white"/>
</mask>
<g mask="url(#mask2_396_9462)">
<path d="M10.1074 47.219C10.1074 47.219 11.2965 43.604 14.3125 44.5411C14.3125 44.5411 17.2164 42.6273 19.9287 45.0341C19.9287 45.0341 15.5858 52.0607 10.1098 47.219H10.1074Z" fill="#FF991C"/>
</g>
<path d="M13.3525 58.7648C13.3408 58.7158 13.3525 58.6667 13.3688 58.62C13.4226 58.4704 13.5511 58.3676 13.6702 58.2952C13.9272 58.1386 14.2192 58.0872 14.4809 57.9446C14.621 57.8675 14.7776 57.7647 14.8593 57.6035C14.885 57.5544 14.9107 57.482 14.8967 57.4212C14.8874 57.3792 14.7402 57.4259 14.7519 57.4656C14.7635 57.5123 14.7495 57.5591 14.7308 57.6035C14.6678 57.753 14.5229 57.8465 14.3991 57.9143C14.1374 58.0591 13.8454 58.1106 13.5884 58.2648C13.4529 58.3466 13.3081 58.4541 13.238 58.6176C13.2146 58.6714 13.1936 58.7461 13.2076 58.8092C13.217 58.8513 13.3642 58.8046 13.3525 58.7648Z" fill="#5A4536"/>
<path d="M14.2026 59.3279C14.2797 59.3513 14.3615 59.3653 14.4479 59.3653C14.7189 59.3653 14.9595 59.2368 15.1207 59.0335C15.1558 58.9891 15.1861 58.9424 15.2142 58.8933C15.2866 58.7578 15.3287 58.6012 15.3287 58.4353C15.3287 58.1666 15.2212 57.9259 15.0506 57.7553C15.1441 57.6572 15.2002 57.5216 15.2002 57.3721C15.2002 57.0777 14.9759 56.837 14.7002 56.837C14.6465 56.837 14.5951 56.8463 14.546 56.8627C14.504 56.8767 14.4643 56.8977 14.4292 56.9211C14.1209 57.1501 14.1349 57.7553 14.1349 57.7553V57.76C14.1395 58.0918 14.247 58.3932 14.4199 58.6199C14.4526 58.662 14.4853 58.7017 14.5227 58.7367C14.525 58.7391 14.5273 58.7414 14.532 58.7414C14.539 58.7414 14.5484 58.7414 14.5577 58.7414C14.6021 58.7414 14.6395 58.7227 14.6652 58.6947C14.6722 58.6853 14.6722 58.6737 14.6652 58.6643C14.6161 58.6176 14.5694 58.5638 14.5273 58.5054C14.3848 58.3044 14.2937 58.0404 14.2844 57.7506C14.2844 57.7343 14.2844 57.7156 14.2844 57.6992C14.2844 57.6946 14.2844 57.6875 14.2844 57.6829C14.2844 57.6735 14.2844 57.6642 14.2844 57.6548C14.2844 57.6081 14.2891 57.5614 14.2937 57.5146C14.3007 57.4632 14.3101 57.4118 14.3194 57.3604C14.3264 57.33 14.3334 57.2996 14.3428 57.2739C14.3498 57.2482 14.3591 57.2225 14.3685 57.1968C14.3685 57.1945 14.3685 57.1922 14.3708 57.1898C14.4222 57.0496 14.525 56.9468 14.6488 56.9258C14.6652 56.9234 14.6815 56.9211 14.6979 56.9211C14.8988 56.9211 15.06 57.1314 15.06 57.3931C15.06 57.5029 15.032 57.6034 14.9829 57.6829C14.9619 57.7179 14.9385 57.7483 14.9105 57.774C14.9011 57.7834 14.9011 57.7974 14.9105 57.8044C14.9222 57.8137 14.9315 57.8254 14.9432 57.8348C15.095 57.9843 15.1908 58.2086 15.1908 58.4587C15.1908 58.6106 15.1558 58.7554 15.0927 58.8769C15.0693 58.9237 15.0413 58.9681 15.0109 59.0078C14.8824 59.1714 14.7002 59.2765 14.4946 59.2765C14.3989 59.2765 14.3077 59.2532 14.226 59.2134C14.1863 59.1924 14.1465 59.169 14.1092 59.141C14.1092 59.141 14.1045 59.141 14.1022 59.1387H14.0975C14.0484 59.1387 14.0064 59.1597 13.983 59.1947C13.9783 59.2018 13.9807 59.2111 13.9854 59.2158C14.0554 59.2625 14.1302 59.2976 14.212 59.3233L14.2026 59.3279Z" fill="#5A4536"/>
<path d="M13.8975 56.8627C13.8204 56.8393 13.7387 56.8253 13.6522 56.8253C13.3812 56.8253 13.1406 56.9538 12.9794 57.1571C12.9444 57.2015 12.914 57.2483 12.886 57.2973C12.8135 57.4329 12.7715 57.5894 12.7715 57.7553C12.7715 58.0241 12.8789 58.2648 13.0495 58.4353C12.956 58.5335 12.9 58.669 12.9 58.8186C12.9 59.113 13.1242 59.3537 13.3999 59.3537C13.4536 59.3537 13.505 59.3443 13.5541 59.328C13.5962 59.3139 13.6359 59.2929 13.6709 59.2696C13.9793 59.0406 13.9653 58.4353 13.9653 58.4353V58.4307C13.9606 58.0988 13.8531 57.7974 13.6803 57.5707C13.6476 57.5287 13.6148 57.489 13.5775 57.4539C13.5751 57.4516 13.5728 57.4492 13.5681 57.4492C13.5611 57.4492 13.5518 57.4492 13.5424 57.4492C13.498 57.4492 13.4607 57.4679 13.435 57.496C13.428 57.5053 13.428 57.517 13.435 57.5263C13.484 57.5731 13.5307 57.6268 13.5728 57.6852C13.7153 57.8862 13.8064 58.1503 13.8158 58.44C13.8158 58.4564 13.8158 58.4751 13.8158 58.4914C13.8158 58.4961 13.8158 58.5031 13.8158 58.5078C13.8158 58.5171 13.8158 58.5265 13.8158 58.5358C13.8158 58.5825 13.8111 58.6293 13.8064 58.676C13.7994 58.7274 13.7901 58.7788 13.7807 58.8302C13.7737 58.8606 13.7667 58.891 13.7574 58.9167C13.7503 58.9424 13.741 58.9681 13.7317 58.9938C13.7317 58.9962 13.7317 58.9985 13.7293 59.0008C13.6779 59.141 13.5751 59.2438 13.4513 59.2649C13.435 59.2672 13.4186 59.2696 13.4023 59.2696C13.2013 59.2696 13.0401 59.0592 13.0401 58.7975C13.0401 58.6877 13.0682 58.5872 13.1172 58.5078C13.1383 58.4727 13.1616 58.4423 13.1897 58.4166C13.199 58.4073 13.199 58.3933 13.1897 58.3863C13.178 58.3769 13.1686 58.3652 13.157 58.3559C13.0051 58.2063 12.9093 57.982 12.9093 57.732C12.9093 57.5801 12.9444 57.4352 13.0074 57.3137C13.0308 57.267 13.0588 57.2226 13.0892 57.1828C13.2177 57.0193 13.3999 56.9141 13.6055 56.9141C13.7013 56.9141 13.7924 56.9375 13.8742 56.9772C13.9139 56.9982 13.9536 57.0216 13.991 57.0496C13.991 57.0496 13.9956 57.0496 13.998 57.052H14.0027C14.0517 57.052 14.0938 57.0309 14.1171 56.9959C14.1218 56.9889 14.1195 56.9795 14.1148 56.9749C14.0447 56.9281 13.9699 56.8931 13.8882 56.8674L13.8975 56.8627Z" fill="#5A4536"/>
<path d="M33.8699 60.6553C33.8699 60.6553 34.7646 60.0197 34.7973 57.8115L36.4887 60.0617C36.4887 60.0617 36.3953 61.4638 35.3136 62.7139C35.3136 62.7139 33.4424 62.6205 33.8675 60.6576L33.8699 60.6553Z" fill="#FCE29D"/>
<mask id="mask3_396_9462" style="mask-type:luminance" maskUnits="userSpaceOnUse" x="33" y="57" width="4" height="6">
<path d="M33.8699 60.6553C33.8699 60.6553 34.7646 60.0197 34.7973 57.8115L36.4887 60.0617C36.4887 60.0617 36.3953 61.4638 35.3136 62.7139C35.3136 62.7139 33.4424 62.6205 33.8675 60.6576L33.8699 60.6553Z" fill="white"/>
</mask>
<g mask="url(#mask3_396_9462)">
<mask id="mask4_396_9462" style="mask-type:luminance" maskUnits="userSpaceOnUse" x="35" y="54" width="9" height="9">
<path d="M38.9629 54.845L35.9961 59.2445L40.7354 62.442L43.7022 58.0425L38.9629 54.845Z" fill="white"/>
</mask>
<g mask="url(#mask4_396_9462)">
<path d="M36.7349 58.1441L36.3652 58.6923L37.5505 59.492L37.9202 58.9438L36.7349 58.1441Z" fill="#5AE500"/>
</g>
<mask id="mask5_396_9462" style="mask-type:luminance" maskUnits="userSpaceOnUse" x="33" y="59" width="8" height="8">
<path d="M35.9941 59.2435L33.0273 63.6429L37.7666 66.8404L40.7334 62.4409L35.9941 59.2435Z" fill="white"/>
</mask>
<g mask="url(#mask5_396_9462)">
<path d="M33.7701 62.5437L33.4004 63.092L34.5857 63.8917L34.9554 63.3434L33.7701 62.5437Z" fill="#5AE500"/>
<path d="M36.067 61.6924L35.6973 62.2406L36.8826 63.0403L37.2523 62.4921L36.067 61.6924Z" fill="#FBFB79"/>
<path d="M34.5103 61.445L34.1406 61.9933L35.3259 62.793L35.6956 62.2447L34.5103 61.445Z" fill="#5AE500"/>
<path d="M36.8072 60.5937L36.4375 61.142L37.6228 61.9417L37.9925 61.3934L36.8072 60.5937Z" fill="#FBFB79"/>
<path d="M35.2525 60.3456L34.8828 60.8938L36.0681 61.6935L36.4378 61.1453L35.2525 60.3456Z" fill="#5AE500"/>
<path d="M35.9928 59.247L35.623 59.7952L36.8084 60.5949L37.1781 60.0466L35.9928 59.247Z" fill="#5AE500"/>
</g>
<mask id="mask6_396_9462" style="mask-type:luminance" maskUnits="userSpaceOnUse" x="31" y="51" width="8" height="9">
<path d="M34.2207 51.6474L31.2539 56.0468L35.9932 59.2443L38.96 54.8448L34.2207 51.6474Z" fill="white"/>
</mask>
<g mask="url(#mask6_396_9462)">
<path d="M35.1666 57.9125L34.7969 58.4608L35.9822 59.2605L36.3519 58.7122L35.1666 57.9125Z" fill="#FBFB79"/>
<path d="M34.3638 56.548L33.9941 57.0963L35.1794 57.896L35.5492 57.3477L34.3638 56.548Z" fill="#5AE500"/>
<path d="M35.9088 56.8151L35.5391 57.3634L36.7244 58.1631L37.0941 57.6148L35.9088 56.8151Z" fill="#FBFB79"/>
</g>
<mask id="mask7_396_9462" style="mask-type:luminance" maskUnits="userSpaceOnUse" x="28" y="56" width="8" height="8">
<path d="M31.2578 56.0452L28.291 60.4446L33.0303 63.6421L35.9971 59.2426L31.2578 56.0452Z" fill="white"/>
</mask>
<g mask="url(#mask7_396_9462)">
<path d="M32.94 61.2136L32.5703 61.7618L33.7556 62.5615L34.1253 62.0133L32.94 61.2136Z" fill="#FBFB79"/>
<path d="M33.6861 60.1142L33.3164 60.6624L34.5017 61.4621L34.8714 60.9139L33.6861 60.1142Z" fill="#FBFB79"/>
<path d="M32.8834 58.7441L32.5137 59.2924L33.699 60.0921L34.0687 59.5438L32.8834 58.7441Z" fill="#5AE500"/>
<path d="M34.4244 59.0155L34.0547 59.5637L35.24 60.3634L35.6097 59.8152L34.4244 59.0155Z" fill="#FBFB79"/>
<path d="M33.6236 57.6467L33.2539 58.195L34.4392 58.9947L34.8089 58.4464L33.6236 57.6467Z" fill="#5AE500"/>
<path d="M35.1666 57.9126L34.7969 58.4608L35.9822 59.2605L36.3519 58.7123L35.1666 57.9126Z" fill="#FBFB79"/>
</g>
</g>
<path d="M26.3223 65.2703C25.0584 65.3918 24.6379 65.3615 23.5189 65.3217C23.4488 65.3217 23.3811 65.3171 23.311 65.3147C22.5728 65.282 21.8672 65.2189 21.1921 65.1254C15.0456 64.2889 11.0297 60.9917 9.0159 58.5639C8.89208 58.4143 8.62108 58.1199 8.53464 57.9446C7.75436 56.3837 7.88752 55.3508 7.99265 54.748C8.02535 54.561 8.26832 54.5096 8.37578 54.6662C14.5012 63.5832 22.1873 63.0714 26.0607 62.8541C26.2616 63.2514 26.3247 65.268 26.3247 65.268L26.3223 65.2703Z" fill="#FCE29D"/>
<mask id="mask8_396_9462" style="mask-type:luminance" maskUnits="userSpaceOnUse" x="7" y="54" width="20" height="12">
<path d="M26.3223 65.2703C25.0584 65.3918 24.6379 65.3615 23.5189 65.3217C23.4488 65.3217 23.3811 65.3171 23.311 65.3147C22.5728 65.282 21.8672 65.2189 21.1921 65.1254C15.0456 64.2889 11.0297 60.9917 9.0159 58.5639C8.89208 58.4143 8.62108 58.1199 8.53464 57.9446C7.75436 56.3837 7.88752 55.3508 7.99265 54.748C8.02535 54.561 8.26832 54.5096 8.37578 54.6662C14.5012 63.5832 22.1873 63.0714 26.0607 62.8541C26.2616 63.2514 26.3247 65.268 26.3247 65.268L26.3223 65.2703Z" fill="white"/>
</mask>
<g mask="url(#mask8_396_9462)">
<mask id="mask9_396_9462" style="mask-type:luminance" maskUnits="userSpaceOnUse" x="24" y="58" width="9" height="9">
<path d="M27.3047 58.9012L24.3379 63.3007L29.0772 66.4982L32.044 62.0987L27.3047 58.9012Z" fill="white"/>
</mask>
<g mask="url(#mask9_396_9462)">
<path d="M25.8951 63.5506L25.5254 64.0988L26.7107 64.8985L27.0804 64.3503L25.8951 63.5506Z" fill="#FBFB79"/>
<path d="M26.6353 62.4519L26.2656 63.0002L27.4509 63.7999L27.8206 63.2516L26.6353 62.4519Z" fill="#FBFB79"/>
<path d="M25.0787 62.2037L24.709 62.752L25.8943 63.5516L26.264 63.0034L25.0787 62.2037Z" fill="#5AE500"/>
<path d="M25.8189 61.1052L25.4492 61.6534L26.6345 62.4531L27.0042 61.9049L25.8189 61.1052Z" fill="#5AE500"/>
<path d="M26.565 60.0036L26.1953 60.5518L27.3806 61.3515L27.7503 60.8033L26.565 60.0036Z" fill="#5AE500"/>
</g>
<mask id="mask10_396_9462" style="mask-type:luminance" maskUnits="userSpaceOnUse" x="21" y="63" width="9" height="8">
<path d="M24.3379 63.2996L21.3711 67.6991L26.1104 70.8966L29.0772 66.4971L24.3379 63.2996Z" fill="white"/>
</mask>
<g mask="url(#mask10_396_9462)">
<path d="M25.151 64.6523L24.7812 65.2006L25.9666 66.0003L26.3363 65.452L25.151 64.6523Z" fill="#FBFB79"/>
<path d="M23.5943 64.4019L23.2246 64.9501L24.4099 65.7498L24.7796 65.2016L23.5943 64.4019Z" fill="#5AE500"/>
<path d="M24.3365 63.3013L23.9668 63.8495L25.1521 64.6492L25.5218 64.101L24.3365 63.3013Z" fill="#5AE500"/>
</g>
<mask id="mask11_396_9462" style="mask-type:luminance" maskUnits="userSpaceOnUse" x="22" y="51" width="9" height="8">
<path d="M25.5312 51.3052L22.5645 55.7047L27.3038 58.9021L30.2705 54.5026L25.5312 51.3052Z" fill="white"/>
</mask>
<g mask="url(#mask11_396_9462)">
<path d="M24.1217 55.9546L23.752 56.5028L24.9373 57.3025L25.307 56.7543L24.1217 55.9546Z" fill="#FBFB79"/>
<path d="M26.4791 57.5726L26.1094 58.1208L27.2947 58.9205L27.6644 58.3723L26.4791 57.5726Z" fill="#FBFB79"/>
<path d="M24.8619 54.8558L24.4922 55.4041L25.6775 56.2037L26.0472 55.6555L24.8619 54.8558Z" fill="#FBFB79"/>
<path d="M25.6763 56.2058L25.3066 56.7541L26.492 57.5538L26.8617 57.0055L25.6763 56.2058Z" fill="#5AE500"/>
<path d="M23.3072 54.6078L22.9375 55.1561L24.1228 55.9558L24.4925 55.4075L23.3072 54.6078Z" fill="#5AE500"/>
<path d="M25.606 53.7564L25.2363 54.3047L26.4216 55.1044L26.7913 54.5561L25.606 53.7564Z" fill="#FBFB79"/>
<path d="M26.4205 55.1065L26.0508 55.6547L27.2361 56.4544L27.6058 55.9062L26.4205 55.1065Z" fill="#5AE500"/>
<path d="M24.0513 53.5061L23.6816 54.0544L24.8669 54.8541L25.2367 54.3058L24.0513 53.5061Z" fill="#5AE500"/>
</g>
<mask id="mask12_396_9462" style="mask-type:luminance" maskUnits="userSpaceOnUse" x="19" y="55" width="9" height="9">
<path d="M22.5664 55.7049L19.5996 60.1044L24.3389 63.3018L27.3057 58.9024L22.5664 55.7049Z" fill="white"/>
</mask>
<g mask="url(#mask12_396_9462)">
<path d="M21.1549 60.3527L20.7852 60.9009L21.9705 61.7006L22.3402 61.1524L21.1549 60.3527Z" fill="#FBFB79"/>
<path d="M23.5142 61.9724L23.1445 62.5206L24.3298 63.3203L24.6996 62.7721L23.5142 61.9724Z" fill="#FBFB79"/>
<path d="M21.899 59.2537L21.5293 59.8019L22.7146 60.6016L23.0843 60.0534L21.899 59.2537Z" fill="#FBFB79"/>
<path d="M22.7095 60.6036L22.3398 61.1518L23.5252 61.9515L23.8949 61.4032L22.7095 60.6036Z" fill="#5AE500"/>
<path d="M20.3404 59.0063L19.9707 59.5545L21.156 60.3542L21.5257 59.806L20.3404 59.0063Z" fill="#5AE500"/>
<path d="M24.2545 60.8736L23.8848 61.4219L25.0701 62.2216L25.4398 61.6733L24.2545 60.8736Z" fill="#FBFB79"/>
<path d="M22.6392 58.1549L22.2695 58.7031L23.4548 59.5028L23.8245 58.9546L22.6392 58.1549Z" fill="#FBFB79"/>
<path d="M23.4537 59.5048L23.084 60.053L24.2693 60.8527L24.639 60.3045L23.4537 59.5048Z" fill="#5AE500"/>
<path d="M21.0845 57.9069L20.7148 58.4551L21.9002 59.2548L22.2699 58.7066L21.0845 57.9069Z" fill="#5AE500"/>
<path d="M24.9986 59.772L24.6289 60.3203L25.8142 61.1199L26.1839 60.5717L24.9986 59.772Z" fill="#FBFB79"/>
<path d="M23.3814 57.0552L23.0117 57.6034L24.197 58.4031L24.5667 57.8548L23.3814 57.0552Z" fill="#FBFB79"/>
<path d="M24.1959 58.4043L23.8262 58.9525L25.0115 59.7522L25.3812 59.204L24.1959 58.4043Z" fill="#5AE500"/>
<path d="M21.8248 56.8058L21.4551 57.3541L22.6404 58.1538L23.0101 57.6055L21.8248 56.8058Z" fill="#5AE500"/>
<path d="M25.7388 58.6733L25.3691 59.2215L26.5545 60.0212L26.9242 59.473L25.7388 58.6733Z" fill="#FBFB79"/>
<path d="M24.9361 57.3045L24.5664 57.8528L25.7517 58.6524L26.1214 58.1042L24.9361 57.3045Z" fill="#5AE500"/>
<path d="M22.567 55.7066L22.1973 56.2548L23.3826 57.0545L23.7523 56.5062L22.567 55.7066Z" fill="#5AE500"/>
<path d="M26.4791 57.5726L26.1094 58.1209L27.2947 58.9206L27.6644 58.3723L26.4791 57.5726Z" fill="#FBFB79"/>
</g>
<mask id="mask13_396_9462" style="mask-type:luminance" maskUnits="userSpaceOnUse" x="16" y="60" width="9" height="8">
<path d="M19.5996 60.1037L16.6328 64.5032L21.3721 67.7007L24.3389 63.3012L19.5996 60.1037Z" fill="white"/>
</mask>
<g mask="url(#mask13_396_9462)">
<path d="M18.19 64.7508L17.8203 65.299L19.0056 66.0987L19.3753 65.5505L18.19 64.7508Z" fill="#FBFB79"/>
<path d="M18.9303 63.652L18.5605 64.2003L19.7459 64.9999L20.1156 64.4517L18.9303 63.652Z" fill="#FBFB79"/>
<path d="M19.7428 65.0043L19.373 65.5526L20.5584 66.3522L20.9281 65.804L19.7428 65.0043Z" fill="#5AE500"/>
<path d="M17.3736 63.404L17.0039 63.9522L18.1892 64.7519L18.5589 64.2037L17.3736 63.404Z" fill="#5AE500"/>
<path d="M21.2838 65.2701L20.9141 65.8184L22.0994 66.6181L22.4691 66.0698L21.2838 65.2701Z" fill="#FBFB79"/>
<path d="M19.6724 62.5546L19.3027 63.1028L20.488 63.9025L20.8577 63.3543L19.6724 62.5546Z" fill="#FBFB79"/>
<path d="M20.483 63.9013L20.1133 64.4496L21.2986 65.2493L21.6683 64.701L20.483 63.9013Z" fill="#5AE500"/>
<path d="M18.1138 62.3053L17.7441 62.8535L18.9294 63.6532L19.2992 63.105L18.1138 62.3053Z" fill="#5AE500"/>
<path d="M22.0299 64.1704L21.6602 64.7186L22.8455 65.5183L23.2152 64.9701L22.0299 64.1704Z" fill="#FBFB79"/>
<path d="M20.4146 61.454L20.0449 62.0023L21.2302 62.802L21.5999 62.2537L20.4146 61.454Z" fill="#FBFB79"/>
<path d="M21.2271 62.804L20.8574 63.3522L22.0427 64.1519L22.4124 63.6037L21.2271 62.804Z" fill="#5AE500"/>
<path d="M18.858 61.2035L18.4883 61.7517L19.6736 62.5514L20.0433 62.0032L18.858 61.2035Z" fill="#5AE500"/>
<path d="M22.7701 63.0718L22.4004 63.62L23.5857 64.4197L23.9554 63.8714L22.7701 63.0718Z" fill="#FBFB79"/>
<path d="M21.9674 61.7052L21.5977 62.2535L22.783 63.0532L23.1527 62.5049L21.9674 61.7052Z" fill="#5AE500"/>
<path d="M19.6002 60.1049L19.2305 60.6531L20.4158 61.4528L20.7855 60.9046L19.6002 60.1049Z" fill="#5AE500"/>
<path d="M23.5142 61.9724L23.1445 62.5206L24.3298 63.3203L24.6996 62.7721L23.5142 61.9724Z" fill="#FBFB79"/>
</g>
<mask id="mask14_396_9462" style="mask-type:luminance" maskUnits="userSpaceOnUse" x="13" y="64" width="9" height="9">
<path d="M16.6328 64.5021L13.666 68.9016L18.4053 72.0991L21.3721 67.6996L16.6328 64.5021Z" fill="white"/>
</mask>
<g mask="url(#mask14_396_9462)">
<path d="M16.6295 64.5034L16.2598 65.0516L17.4451 65.8513L17.8148 65.3031L16.6295 64.5034Z" fill="#5AE500"/>
</g>
<mask id="mask15_396_9462" style="mask-type:luminance" maskUnits="userSpaceOnUse" x="17" y="48" width="9" height="8">
<path d="M20.7949 48.1069L17.8281 52.5064L22.5674 55.7038L25.5342 51.3044L20.7949 48.1069Z" fill="white"/>
</mask>
<g mask="url(#mask15_396_9462)">
<path d="M21.7388 54.3763L21.3691 54.9245L22.5545 55.7242L22.9242 55.176L21.7388 54.3763Z" fill="#FBFB79"/>
<path d="M22.481 53.2766L22.1113 53.8249L23.2966 54.6246L23.6663 54.0763L22.481 53.2766Z" fill="#FBFB79"/>
</g>
<mask id="mask16_396_9462" style="mask-type:luminance" maskUnits="userSpaceOnUse" x="14" y="52" width="9" height="9">
<path d="M17.8262 52.5077L14.8594 56.9072L19.5987 60.1046L22.5655 55.7051L17.8262 52.5077Z" fill="white"/>
</mask>
<g mask="url(#mask16_396_9462)">
<path d="M16.4166 57.1545L16.0469 57.7028L17.2322 58.5025L17.6019 57.9542L16.4166 57.1545Z" fill="#FBFB79"/>
<path d="M18.772 58.7748L18.4023 59.3231L19.5877 60.1228L19.9574 59.5745L18.772 58.7748Z" fill="#FBFB79"/>
<path d="M17.1588 56.0573L16.7891 56.6056L17.9744 57.4053L18.3441 56.857L17.1588 56.0573Z" fill="#FBFB79"/>
<path d="M17.9713 57.406L17.6016 57.9543L18.7869 58.754L19.1566 58.2057L17.9713 57.406Z" fill="#5AE500"/>
<path d="M15.6021 55.8081L15.2324 56.3563L16.4177 57.156L16.7874 56.6078L15.6021 55.8081Z" fill="#5AE500"/>
<path d="M19.5162 57.6755L19.1465 58.2238L20.3318 59.0234L20.7015 58.4752L19.5162 57.6755Z" fill="#FBFB79"/>
<path d="M17.899 54.9587L17.5293 55.5069L18.7146 56.3066L19.0843 55.7583L17.899 54.9587Z" fill="#FBFB79"/>
<path d="M18.7154 56.3066L18.3457 56.8549L19.531 57.6546L19.9007 57.1063L18.7154 56.3066Z" fill="#5AE500"/>
<path d="M16.3443 54.7106L15.9746 55.2589L17.1599 56.0585L17.5296 55.5103L16.3443 54.7106Z" fill="#5AE500"/>
<path d="M20.2564 56.5744L19.8867 57.1227L21.072 57.9224L21.4417 57.3741L20.2564 56.5744Z" fill="#FBFB79"/>
<path d="M18.6392 53.8581L18.2695 54.4063L19.4548 55.206L19.8245 54.6578L18.6392 53.8581Z" fill="#FBFB79"/>
<path d="M19.4537 55.208L19.084 55.7563L20.2693 56.556L20.639 56.0077L19.4537 55.208Z" fill="#5AE500"/>
<path d="M17.0845 53.6077L16.7148 54.1559L17.9002 54.9556L18.2699 54.4074L17.0845 53.6077Z" fill="#5AE500"/>
<path d="M20.9986 55.4751L20.6289 56.0234L21.8142 56.8231L22.1839 56.2748L20.9986 55.4751Z" fill="#FBFB79"/>
<path d="M20.1959 54.1106L19.8262 54.6588L21.0115 55.4585L21.3812 54.9103L20.1959 54.1106Z" fill="#5AE500"/>
<path d="M21.7388 54.3764L21.3691 54.9246L22.5545 55.7243L22.9242 55.1761L21.7388 54.3764Z" fill="#FBFB79"/>
</g>
<mask id="mask17_396_9462" style="mask-type:luminance" maskUnits="userSpaceOnUse" x="11" y="56" width="9" height="9">
<path d="M14.8613 56.9073L11.8945 61.3068L16.6338 64.5043L19.6006 60.1048L14.8613 56.9073Z" fill="white"/>
</mask>
<g mask="url(#mask17_396_9462)">
<path d="M13.4498 61.5553L13.0801 62.1035L14.2654 62.9032L14.6351 62.355L13.4498 61.5553Z" fill="#FBFB79"/>
<path d="M15.8092 63.1725L15.4395 63.7207L16.6248 64.5204L16.9945 63.9722L15.8092 63.1725Z" fill="#FBFB79"/>
<path d="M14.192 60.4557L13.8223 61.004L15.0076 61.8037L15.3773 61.2554L14.192 60.4557Z" fill="#FBFB79"/>
<path d="M15.0064 61.8061L14.6367 62.3543L15.822 63.154L16.1917 62.6058L15.0064 61.8061Z" fill="#5AE500"/>
<path d="M12.6353 60.2064L12.2656 60.7546L13.4509 61.5543L13.8206 61.0061L12.6353 60.2064Z" fill="#5AE500"/>
<path d="M16.5494 62.0739L16.1797 62.6221L17.365 63.4218L17.7347 62.8736L16.5494 62.0739Z" fill="#FBFB79"/>
<path d="M14.9342 59.3551L14.5645 59.9034L15.7498 60.7031L16.1195 60.1548L14.9342 59.3551Z" fill="#FBFB79"/>
<path d="M15.7467 60.7051L15.377 61.2534L16.5623 62.0531L16.932 61.5048L15.7467 60.7051Z" fill="#5AE500"/>
<path d="M13.3795 59.1071L13.0098 59.6553L14.1951 60.455L14.5648 59.9068L13.3795 59.1071Z" fill="#5AE500"/>
<path d="M17.2935 60.9721L16.9238 61.5204L18.1091 62.3201L18.4788 61.7718L17.2935 60.9721Z" fill="#FBFB79"/>
<path d="M15.6763 58.2577L15.3066 58.8059L16.492 59.6056L16.8617 59.0574L15.6763 58.2577Z" fill="#FBFB79"/>
<path d="M16.4888 59.6064L16.1191 60.1546L17.3044 60.9543L17.6742 60.4061L16.4888 59.6064Z" fill="#5AE500"/>
<path d="M14.1197 58.0084L13.75 58.5566L14.9353 59.3563L15.305 58.8081L14.1197 58.0084Z" fill="#5AE500"/>
<path d="M18.0338 59.8735L17.6641 60.4218L18.8494 61.2214L19.2191 60.6732L18.0338 59.8735Z" fill="#FBFB79"/>
<path d="M17.231 58.507L16.8613 59.0552L18.0466 59.8549L18.4163 59.3067L17.231 58.507Z" fill="#5AE500"/>
<path d="M14.8599 56.9086L14.4902 57.4569L15.6755 58.2566L16.0452 57.7083L14.8599 56.9086Z" fill="#5AE500"/>
<path d="M18.772 58.7747L18.4023 59.323L19.5877 60.1227L19.9574 59.5744L18.772 58.7747Z" fill="#FBFB79"/>
</g>
<mask id="mask18_396_9462" style="mask-type:luminance" maskUnits="userSpaceOnUse" x="8" y="61" width="9" height="8">
<path d="M11.8965 61.3038L8.92969 65.7033L13.669 68.9008L16.6358 64.5013L11.8965 61.3038Z" fill="white"/>
</mask>
<g mask="url(#mask18_396_9462)">
<path d="M11.2271 64.8522L10.8574 65.4005L12.0427 66.2001L12.4124 65.6519L11.2271 64.8522Z" fill="#FBFB79"/>
<path d="M9.67049 64.6042L9.30078 65.1525L10.4861 65.9522L10.8558 65.4039L9.67049 64.6042Z" fill="#5AE500"/>
<path d="M11.9693 63.7548L11.5996 64.303L12.7849 65.1027L13.1546 64.5545L11.9693 63.7548Z" fill="#FBFB79"/>
<path d="M12.7799 65.1034L12.4102 65.6517L13.5955 66.4514L13.9652 65.9031L12.7799 65.1034Z" fill="#5AE500"/>
<path d="M10.4107 63.5055L10.041 64.0537L11.2263 64.8534L11.596 64.3052L10.4107 63.5055Z" fill="#5AE500"/>
<path d="M12.7115 62.6542L12.3418 63.2024L13.5271 64.0021L13.8968 63.4538L12.7115 62.6542Z" fill="#FBFB79"/>
<path d="M13.524 64.0041L13.1543 64.5523L14.3396 65.352L14.7093 64.8038L13.524 64.0041Z" fill="#5AE500"/>
<path d="M11.1529 62.4081L10.7832 62.9563L11.9685 63.756L12.3382 63.2078L11.1529 62.4081Z" fill="#5AE500"/>
<path d="M15.067 64.2718L14.6973 64.8201L15.8826 65.6198L16.2523 65.0715L15.067 64.2718Z" fill="#FBFB79"/>
<path d="M14.2623 62.9054L13.8926 63.4537L15.0779 64.2534L15.4476 63.7051L14.2623 62.9054Z" fill="#5AE500"/>
<path d="M11.8931 61.3051L11.5234 61.8533L12.7087 62.653L13.0785 62.1048L11.8931 61.3051Z" fill="#5AE500"/>
<path d="M15.8092 63.1725L15.4395 63.7208L16.6248 64.5205L16.9945 63.9722L15.8092 63.1725Z" fill="#FBFB79"/>
</g>
<mask id="mask19_396_9462" style="mask-type:luminance" maskUnits="userSpaceOnUse" x="10" y="49" width="8" height="8">
<path d="M13.0879 49.3113L10.1211 53.7108L14.8604 56.9082L17.8272 52.5087L13.0879 49.3113Z" fill="white"/>
</mask>
<g mask="url(#mask19_396_9462)">
<path d="M11.6763 53.9607L11.3066 54.5089L12.492 55.3086L12.8617 54.7604L11.6763 53.9607Z" fill="#FBFB79"/>
<path d="M14.0338 55.5765L13.6641 56.1248L14.8494 56.9245L15.2191 56.3762L14.0338 55.5765Z" fill="#FBFB79"/>
<path d="M13.233 54.21L12.8633 54.7582L14.0486 55.5579L14.4183 55.0097L13.233 54.21Z" fill="#5AE500"/>
<path d="M14.776 54.479L14.4062 55.0273L15.5916 55.827L15.9613 55.2787L14.776 54.479Z" fill="#FBFB79"/>
<path d="M15.5162 53.376L15.1465 53.9243L16.3318 54.7239L16.7015 54.1757L15.5162 53.376Z" fill="#FBFB79"/>
</g>
<mask id="mask20_396_9462" style="mask-type:luminance" maskUnits="userSpaceOnUse" x="7" y="53" width="8" height="9">
<path d="M10.1211 53.7078L7.1543 58.1073L11.8936 61.3048L14.8604 56.9053L10.1211 53.7078Z" fill="white"/>
</mask>
<g mask="url(#mask20_396_9462)">
<path d="M8.70955 58.3591L8.33984 58.9073L9.52515 59.707L9.89486 59.1588L8.70955 58.3591Z" fill="#FBFB79"/>
<path d="M11.0689 59.9762L10.6992 60.5244L11.8845 61.3241L12.2542 60.7759L11.0689 59.9762Z" fill="#FBFB79"/>
<path d="M9.45369 57.2575L9.08398 57.8057L10.2693 58.6054L10.639 58.0572L9.45369 57.2575Z" fill="#FBFB79"/>
<path d="M10.2662 58.6085L9.89648 59.1567L11.0818 59.9564L11.4515 59.4082L10.2662 58.6085Z" fill="#5AE500"/>
<path d="M7.89705 57.0082L7.52734 57.5564L8.71265 58.3561L9.08236 57.8078L7.89705 57.0082Z" fill="#5AE500"/>
<path d="M11.8111 58.8756L11.4414 59.4238L12.6267 60.2235L12.9964 59.6753L11.8111 58.8756Z" fill="#FBFB79"/>
<path d="M10.1939 56.1587L9.82422 56.707L11.0095 57.5067L11.3792 56.9584L10.1939 56.1587Z" fill="#FBFB79"/>
<path d="M11.0084 57.5088L10.6387 58.057L11.824 58.8567L12.1937 58.3085L11.0084 57.5088Z" fill="#5AE500"/>
<path d="M8.63924 55.9107L8.26953 56.459L9.45484 57.2587L9.82455 56.7104L8.63924 55.9107Z" fill="#5AE500"/>
<path d="M12.5494 57.777L12.1797 58.3252L13.365 59.1249L13.7347 58.5766L12.5494 57.777Z" fill="#FBFB79"/>
<path d="M10.9342 55.0581L10.5645 55.6064L11.7498 56.4061L12.1195 55.8578L10.9342 55.0581Z" fill="#FBFB79"/>
<path d="M11.7486 56.4081L11.3789 56.9564L12.5642 57.7561L12.9339 57.2078L11.7486 56.4081Z" fill="#5AE500"/>
<path d="M9.37947 54.8101L9.00977 55.3583L10.1951 56.158L10.5648 55.6098L9.37947 54.8101Z" fill="#5AE500"/>
<path d="M13.2916 56.6772L12.9219 57.2254L14.1072 58.0251L14.4769 57.4769L13.2916 56.6772Z" fill="#FBFB79"/>
<path d="M12.4908 55.3107L12.1211 55.859L13.3064 56.6587L13.6761 56.1104L12.4908 55.3107Z" fill="#5AE500"/>
<path d="M10.1197 53.7091L9.75 54.2573L10.9353 55.057L11.305 54.5087L10.1197 53.7091Z" fill="#5AE500"/>
<path d="M14.0338 55.5765L13.6641 56.1248L14.8494 56.9245L15.2191 56.3762L14.0338 55.5765Z" fill="#FBFB79"/>
</g>
<mask id="mask21_396_9462" style="mask-type:luminance" maskUnits="userSpaceOnUse" x="4" y="58" width="8" height="8">
<path d="M7.15623 58.1075L4.18945 62.507L8.92875 65.7044L11.8955 61.3049L7.15623 58.1075Z" fill="white"/>
</mask>
<g mask="url(#mask21_396_9462)">
<path d="M8.10213 64.3746L7.73242 64.9229L8.91774 65.7225L9.28744 65.1743L8.10213 64.3746Z" fill="#FBFB79"/>
<path d="M7.29939 63.0081L6.92969 63.5563L8.115 64.356L8.4847 63.8078L7.29939 63.0081Z" fill="#5AE500"/>
<path d="M8.84431 63.2739L8.47461 63.8221L9.65992 64.6218L10.0296 64.0736L8.84431 63.2739Z" fill="#FBFB79"/>
<path d="M7.22713 60.5552L6.85742 61.1034L8.04273 61.9031L8.41243 61.3548L7.22713 60.5552Z" fill="#FBFB79"/>
<path d="M8.04158 61.9075L7.67188 62.4557L8.85719 63.2554L9.22689 62.7072L8.04158 61.9075Z" fill="#5AE500"/>
<path d="M9.5865 62.1765L9.2168 62.7247L10.4021 63.5244L10.7718 62.9762L9.5865 62.1765Z" fill="#FBFB79"/>
<path d="M7.97127 59.4577L7.60156 60.006L8.78687 60.8057L9.15658 60.2574L7.97127 59.4577Z" fill="#FBFB79"/>
<path d="M8.78377 60.8077L8.41406 61.356L9.59937 62.1557L9.96908 61.6074L8.78377 60.8077Z" fill="#5AE500"/>
<path d="M10.3267 61.0735L9.95703 61.6218L11.1423 62.4215L11.512 61.8732L10.3267 61.0735Z" fill="#FBFB79"/>
<path d="M9.52791 59.707L9.1582 60.2553L10.3435 61.055L10.7132 60.5067L9.52791 59.707Z" fill="#5AE500"/>
<path d="M7.15681 58.1111L6.78711 58.6593L7.97242 59.459L8.34212 58.9108L7.15681 58.1111Z" fill="#5AE500"/>
<path d="M11.0709 59.9761L10.7012 60.5244L11.8865 61.3241L12.2562 60.7758L11.0709 59.9761Z" fill="#FBFB79"/>
</g>
<mask id="mask22_396_9462" style="mask-type:luminance" maskUnits="userSpaceOnUse" x="1" y="62" width="8" height="9">
<path d="M4.18944 62.5059L1.22266 66.9054L5.96196 70.1029L8.92874 65.7034L4.18944 62.5059Z" fill="white"/>
</mask>
<g mask="url(#mask22_396_9462)">
<path d="M8.10213 64.3746L7.73242 64.9229L8.91774 65.7225L9.28744 65.1743L8.10213 64.3746Z" fill="#FBFB79"/>
</g>
<mask id="mask23_396_9462" style="mask-type:luminance" maskUnits="userSpaceOnUse" x="2" y="50" width="9" height="9">
<path d="M5.38475 50.5115L2.41797 54.9109L7.15727 58.1084L10.1241 53.7089L5.38475 50.5115Z" fill="white"/>
</mask>
<g mask="url(#mask23_396_9462)">
<path d="M7.07283 55.6792L6.70312 56.2274L7.88844 57.0271L8.25814 56.4789L7.07283 55.6792Z" fill="#FBFB79"/>
<path d="M7.81306 54.5804L7.44336 55.1287L8.62867 55.9284L8.99837 55.3801L7.81306 54.5804Z" fill="#FBFB79"/>
<path d="M8.55525 53.4775L8.18555 54.0258L9.37086 54.8255L9.74056 54.2772L8.55525 53.4775Z" fill="#FBFB79"/>
</g>
</g>
<path d="M21.1922 65.1255C14.8541 64.2632 10.7144 60.7114 8.76367 58.2695" stroke="#5A4536" stroke-width="0.255548" stroke-miterlimit="10"/>
<path d="M36.5523 65.4175C36.856 66.0835 36.5827 66.871 35.9286 67.2005C34.7955 67.773 33.3705 68.3618 31.6791 68.7895C29.8358 69.2545 28.1748 69.4017 26.8221 69.411C26.0839 69.418 25.4742 68.8362 25.4461 68.0978L25.2803 63.6767C25.2522 62.9242 25.8386 62.291 26.5932 62.2629C27.5464 62.2279 28.7121 62.0783 29.9877 61.6717C31.0389 61.3376 31.9244 60.9053 32.6392 60.4777C33.3354 60.0641 34.2348 60.3491 34.5736 61.0852C35.2324 62.5293 35.8935 63.9734 36.5523 65.4175Z" fill="#FCE29D"/>
<mask id="mask24_396_9462" style="mask-type:luminance" maskUnits="userSpaceOnUse" x="25" y="60" width="12" height="10">
<path d="M36.5523 65.4175C36.856 66.0835 36.5827 66.871 35.9286 67.2005C34.7955 67.773 33.3705 68.3618 31.6791 68.7895C29.8358 69.2545 28.1748 69.4017 26.8221 69.411C26.0839 69.418 25.4742 68.8362 25.4461 68.0978L25.2803 63.6767C25.2522 62.9242 25.8386 62.291 26.5932 62.2629C27.5464 62.2279 28.7121 62.0783 29.9877 61.6717C31.0389 61.3376 31.9244 60.9053 32.6392 60.4777C33.3354 60.0641 34.2348 60.3491 34.5736 61.0852C35.2324 62.5293 35.8935 63.9734 36.5523 65.4175Z" fill="white"/>
</mask>
<g mask="url(#mask24_396_9462)">
<mask id="mask25_396_9462" style="mask-type:luminance" maskUnits="userSpaceOnUse" x="33" y="66" width="8" height="7">
<path d="M38.6576 66.0101L33.5098 67.2939L34.8927 72.8421L40.0406 71.5583L38.6576 66.0101Z" fill="white"/>
</mask>
<g mask="url(#mask25_396_9462)">
<path d="M34.4989 68.5196L33.8574 68.6796L34.2033 70.0672L34.8448 69.9072L34.4989 68.5196Z" fill="#FBFB79"/>
<path d="M35.7841 68.1969L35.1426 68.3569L35.4885 69.7445L36.13 69.5845L35.7841 68.1969Z" fill="#FBFB79"/>
<path d="M34.7958 66.9726L34.1543 67.1326L34.5002 68.5202L35.1417 68.3602L34.7958 66.9726Z" fill="#5AE500"/>
<path d="M37.0712 67.8791L36.4297 68.0391L36.7756 69.4267L37.4171 69.2667L37.0712 67.8791Z" fill="#FBFB79"/>
<path d="M36.079 66.6502L35.4375 66.8102L35.7834 68.1978L36.4249 68.0378L36.079 66.6502Z" fill="#5AE500"/>
</g>
<mask id="mask26_396_9462" style="mask-type:luminance" maskUnits="userSpaceOnUse" x="28" y="67" width="7" height="8">
<path d="M33.5092 67.2922L28.3613 68.576L29.7443 74.1241L34.8922 72.8403L33.5092 67.2922Z" fill="white"/>
</mask>
<g mask="url(#mask26_396_9462)">
<path d="M29.6474 68.257L29.0059 68.417L29.3517 69.8046L29.9932 69.6446L29.6474 68.257Z" fill="#5AE500"/>
<path d="M31.9228 69.1611L31.2812 69.3211L31.6271 70.7087L32.2686 70.5487L31.9228 69.1611Z" fill="#FBFB79"/>
<path d="M30.9345 67.9368L30.293 68.0967L30.6389 69.4843L31.2804 69.3244L30.9345 67.9368Z" fill="#5AE500"/>
<path d="M33.2118 68.8404L32.5703 69.0004L32.9162 70.388L33.5577 70.228L33.2118 68.8404Z" fill="#FBFB79"/>
<path d="M32.2196 67.6141L31.5781 67.774L31.924 69.1617L32.5655 69.0017L32.2196 67.6141Z" fill="#5AE500"/>
<path d="M33.5067 67.2932L32.8652 67.4532L33.2111 68.8408L33.8526 68.6808L33.5067 67.2932Z" fill="#5AE500"/>
</g>
<mask id="mask27_396_9462" style="mask-type:luminance" maskUnits="userSpaceOnUse" x="23" y="68" width="7" height="8">
<path d="M28.3647 68.5765L23.2168 69.8604L24.5998 75.4085L29.7476 74.1247L28.3647 68.5765Z" fill="white"/>
</mask>
<g mask="url(#mask27_396_9462)">
<path d="M25.786 69.2191L25.1445 69.3791L25.4904 70.7667L26.1319 70.6067L25.786 69.2191Z" fill="#5AE500"/>
<path d="M27.0751 68.8982L26.4336 69.0582L26.7795 70.4458L27.421 70.2858L27.0751 68.8982Z" fill="#5AE500"/>
<path d="M28.3622 68.5754L27.7207 68.7354L28.0666 70.123L28.7081 69.963L28.3622 68.5754Z" fill="#5AE500"/>
</g>
<mask id="mask28_396_9462" style="mask-type:luminance" maskUnits="userSpaceOnUse" x="32" y="60" width="7" height="8">
<path d="M37.2748 60.4598L32.127 61.7436L33.5099 67.2917L38.6578 66.0079L37.2748 60.4598Z" fill="white"/>
</mask>
<g mask="url(#mask28_396_9462)">
<path d="M33.1142 62.9738L32.4727 63.1338L32.8185 64.5214L33.46 64.3614L33.1142 62.9738Z" fill="#FBFB79"/>
<path d="M33.7821 65.7512L33.1406 65.9112L33.4865 67.2988L34.128 67.1388L33.7821 65.7512Z" fill="#FBFB79"/>
<path d="M34.4032 62.6511L33.7617 62.8111L34.1076 64.1987L34.7491 64.0387L34.4032 62.6511Z" fill="#FBFB79"/>
<path d="M34.1044 64.1987L33.4629 64.3587L33.8088 65.7463L34.4503 65.5863L34.1044 64.1987Z" fill="#5AE500"/>
<path d="M33.411 61.4247L32.7695 61.5847L33.1154 62.9723L33.7569 62.8123L33.411 61.4247Z" fill="#5AE500"/>
<path d="M35.0712 65.4306L34.4297 65.5906L34.7756 66.9782L35.4171 66.8182L35.0712 65.4306Z" fill="#FBFB79"/>
<path d="M35.6884 62.331L35.0469 62.491L35.3928 63.8786L36.0343 63.7186L35.6884 62.331Z" fill="#FBFB79"/>
<path d="M35.3876 63.8786L34.7461 64.0386L35.092 65.4262L35.7335 65.2662L35.3876 63.8786Z" fill="#5AE500"/>
<path d="M34.6962 61.1045L34.0547 61.2644L34.4006 62.652L35.0421 62.4921L34.6962 61.1045Z" fill="#5AE500"/>
<path d="M36.3563 65.1076L35.7148 65.2676L36.0607 66.6552L36.7022 66.4952L36.3563 65.1076Z" fill="#FBFB79"/>
<path d="M36.9735 62.0103L36.332 62.1703L36.6779 63.5579L37.3194 63.3979L36.9735 62.0103Z" fill="#FBFB79"/>
<path d="M36.6747 63.558L36.0332 63.718L36.3791 65.1056L37.0206 64.9456L36.6747 63.558Z" fill="#5AE500"/>
<path d="M35.9853 60.7837L35.3438 60.9437L35.6896 62.3313L36.3311 62.1713L35.9853 60.7837Z" fill="#5AE500"/>
<path d="M37.2704 60.461L36.6289 60.6209L36.9748 62.0085L37.6163 61.8486L37.2704 60.461Z" fill="#5AE500"/>
</g>
<mask id="mask29_396_9462" style="mask-type:luminance" maskUnits="userSpaceOnUse" x="26" y="61" width="8" height="8">
<path d="M32.1283 61.7465L26.9805 63.0303L28.3634 68.5784L33.5113 67.2946L32.1283 61.7465Z" fill="white"/>
</mask>
<g mask="url(#mask29_396_9462)">
<path d="M27.9696 64.2562L27.3281 64.4161L27.674 65.8037L28.3155 65.6438L27.9696 64.2562Z" fill="#FBFB79"/>
<path d="M28.6376 67.0334L27.9961 67.1934L28.342 68.581L28.9835 68.421L28.6376 67.0334Z" fill="#FBFB79"/>
<path d="M29.2548 63.9337L28.6133 64.0937L28.9592 65.4813L29.6007 65.3213L29.2548 63.9337Z" fill="#FBFB79"/>
<path d="M28.9579 65.483L28.3164 65.643L28.6623 67.0306L29.3038 66.8706L28.9579 65.483Z" fill="#5AE500"/>
<path d="M28.2665 62.7088L27.625 62.8688L27.9709 64.2564L28.6124 64.0964L28.2665 62.7088Z" fill="#5AE500"/>
<path d="M29.9247 66.715L29.2832 66.8749L29.6291 68.2626L30.2706 68.1026L29.9247 66.715Z" fill="#FBFB79"/>
<path d="M30.5399 63.6131L29.8984 63.7731L30.2443 65.1607L30.8858 65.0007L30.5399 63.6131Z" fill="#FBFB79"/>
<path d="M30.2411 65.1607L29.5996 65.3207L29.9455 66.7083L30.587 66.5483L30.2411 65.1607Z" fill="#5AE500"/>
<path d="M29.5517 62.3865L28.9102 62.5465L29.256 63.9341L29.8975 63.7741L29.5517 62.3865Z" fill="#5AE500"/>
<path d="M31.2118 66.3943L30.5703 66.5543L30.9162 67.9419L31.5577 67.7819L31.2118 66.3943Z" fill="#FBFB79"/>
<path d="M31.831 63.2925L31.1895 63.4525L31.5353 64.8401L32.1768 64.6801L31.831 63.2925Z" fill="#FBFB79"/>
<path d="M31.5321 64.84L30.8906 65L31.2365 66.3876L31.878 66.2276L31.5321 64.84Z" fill="#5AE500"/>
<path d="M30.8388 62.066L30.1973 62.226L30.5432 63.6136L31.1847 63.4536L30.8388 62.066Z" fill="#5AE500"/>
<path d="M32.4989 66.072L31.8574 66.2319L32.2033 67.6195L32.8448 67.4596L32.4989 66.072Z" fill="#FBFB79"/>
<path d="M32.8153 64.5193L32.1738 64.6793L32.5197 66.0669L33.1612 65.9069L32.8153 64.5193Z" fill="#5AE500"/>
<path d="M32.1259 61.7452L31.4844 61.9052L31.8303 63.2928L32.4718 63.1328L32.1259 61.7452Z" fill="#5AE500"/>
<path d="M33.7841 65.7513L33.1426 65.9113L33.4885 67.2989L34.13 67.1389L33.7841 65.7513Z" fill="#FBFB79"/>
</g>
<mask id="mask30_396_9462" style="mask-type:luminance" maskUnits="userSpaceOnUse" x="21" y="63" width="8" height="7">
<path d="M26.9819 63.0285L21.834 64.3123L23.217 69.8605L28.3648 68.5767L26.9819 63.0285Z" fill="white"/>
</mask>
<g mask="url(#mask30_396_9462)">
<path d="M25.3935 64.8974L24.752 65.0574L25.0978 66.445L25.7393 66.285L25.3935 64.8974Z" fill="#FBFB79"/>
<path d="M25.0946 66.445L24.4531 66.605L24.799 67.9926L25.4405 67.8326L25.0946 66.445Z" fill="#5AE500"/>
<path d="M26.0653 67.6763L25.4238 67.8363L25.7697 69.2239L26.4112 69.0639L26.0653 67.6763Z" fill="#FBFB79"/>
<path d="M26.6845 64.5768L26.043 64.7368L26.3889 66.1244L27.0304 65.9644L26.6845 64.5768Z" fill="#FBFB79"/>
<path d="M26.3817 66.1221L25.7402 66.2821L26.0861 67.6697L26.7276 67.5097L26.3817 66.1221Z" fill="#5AE500"/>
<path d="M25.6923 63.3502L25.0508 63.5102L25.3967 64.8978L26.0382 64.7378L25.6923 63.3502Z" fill="#5AE500"/>
<path d="M27.3505 67.3563L26.709 67.5163L27.0549 68.9039L27.6964 68.7439L27.3505 67.3563Z" fill="#FBFB79"/>
<path d="M27.6688 65.8038L27.0273 65.9637L27.3732 67.3514L28.0147 67.1914L27.6688 65.8038Z" fill="#5AE500"/>
<path d="M26.9774 63.0296L26.3359 63.1896L26.6818 64.5772L27.3233 64.4172L26.9774 63.0296Z" fill="#5AE500"/>
<path d="M28.6376 67.0333L27.9961 67.1933L28.342 68.5809L28.9835 68.4209L28.6376 67.0333Z" fill="#FBFB79"/>
</g>
<mask id="mask31_396_9462" style="mask-type:luminance" maskUnits="userSpaceOnUse" x="30" y="54" width="8" height="8">
<path d="M35.8901 54.9117L30.7422 56.1955L32.1252 61.7437L37.273 60.4599L35.8901 54.9117Z" fill="white"/>
</mask>
<g mask="url(#mask31_396_9462)">
<path d="M32.4013 60.2032L31.7598 60.3632L32.1057 61.7508L32.7472 61.5908L32.4013 60.2032Z" fill="#FBFB79"/>
<path d="M33.6884 59.8827L33.0469 60.0426L33.3928 61.4302L34.0343 61.2703L33.6884 59.8827Z" fill="#FBFB79"/>
<path d="M34.9755 59.5619L34.334 59.7219L34.6799 61.1095L35.3214 60.9495L34.9755 59.5619Z" fill="#FBFB79"/>
<path d="M36.2626 59.2413L35.6211 59.4013L35.967 60.7889L36.6085 60.6289L36.2626 59.2413Z" fill="#FBFB79"/>
</g>
<mask id="mask32_396_9462" style="mask-type:luminance" maskUnits="userSpaceOnUse" x="25" y="56" width="8" height="8">
<path d="M30.7455 56.1984L25.5977 57.4822L26.9806 63.0303L32.1285 61.7465L30.7455 56.1984Z" fill="white"/>
</mask>
<g mask="url(#mask32_396_9462)">
<path d="M27.2548 61.4877L26.6133 61.6476L26.9592 63.0352L27.6007 62.8753L27.2548 61.4877Z" fill="#FBFB79"/>
<path d="M27.5731 59.9351L26.9316 60.0951L27.2775 61.4827L27.919 61.3227L27.5731 59.9351Z" fill="#5AE500"/>
<path d="M28.5419 61.167L27.9004 61.327L28.2463 62.7146L28.8878 62.5546L28.5419 61.167Z" fill="#FBFB79"/>
<path d="M28.8603 59.6127L28.2188 59.7727L28.5646 61.1603L29.2061 61.0003L28.8603 59.6127Z" fill="#5AE500"/>
<path d="M29.829 60.844L29.1875 61.004L29.5334 62.3916L30.1749 62.2317L29.829 60.844Z" fill="#FBFB79"/>
<path d="M30.1493 59.2921L29.5078 59.4521L29.8537 60.8397L30.4952 60.6797L30.1493 59.2921Z" fill="#5AE500"/>
<path d="M31.1142 60.524L30.4727 60.684L30.8185 62.0716L31.46 61.9116L31.1142 60.524Z" fill="#FBFB79"/>
<path d="M31.4325 58.9737L30.791 59.1336L31.1369 60.5212L31.7784 60.3613L31.4325 58.9737Z" fill="#5AE500"/>
<path d="M32.4013 60.2033L31.7598 60.3633L32.1057 61.7509L32.7472 61.5909L32.4013 60.2033Z" fill="#FBFB79"/>
</g>
<mask id="mask33_396_9462" style="mask-type:luminance" maskUnits="userSpaceOnUse" x="20" y="57" width="7" height="8">
<path d="M25.599 57.4804L20.4512 58.7642L21.8342 64.3124L26.982 63.0286L25.599 57.4804Z" fill="white"/>
</mask>
<g mask="url(#mask33_396_9462)">
<path d="M25.2977 59.0287L24.6562 59.1887L25.0021 60.5763L25.6436 60.4163L25.2977 59.0287Z" fill="#FBFB79"/>
<path d="M24.9989 60.5763L24.3574 60.7363L24.7033 62.1239L25.3448 61.964L24.9989 60.5763Z" fill="#5AE500"/>
<path d="M25.9677 61.8083L25.3262 61.9683L25.6721 63.3559L26.3136 63.1959L25.9677 61.8083Z" fill="#FBFB79"/>
<path d="M26.288 60.2556L25.6465 60.4156L25.9924 61.8032L26.6339 61.6432L26.288 60.2556Z" fill="#5AE500"/>
<path d="M27.2548 61.4876L26.6133 61.6476L26.9592 63.0352L27.6007 62.8752L27.2548 61.4876Z" fill="#FBFB79"/>
</g>
</g>
<path d="M36.5535 65.4175C36.8572 66.0835 36.5839 66.871 35.9297 67.2004C34.7967 67.7729 33.3716 68.3618 31.6802 68.7894C29.837 69.2544 28.176 69.4016 26.8233 69.411C26.0851 69.418 25.4753 68.8362 25.4473 68.0977L25.3398 65.2679" stroke="#5A4536" stroke-width="0.255548" stroke-miterlimit="10"/>
<path d="M26.6582 64.567L27.6908 68.7498L34.8091 66.9715L33.7579 62.8121L26.6582 64.567Z" fill="#FBFB7A"/>
<path d="M29.8056 65.2764L29.668 64.7351L29.9526 64.6627C29.9736 64.6581 29.9946 64.6534 30.0156 64.6534C30.0342 64.6534 30.0529 64.6534 30.0692 64.6581C30.0855 64.6627 30.1019 64.6697 30.1135 64.6791C30.1275 64.6884 30.1392 64.7001 30.1485 64.7164C30.1579 64.7304 30.1649 64.7491 30.1719 64.7677C30.1812 64.8004 30.1788 64.8307 30.1672 64.8587C30.1555 64.8867 30.1345 64.9077 30.1065 64.9241V64.9287C30.1299 64.9287 30.1485 64.9287 30.1649 64.9334C30.1788 64.9381 30.1928 64.9474 30.2022 64.9614C30.2115 64.9731 30.2185 64.9894 30.2255 65.0104L30.2465 65.0967C30.2465 65.0967 30.2512 65.1177 30.2558 65.1271C30.2582 65.1364 30.2652 65.1481 30.2722 65.1574L30.1369 65.1924C30.1369 65.1924 30.1275 65.1784 30.1229 65.1691C30.1182 65.1597 30.1159 65.1457 30.1112 65.1317L30.0949 65.0687C30.0902 65.0547 30.0855 65.0431 30.0809 65.0361C30.0739 65.0267 30.0645 65.0221 30.0529 65.0197C30.0412 65.0174 30.0249 65.0197 30.0039 65.0244L29.8803 65.0547L29.8546 64.9497L29.9852 64.9171C30.0132 64.9101 30.0319 64.8984 30.0389 64.8821C30.0482 64.8657 30.0482 64.8471 30.0435 64.8284C30.0412 64.8167 30.0365 64.8074 30.0296 64.7981C30.0249 64.7911 30.0179 64.7864 30.0086 64.7817C29.9992 64.7794 29.9922 64.7771 29.9806 64.7771C29.9712 64.7771 29.9596 64.7771 29.9479 64.7817L29.8289 64.8121L29.9386 65.2437L29.8056 65.2764Z" fill="black"/>
<path d="M30.3494 65.1387L30.2305 64.6697L30.3634 64.6371L30.4824 65.1061L30.3494 65.1387Z" fill="black"/>
<path d="M30.7799 65.0382C30.7309 65.0499 30.6865 65.0545 30.6492 65.0475C30.6119 65.0405 30.5816 65.0265 30.5559 65.0055C30.5326 64.9822 30.5139 64.9542 30.5069 64.9192L30.6422 64.8842C30.6469 64.9005 30.6539 64.9122 30.6632 64.9215C30.6725 64.9309 30.6865 64.9379 30.7029 64.9402C30.7192 64.9425 30.7379 64.9402 30.7612 64.9355C30.7775 64.9309 30.7938 64.9262 30.8055 64.9192C30.8172 64.9122 30.8242 64.9029 30.8312 64.8935C30.8358 64.8842 30.8358 64.8702 30.8312 64.8562C30.8288 64.8469 30.8242 64.8375 30.8195 64.8329C30.8148 64.8282 30.8055 64.8235 30.7962 64.8212C30.7868 64.8212 30.7729 64.8189 30.7565 64.8189C30.7402 64.8189 30.7192 64.8189 30.6959 64.8235C30.6632 64.8259 30.6352 64.8259 30.6072 64.8235C30.5816 64.8212 30.5582 64.8142 30.5396 64.8072C30.5209 64.7979 30.5046 64.7862 30.4929 64.7699C30.4813 64.7535 30.4719 64.7349 30.4649 64.7115C30.4556 64.6765 30.4579 64.6439 30.4673 64.6135C30.4789 64.5832 30.4976 64.5575 30.5279 64.5365C30.5559 64.5155 30.5932 64.4992 30.6399 64.4875C30.6865 64.4759 30.7215 64.4735 30.7565 64.4805C30.7915 64.4852 30.8218 64.4992 30.8452 64.5179C30.8685 64.5389 30.8848 64.5645 30.8942 64.5949L30.7589 64.6299C30.7542 64.6135 30.7472 64.6042 30.7379 64.5972C30.7285 64.5902 30.7169 64.5855 30.7029 64.5855C30.6889 64.5855 30.6749 64.5855 30.6632 64.5902C30.6469 64.5949 30.6352 64.5995 30.6236 64.6065C30.6142 64.6135 30.6049 64.6205 30.6026 64.6299C30.5979 64.6392 30.5979 64.6509 30.6026 64.6625C30.6072 64.6742 30.6119 64.6835 30.6189 64.6882C30.6282 64.6929 30.6422 64.6975 30.6609 64.6975C30.6795 64.6975 30.7075 64.6975 30.7402 64.6929C30.7635 64.6929 30.7869 64.6905 30.8102 64.6905C30.8335 64.6905 30.8545 64.6952 30.8755 64.7022C30.8965 64.7092 30.9152 64.7232 30.9315 64.7395C30.9478 64.7582 30.9595 64.7839 30.9688 64.8165C30.9781 64.8492 30.9758 64.8819 30.9665 64.9099C30.9548 64.9402 30.9361 64.9659 30.9058 64.9892C30.8755 65.0125 30.8358 65.0289 30.7845 65.0429L30.7799 65.0382Z" fill="black"/>
<path d="M31.0771 64.954L30.9395 64.4127L31.3407 64.31L31.3687 64.4243L31.0724 64.499L31.0934 64.464L31.1867 64.835L31.1517 64.814L31.448 64.7393L31.476 64.8537L31.0724 64.9563L31.0771 64.954ZM31.1261 64.7067L31.0981 64.6017L31.357 64.5363L31.385 64.6413L31.1261 64.7067Z" fill="black"/>
<path d="M29.9775 65.9611L29.8398 65.4198L30.1128 65.3498C30.1688 65.3358 30.2131 65.3381 30.2481 65.3568C30.2831 65.3755 30.3041 65.4058 30.3157 65.4478C30.3204 65.4688 30.3227 65.4875 30.3157 65.5038C30.3111 65.5225 30.3041 65.5388 30.2947 65.5528C30.2831 65.5668 30.2691 65.5785 30.2504 65.5878V65.5925C30.2761 65.5901 30.2994 65.5925 30.3181 65.5995C30.3367 65.6065 30.3531 65.6181 30.3647 65.6345C30.3764 65.6485 30.3857 65.6671 30.3904 65.6881C30.3997 65.7231 30.3997 65.7535 30.3904 65.7815C30.3811 65.8095 30.3624 65.8328 30.3367 65.8515C30.3111 65.8701 30.2761 65.8841 30.2341 65.8958L29.9775 65.9611ZM30.0825 65.8281L30.1944 65.8001C30.2224 65.7931 30.2411 65.7815 30.2504 65.7675C30.2597 65.7535 30.2621 65.7371 30.2574 65.7161C30.2527 65.6928 30.2411 65.6788 30.2248 65.6718C30.2084 65.6648 30.1898 65.6648 30.1664 65.6718L30.0405 65.7045L30.0148 65.6065L30.1361 65.5761C30.1524 65.5715 30.1641 65.5668 30.1734 65.5598C30.1828 65.5528 30.1874 65.5435 30.1898 65.5341C30.1921 65.5248 30.1898 65.5131 30.1898 65.5015C30.1851 65.4828 30.1758 65.4688 30.1594 65.4641C30.1454 65.4571 30.1268 65.4571 30.1058 65.4641L29.9985 65.4921L30.0848 65.8305L30.0825 65.8281Z" fill="black"/>
<path d="M30.6468 65.793L30.5955 65.59L30.3086 65.303L30.4602 65.2656L30.5652 65.3846L30.6305 65.4616H30.6352L30.6562 65.3613L30.6935 65.2073L30.8451 65.17L30.7308 65.5596L30.7822 65.7626L30.6492 65.7953L30.6468 65.793Z" fill="black"/>
<path d="M31.1689 65.6597L31.0312 65.1183L31.1642 65.0857L31.3019 65.627L31.1689 65.6597ZM31.2202 65.4147L31.1922 65.3003L31.4745 65.228L31.5025 65.3423L31.2202 65.4147ZM31.5305 65.5687L31.3928 65.0273L31.5258 64.9947L31.6634 65.536L31.5305 65.5687Z" fill="black"/>
<path d="M31.7227 65.5195L31.76 64.9338L31.9489 64.8848L32.2592 65.3818L32.1216 65.4168L31.9186 65.0738L31.8813 65.0085H31.8766V65.0855L31.8626 65.4845L31.725 65.5195H31.7227ZM31.8556 65.3748V65.2651L32.0189 65.2255L32.0726 65.3188L31.8533 65.3748H31.8556Z" fill="black"/>
<path d="M32.3193 65.3676L32.1816 64.8263L32.4079 64.7679C32.4546 64.7563 32.4942 64.7539 32.5292 64.7609C32.5642 64.7679 32.5922 64.7843 32.6155 64.8053C32.6365 64.8286 32.6529 64.8589 32.6622 64.8939C32.6715 64.9336 32.6715 64.9686 32.6622 64.9989C32.6505 65.0316 32.6319 65.0573 32.6039 65.0806C32.5759 65.1039 32.5409 65.1203 32.5012 65.1296L32.3963 65.1553L32.3706 65.0526L32.4639 65.0293C32.4942 65.0223 32.5129 65.0083 32.5222 64.9919C32.5316 64.9733 32.5339 64.9546 32.5292 64.9336C32.5222 64.9079 32.5106 64.8916 32.4919 64.8846C32.4732 64.8776 32.4522 64.8776 32.4266 64.8846L32.3286 64.9103L32.3403 64.8916L32.4522 65.3349L32.3193 65.3676Z" fill="black"/>
<path d="M32.8212 65.2414L32.6836 64.7001L32.9099 64.6418C32.9565 64.6301 32.9962 64.6278 33.0312 64.6348C33.0662 64.6418 33.0942 64.6581 33.1175 64.6791C33.1385 64.7024 33.1548 64.7328 33.1641 64.7678C33.1735 64.8074 33.1735 64.8424 33.1641 64.8728C33.1525 64.9054 33.1338 64.9311 33.1058 64.9544C33.0778 64.9778 33.0428 64.9941 33.0032 65.0034L32.8982 65.0291L32.8725 64.9264L32.9659 64.9031C32.9962 64.8961 33.0149 64.8821 33.0242 64.8658C33.0335 64.8471 33.0358 64.8284 33.0312 64.8074C33.0242 64.7818 33.0125 64.7654 32.9939 64.7584C32.9752 64.7514 32.9542 64.7514 32.9285 64.7584L32.8306 64.7841L32.8422 64.7654L32.9542 65.2088L32.8212 65.2414Z" fill="black"/>
<path d="M33.4691 65.0779L33.4178 64.8749L33.1309 64.5879L33.2825 64.5505L33.3875 64.6695L33.4528 64.7465H33.4574L33.4784 64.6462L33.5158 64.4922L33.6674 64.4549L33.5531 64.8445L33.6044 65.0475L33.4714 65.0802L33.4691 65.0779Z" fill="black"/>
<path d="M30.1533 66.6481L30.0156 66.1068L30.1486 66.0741L30.2862 66.6155L30.1533 66.6481ZM30.2046 66.4008L30.1766 66.2865L30.4589 66.2141L30.4868 66.3285L30.2046 66.4008ZM30.5148 66.5548L30.3772 66.0135L30.5102 65.9808L30.6478 66.5221L30.5148 66.5548Z" fill="black"/>
<path d="M30.996 66.4403C30.954 66.4519 30.9144 66.4543 30.8794 66.4496C30.8421 66.4449 30.8094 66.4356 30.7791 66.4169C30.7487 66.4006 30.7231 66.3749 30.7021 66.3446C30.6811 66.3143 30.6648 66.2746 30.6531 66.2303C30.6414 66.1859 30.6391 66.1439 30.6414 66.1066C30.6461 66.0693 30.6578 66.0342 30.6741 66.0062C30.6928 65.9759 30.7161 65.9503 30.7464 65.9316C30.7767 65.9106 30.8117 65.8942 30.8537 65.8849C30.8957 65.8756 30.933 65.8709 30.9704 65.8756C31.0077 65.8802 31.0403 65.8896 31.0707 65.9082C31.101 65.9269 31.1267 65.9502 31.1477 65.9806C31.1686 66.0109 31.185 66.0482 31.1966 66.0926C31.2083 66.1369 31.2106 66.1789 31.2083 66.2163C31.2036 66.2536 31.192 66.2886 31.1756 66.3166C31.157 66.3469 31.1337 66.3726 31.1033 66.3913C31.073 66.4123 31.038 66.4286 30.996 66.4379V66.4403ZM30.968 66.3282C30.996 66.3212 31.0193 66.3096 31.0357 66.2909C31.0543 66.2746 31.0637 66.2512 31.0707 66.2256C31.0753 66.1976 31.073 66.1673 31.0637 66.1276C31.0567 66.0996 31.0473 66.0762 31.0357 66.0576C31.024 66.0389 31.01 66.0249 30.996 66.0132C30.9797 66.0039 30.9634 65.9969 30.9447 65.9946C30.926 65.9922 30.9074 65.9946 30.8864 65.9992C30.8584 66.0062 30.8351 66.0179 30.8187 66.0342C30.8001 66.0506 30.7907 66.0739 30.7837 66.0996C30.7791 66.1276 30.7814 66.1579 30.7907 66.1976C30.7977 66.2256 30.8071 66.2489 30.8187 66.2699C30.8304 66.2886 30.8444 66.3049 30.8607 66.3143C30.8771 66.3236 30.8934 66.3306 30.912 66.3329C30.9307 66.3329 30.9494 66.3329 30.9704 66.3282H30.968Z" fill="black"/>
<path d="M31.341 66.3477L31.2031 65.8055L31.411 65.7518L31.5232 65.9528L31.5839 66.0813H31.5909L31.5839 65.9387V65.7074L31.7942 65.6537L31.932 66.1958L31.8035 66.2285L31.7428 65.9855L31.7031 65.8102H31.6961V65.9855V66.2565L31.5839 66.2846L31.4508 66.0462L31.369 65.8943H31.362L31.4087 66.0696L31.4694 66.3103L31.3386 66.343L31.341 66.3477Z" fill="black"/>
<path d="M32.0244 66.1714L31.8867 65.6301L32.288 65.5274L32.316 65.6418L32.0197 65.7164L32.0407 65.6814L32.134 66.0524L32.099 66.0314L32.3953 65.9568L32.4233 66.0711L32.0197 66.1738L32.0244 66.1714ZM32.0733 65.9241L32.0454 65.8191L32.3043 65.7538L32.3323 65.8588L32.0733 65.9241Z" fill="black"/>
<path d="M30.2606 64.6128C30.3171 64.6128 30.3629 64.567 30.3629 64.5105C30.3629 64.4539 30.3171 64.4081 30.2606 64.4081C30.204 64.4081 30.1582 64.4539 30.1582 64.5105C30.1582 64.567 30.204 64.6128 30.2606 64.6128Z" fill="black"/>
<path d="M29.502 65.2493L29.6256 65.7323C29.6466 65.6483 29.6466 65.5597 29.6256 65.4757C29.6046 65.3917 29.5626 65.3147 29.5043 65.2493H29.502Z" fill="black"/>
<path d="M29.5182 65.504C29.4738 65.3264 29.3757 65.1745 29.2449 65.0624L29.2963 65.2657C29.2402 65.1886 29.1678 65.1208 29.0883 65.0694L29.1117 65.1605C28.9458 65.0297 28.7216 64.9759 28.4996 65.032L27.5371 65.2774L28.0207 67.1888L28.565 67.0509L28.4272 66.5112L28.6188 66.4621L29.1631 66.8991L29.7682 66.7448L29.1467 66.2448C29.2238 66.1747 29.2822 66.0906 29.3243 65.9971L29.3476 66.0882C29.3944 66.0041 29.4247 65.913 29.4364 65.8171L29.4878 66.0204C29.5486 65.8592 29.5626 65.6793 29.5159 65.5017L29.5182 65.504ZM28.6234 66.0976C28.4342 66.1466 28.2403 66.0298 28.1912 65.8405C28.1422 65.6512 28.259 65.4573 28.4482 65.4082C28.6375 65.3591 28.8314 65.476 28.8804 65.6653C28.9295 65.8545 28.8127 66.0485 28.6234 66.0976Z" fill="black"/>
</g>
<path d="M10.6412 31.2916V31.216C10.6646 29.4643 11.4964 27.907 12.7734 26.9031L12.8284 26.8599L12.8457 26.8491C12.9967 26.7341 13.1643 26.6169 13.3477 26.5091C13.8459 26.2094 14.3984 25.9847 14.9822 25.8516L15.2845 25.7911C15.5891 25.7396 15.9014 25.7134 16.2183 25.7134C16.4492 25.7134 16.6733 25.7321 16.8898 25.7587C17.1035 25.7296 17.3235 25.7134 17.5483 25.7134C18.1118 25.7135 18.6532 25.8115 19.1569 25.9876C19.7462 26.0953 20.3071 26.2822 20.8281 26.5382L32.1119 11.4317C33.0777 10.1382 34.9348 9.95045 36.1376 10.9998L36.252 11.1045L39.8999 14.6607L82.2734 0L83.5408 17.0746L83.937 16.9645L96.2119 13.5174L95.5209 42.7492L88.7919 43.5351L88.7887 43.5232L57.8102 47.0858L57.8091 47.0837C56.6413 47.2504 55.542 46.4548 55.3541 45.2765L55.3422 45.2052L40.0608 50.7067C40.0982 51.0308 40.1119 51.3579 40.1018 51.6805C40.0671 52.7843 39.7651 53.9913 39.1 54.8793L39.0903 54.8923L39.0805 54.9041L38.9801 55.0304L38.9672 55.0466L38.9542 55.0618C38.6078 55.466 38.1658 55.7524 37.69 55.9189L37.4849 55.9837C37.2526 56.0473 36.9305 56.1477 36.5532 56.2741C37.1461 57.0204 38.4954 58.083 40.999 57.6722L41.1382 57.656C41.7879 57.6083 42.4067 57.9939 42.6367 58.6179L42.6799 58.755L42.6831 58.7647L42.6853 58.7744C42.7048 58.8546 42.7208 58.9457 42.7392 59.0432L42.7511 59.0756L42.7651 59.1642C42.7716 59.2045 42.7745 59.2491 42.7792 59.2959C42.8385 58.857 42.9426 58.2862 43.1268 57.6689C43.5067 56.3959 44.2808 54.7429 45.8851 53.7587L46.2749 53.519L46.7207 53.6259L46.4627 54.7012C46.701 53.7067 46.7198 53.6324 46.7218 53.627L46.7358 53.6302C46.7423 53.6319 46.7506 53.6333 46.7596 53.6356C46.7777 53.6404 46.8008 53.647 46.8287 53.6551C46.8849 53.6712 46.9609 53.6949 47.0522 53.7263C47.2343 53.789 47.4825 53.8847 47.7679 54.0254C48.3363 54.3056 49.076 54.7726 49.7414 55.5184C51.0531 56.9888 51.8955 59.3379 51.0261 62.8919L51.1351 63.001L50.7907 63.7092L49.7964 63.2255L49.7943 63.2234C51.8945 56.0028 46.4627 54.7012 46.4627 54.7012C43.9301 56.2548 43.8097 60.0778 43.8069 60.1811C43.6061 60.3166 43.3958 60.4427 43.1786 60.5525C42.6941 60.8018 42.1693 60.9866 41.6197 61.0966C41.6981 60.6605 41.7224 59.6429 41.6737 59.3401L41.6726 59.3369C41.6539 59.225 41.6321 59.122 41.6111 59.0357C41.562 58.8489 41.3749 58.7301 41.1836 58.7626C37.3971 59.3864 35.6605 57.1438 35.2351 56.2579C35.1743 56.1294 35.0481 56.0424 34.908 56.0377C34.8544 56.0354 34.8007 56.0288 34.7471 56.0172V56.0193L34.5668 55.961C34.503 55.935 34.4467 55.9046 34.4006 55.879C35.5097 55.4467 36.5954 55.0807 37.1934 54.9171C37.5495 54.8198 37.8727 54.6247 38.1143 54.3428L38.2147 54.2164C38.7021 53.5659 38.9673 52.604 38.9974 51.646C39.0152 51.0801 38.9476 50.507 38.7934 49.9899L56.2232 43.7143L56.4456 45.1016C56.539 45.6904 57.0975 46.0884 57.6838 45.9879L89.6523 42.3119L89.6545 42.3216L94.4381 41.7624L95.0718 14.9856L84.2361 18.029L84.2447 18.0711L82.5433 18.5569L81.277 1.51465L39.6182 15.9292L35.4801 11.897C34.7629 11.1983 33.5952 11.292 32.9971 12.0934L21.1218 27.9935C21.0918 27.9735 21.0734 27.9641 21.071 27.9622L21.0721 27.9643C20.4284 27.5082 19.6796 27.1914 18.8687 27.0575C18.4576 26.9039 18.0129 26.819 17.5483 26.8189C17.3302 26.8189 17.1161 26.8384 16.9082 26.874C16.6833 26.8391 16.4529 26.8189 16.2183 26.8189C15.8774 26.8189 15.5459 26.8566 15.2283 26.929C14.7564 27.0365 14.3098 27.2193 13.908 27.4623C13.761 27.5487 13.6211 27.6468 13.4881 27.7495C13.4787 27.7565 13.4684 27.7652 13.4567 27.7722C12.4312 28.5783 11.7654 29.8268 11.7467 31.2311V31.2916C11.7467 31.9481 11.8871 32.5746 12.144 33.1377C12.2304 33.3293 12.3309 33.5141 12.443 33.6893L12.4441 33.6904C9.03513 34.9247 6.24062 37.5224 5.05654 40.3136C4.23294 42.2579 3.64938 45.1725 4.50056 48.0963C4.49623 48.0976 4.49162 48.0994 4.4876 48.1006C3.73674 48.1227 2.98756 48.3849 2.36515 48.9017C1.02657 50.014 0.729979 51.9157 1.59433 53.3668C1.74852 53.6239 1.97287 53.8296 2.23452 53.9768C3.73363 54.8227 6.59835 57.4147 8.53279 58.1828C8.54603 58.2762 8.56305 58.3691 8.57921 58.4624C8.58026 60.4857 9.44422 63.3371 11.3418 65.85C10.4716 67.719 9.6489 71.5041 9.88982 73.7924C9.90195 73.9072 9.841 74.001 9.74947 74.0742C9.67319 74.0684 9.61391 74.0658 9.57134 74.0656C9.54618 74.0654 9.52654 74.0662 9.51304 74.0667C9.50646 74.0669 9.50065 74.0675 9.49685 74.0677H9.49037L9.50009 74.1919C9.50038 74.1956 9.49981 74.1992 9.50009 74.2027C9.45965 74.2156 9.41923 74.2271 9.38025 74.234C9.19823 74.2644 9.04658 74.3089 8.91819 74.3603C8.47666 74.5402 7.92271 75.155 8.26613 75.8069C8.61219 76.4589 12.0954 77.9888 15.9031 78.372V78.3699C16.5078 78.4352 16.5597 78.3795 16.716 78.0902C17.3187 76.978 19.0597 73.3182 19.8727 71.2479L19.6427 71.0697C22.3029 71.7822 25.6505 72.1988 29.3341 71.7887C30.1675 73.0842 31.5707 74.2907 33.742 75.2197C33.8475 75.2647 33.9188 75.3522 33.9623 75.4561C33.9369 75.5194 33.9184 75.5699 33.9061 75.6072C33.8983 75.631 33.8925 75.6493 33.8889 75.6623C33.8871 75.6685 33.8855 75.6737 33.8845 75.6774L33.8835 75.6828V75.685C33.8874 75.6859 33.9077 75.6901 34.0044 75.713C34.0069 75.7136 34.0095 75.7135 34.0119 75.7141C34.0125 75.7563 34.0125 75.7984 34.0065 75.8393C33.9808 76.0216 33.9756 76.1808 33.9849 76.3187C34.0224 76.793 34.4363 77.5082 35.1628 77.382C35.8893 77.2535 38.4151 74.4045 39.9453 70.897L39.942 70.8992C40.1873 70.3432 40.0989 70.3201 39.9237 70.0398C39.722 69.7164 39.4058 69.2675 38.9985 68.7508C40.9341 67.709 42.8812 66.3721 44.7969 64.6743C44.8456 64.6303 44.8826 64.5951 44.906 64.5718C45.1975 64.6977 45.4705 64.7911 45.7318 64.8611C48.6263 65.6274 49.7964 63.2255 49.7964 63.2255C50.7903 63.7097 50.7897 63.7113 50.7897 63.7113L50.7875 63.7146L50.7853 63.72C50.7833 63.724 50.7805 63.7288 50.7778 63.734C50.7725 63.7444 50.7662 63.7571 50.7583 63.7718C50.7424 63.8017 50.7204 63.8405 50.6936 63.8862C50.64 63.9776 50.5637 64.1 50.4625 64.2393C50.2618 64.5154 49.9541 64.8752 49.5244 65.2066C48.6305 65.8958 47.2656 66.4108 45.449 65.9299L45.4457 65.9288C45.3445 65.9017 45.2427 65.8701 45.1391 65.837C44.2473 66.604 43.3499 67.299 42.4478 67.9249L40.959 71.3386C40.1519 73.1886 39.0861 74.8574 38.123 76.0876C37.6418 76.7022 37.1722 77.2254 36.7573 77.6142C36.5508 77.8076 36.3415 77.9836 36.1387 78.1226C35.9639 78.2424 35.6849 78.4119 35.3549 78.4703L35.3517 78.4713C34.5386 78.6125 33.8901 78.2581 33.4916 77.8128C33.1712 77.4548 32.9737 77.0064 32.9043 76.5864L32.778 75.9959C31.0114 75.1604 29.7065 74.1201 28.804 72.9515C25.7635 73.2165 22.9614 72.9483 20.582 72.4322C19.6828 74.5767 18.2404 77.5944 17.6876 78.6149C17.6424 78.6987 17.4542 79.1012 17.0086 79.3307C16.5833 79.5497 15.7919 79.4721 15.7919 79.4721C13.7838 79.2699 11.8702 78.767 10.4048 78.2274C9.6726 77.9577 9.03088 77.6717 8.53386 77.3961C8.28654 77.2589 8.05569 77.1134 7.86129 76.9632C7.69366 76.8336 7.44711 76.6207 7.29019 76.3251L7.28803 76.3219C6.90323 75.5912 7.04121 74.8646 7.34309 74.3484C7.58493 73.9351 8.2909 73.3714 8.2909 73.3714L8.74438 72.9622C8.73936 71.8591 8.88771 70.6182 9.1136 69.4536C9.35474 68.2104 9.69911 66.9748 10.082 65.9947C8.43521 63.6159 7.59423 60.9929 7.48559 58.9137C6.52272 58.4197 5.47926 57.6768 4.56209 56.9964C3.3552 56.101 2.36128 55.3178 1.69149 54.9398C1.28391 54.7102 0.910639 54.376 0.646462 53.9358L0.644303 53.9325C-0.494435 52.0206 -0.103968 49.516 1.65911 48.051C2.11721 47.6707 2.62916 47.3984 3.16296 47.224C2.65986 44.4091 3.25545 41.7303 4.0385 39.8818C5.21927 37.0983 7.78936 34.5631 10.9456 33.1118C10.7475 32.538 10.6412 31.9246 10.6412 31.2916ZM40.6254 69.0952C40.6284 69.0995 40.6311 69.1039 40.6341 69.1082L40.8899 68.9376C40.802 68.9911 40.7134 69.0429 40.6254 69.0952ZM21.6529 27.1924L21.7663 27.1028C21.7543 27.0932 21.7436 27.0845 21.735 27.078L21.7317 27.0748L21.6529 27.1924Z" fill="#FEFED7"/>
<defs>
<filter id="filter0_d_396_9462" x="1.10547" y="1.51465" width="94.5638" height="79.688" filterUnits="userSpaceOnUse" color-interpolation-filters="sRGB">
<feFlood flood-opacity="0" result="BackgroundImageFix"/>
<feColorMatrix in="SourceAlpha" type="matrix" values="0 0 0 0 0 0 0 0 0 0 0 0 0 0 0 0 0 0 127 0" result="hardAlpha"/>
<feOffset dx="0.596964" dy="2.80794"/>
<feComposite in2="hardAlpha" operator="out"/>
<feColorMatrix type="matrix" values="0 0 0 0 0.32549 0 0 0 0 0.415686 0 0 0 0 0.988235 0 0 0 1 0"/>
<feBlend mode="normal" in2="BackgroundImageFix" result="effect1_dropShadow_396_9462"/>
<feBlend mode="normal" in="SourceGraphic" in2="effect1_dropShadow_396_9462" result="shape"/>
</filter>
</defs>
</svg>
