<svg width="80" height="64" viewBox="0 0 80 64" fill="none" xmlns="http://www.w3.org/2000/svg">
<g clip-path="url(#clip0_261_5689)">
<path d="M35.3605 56.087C34.274 55.7236 32.79 55.4933 30.9066 55.3963C29.9564 55.3164 29.256 55.2269 28.8074 55.1299C28.3569 55.0328 28.0635 54.9396 27.9272 54.8502C27.791 54.7607 27.7228 54.6275 27.7228 54.4506C27.7228 54.2413 27.8629 54.0795 28.1449 53.9654C28.427 53.8531 28.8964 53.796 29.557 53.796C30.2971 53.796 30.812 53.8816 31.1016 54.051C31.3912 54.2203 31.5842 54.4506 31.6808 54.7417H37.9802C37.8345 53.2861 37.1038 52.1215 35.7845 51.2482C34.4652 50.3748 32.3887 49.9371 29.557 49.9371C27.6585 49.9371 26.1139 50.1312 24.9233 50.5194C23.7327 50.9076 22.8714 51.4099 22.3414 52.0245C21.8095 52.6391 21.5445 53.326 21.5445 54.0871C21.5445 54.8483 21.7584 55.5466 22.1843 56.0889C22.6102 56.6312 23.356 57.0764 24.4179 57.4228C25.4798 57.771 26.9676 58.0012 28.8831 58.1154C29.8012 58.2124 30.4883 58.3057 30.9464 58.3951C31.4044 58.4845 31.7035 58.5816 31.8398 58.6862C31.9761 58.7909 32.0442 58.9164 32.0442 59.063C32.0442 59.16 31.9874 59.2685 31.8758 59.3902C31.7622 59.512 31.5577 59.6015 31.2606 59.6566C30.9634 59.7137 30.5394 59.7423 29.9942 59.7423C29.2371 59.7423 28.6995 59.6528 28.3777 59.4759C28.056 59.297 27.8629 59.063 27.7985 58.7718H21.3779C21.4423 59.7423 21.7641 60.5871 22.3433 61.3083C22.9225 62.0275 23.8443 62.5946 25.1069 63.0075C26.3694 63.4204 28.0067 63.6259 30.0189 63.6259C32.031 63.6259 33.6002 63.4318 34.8229 63.0436C36.0457 62.6555 36.9354 62.1417 37.49 61.5024C38.0446 60.863 38.3228 60.1799 38.3228 59.4511C38.3228 58.6748 38.1014 58.0107 37.6603 57.4608C37.2174 56.9109 36.4527 56.4542 35.3662 56.0889L35.3605 56.087Z" fill="white"/>
<path d="M52.4263 50.6887C51.2281 50.1883 49.6627 49.9371 47.732 49.9371C45.8013 49.9371 44.3892 50.1636 43.2062 50.6164C42.0231 51.0693 41.1297 51.663 40.5259 52.3994C39.9221 53.1357 39.5567 53.9977 39.428 54.9834H45.8732C45.9698 54.6922 46.1553 54.4734 46.4278 54.3288C46.7023 54.1823 47.1187 54.11 47.6828 54.11C48.3112 54.11 48.7693 54.1956 49.0589 54.3649C49.3485 54.5343 49.517 54.8464 49.5662 55.2992L47.2001 55.518C45.205 55.6969 43.6226 55.988 42.4566 56.3914C41.2887 56.7967 40.4483 57.3048 39.9334 57.9194C39.4186 58.534 39.1611 59.3027 39.1611 60.2237C39.1611 60.8878 39.3428 61.4738 39.7044 61.9838C40.0659 62.4937 40.6167 62.8933 41.3587 63.1844C42.0989 63.4756 43.032 63.6221 44.1583 63.6221C45.2845 63.6221 46.3218 63.4718 47.2247 63.173C48.1257 62.8743 48.8696 62.4328 49.4583 61.8506C50.0451 61.2683 50.4767 60.5643 50.7492 59.7404L52.873 63.2111H55.9149V56.635C55.9149 55.147 55.6328 53.9102 55.0707 52.9226C54.5066 51.937 53.6264 51.1911 52.4282 50.6906L52.4263 50.6887ZM49.3126 58.5264C49.0797 58.8346 48.7333 59.0801 48.2753 59.2666C47.8172 59.453 47.2815 59.5463 46.6701 59.5463C46.2669 59.5463 45.983 59.4892 45.8127 59.3769C45.6442 59.2647 45.5666 59.1029 45.5836 58.8917C45.5836 58.6976 45.6764 58.5245 45.8619 58.3703C46.0474 58.2162 46.3483 58.0792 46.7667 57.9574C47.185 57.8357 47.7169 57.75 48.3605 57.7025L49.6646 57.5331C49.6646 57.8889 49.5473 58.22 49.3145 58.5283L49.3126 58.5264Z" fill="white"/>
<path d="M65.9071 54.5952C66.5185 54.5952 66.9765 54.6998 67.2832 54.9111C67.5879 55.1204 67.8151 55.4457 67.9589 55.8815H74.4761C74.3152 54.6351 73.912 53.5734 73.2684 52.6905C72.6248 51.8095 71.6955 51.1302 70.4802 50.6526C69.265 50.175 67.7564 49.9371 65.9544 49.9371C64.0388 49.9371 62.4431 50.2168 61.1636 50.7744C59.884 51.3319 58.9224 52.1082 58.2788 53.1034C57.6353 54.0986 57.3135 55.2269 57.3135 56.4885V57.0707C57.3135 58.3323 57.6353 59.4607 58.2788 60.4558C58.9224 61.451 59.884 62.2273 61.1636 62.7848C62.4431 63.3424 64.0388 63.6221 65.9544 63.6221C67.7564 63.6221 69.2688 63.3842 70.4935 62.9066C71.7163 62.429 72.6457 61.7497 73.2817 60.8687C73.9177 59.9877 74.3152 58.9241 74.4761 57.6777H67.9589C67.8302 58.1154 67.6088 58.4388 67.2945 58.6482C66.9803 58.8594 66.5185 58.964 65.9071 58.964C65.167 58.964 64.6124 58.7871 64.2414 58.4293C63.8704 58.0735 63.6867 57.5236 63.6867 56.7796C63.6867 56.0356 63.8723 55.4857 64.2414 55.1299C64.6105 54.7741 65.167 54.5952 65.9071 54.5952Z" fill="white"/>
<path d="M15.7676 33.5426L22.3339 25.3035H13.2974L7.27238 32.9965V25.3035H0V45.2182H7.27238V40.1168L9.63278 37.4167L14.1113 45.2182H22.633L15.7676 33.5426Z" fill="white"/>
<path d="M31.1523 38.3433H37.6373V41.8483C37.6373 41.8483 39.5888 43.2773 41.4495 44.1431C42.7575 44.752 45.1273 45.4922 45.1273 45.4922V25.3015H37.6373V32.203H31.1523V25.3015H23.6357V45.2163H31.1523V38.3414V38.3433Z" fill="white"/>
<path d="M80.0002 25.3035H72.4287V45.2182H80.0002V25.3035Z" fill="white"/>
<path d="M12.2487 15.9588C12.2487 17.3992 12.4702 18.5714 12.9131 19.4771C13.3561 20.3828 14.0886 21.0507 15.1089 21.4788C16.131 21.907 17.5014 22.122 19.2239 22.122C20.0928 22.122 20.8972 22.0782 21.6373 21.9888C22.3775 21.8994 23.0381 21.8061 23.6173 21.7091V17.0263C23.5037 17.0434 23.4072 17.0586 23.3277 17.0758C23.2463 17.0929 23.1744 17.1081 23.11 17.1252C22.1276 17.2223 21.308 17.2718 20.6474 17.2718C19.9868 17.2718 19.5249 17.2223 19.2107 17.1252C18.8965 17.0282 18.6883 16.8455 18.5823 16.5791C18.4782 16.3127 18.4252 15.8865 18.4252 15.3043V13.5822H23.5662V8.84996H18.4252V4.94351H14.5864L12.51 8.84996H9.20312V13.5822H12.245V15.9607L12.2487 15.9588Z" fill="white"/>
<path d="M42.0371 14.5013C42.0371 13.352 41.7229 12.3226 41.0964 11.4073C40.4679 10.494 39.5234 9.76901 38.2609 9.23623C36.9983 8.70154 35.4254 8.43515 33.542 8.43515C31.6586 8.43515 30.0174 8.71486 28.7152 9.27238C27.411 9.8299 26.438 10.6024 25.7945 11.59C25.1509 12.5775 24.8291 13.7097 24.8291 14.9865V15.5687C24.8291 16.8303 25.1509 17.9587 25.7945 18.9538C26.438 19.949 27.4034 20.7253 28.6905 21.2829C29.9777 21.8404 31.5866 22.1201 33.5173 22.1201C35.3042 22.1201 36.7882 21.8937 37.9713 21.4408C39.1543 20.9879 40.0591 20.3885 40.6875 19.6445C41.3159 18.9006 41.6851 18.0424 41.7986 17.072H35.2815L35.2096 17.169C35.0165 17.4278 34.778 17.6105 34.4979 17.7151C34.2158 17.8198 33.7767 17.873 33.1823 17.873C32.5539 17.873 32.0636 17.7437 31.7097 17.4849C31.3557 17.2261 31.1229 16.7903 31.0093 16.1738H41.9444C42.0087 15.6734 42.0409 15.114 42.0409 14.4994L42.0371 14.5013ZM31.0301 13.919C31.1759 13.4015 31.4371 13.0133 31.8157 12.7545C32.1942 12.4957 32.728 12.3663 33.4208 12.3663C34.1136 12.3663 34.6436 12.4919 35.0146 12.7431C35.3856 12.9943 35.6014 13.3862 35.6657 13.9209H31.0301V13.919Z" fill="white"/>
<path d="M42.9052 13.5803H45.947V15.9588C45.947 17.3992 46.1685 18.5714 46.6114 19.4771C47.0543 20.3828 47.785 21.0507 48.8071 21.4788C49.8293 21.907 51.1997 22.122 52.9222 22.122C53.791 22.122 54.5955 22.0782 55.3356 21.9888C56.0757 21.8994 56.7363 21.8061 57.3155 21.7091V17.0263C57.202 17.0434 57.1054 17.0586 57.0259 17.0758C56.9445 17.0929 56.8726 17.1081 56.8082 17.1252C55.8258 17.2223 55.0062 17.2718 54.3456 17.2718C53.685 17.2718 53.2232 17.2223 52.9089 17.1252C52.5947 17.0282 52.3865 16.8455 52.2805 16.5791C52.1764 16.3127 52.1234 15.8865 52.1234 15.3043V13.5822H57.2644V8.84996H52.1234V4.94351H48.2847L46.2082 8.84996H42.9014V13.5822L42.9052 13.5803Z" fill="white"/>
<path d="M55.2302 46.2381C49.228 48.3901 42.4723 47.4444 37.6209 43.1955C37.2518 42.872 36.3148 42.2117 35.7829 42.4572C35.2643 42.6989 35.4252 43.1003 35.8322 43.4581C41.8023 48.687 49.9908 50.5498 57.513 47.8516C58.0847 47.6461 57.1685 46.8222 56.9925 46.6947C56.5193 46.3503 55.8151 46.0288 55.2302 46.2381Z" fill="white"/>
<path d="M50.0189 42.8853L65.3625 26.1978C65.2849 26.1597 65.2091 26.1179 65.1296 26.0817C64.6602 25.8629 64.1643 25.6745 63.6437 25.5128C62.2033 25.0656 60.5735 24.8392 58.7526 24.8392C56.2919 24.8392 54.1794 25.2521 52.4153 26.0798C50.6511 26.9075 49.3167 28.0625 48.4119 29.5448C47.5071 31.0271 47.0547 32.7415 47.0547 34.6862V35.8317C47.0547 37.7782 47.5071 39.4907 48.4119 40.973C48.5463 41.1918 48.692 41.4011 48.8434 41.6047L54.7624 35.1676V34.9031C54.7624 34.0659 54.912 33.3656 55.2091 32.8024C55.5082 32.2392 55.9644 31.8072 56.5796 31.5066C57.1399 31.2326 57.7929 31.0918 58.533 31.067C58.6068 31.0651 58.675 31.0575 58.7507 31.0575C59.4738 31.0575 60.0908 31.1622 60.6095 31.3639L65.3606 26.1959L50.0189 42.8853ZM69.1312 29.5448C69.0195 29.3583 68.9021 29.1814 68.7734 29.0044C68.4365 28.5363 68.0522 28.1044 67.6169 27.7086L62.5307 33.24C62.7238 33.7176 62.8204 34.2714 62.8204 34.905V35.6147C62.8204 36.4501 62.6538 37.1522 62.3206 37.7154C61.9837 38.2787 61.5294 38.7106 60.9502 39.0093C60.4675 39.2605 59.8713 39.3994 59.1785 39.4413C59.0384 39.4489 58.9002 39.4603 58.7507 39.4603C58.1128 39.4603 57.5449 39.3766 57.0433 39.2091L52.2903 44.379C52.332 44.3981 52.3717 44.4209 52.4134 44.4399C52.9188 44.6778 53.4582 44.8776 54.0242 45.0469C55.423 45.4655 56.996 45.6806 58.7507 45.6806C61.2285 45.6806 63.3541 45.2676 65.1278 44.4399C66.8995 43.6122 68.2339 42.4572 69.1293 40.9749C70.0246 39.4945 70.4732 37.7801 70.4732 35.8336V34.69C70.4732 32.7434 70.0246 31.029 69.1293 29.5467L69.1312 29.5448Z" fill="white"/>
<path d="M42.8659 7.07465C37.2327 3.79041 30.3957 4.34793 24.8704 7.5827C24.2496 7.94613 24.5487 8.29054 25.0881 8.39709C25.8396 8.54551 26.8106 8.1326 27.4428 7.76346C31.3062 5.50293 35.9721 6.05284 39.737 8.24677C40.3408 8.59879 41.2891 8.32859 41.893 8.09645C42.0652 8.02985 43.411 7.39242 42.8678 7.07465H42.8659Z" fill="white"/>
<path d="M24.9211 4.33655C30.7019 3.44985 36.4827 2.56124 42.2635 1.67453C42.733 1.60223 43.6283 1.33203 43.6567 0.725036C43.6851 0.142779 43.0112 -0.0570155 42.5323 0.0152909C36.7515 0.901996 30.9707 1.7906 25.1899 2.67731C24.7205 2.74962 23.8252 3.01981 23.7968 3.62681C23.7684 4.20906 24.4422 4.40886 24.9211 4.33655Z" fill="white"/>
<path d="M59.1972 20.3505H64.518C65.4095 20.3505 65.0499 20.8547 64.5559 21.3437C63.918 21.9774 63.2782 22.611 62.6403 23.2446C62.1406 23.7413 62.2712 24.2284 62.9507 24.4072C63.6568 24.5918 64.783 24.2912 65.3054 23.7736C66.0702 23.0144 66.8462 22.2666 67.5996 21.496C68.8129 20.2553 68.3927 18.676 66.5718 18.499C64.5805 18.305 62.5021 18.48 60.4995 18.48C59.8332 18.48 58.6331 18.7065 58.2999 19.3877C57.9725 20.0574 58.5782 20.3505 59.1972 20.3505Z" fill="white"/>
<path d="M50.2822 42.598C50.1951 42.6932 50.1061 42.7902 50.0191 42.8854C49.2771 43.6921 48.5351 44.4989 47.7931 45.3057C47.1381 46.0174 48.3628 46.1905 48.8266 46.1829C49.7295 46.1658 50.9617 45.8271 51.5996 45.1326C51.8305 44.8814 52.0615 44.6302 52.2905 44.381L67.617 27.7124C68.1016 27.1853 68.5862 26.6583 69.0707 26.1312C69.8998 25.2293 70.7308 24.3254 71.5599 23.4235C72.2148 22.7119 70.9901 22.5387 70.5264 22.5463C69.6235 22.5634 68.3912 22.9021 67.7533 23.5967C66.9564 24.4643 66.1576 25.332 65.3607 26.1997L50.2822 42.5999V42.598Z" fill="url(#paint0_linear_261_5689)"/>
</g>
<defs>
<linearGradient id="paint0_linear_261_5689" x1="47.6057" y1="34.3627" x2="80.9451" y2="18.8977" gradientUnits="userSpaceOnUse">
<stop stop-color="#FFA610"/>
<stop offset="0.35" stop-color="#FCB7BA"/>
<stop offset="0.41" stop-color="#E2ABC4"/>
<stop offset="0.56" stop-color="#AD93D8"/>
<stop offset="0.7" stop-color="#8380E9"/>
<stop offset="0.82" stop-color="#6572F5"/>
<stop offset="0.93" stop-color="#5369FC"/>
<stop offset="1" stop-color="#4D67FF"/>
</linearGradient>
<clipPath id="clip0_261_5689">
<rect width="80" height="63.622" fill="white"/>
</clipPath>
</defs>
</svg>
