<svg width="182" height="103" viewBox="0 0 182 103" fill="none" xmlns="http://www.w3.org/2000/svg">
<path d="M65.6711 101.077C65.1052 101.394 64.4498 101.553 63.6952 101.553C62.891 101.553 62.186 101.335 61.5704 100.898C60.9548 100.461 60.4683 99.8553 60.1307 99.0808C59.7832 98.3064 59.6144 97.4127 59.6144 96.4198C59.6144 95.4269 59.7832 94.6227 60.1208 93.8879C60.4583 93.1532 60.9151 92.5872 61.5108 92.1702C62.0966 91.7532 62.7818 91.5546 63.5463 91.5546C64.1122 91.5546 64.5988 91.6439 65.0059 91.8326L66.2768 93.6198H66.5449L67.6966 91.773C67.3988 91.5447 67.0314 91.3461 66.5846 91.1674C66.1378 90.9986 65.6612 90.8596 65.1647 90.7603C64.6683 90.661 64.1718 90.6113 63.6853 90.6113C62.8711 90.6113 62.1165 90.7702 61.4115 91.078C60.7165 91.3957 60.1009 91.8326 59.5747 92.3886C59.0484 92.9546 58.6314 93.6 58.3335 94.3546C58.0357 95.0993 57.8867 95.9035 57.8867 96.7674C57.8867 97.9489 58.125 98.9617 58.5917 99.8255C59.0583 100.689 59.7236 101.355 60.5874 101.821C61.4513 102.288 62.4739 102.526 63.6456 102.526C64.5392 102.526 65.3435 102.298 66.0683 101.841C66.7931 101.384 67.3888 100.739 67.8555 99.9049L67.2796 99.5773C66.7832 100.262 66.2569 100.759 65.691 101.077H65.6711Z" fill="#2B190F"/>
<path d="M71.7666 88.3189L75.3113 90.0665L75.5297 89.8381L72.9382 86.9189H72.9084L71.7666 88.2892V88.3189Z" fill="#2B190F"/>
<path d="M74.885 90.88H72.4723V91.1481L73.4354 92.0517L69.6723 101.028L68.5801 102.001V102.269H72.6113V102.001L71.0425 101.018L71.8467 98.724H76.5432L77.5063 101.018L75.9177 101.991V102.259H80.2269V101.991L79.1545 101.018L74.895 90.8701L74.885 90.88ZM72.1248 97.9098L73.9716 92.6276L76.1858 97.9098H72.1248Z" fill="#2B190F"/>
<path d="M98.8541 92.113L100.155 91.14V90.8818H98.0598H97.2158H96.7194L93.413 100.106L89.5108 90.8818H88.647H87.8626H86.5421V91.14L87.7931 92.113L86.9491 101.029L85.6484 102.002V102.27H89.4116V102.002L88.1108 101.029L88.5577 92.54L92.6782 102.27H93.2541L97.3548 92.54L98.0896 101.029L96.7889 102.002V102.27H100.909V102.002L99.6087 101.029L98.8541 92.113Z" fill="#2B190F"/>
<path d="M108.077 90.88H105.665V91.1481L106.628 92.0517L102.865 101.028L101.772 102.001V102.269H105.804V102.001L104.235 101.018L105.039 98.724H109.736L110.699 101.018L109.11 101.991V102.259H113.419V101.991L112.347 101.018L108.087 90.8701L108.077 90.88ZM105.317 97.9098L107.164 92.6276L109.378 97.9098H105.317Z" fill="#2B190F"/>
<path d="M120.867 91.1382L122.336 92.1808V97.4928C122.336 98.8928 122.098 99.9056 121.611 100.541C121.125 101.177 120.36 101.494 119.298 101.494C118.235 101.494 117.471 101.177 116.984 100.541C116.498 99.9056 116.259 98.8829 116.259 97.4928V92.1113L117.56 91.1382V90.8701H113.37V91.1382L114.671 92.1113V97.9396C114.671 99.4687 115.058 100.62 115.823 101.385C116.587 102.15 117.729 102.537 119.268 102.537C120.181 102.537 120.956 102.338 121.591 101.951C122.227 101.564 122.713 100.988 123.041 100.243C123.369 99.4985 123.537 98.585 123.537 97.5027V92.1907L124.838 91.1481V90.88H120.857V91.1481L120.867 91.1382Z" fill="#2B190F"/>
<path d="M161.825 56.833H160.782L154.904 75.3011L149.016 56.833H146.593H145.551H143.823V79.5805H146.593V60.0897L152.789 79.5805H153.544H156.264H156.314L161.825 62.2741V79.5805H165.29V56.833H163.552H161.825Z" fill="#2B190F"/>
<path d="M182 58.7592V56.833H173.421H169.956V58.7592V67.2387V69.1649V77.6443V79.5805H173.421H182V77.6443H173.421V69.1649H181.335V67.2387H173.421V58.7592H182Z" fill="#2B190F"/>
<path d="M129.286 56.4668C123.199 56.4668 118.265 61.7193 118.265 68.203C118.265 74.6866 123.199 79.9391 129.286 79.9391C135.372 79.9391 140.307 74.6866 140.307 68.203C140.307 61.7193 135.372 56.4668 129.286 56.4668ZM129.286 78.1618C125.245 78.1618 121.958 73.7037 121.958 68.203C121.958 62.7023 125.235 58.2441 129.286 58.2441C133.337 58.2441 136.614 62.7023 136.614 68.203C136.614 73.7037 133.337 78.1618 129.286 78.1618Z" fill="#2B190F"/>
<path d="M114.76 79.5805V69.3635V67.05V56.833H111.294V67.05H103.043V56.833H99.5781V67.05V69.3635V79.5805H103.043V69.3635H111.294V79.5805H114.76Z" fill="#2B190F"/>
<path d="M27.8908 56.833H25.2496L18.6865 79.5805H21.3277L23.1943 73.1068H31.1376L33.0042 79.5805H36.4695L29.9064 56.833H27.8709H27.8908ZM23.8596 70.7933L27.166 59.3252L30.4723 70.7933H23.8596Z" fill="#2B190F"/>
<path d="M11.7163 67.05H3.46525V56.833H0V67.05V69.3635V79.5805H3.46525V69.3635H11.7163V79.5805H15.1816V69.3635V67.05V56.833H11.7163V67.05Z" fill="#2B190F"/>
<path d="M90.8216 56.833H88.1705L83.0968 67.4472L78.023 56.833H74.5479L80.9521 70.2174V79.5805H84.4173V70.2174L90.8216 56.833Z" fill="#2B190F"/>
<path d="M46.8156 56.833H39.9844V79.5805H43.4496V72.4812H46.8156C51.1347 72.4812 54.6397 68.9763 54.6397 64.6571C54.6397 60.338 51.1347 56.833 46.8156 56.833ZM44.8 70.5451H43.4496V58.7592H44.8C48.3248 58.7592 51.1744 61.1323 51.1744 64.6571C51.1744 68.1819 48.3248 70.555 44.8 70.555V70.5451Z" fill="#2B190F"/>
<path d="M61.6098 72.4812H64.9757C69.2949 72.4812 72.7998 68.9763 72.7998 64.6571C72.7998 60.338 69.2949 56.833 64.9757 56.833H58.1445V79.5805H61.6098V72.4812ZM61.6098 58.7592H62.9601C66.485 58.7592 69.3346 61.1323 69.3346 64.6571C69.3346 68.1819 66.485 70.555 62.9601 70.555H61.6098V58.7692V58.7592Z" fill="#2B190F"/>
<path d="M69.8018 28.8241C67.8855 30.5617 66.704 32.9844 66.704 35.6752C66.704 40.9674 71.321 45.2567 77.0302 45.2567C78.1423 45.2567 79.2047 45.0979 80.2075 44.79C81.0713 44.5319 81.8756 44.1744 82.6203 43.7276C88.9947 39.6468 88.7068 28.7943 88.7068 28.7943V28.705C88.677 27.0766 88.4784 25.4979 88.1508 23.9688C89.7195 23.4326 91.3082 22.9461 92.8869 22.4397C93.8302 26.1234 95.6075 29.4397 97.9805 32.1503C98.6359 32.9049 99.3408 33.6099 100.086 34.2652C100.135 34.3149 100.205 34.3447 100.264 34.3546C100.433 34.3744 100.602 34.3943 100.781 34.3943C101.684 34.3943 102.488 34.0766 103.005 33.5702C103.154 33.4213 103.144 33.173 102.975 33.044C101.942 32.2099 100.979 31.2567 100.115 30.2142C98.0898 27.7617 96.5805 24.783 95.7564 21.4766C96.9578 21.0397 98.1394 20.573 99.3011 20.017C102.22 18.6269 105.407 16.7801 107.115 13.9206C107.642 13.0369 108.168 11.7262 107.87 10.6738C107.661 9.92907 104.653 10.7532 104.861 11.478C105.1 12.3121 104.802 13.1461 104.405 13.9404C103.084 16.6113 100.125 18.2993 97.5437 19.5305C96.8784 19.8482 96.2032 20.1362 95.5281 20.4142C95.2898 19.2028 95.1309 17.9617 95.0812 16.6808C95.0713 16.373 95.0614 16.0553 95.0614 15.7376C95.0614 15.6383 95.0614 15.539 95.0614 15.4397C95.0614 15.2709 95.0614 15.112 95.0713 14.9532C95.1011 14.1092 95.1706 13.2652 95.2798 12.4511C95.4089 11.5078 95.5976 10.5943 95.8259 9.7007C95.9649 9.14468 96.1238 8.62836 96.2926 8.15177C96.4515 7.6851 96.6203 7.22836 96.8089 6.78156C96.8288 6.73191 96.8586 6.69219 96.8784 6.64255C97.9507 4.13049 100.085 2.30354 102.617 1.92624C102.945 1.87659 103.273 1.84681 103.61 1.84681C107.741 1.84681 111.087 5.62978 111.087 10.2964C111.087 12.2624 110.491 14.0695 109.498 15.4993C109.071 16.1149 108.575 16.661 108.019 17.1177C107.84 17.2667 107.85 17.5347 108.029 17.6837C108.257 17.8624 108.485 18.0411 108.704 18.2298C111.822 20.9106 113.807 24.912 113.807 29.3901C113.807 32.1305 113.063 34.6922 111.772 36.8766C111.276 37.7106 110.71 38.495 110.064 39.2198C107.423 42.1688 103.62 44.0156 99.3905 44.0156C97.4146 44.0156 95.538 43.6085 93.8203 42.8837C92.9763 42.5262 92.172 42.0893 91.4274 41.583C91.3876 41.5532 91.3479 41.5432 91.2983 41.5432C91.2685 41.5432 91.2387 41.5432 91.2089 41.5432C90.2061 41.5432 89.3323 41.9404 88.8259 42.5361C88.7266 42.6553 88.7564 42.834 88.8855 42.9135C90.3153 43.7475 91.8841 44.4028 93.5422 44.8397C95.1408 45.2666 96.8387 45.495 98.5862 45.495C104.166 45.495 109.161 43.1915 112.487 39.5574C113.202 38.773 113.847 37.9291 114.393 37.0354C115.893 34.6127 116.746 31.8127 116.746 28.834C116.746 24.0284 114.532 19.6993 110.988 16.661C112.904 14.9234 114.085 12.5007 114.085 9.80992C114.085 4.51773 109.468 0.228369 103.759 0.228369C102.647 0.228369 101.585 0.387234 100.582 0.695035C99.7181 0.953191 98.9139 1.31064 98.1692 1.75745C91.7947 5.83829 92.0827 16.6908 92.0827 16.6908V16.7801C92.1125 18.3886 92.3011 19.9574 92.6288 21.4667C91.06 21.9929 89.4713 22.4794 87.8926 22.9957C86.9394 19.3418 85.182 16.0454 82.8188 13.3447C82.1635 12.5901 81.4586 11.8851 80.7139 11.2298C80.6642 11.1801 80.5947 11.1503 80.5352 11.1404C80.3664 11.1206 80.1976 11.1007 80.0188 11.1007C79.1153 11.1007 78.311 11.4184 77.7947 11.9248C77.6458 12.0738 77.6557 12.322 77.8245 12.4511C78.8571 13.2851 79.8203 14.2383 80.6841 15.2808C82.6997 17.7135 84.2089 20.6823 85.033 23.9688C83.5933 24.505 82.1735 25.1007 80.7933 25.8156C78.0132 27.2752 75.0245 29.2213 73.555 32.1205C73.0685 33.0837 72.6316 34.444 72.9493 35.5362C73.1678 36.2808 76.1763 35.4567 75.9579 34.7319C75.6997 33.8482 75.9579 32.9745 76.2954 32.1305C77.3976 29.4397 80.0685 27.6128 82.5408 26.312C83.4344 25.8454 84.338 25.4383 85.2614 25.0511C85.5096 26.2723 85.6586 27.5333 85.7082 28.8142C85.7181 29.122 85.7281 29.4397 85.7281 29.7574C85.7281 29.8567 85.7281 29.956 85.7281 30.0553C85.7281 30.2241 85.7281 30.383 85.7181 30.5418C85.6883 31.3858 85.6188 32.2298 85.5096 33.044C85.3805 33.9872 85.1919 34.9007 84.9635 35.7943C84.8245 36.3503 84.6656 36.8666 84.4969 37.3432C84.338 37.8099 84.1692 38.2666 83.9805 38.7135C83.9607 38.7631 83.9309 38.8028 83.911 38.8525C82.8387 41.3645 80.704 43.1915 78.172 43.5688C77.8444 43.6184 77.5167 43.6482 77.1791 43.6482C73.0486 43.6482 69.7025 39.8652 69.7025 35.1986C69.7025 33.2326 70.2983 31.4255 71.2912 29.9957C71.7181 29.3801 72.2146 28.834 72.7706 28.3773C72.9493 28.2284 72.9394 27.9603 72.7607 27.8113C72.5323 27.6326 72.304 27.4539 72.0855 27.2652C68.9678 24.5844 66.982 20.583 66.982 16.105C66.982 13.3645 67.7267 10.8028 69.0174 8.61844C69.5139 7.78439 70.0798 7 70.7252 6.27517C73.3664 3.32624 77.1692 1.47943 81.399 1.47943C83.3749 1.47943 85.2515 1.88652 86.9692 2.61135C87.8132 2.96879 88.6174 3.40567 89.3621 3.91205C89.4018 3.94184 89.4415 3.95177 89.4912 3.95177C89.521 3.95177 89.5508 3.95177 89.5805 3.95177C90.5834 3.95177 91.4571 3.55461 91.9635 2.95886C92.0628 2.83971 92.033 2.66099 91.9039 2.58156C90.4742 1.74752 88.9054 1.0922 87.2472 0.655319C85.6486 0.228369 83.9508 0 82.2032 0C76.6231 0 71.6288 2.30354 68.3025 5.93759C67.5876 6.72198 66.9423 7.56595 66.3962 8.45957C64.8969 10.8823 64.043 13.6823 64.043 16.661C64.043 21.4667 66.2572 25.7957 69.8018 28.834V28.8241Z" fill="#2B190F"/>
</svg>
