<svg width="182" height="64" viewBox="0 0 182 64" fill="none" xmlns="http://www.w3.org/2000/svg">
<path d="M69.1789 15.8088H72.6357C73.2615 15.8088 73.7383 15.8982 74.0661 16.0621C74.3938 16.226 74.6322 16.4495 74.7514 16.7475C74.8855 17.0306 74.9451 17.3882 74.9451 17.8203V19.7721C74.9451 20.1893 74.9749 20.5767 75.0196 20.9045C75.0643 21.2323 75.1388 21.5005 75.2282 21.6942H79.3405C79.1916 21.3664 79.1022 21.0386 79.0724 20.7108C79.0426 20.383 79.0426 20.0701 79.0426 19.7721V17.12C79.0426 16.4942 78.9532 15.9727 78.7595 15.5406C78.5658 15.1085 78.2827 14.7509 77.8804 14.4827C77.493 14.2145 76.9715 14.0209 76.3159 13.9166V13.7527C77.2546 13.5143 77.9996 13.0375 78.5509 12.3372C79.1022 11.6369 79.3852 10.7727 79.3852 9.75953C79.3852 9.13375 79.2958 8.58246 79.1171 8.09077C78.9383 7.59908 78.6999 7.16699 78.3721 6.79449C78.0592 6.422 77.6718 6.12401 77.2099 5.87071C76.7629 5.63232 76.2414 5.45352 75.6752 5.31942C75.109 5.20022 74.4981 5.14062 73.8277 5.14062H65.1113V21.6942H69.1789V15.8088ZM72.8443 8.47816C73.187 8.47816 73.5148 8.52286 73.7979 8.59736C74.0809 8.67186 74.3342 8.79105 74.5428 8.95495C74.7514 9.11885 74.9153 9.31254 75.0345 9.56584C75.1537 9.81913 75.1984 10.132 75.1984 10.5045C75.1984 11.1005 75.0196 11.5922 74.662 12.0094C74.3044 12.4117 73.6936 12.6203 72.8294 12.6203H69.1789V8.49306H72.8294L72.8443 8.47816Z" fill="black"/>
<path d="M85.8079 7.36133H81.7402V21.6948H85.8079V7.36133Z" fill="black"/>
<path d="M101.378 14.273C101.05 13.6323 100.618 13.1407 100.067 12.7682C99.5153 12.4106 98.9044 12.1275 98.2489 11.9487C97.5933 11.7699 96.9228 11.6209 96.2374 11.5166C95.2242 11.3676 94.4494 11.2186 93.8981 11.0696C93.3468 10.9206 92.9744 10.7269 92.7807 10.5183C92.5721 10.2948 92.4678 9.99682 92.4678 9.62432C92.4678 9.25183 92.5572 8.93894 92.7509 8.70054C92.9446 8.46215 93.2127 8.28335 93.5554 8.16415C93.8981 8.04495 94.3153 7.98536 94.7772 7.98536C95.1944 7.98536 95.5967 8.04495 95.9841 8.16415C96.3566 8.28335 96.6695 8.49195 96.9079 8.76014C97.1463 9.04323 97.2655 9.41573 97.2804 9.87762H101.393C101.378 8.89424 101.11 8.03005 100.573 7.28507C100.037 6.54008 99.2918 5.959 98.3233 5.5418C97.3549 5.12461 96.2076 4.91602 94.8964 4.91602C93.5852 4.91602 92.3337 5.12461 91.3354 5.5418C90.3371 5.959 89.5772 6.55498 89.0408 7.32977C88.5044 8.10455 88.2362 9.04323 88.2362 10.116C88.2362 10.8461 88.3554 11.4719 88.5938 12.0232C88.8322 12.5745 89.2047 13.0364 89.6815 13.4237C90.1732 13.8111 90.7692 14.1538 91.4993 14.4071C92.2294 14.6753 93.0637 14.8839 94.0173 15.0329C94.7325 15.1372 95.3136 15.2415 95.7904 15.3458C96.2523 15.4501 96.6248 15.5693 96.893 15.7034C97.1612 15.8375 97.34 16.0014 97.4592 16.21C97.5784 16.4037 97.6231 16.657 97.6231 16.9848C97.6231 17.402 97.5188 17.7596 97.3102 18.0129C97.1016 18.2811 96.8036 18.4747 96.4162 18.5939C96.0288 18.7131 95.5669 18.7727 95.0454 18.7727C94.3302 18.7727 93.764 18.6684 93.317 18.4747C92.885 18.2811 92.5572 18.0129 92.3337 17.6553C92.1251 17.3126 92.0208 16.8954 92.0208 16.4335H87.8936C87.8936 17.5063 88.1617 18.4598 88.6981 19.2793C89.2345 20.0988 90.0242 20.7395 91.0672 21.2014C92.1102 21.6484 93.3766 21.8868 94.8964 21.8868C96.4162 21.8868 97.7274 21.6633 98.7554 21.2312C99.7835 20.7991 100.558 20.1882 101.08 19.3985C101.601 18.6237 101.869 17.7149 101.869 16.7017C101.869 15.6885 101.706 14.869 101.378 14.2283V14.273Z" fill="black"/>
<path d="M116.307 18.2226H108.037V14.9297H115.1V11.6816H108.037V8.61226H116.232V5.14062H103.97V21.6942H116.307V18.2226Z" fill="black"/>
<path d="M76.2719 42.1207C77.1659 41.778 77.8513 41.2416 78.3281 40.5264C78.8049 39.8112 79.0433 38.9322 79.0433 37.8743C79.0433 37.2336 78.9241 36.6525 78.6857 36.131C78.4473 35.6095 78.0897 35.1625 77.6129 34.8198C77.1212 34.4623 76.4954 34.2239 75.7206 34.1047L75.7504 33.9408C76.3464 33.8067 76.853 33.5683 77.2702 33.2405C77.6874 32.9127 78.0301 32.4955 78.2536 32.0187C78.492 31.527 78.6112 30.9757 78.6112 30.3648C78.6112 29.0835 78.194 28.0405 77.3447 27.2657C76.4954 26.4909 75.2141 26.1035 73.5006 26.1035H65.127V42.6571H72.9791C74.2754 42.6571 75.378 42.4783 76.2719 42.1356V42.1207ZM72.3682 29.1729C73.0238 29.1729 73.5304 29.307 73.9178 29.59C74.3052 29.8731 74.4989 30.3052 74.4989 30.9012C74.4989 31.2588 74.4244 31.5717 74.2903 31.8399C74.1413 32.1081 73.9178 32.3167 73.6198 32.4657C73.3218 32.6147 72.9195 32.6892 72.4427 32.6892H69.0754V29.1729H72.3682ZM69.0754 39.5579V35.6691H72.6215C73.3218 35.6691 73.8731 35.8181 74.2903 36.131C74.7075 36.4439 74.9161 36.9356 74.9161 37.621C74.9161 38.2021 74.7373 38.664 74.3648 39.0216C73.9923 39.3792 73.3814 39.5579 72.5172 39.5579H69.0903H69.0754Z" fill="black"/>
<path d="M85.5544 42.6434H89.6221V36.4451L95.7756 26.0898H91.1716L88.9814 30.2469L87.6404 32.899H87.4914L86.1951 30.2469L84.0645 26.0898H79.4307L85.5544 36.4451V42.6434Z" fill="black"/>
<path d="M116.695 42.6434V26.0898H112.627V32.4967H105.579V26.0898H101.512V42.6434H105.579V35.9683H112.627V42.6434H116.695Z" fill="black"/>
<path d="M123.802 26.0898L118.468 42.6434H122.714L123.638 39.4698H129.747L130.671 42.6434H134.917L129.583 26.0898H123.787H123.802ZM124.547 36.3557L126.022 31.2898L126.618 29.1592H126.782L127.378 31.2898L128.853 36.3557H124.562H124.547Z" fill="black"/>
<path d="M147.179 26.7752C146.225 26.3133 145.048 26.0898 143.618 26.0898H136.689V42.6434H140.757V37.1901H143.618C144.884 37.1901 146.002 36.9666 146.955 36.5345C147.909 36.1024 148.654 35.4618 149.19 34.6274C149.727 33.793 149.995 32.7947 149.995 31.6027C149.995 30.5002 149.756 29.5317 149.295 28.7122C148.818 27.8927 148.118 27.2371 147.179 26.7752ZM145.257 33.4056C144.854 33.8377 144.199 34.0612 143.29 34.0612H140.772V29.5168H143.29C144.05 29.5168 144.661 29.6956 145.138 30.0383C145.614 30.381 145.853 30.9471 145.853 31.7368C145.853 32.4073 145.659 32.9586 145.257 33.3907V33.4056Z" fill="black"/>
<path d="M162.511 26.7752C161.557 26.3133 160.38 26.0898 158.95 26.0898H152.021V42.6434H156.089V37.1901H158.95C160.216 37.1901 161.334 36.9666 162.287 36.5345C163.241 36.1024 163.986 35.4618 164.522 34.6274C165.059 33.793 165.327 32.7947 165.327 31.6027C165.327 30.5002 165.089 29.5317 164.627 28.7122C164.15 27.8927 163.45 27.2371 162.511 26.7752ZM160.574 33.4056C160.172 33.8377 159.516 34.0612 158.607 34.0612H156.089V29.5168H158.607C159.367 29.5168 159.978 29.6956 160.455 30.0383C160.932 30.381 161.17 30.9471 161.17 31.7368C161.17 32.4073 160.976 32.9586 160.574 33.3907V33.4056Z" fill="black"/>
<path d="M177.396 26.0898L175.221 30.2469L173.88 32.899H173.716L172.42 30.2469L170.289 26.0898H165.655L171.794 36.4451V42.6434H175.847V36.4451L182 26.0898H177.396Z" fill="black"/>
<path d="M76.2421 53.4301H69.1797V47.0381H65.127V63.5917H69.1797V56.9166H76.2421V63.5917H80.3098V47.0381H76.2421V53.4301Z" fill="black"/>
<path d="M96.952 49.0345C96.207 48.3044 95.3279 47.7531 94.2998 47.3806C93.2718 47.0081 92.1245 46.8145 90.8729 46.8145C89.6213 46.8145 88.4592 47.0081 87.4311 47.3806C86.403 47.7531 85.5239 48.3044 84.7789 49.0196C84.0339 49.7348 83.4678 50.6288 83.0804 51.6718C82.693 52.7296 82.4844 53.9365 82.4844 55.2924C82.4844 56.6483 82.6781 57.87 83.0804 58.9279C83.4678 59.9858 84.0488 60.8798 84.7789 61.595C85.5239 62.3101 86.403 62.8614 87.4311 63.2339C88.4592 63.6064 89.6064 63.8001 90.8729 63.8001C92.1394 63.8001 93.2718 63.6064 94.2998 63.2339C95.3279 62.8614 96.2219 62.3101 96.952 61.595C97.697 60.8798 98.2632 59.9858 98.6506 58.9279C99.0379 57.87 99.2465 56.6632 99.2465 55.2924C99.2465 53.9216 99.0528 52.7296 98.6506 51.6867C98.2632 50.6437 97.6821 49.7497 96.952 49.0345ZM94.5531 58.1382C94.2104 58.8832 93.7188 59.4345 93.093 59.7921C92.4523 60.1497 91.7222 60.3434 90.8729 60.3434C90.2322 60.3434 89.666 60.2391 89.1445 60.0454C88.6231 59.8517 88.191 59.5388 87.8334 59.1365C87.4758 58.7342 87.1927 58.1978 86.9841 57.5571C86.7755 56.9165 86.6712 56.1566 86.6712 55.2924C86.6712 54.1451 86.85 53.1915 87.1927 52.4465C87.5354 51.7016 88.0271 51.1503 88.6529 50.8076C89.2786 50.45 90.0236 50.2712 90.8729 50.2712C91.5136 50.2712 92.0798 50.3755 92.6013 50.5841C93.1228 50.7927 93.5549 51.0907 93.9274 51.5079C94.2998 51.9102 94.5829 52.4316 94.7766 53.0574C94.9703 53.6832 95.0746 54.4282 95.0746 55.2924C95.0746 56.4397 94.9107 57.3932 94.568 58.1382H94.5531Z" fill="black"/>
<path d="M111.375 53.6387L110.555 57.7808H110.377L109.557 53.6387L107.814 47.0381H101.422V63.5917H105.4V56.2014L105.311 50.8524H105.49L106.726 55.7693L108.782 63.5917H112.15L114.206 55.8438L115.443 50.8524H115.621L115.502 56.1865V63.5917H119.465V47.0381H113.103L111.375 53.6387Z" fill="black"/>
<path d="M126.424 56.8272H133.486V53.5791H126.424V50.5097H134.634V47.0381H122.371V63.5917H134.693V60.12H126.424V56.8272Z" fill="black"/>
<path d="M83.7812 6.01948C85.4435 6.01948 86.791 4.67198 86.791 3.00974C86.791 1.34751 85.4435 0 83.7812 0C82.119 0 80.7715 1.34751 80.7715 3.00974C80.7715 4.67198 82.119 6.01948 83.7812 6.01948Z" fill="black"/>
<path d="M56.5889 33.5095C57.7808 31.215 58.4364 28.7118 58.4364 26.1044C58.4364 23.4969 57.7808 21.0087 56.5889 18.6992V33.4946V33.5095Z" fill="black"/>
<path d="M55.2034 26.1045C55.2034 20.6363 53.5048 15.5853 50.5994 11.4134V17.6415C49.5415 14.9893 47.992 12.5756 46.055 10.5194V13.3057C42.2258 8.32916 36.2063 5.14062 29.4418 5.14062H0V63.5773H16.6281V47.0684H22.4986L34.9249 63.5773H53.4304L39.1862 44.6695C41.898 43.2243 44.2372 41.2426 46.055 38.8736V41.6896C47.9771 39.6334 49.5266 37.2197 50.5994 34.5675V40.7956C53.49 36.6237 55.2034 31.5578 55.2034 26.1045ZM25.2103 36.6237C19.3994 36.6237 14.6911 31.9154 14.6911 26.1045C14.6911 20.2936 19.3994 15.5853 25.2103 15.5853C31.0212 15.5853 35.7295 20.2936 35.7295 26.1045C35.7295 31.9154 31.0212 36.6237 25.2103 36.6237Z" fill="black"/>
</svg>
